<?xml version="1.0" encoding="UTF-8"?>
<svg id="Layer_2" data-name="Layer 2" xmlns="http://www.w3.org/2000/svg" viewBox="0 0 114.55 45">
  <defs>
    <style>
      .cls-1 {
        fill: #fff;
      }

      .cls-2 {
        fill: #063;
      }

      .cls-3 {
        fill: #d21034;
      }
    </style>
  </defs>
  <g id="Layer_1-2" data-name="Layer 1">
    <path class="cls-1" d="M57.27,0h57.27v45h-57.27V0Z"/>
    <path class="cls-2" d="M0,0h57.27v45H0V0Z"/>
    <g>
      <path class="cls-3" d="M54.36,29.53c-3.88-3.11-4.51-8.77-1.4-12.65,3.11-3.88,8.77-4.51,12.65-1.4.52.41.99.88,1.4,1.4-3.11-5.38-9.99-7.22-15.37-4.12-5.38,3.11-7.22,9.99-4.12,15.37,3.11,5.38,9.99,7.22,15.37,4.12,1.71-.99,3.13-2.41,4.12-4.12-3.11,3.88-8.77,4.51-12.65,1.4Z"/>
      <polygon class="cls-3" points="61.16 24.54 63.56 27.85 63.56 23.76 67.45 22.5 63.56 21.24 63.56 17.15 61.16 20.46 57.27 19.19 59.67 22.5 57.27 25.81 61.16 24.54"/>
    </g>
  </g>
</svg>