<?xml version="1.0" encoding="UTF-8"?>
<svg id="Layer_2" data-name="Layer 2" xmlns="http://www.w3.org/2000/svg" viewBox="0 0 114.55 45">
  <defs>
    <style>
      .cls-1 {
        fill: #74acdf;
      }

      .cls-2 {
        fill: #f6b40e;
      }

      .cls-3 {
        fill: #fff;
      }

      .cls-4 {
        fill: #85340a;
      }

      .cls-5 {
        fill: #843511;
      }
    </style>
  </defs>
  <g id="Layer_1-2" data-name="Layer 1">
    <rect class="cls-1" width="114.55" height="45"/>
    <rect class="cls-3" y="15" width="114.55" height="15"/>
    <g id="rays">
      <g>
        <path id="ray1" class="cls-2" d="M56.99,22.62l2.56,5.58s.04.11.12.08c.07-.03.03-.14.03-.14l-2.13-5.76M57.5,24.55c-.03.85.49,1.32.42,2.07-.07.76.35,1.19.44,1.48.1.29-.1.47-.02.51.09.04.28-.19.21-.61-.06-.42-.38-.54-.31-1.47.07-.93-.38-1.14-.27-1.99"/>
        <path class="cls-4" d="M58.37,28.67s-.03,0-.04,0c-.08-.04-.05-.12-.03-.18.03-.09.07-.2.02-.36-.02-.07-.07-.16-.13-.26-.16-.28-.37-.67-.32-1.24.03-.37-.08-.67-.2-.98-.12-.32-.24-.65-.23-1.09h.1c-.02.42.1.74.22,1.05.12.33.24.64.2,1.03-.05.54.16.91.31,1.18.06.11.11.2.14.28.06.19.01.33-.02.42,0,.02-.01.04-.02.06,0,0,.02,0,.03-.02.06-.06.15-.24.1-.53-.02-.13-.07-.24-.12-.35-.11-.24-.23-.5-.18-1.13.04-.45-.06-.73-.14-1-.08-.23-.15-.46-.14-.77l-.98-2.13.09-.04.9,1.96s0,0,0-.01h.1c0,.08-.01.14-.02.2l1.57,3.43s.03.06.05.05c0,0,.01,0,0-.03,0-.02,0-.04,0-.04l-2.13-5.76.09-.03,2.13,5.76s.01.03.02.07c0,.06-.02.11-.07.13-.08.03-.15-.03-.18-.1l-1.47-3.21c.02.18.07.34.13.5.09.28.19.57.15,1.04-.05.6.07.85.17,1.08.06.12.11.23.13.38.05.33-.05.56-.16.64-.03.02-.06.03-.08.03Z"/>
      </g>
      <g>
        <path id="ray1-2" data-name="ray1" class="cls-2" d="M56.96,22.5l.23,6.13s0,.12.08.12c.08,0,.08-.12.08-.12l.23-6.13M56.69,24.48c-.35.77-.05,1.4-.4,2.08-.35.67-.13,1.23-.16,1.54-.02.31-.28.4-.21.47.06.07.33-.07.43-.48.1-.41-.14-.65.28-1.47.42-.83.09-1.2.51-1.94"/>
        <path class="cls-4" d="M57.27,28.8h0c-.05,0-.1-.03-.11-.09-.01-.04-.01-.07-.01-.07l-.13-3.53c-.05.18-.06.34-.08.51-.02.29-.05.6-.26,1.02-.27.53-.26.81-.25,1.06,0,.13.01.26-.03.4-.08.32-.26.5-.39.53-.07.02-.11-.01-.13-.03-.06-.06,0-.13.05-.18.06-.07.14-.16.15-.33,0-.08,0-.18-.02-.29-.04-.32-.09-.76.18-1.27.17-.33.18-.65.2-.98.01-.34.03-.7.21-1.09l.09.04c-.17.38-.18.72-.2,1.05-.01.35-.02.68-.21,1.03-.25.48-.2.9-.17,1.21.01.12.03.22.02.31-.01.2-.11.31-.18.38-.01.02-.03.03-.04.05,0,0,.02,0,.04,0,.08-.03.23-.16.3-.45.03-.13.03-.24.02-.37-.01-.26-.02-.55.26-1.11.21-.4.23-.69.25-.98.02-.25.04-.48.16-.77l-.09-2.34h.1s.08,2.16.08,2.16c0,0,0,0,0,0l.09.05c-.03.06-.06.11-.08.16l.14,3.77s0,.07.03.07h0s.03-.06.03-.07l.23-6.14h.1s-.23,6.14-.23,6.14c0,0,0,.04-.01.07-.02.06-.06.09-.11.09Z"/>
      </g>
      <g>
        <path id="ray1-3" data-name="ray1" class="cls-2" d="M56.99,22.38l-2.13,5.76s-.04.11.03.14c.07.03.12-.08.12-.08l2.56-5.58M55.98,24.11c-.62.58-.58,1.28-1.17,1.76-.58.49-.59,1.08-.73,1.36-.14.28-.41.26-.38.35.03.09.33.06.58-.28.25-.34.12-.65.82-1.25.71-.6.54-1.07,1.21-1.59"/>
        <path class="cls-4" d="M54.91,28.33s-.03,0-.04,0c-.08-.03-.08-.13-.05-.2l1.23-3.31c-.11.15-.19.29-.26.44-.13.26-.27.53-.63.84-.46.39-.55.65-.64.88-.05.12-.09.24-.18.36-.2.26-.43.36-.57.34-.07-.01-.1-.05-.1-.07-.03-.08.05-.12.11-.15.08-.04.19-.1.27-.24.04-.07.06-.17.1-.28.09-.31.21-.73.65-1.1.28-.24.42-.53.56-.83.14-.31.29-.63.61-.93l.07.07c-.3.28-.45.59-.59.9-.15.32-.28.62-.58.87-.41.35-.53.75-.62,1.05-.03.12-.06.22-.1.29-.09.18-.22.24-.31.29-.02,0-.04.02-.05.03,0,0,.02,0,.04,0,.08,0,.27-.06.45-.3.08-.11.12-.21.16-.34.09-.24.19-.52.67-.93.34-.29.48-.55.6-.81.11-.22.22-.43.45-.65l.81-2.19.09.03-.75,2.03s0,0,0,0l.06.08c-.05.04-.1.08-.14.12l-1.31,3.54s-.02.06,0,.07c.02,0,.05-.04.05-.05l2.56-5.58.09.04-2.56,5.58s-.03.08-.09.1c-.01,0-.03,0-.04,0Z"/>
      </g>
      <g>
        <path id="ray1-4" data-name="ray1" class="cls-2" d="M57.05,22.28l-4.17,4.5s-.08.08-.03.14c.05.05.14-.03.14-.03l4.5-4.17M55.46,23.49c-.8.3-1.03.96-1.75,1.18-.73.23-.96.78-1.2.98-.24.2-.48.08-.48.18,0,.1.28.18.65-.04.36-.22.36-.56,1.24-.84.88-.29.91-.79,1.73-1.01"/>
        <path class="cls-4" d="M52.9,26.99h0s-.06-.01-.08-.03c-.06-.06-.03-.15.03-.21l2.4-2.59c-.16.09-.29.2-.41.31-.22.19-.45.39-.9.53-.57.18-.76.39-.93.57-.09.1-.17.19-.3.27-.28.17-.54.17-.65.1-.06-.04-.07-.08-.07-.11,0-.08.09-.09.16-.09.09,0,.21-.01.34-.12.06-.05.12-.13.19-.22.2-.25.48-.6,1.02-.77.35-.11.59-.33.83-.56.25-.23.51-.48.92-.63l.03.09c-.39.14-.64.38-.88.61-.26.24-.5.46-.87.58-.52.16-.78.49-.97.74-.07.09-.14.17-.21.23-.15.13-.3.14-.4.14-.02,0-.05,0-.06,0,0,0,.01.01.03.02.08.03.27.05.53-.11.12-.07.19-.15.28-.25.18-.19.37-.41.97-.6.43-.14.65-.33.87-.51.19-.16.37-.31.66-.43l1.59-1.72.07.07-1.47,1.58s0,0,.01,0l.03.1c-.06.02-.12.04-.18.06l-2.57,2.77s-.04.05-.03.07c0,0,0,0,0,0,.02,0,.05-.02.06-.03l4.5-4.18.07.07-4.5,4.17s-.06.06-.13.06Z"/>
      </g>
      <path id="ray2" class="cls-4" d="M57.66,24.7c.04.81.5,1.18.41,1.92.2-.59-.28-1.04-.25-1.91M57.13,22.57l1.75,3.83-1.47-3.95"/>
      <path id="ray2-2" data-name="ray2" class="cls-4" d="M56.79,24.68c-.27.77.01,1.28-.35,1.93.41-.47.14-1.07.5-1.86M57.12,22.51l.15,4.21.15-4.21"/>
      <path id="ray2-3" data-name="ray2" class="cls-4" d="M55.99,24.33c-.55.61-.48,1.19-1.07,1.65.56-.27.54-.94,1.17-1.53M57.12,22.45l-1.47,3.95,1.75-3.83"/>
      <path id="ray2-4" data-name="ray2" class="cls-4" d="M55.39,23.7c-.74.35-.89.91-1.61,1.11.62-.04.86-.66,1.67-.97M57.16,22.39l-2.87,3.09,3.09-2.87"/>
    </g>
    <g id="rays-2" data-name="rays">
      <g>
        <path id="ray1-5" data-name="ray1" class="cls-2" d="M57.15,22.22l-5.58,2.56s-.11.04-.08.12c.03.07.14.03.14.03l5.76-2.13M55.22,22.72c-.85-.03-1.32.49-2.07.42-.76-.07-1.19.35-1.48.44-.29.1-.47-.1-.51-.02-.04.09.19.28.61.21.42-.06.54-.38,1.47-.31.93.07,1.14-.38,1.99-.27"/>
        <path class="cls-4" d="M51.57,24.98s-.04,0-.05,0c-.03-.01-.05-.03-.06-.06-.03-.08.03-.15.1-.18l3.21-1.47c-.18.02-.34.07-.5.13-.28.09-.57.19-1.04.15-.6-.05-.85.07-1.08.17-.12.06-.23.11-.38.13-.33.05-.56-.05-.64-.16-.04-.06-.03-.1-.02-.13.04-.08.12-.05.18-.03.09.03.2.07.36.02.07-.02.16-.07.26-.13.28-.16.67-.37,1.24-.32.37.03.67-.08.98-.2.32-.12.65-.24,1.09-.23v.1c-.42-.01-.74.1-1.05.22-.33.12-.64.24-1.03.2-.54-.05-.91.16-1.18.31-.11.06-.2.11-.28.14-.19.06-.33.01-.42-.02-.02,0-.04-.01-.06-.02,0,0,0,.02.02.03.06.06.24.15.53.1.13-.02.24-.07.35-.12.24-.11.5-.23,1.13-.18.45.04.73-.06,1-.14.23-.08.46-.15.77-.14l2.13-.98.04.09-1.96.9s0,0,.01,0v.1c-.08,0-.14-.01-.2-.02l-3.43,1.57s-.06.03-.05.05c0,.02.06,0,.07,0l5.76-2.13.03.09-5.76,2.13s-.04.02-.08.02Z"/>
      </g>
      <g>
        <path id="ray1-6" data-name="ray1" class="cls-2" d="M57.27,22.19l-6.13.23s-.12,0-.12.08c0,.08.12.08.12.08l6.13.23M55.29,21.92c-.77-.35-1.4-.05-2.08-.4-.67-.35-1.23-.13-1.54-.16-.31-.02-.4-.28-.47-.21-.07.06.07.33.48.43.41.1.65-.14,1.47.28.83.42,1.2.09,1.94.51"/>
        <path class="cls-4" d="M57.27,22.86l-6.13-.23s-.04,0-.07-.01c-.06-.02-.09-.06-.09-.11,0-.09.09-.13.17-.13h0l3.53-.13c-.18-.05-.34-.06-.51-.07-.29-.02-.6-.05-1.02-.26-.53-.27-.81-.26-1.06-.25-.13,0-.26.01-.4-.03-.32-.08-.5-.26-.53-.39-.02-.07.01-.11.03-.13.06-.06.13,0,.18.05.07.06.16.14.33.15.08,0,.18,0,.29-.02.32-.04.76-.09,1.27.18.33.17.65.18.98.2.34.01.7.03,1.09.21l-.04.09c-.38-.17-.72-.18-1.05-.2-.35-.01-.68-.02-1.03-.21-.48-.25-.9-.2-1.21-.17-.12.01-.22.02-.31.02-.2-.01-.31-.11-.38-.18-.02-.01-.03-.03-.05-.04,0,0,0,.02,0,.04.03.08.16.23.45.3.13.03.24.03.37.02.26-.01.55-.02,1.11.26.4.21.69.23.98.25.25.02.48.04.77.16l2.34-.09v.1s-2.16.08-2.16.08c0,0,0,0,0,0l-.05.09c-.06-.03-.11-.06-.16-.08l-3.77.14s-.07,0-.07.03c0,.02.06.03.07.03l6.14.23v.1Z"/>
      </g>
      <g>
        <path id="ray1-7" data-name="ray1" class="cls-2" d="M57.39,22.22l-5.76-2.13s-.11-.04-.14.03c-.03.07.08.12.08.12l5.58,2.56M55.66,21.21c-.58-.62-1.28-.58-1.76-1.17-.49-.58-1.08-.59-1.36-.73-.28-.14-.26-.41-.35-.38-.09.03-.06.33.28.58.34.25.65.12,1.25.82.6.71,1.07.54,1.59,1.21"/>
        <path class="cls-4" d="M57.13,22.83l-5.58-2.56s-.08-.03-.1-.09c-.01-.03-.01-.06,0-.09.03-.08.13-.08.2-.05l3.31,1.23c-.15-.11-.29-.19-.44-.26-.26-.13-.53-.27-.84-.63-.39-.46-.65-.55-.88-.64-.12-.05-.24-.09-.36-.18-.26-.2-.36-.43-.34-.57.01-.07.05-.1.07-.1.08-.03.12.05.15.11.04.08.1.19.24.27.07.04.17.06.28.1.31.09.73.21,1.1.65.24.28.53.42.83.56.31.14.63.29.93.61l-.07.07c-.28-.3-.59-.45-.9-.59-.32-.15-.62-.28-.87-.58-.35-.41-.75-.53-1.05-.62-.12-.03-.22-.06-.29-.1-.18-.09-.24-.22-.29-.31,0-.02-.02-.04-.03-.05,0,0,0,.02,0,.04,0,.08.06.27.3.45.11.08.21.12.34.16.24.09.52.19.93.67.29.34.55.48.81.6.22.11.43.22.65.45l2.19.81-.03.09-2.03-.75s0,0,0,0l-.08.06c-.04-.05-.08-.1-.12-.14l-3.54-1.31s-.06-.02-.07,0c0,.02.04.05.05.05l5.58,2.56-.04.09Z"/>
      </g>
      <g>
        <path id="ray1-8" data-name="ray1" class="cls-2" d="M57.49,22.28l-4.5-4.17s-.08-.08-.14-.03c-.05.05.03.14.03.14l4.17,4.5M56.28,20.69c-.3-.8-.96-1.03-1.18-1.75-.23-.73-.78-.96-.98-1.2-.2-.24-.08-.48-.18-.48-.1,0-.18.28.04.65.22.36.56.36.84,1.24.29.88.79.91,1.01,1.73"/>
        <path class="cls-4" d="M57.02,22.75l-4.17-4.5s-.03-.03-.04-.06c-.03-.06-.02-.11.02-.15.06-.06.15-.03.21.03l2.59,2.4c-.09-.16-.2-.29-.31-.41-.19-.22-.39-.45-.53-.9-.18-.57-.39-.76-.57-.93-.1-.09-.19-.17-.27-.3-.17-.28-.17-.54-.1-.65.04-.06.08-.07.11-.07.08,0,.09.09.09.16,0,.09.01.21.12.34.05.06.13.12.22.19.25.2.6.48.77,1.02.11.35.33.59.56.83.23.25.48.51.63.92l-.09.03c-.14-.39-.38-.64-.61-.88-.24-.26-.46-.5-.58-.87-.16-.52-.49-.78-.74-.97-.09-.07-.17-.14-.23-.21-.13-.15-.14-.3-.14-.4,0-.02,0-.05,0-.06,0,0-.01.01-.02.03-.03.08-.05.27.11.53.07.12.15.19.25.28.19.18.41.37.6.97.14.43.33.65.51.87.16.19.31.37.43.66l1.72,1.59-.07.07-1.58-1.47s0,0,0,.01l-.1.03c-.02-.06-.04-.12-.06-.18l-2.77-2.57s-.05-.04-.07-.03c-.02.02.02.06.03.07l4.18,4.5-.07.07Z"/>
      </g>
      <path id="ray2-5" data-name="ray2" class="cls-4" d="M55.08,22.89c-.81.04-1.18.5-1.92.41.59.2,1.04-.28,1.91-.25M57.21,22.36l-3.83,1.75,3.95-1.47"/>
      <path id="ray2-6" data-name="ray2" class="cls-4" d="M55.09,22.02c-.77-.27-1.28.01-1.93-.35.47.41,1.07.14,1.86.5M57.27,22.34l-4.21.15,4.21.15"/>
      <path id="ray2-7" data-name="ray2" class="cls-4" d="M55.44,21.22c-.61-.55-1.19-.48-1.65-1.07.27.56.94.54,1.53,1.17M57.33,22.35l-3.95-1.47,3.83,1.75"/>
      <path id="ray2-8" data-name="ray2" class="cls-4" d="M56.07,20.62c-.35-.74-.91-.89-1.11-1.61.04.62.66.86.97,1.67M57.38,22.38l-3.09-2.87,2.87,3.09"/>
    </g>
    <g id="rays-3" data-name="rays">
      <g>
        <path id="ray1-9" data-name="ray1" class="cls-2" d="M57.56,22.38l-2.56-5.58s-.04-.11-.12-.08c-.07.03-.03.14-.03.14l2.13,5.76M57.05,20.45c.03-.85-.49-1.32-.42-2.07.07-.76-.35-1.19-.44-1.48-.1-.29.1-.47.02-.51-.09-.04-.28.19-.21.61.06.42.38.54.31,1.47-.07.93.38,1.14.27,1.99"/>
        <path class="cls-4" d="M56.94,22.64l-2.13-5.76s-.01-.03-.02-.07c0-.06.02-.11.07-.13.08-.03.15.03.18.1l1.47,3.21c-.02-.18-.07-.34-.13-.5-.09-.28-.19-.57-.15-1.04.05-.6-.07-.85-.17-1.08-.06-.12-.11-.23-.13-.38-.05-.33.05-.56.16-.64.06-.04.1-.03.13-.02.08.04.05.12.03.18-.03.09-.07.2-.02.36.02.07.07.16.13.26.16.28.37.67.32,1.24-.03.37.08.67.2.98.12.32.24.65.23,1.09h-.1c.02-.42-.1-.74-.22-1.05-.12-.33-.24-.64-.2-1.03.05-.54-.16-.91-.31-1.18-.06-.11-.11-.2-.14-.28-.06-.19-.01-.33.02-.42,0-.02.01-.04.02-.06,0,0-.02,0-.03.02-.06.06-.15.24-.1.53.02.13.07.24.12.35.11.24.23.5.18,1.13-.04.45.06.73.14,1,.08.23.15.46.14.77l.98,2.13-.09.04-.9-1.96s0,0,0,.01h-.1c0-.08.01-.14.02-.2l-1.57-3.43s-.03-.06-.05-.05c0,0-.01,0,0,.03,0,.02,0,.04,0,.04l2.13,5.76-.09.03Z"/>
      </g>
      <g>
        <path id="ray1-10" data-name="ray1" class="cls-2" d="M57.58,22.5l-.23-6.13s0-.12-.08-.12c-.08,0-.08.12-.08.12l-.23,6.13M57.85,20.52c.35-.77.05-1.4.4-2.08.35-.67.13-1.23.16-1.54.02-.31.28-.4.21-.47-.06-.07-.33.07-.43.48-.1.41.14.65-.28,1.47-.42.83-.09,1.2-.51,1.94"/>
        <path class="cls-4" d="M57.02,22.5h-.1s.23-6.14.23-6.14c0,0,0-.04.01-.07.02-.06.06-.09.11-.09h0c.09,0,.13.09.13.17l.13,3.53c.05-.18.06-.34.08-.51.02-.29.05-.6.26-1.02.27-.53.26-.81.25-1.06,0-.13-.01-.26.03-.4.08-.32.26-.5.39-.53.07-.02.11.01.13.03.06.06,0,.13-.05.18-.06.07-.14.16-.15.33,0,.08,0,.18.02.29.04.32.09.76-.18,1.27-.17.33-.18.65-.2.98-.01.34-.03.7-.21,1.09l-.09-.04c.17-.38.18-.72.2-1.05.01-.35.02-.68.21-1.03.25-.48.2-.9.17-1.21-.01-.12-.03-.22-.02-.31.01-.2.11-.31.18-.38.01-.02.03-.03.04-.05,0,0-.02,0-.04,0-.08.03-.23.16-.3.45-.03.13-.03.24-.02.37.01.26.02.55-.26,1.11-.21.4-.23.69-.25.98-.02.25-.04.48-.16.77l.09,2.34h-.1s-.08-2.16-.08-2.16c0,0,0,0,0,0l-.09-.05c.03-.06.06-.11.08-.16l-.14-3.77s0-.07-.03-.07h0s-.03.06-.03.07l-.23,6.14Z"/>
      </g>
      <g>
        <path id="ray1-11" data-name="ray1" class="cls-2" d="M57.56,22.62l2.13-5.76s.04-.11-.03-.14c-.07-.03-.12.08-.12.08l-2.56,5.58M58.57,20.89c.62-.58.58-1.28,1.17-1.76.58-.49.59-1.08.73-1.36.14-.28.41-.26.38-.35-.03-.09-.33-.06-.58.28-.25.34-.12.65-.82,1.25-.71.6-.54,1.07-1.21,1.59"/>
        <path class="cls-4" d="M57.6,22.64l-.09-.03.75-2.03s0,0,0,0l-.06-.08c.05-.04.1-.08.14-.12l1.31-3.54s.02-.06,0-.07c-.02,0-.05.04-.05.05l-2.56,5.58-.09-.04,2.56-5.58s.03-.08.09-.1c.03-.01.06-.01.09,0,.08.03.08.13.05.2l-1.23,3.31c.11-.15.19-.29.26-.44.13-.26.27-.53.63-.84.46-.39.55-.65.64-.88.05-.12.09-.24.18-.36.2-.26.43-.36.57-.34.07.01.1.05.1.07.03.08-.05.12-.11.15-.08.04-.19.1-.27.24-.04.07-.06.17-.1.28-.09.31-.21.73-.65,1.1-.28.24-.42.53-.56.83-.14.31-.29.63-.61.93l-.07-.07c.3-.28.45-.59.59-.9.15-.32.28-.62.58-.87.41-.35.53-.75.62-1.05.03-.12.06-.22.1-.29.09-.18.22-.24.31-.29.02,0,.04-.02.05-.03,0,0-.02,0-.04,0-.08,0-.27.06-.45.3-.08.11-.12.21-.16.34-.09.24-.19.52-.67.93-.34.29-.48.55-.6.81-.11.22-.22.43-.45.65l-.81,2.19Z"/>
      </g>
      <g>
        <path id="ray1-12" data-name="ray1" class="cls-2" d="M57.49,22.72l4.17-4.5s.08-.08.03-.14c-.05-.05-.14.03-.14.03l-4.5,4.17M59.08,21.51c.8-.3,1.03-.96,1.75-1.18.73-.23.96-.78,1.2-.98.24-.2.48-.08.48-.18,0-.1-.28-.18-.65.04-.36.22-.36.56-1.24.84-.88.29-.91.79-1.73,1.01"/>
        <path class="cls-4" d="M57.53,22.75l-.07-.07,1.47-1.58s0,0-.01,0l-.03-.1c.06-.02.12-.04.18-.06l2.57-2.77s.04-.05.03-.07c0,0,0,0,0,0-.02,0-.05.02-.06.03l-4.5,4.18-.07-.07,4.5-4.17s.06-.06.13-.06h0s.06.01.08.03c.06.06.03.15-.03.21l-2.4,2.59c.16-.09.29-.2.41-.31.22-.19.45-.39.9-.53.57-.18.76-.39.93-.57.09-.1.17-.19.3-.27.28-.17.54-.17.65-.1.06.04.07.08.07.11,0,.08-.09.09-.16.09-.09,0-.21.01-.34.12-.06.05-.12.13-.19.22-.2.25-.48.6-1.02.77-.35.11-.59.33-.83.56-.25.23-.51.48-.92.63l-.03-.09c.39-.14.64-.38.88-.61.26-.24.5-.46.87-.58.52-.16.78-.49.97-.74.07-.09.14-.17.21-.23.15-.13.3-.14.4-.14.02,0,.05,0,.06,0,0,0-.01-.01-.03-.02-.08-.03-.27-.05-.53.11-.12.07-.19.15-.28.25-.18.19-.37.41-.97.6-.43.14-.65.33-.87.51-.19.16-.37.31-.66.43l-1.59,1.72Z"/>
      </g>
      <path id="ray2-9" data-name="ray2" class="cls-4" d="M56.88,20.3c-.04-.81-.5-1.18-.41-1.92-.2.59.28,1.04.25,1.91M57.41,22.43l-1.75-3.83,1.47,3.95"/>
      <path id="ray2-10" data-name="ray2" class="cls-4" d="M57.76,20.32c.27-.77-.01-1.28.35-1.93-.41.47-.14,1.07-.5,1.86M57.43,22.49l-.15-4.21-.15,4.21"/>
      <path id="ray2-11" data-name="ray2" class="cls-4" d="M58.55,20.67c.55-.61.48-1.19,1.07-1.65-.56.27-.54.94-1.17,1.53M57.42,22.55l1.47-3.95-1.75,3.83"/>
      <path id="ray2-12" data-name="ray2" class="cls-4" d="M59.15,21.3c.74-.35.89-.91,1.61-1.11-.62.04-.86.66-1.67.97M57.39,22.61l2.87-3.09-3.09,2.87"/>
    </g>
    <g id="rays-4" data-name="rays">
      <g>
        <path id="ray1-13" data-name="ray1" class="cls-2" d="M57.39,22.78l5.58-2.56s.11-.04.08-.12c-.03-.07-.14-.03-.14-.03l-5.76,2.13M59.33,22.28c.85.03,1.32-.49,2.07-.42.76.07,1.19-.35,1.48-.44.29-.1.47.1.51.02.04-.09-.19-.28-.61-.21-.42.06-.54.38-1.47.31-.93-.07-1.14.38-1.99.27"/>
        <path class="cls-4" d="M57.41,22.83l-.04-.09,1.96-.9s0,0-.01,0v-.1c.08,0,.14.01.2.02l3.43-1.57s.06-.03.05-.05c0-.02-.06,0-.07,0l-5.76,2.13-.03-.09,5.76-2.13s.03-.01.07-.02c.06,0,.11.02.13.07.03.08-.03.15-.1.18l-3.21,1.47c.18-.02.34-.07.5-.13.28-.09.57-.19,1.04-.15.6.05.85-.07,1.08-.17.12-.06.23-.11.38-.13.33-.05.56.05.64.16.04.06.03.1.02.13-.04.08-.12.05-.18.03-.09-.03-.2-.07-.36-.02-.07.02-.16.07-.26.13-.28.16-.67.37-1.24.32-.37-.03-.67.08-.98.2-.32.12-.65.24-1.09.23v-.1c.42.01.74-.1,1.05-.22.33-.12.64-.24,1.03-.2.54.05.91-.16,1.18-.31.11-.06.2-.11.28-.14.19-.06.33-.01.42.02.02,0,.04.01.06.02,0,0,0-.02-.02-.03-.06-.06-.24-.15-.53-.1-.13.02-.24.07-.35.12-.24.11-.5.23-1.13.18-.45-.04-.73.06-1,.14-.23.08-.46.15-.77.14l-2.13.98Z"/>
      </g>
      <g>
        <path id="ray1-14" data-name="ray1" class="cls-2" d="M57.27,22.81l6.13-.23s.12,0,.12-.08c0-.08-.12-.08-.12-.08l-6.13-.23M59.25,23.08c.77.35,1.4.05,2.08.4.67.35,1.23.13,1.54.16.31.02.4.28.47.21.07-.06-.07-.33-.48-.43-.41-.1-.65.14-1.47-.28-.83-.42-1.2-.09-1.94-.51"/>
        <path class="cls-4" d="M63.31,23.91s-.09-.04-.12-.07c-.07-.06-.16-.14-.33-.15-.08,0-.18,0-.29.02-.32.04-.76.09-1.27-.18-.33-.17-.65-.18-.98-.2-.34-.01-.7-.03-1.09-.21l.04-.09c.38.17.72.18,1.05.2.35.01.68.02,1.03.21.48.25.9.2,1.21.17.12-.01.22-.03.31-.02.2.01.31.11.38.18.02.01.03.03.05.04,0,0,0-.02,0-.04-.03-.08-.16-.23-.45-.3-.13-.03-.24-.03-.37-.02-.26.01-.55.02-1.11-.26-.4-.21-.69-.23-.98-.25-.25-.02-.48-.04-.77-.16l-2.34.09v-.1s2.16-.08,2.16-.08c0,0,0,0,0,0l.05-.09c.06.03.11.06.16.08l3.77-.14s.07,0,.07-.03c0-.02-.06-.03-.07-.03l-6.14-.23v-.1s6.14.23,6.14.23c0,0,.04,0,.07.01.06.02.09.06.09.11,0,.09-.09.13-.17.13h0l-3.53.13c.18.05.34.06.51.07.29.02.6.05,1.02.26.53.27.81.26,1.06.25.13,0,.26-.01.4.03.32.08.5.26.53.39.02.07-.01.11-.03.13-.02.02-.04.02-.06.02Z"/>
      </g>
      <g>
        <path id="ray1-15" data-name="ray1" class="cls-2" d="M57.15,22.78l5.76,2.13s.11.04.14-.03c.03-.07-.08-.12-.08-.12l-5.58-2.56M58.88,23.79c.58.62,1.28.58,1.76,1.17.49.58,1.08.59,1.36.73.28.14.26.41.35.38.09-.03.06-.33-.28-.58-.34-.25-.65-.12-1.25-.82-.6-.71-1.07-.54-1.59-1.21"/>
        <path class="cls-4" d="M62.34,26.12c-.06,0-.09-.06-.12-.12-.04-.08-.1-.19-.24-.27-.07-.04-.17-.06-.28-.1-.31-.09-.73-.21-1.1-.65-.24-.28-.53-.42-.83-.56-.31-.14-.63-.29-.93-.61l.07-.07c.28.3.59.45.9.59.32.15.62.28.87.58.35.41.75.53,1.05.62.12.03.22.06.29.1.18.09.24.22.29.31,0,.02.02.04.03.05,0,0,0-.02,0-.04,0-.08-.06-.27-.3-.45-.11-.08-.21-.12-.34-.16-.24-.09-.52-.19-.93-.67-.29-.34-.55-.48-.81-.6-.22-.11-.43-.22-.65-.45l-2.19-.81.03-.09,2.03.75s0,0,0,0l.08-.06c.04.05.08.1.12.14l3.54,1.31s.06.02.07,0c0-.02-.04-.05-.05-.05l-5.58-2.56.04-.09,5.58,2.56s.08.03.1.09c.01.03.01.06,0,.09-.03.08-.13.08-.2.05l-3.31-1.23c.15.11.29.19.44.26.26.13.53.27.84.63.39.46.65.55.88.64.12.05.24.09.36.18.26.2.36.43.34.57-.01.07-.05.1-.07.1-.01,0-.02,0-.03,0Z"/>
      </g>
      <g>
        <path id="ray1-16" data-name="ray1" class="cls-2" d="M57.06,22.72l4.5,4.17s.08.08.14.03c.05-.05-.03-.14-.03-.14l-4.17-4.5M58.26,24.31c.3.8.96,1.03,1.18,1.75.23.73.78.96.98,1.2.2.24.08.48.18.48.1,0,.18-.28-.04-.65-.22-.36-.56-.36-.84-1.24-.29-.88-.79-.91-1.01-1.73"/>
        <path class="cls-4" d="M60.61,27.79s0,0,0,0c-.08,0-.09-.09-.09-.16,0-.09-.01-.21-.12-.34-.05-.06-.13-.12-.22-.19-.25-.2-.6-.48-.77-1.02-.11-.35-.33-.59-.56-.83-.23-.25-.48-.51-.63-.92l.09-.03c.14.39.38.64.61.88.24.26.46.5.58.87.16.52.49.78.74.97.09.07.17.14.23.21.13.15.14.3.14.4,0,.02,0,.05,0,.06,0,0,.01-.01.02-.03.03-.08.05-.27-.11-.53-.07-.12-.15-.19-.25-.28-.19-.18-.41-.37-.6-.97-.14-.43-.33-.65-.51-.87-.16-.19-.31-.37-.43-.66l-1.72-1.59.07-.07,1.58,1.47s0,0,0-.01l.1-.03c.02.06.04.12.06.18l2.77,2.57s.05.04.07.03c.02-.02-.02-.06-.03-.07l-4.18-4.5.07-.07,4.17,4.5s.03.03.04.06c.03.06.02.11-.02.15-.04.04-.09.04-.15.02-.03-.02-.06-.04-.06-.04l-2.59-2.4c.09.16.2.29.31.41.19.22.39.45.53.9.18.57.39.76.57.93.1.09.19.17.27.3.17.28.17.54.1.65-.04.06-.08.07-.1.07Z"/>
      </g>
      <path id="ray2-13" data-name="ray2" class="cls-4" d="M59.47,22.11c.81-.04,1.18-.5,1.92-.41-.59-.2-1.04.28-1.91.25M57.34,22.64l3.83-1.75-3.95,1.47"/>
      <path id="ray2-14" data-name="ray2" class="cls-4" d="M59.45,22.98c.77.27,1.28-.01,1.93.35-.47-.41-1.07-.14-1.86-.5M57.28,22.66l4.21-.15-4.21-.15"/>
      <path id="ray2-15" data-name="ray2" class="cls-4" d="M59.1,23.78c.61.55,1.19.48,1.65,1.07-.27-.56-.94-.54-1.53-1.17M57.22,22.65l3.95,1.47-3.83-1.75"/>
      <path id="ray2-16" data-name="ray2" class="cls-4" d="M58.47,24.38c.35.74.91.89,1.11,1.61-.04-.62-.66-.86-.97-1.67M57.17,22.62l3.09,2.87-2.87-3.09"/>
    </g>
    <g>
      <circle class="cls-2" cx="57.27" cy="22.5" r="2.5"/>
      <path class="cls-4" d="M57.27,25.07c-1.42,0-2.57-1.15-2.57-2.57s1.15-2.57,2.57-2.57,2.57,1.15,2.57,2.57-1.15,2.57-2.57,2.57ZM57.27,20.07c-1.34,0-2.43,1.09-2.43,2.43s1.09,2.43,2.43,2.43,2.43-1.09,2.43-2.43-1.09-2.43-2.43-2.43Z"/>
    </g>
    <path id="loweyecontour" class="cls-5" d="M58.13,21.97c-.17,0-.33.07-.43.23.19.17.62.19.91-.02-.12-.13-.3-.21-.48-.21h0ZM58.12,22c.17,0,.32.07.34.15-.19.21-.5.19-.69.04.08-.13.22-.19.35-.19h0Z"/>
    <path id="uppalpebra" class="cls-4" d="M58.16,21.85c-.25,0-.31.06-.42.15-.12.1-.17.08-.19.1-.02.02,0,.08.04.06s.12-.06.23-.15c.12-.1.23-.1.35-.1.35,0,.54.29.58.27.04-.02-.19-.33-.58-.33h0Z"/>
    <path id="eyebrow_nose" data-name="eyebrow nose" class="cls-4" d="M58.85,21.96c-.44-.38-1-.44-1.31-.15-.08.1-.12.21-.14.32-.04.22.03.46.2.7-.02,0-.06.02-.08.04-.15-.29-.21-.59-.16-.88.01-.07.03-.15.06-.22.42-.35,1-.38,1.42.19h0Z"/>
    <circle id="pupil" class="cls-4" cx="58.12" cy="22.15" r=".17"/>
    <path id="lowpalpebra" class="cls-4" d="M58.62,22.27c-.33.25-.65.23-.85.12-.19-.12-.19-.15-.15-.15s.08.04.23.12c.15.08.38.08.77-.08h0Z"/>
    <path class="cls-4" d="M56.89,22.85c-.08.02-.14.09-.14.17,0,.1.08.17.17.17.06,0,.11-.03.14-.07.07.05.16.06.21.06,0,0,.02,0,.02,0,.05,0,.14,0,.21-.06.03.05.08.07.14.07.1,0,.17-.08.17-.17,0-.08-.06-.16-.14-.17.05.02.08.06.08.11,0,.06-.05.12-.12.12s-.11-.05-.12-.11c-.02.04-.09.15-.24.15-.15,0-.22-.12-.24-.15,0,.06-.05.11-.12.11s-.12-.05-.12-.12c0-.05.03-.09.08-.11h0Z"/>
    <path class="cls-4" d="M57.08,23.36c-.19,0-.27.17-.44.29.1-.04.17-.11.31-.19.13-.08.25.02.33.02h0c.08,0,.19-.09.33-.02.13.08.21.15.31.19-.17-.12-.25-.29-.44-.29-.04,0-.11.02-.19.06h0c-.08-.04-.15-.06-.19-.06Z"/>
    <path class="cls-4" d="M57.01,23.59c-.08,0-.18.02-.32.06.35-.08.42.04.58.04h0c.15,0,.23-.12.58-.04-.38-.12-.46-.04-.58-.04h0c-.07,0-.13-.03-.26-.02h0Z"/>
    <path class="cls-4" d="M56.71,23.64s-.05,0-.07,0c.4.04.21.27.63.27h0c.42,0,.23-.23.64-.27-.42-.04-.29.21-.64.21h0c-.32,0-.22-.22-.56-.21h0Z"/>
    <path class="cls-4" d="M57.62,24.27c0-.19-.16-.35-.35-.35s-.35.16-.35.35c.04-.16.18-.27.35-.27s.31.11.35.27h0Z"/>
    <path id="eyebrow_nose-2" data-name="eyebrow nose" class="cls-4" d="M55.72,21.96c.44-.38,1-.44,1.31-.15.08.1.12.21.14.32.04.22-.03.46-.2.7.02,0,.06.02.08.04.15-.29.21-.59.16-.88-.01-.07-.03-.15-.06-.22-.42-.35-1-.38-1.42.19h0Z"/>
    <path id="uppalpebra-2" data-name="uppalpebra" class="cls-4" d="M56.41,21.85c.25,0,.31.06.42.15.12.1.17.08.19.1.02.02,0,.08-.04.06s-.12-.06-.23-.15c-.12-.1-.23-.1-.35-.1-.35,0-.54.29-.58.27-.04-.02.19-.33.58-.33h0Z"/>
    <path id="loweyecontour-2" data-name="loweyecontour" class="cls-5" d="M56.4,21.97c-.17,0-.33.07-.43.23.19.17.62.19.91-.02-.12-.13-.3-.21-.48-.21h0ZM56.4,22c.17,0,.32.07.34.15-.19.21-.5.19-.69.04.08-.13.22-.19.35-.19h0Z"/>
    <circle id="pupil-2" data-name="pupil" class="cls-4" cx="56.42" cy="22.15" r=".17"/>
    <path id="lowpalpebra-2" data-name="lowpalpebra" class="cls-4" d="M55.95,22.27c.33.25.65.23.85.12.19-.12.19-.15.15-.15s-.08.04-.23.12c-.15.08-.38.08-.77-.08h0Z"/>
  </g>
</svg>