<?xml version="1.0" encoding="UTF-8"?>
<svg id="Layer_2" data-name="Layer 2" xmlns="http://www.w3.org/2000/svg" xmlns:xlink="http://www.w3.org/1999/xlink" viewBox="0 0 114.55 45">
  <defs>
    <style>
      .cls-1 {
        fill: #fff;
      }

      .cls-2 {
        fill: none;
      }

      .cls-3 {
        clip-path: url(#clippath-1);
      }

      .cls-4, .cls-5, .cls-6, .cls-7 {
        stroke-miterlimit: 426.67;
      }

      .cls-4, .cls-6 {
        stroke: #e4002b;
      }

      .cls-4, .cls-7 {
        stroke-width: 4.5px;
      }

      .cls-5 {
        stroke-width: 7.5px;
      }

      .cls-5, .cls-7 {
        stroke: #fff;
      }

      .cls-8 {
        fill: #012169;
      }

      .cls-6 {
        stroke-width: 3px;
      }

      .cls-9 {
        clip-path: url(#clippath);
      }
    </style>
    <clipPath id="clippath">
      <rect class="cls-2" x="12.27" width="45" height="22.5"/>
    </clipPath>
    <clipPath id="clippath-1">
      <path class="cls-2" d="M12.27,0v11.25h45v11.25L12.27,0ZM57.27,0h-22.5v22.5H12.27L57.27,0Z"/>
    </clipPath>
  </defs>
  <g id="Layer_1-2" data-name="Layer 1">
    <g>
      <rect class="cls-8" width="114.55" height="45"/>
      <g class="cls-9">
        <path class="cls-7" d="M12.27,0l45,22.5M57.27,0L12.27,22.5"/>
      </g>
      <g class="cls-3">
        <path class="cls-6" d="M12.27,0l45,22.5M57.27,0L12.27,22.5"/>
      </g>
      <path class="cls-5" d="M34.77,0v22.5M12.27,11.25h45"/>
      <path class="cls-4" d="M34.77,0v22.5M12.27,11.25h45"/>
    </g>
    <g>
      <g id="Comwlth">
        <path id="Star7" class="cls-1" d="M34.77,27l1.3,4.05,3.98-1.51-2.35,3.54,3.66,2.17-4.24.37.58,4.21-2.93-3.08-2.93,3.08.58-4.21-4.24-.37,3.66-2.17-2.35-3.54,3.98,1.51,1.3-4.05Z"/>
      </g>
      <g id="_αCrucis" data-name="αCrucis">
        <path id="Star7-2" data-name="Star7" class="cls-1" d="M79.77,34.29l.62,1.93,1.89-.72-1.12,1.69,1.74,1.03-2.02.18.28,2.01-1.39-1.47-1.39,1.47.28-2.01-2.02-.18,1.74-1.03-1.12-1.69,1.89.72.62-1.93Z"/>
      </g>
      <g id="_βCrucis" data-name="βCrucis">
        <path id="Star7-3" data-name="Star7" class="cls-1" d="M68.52,16.47l.62,1.93,1.89-.72-1.12,1.69,1.74,1.03-2.02.18.28,2.01-1.39-1.47-1.39,1.47.28-2.01-2.02-.18,1.74-1.03-1.12-1.69,1.89.72.62-1.93Z"/>
      </g>
      <g id="_γCrucis" data-name="γCrucis">
        <path id="Star7-4" data-name="Star7" class="cls-1" d="M79.77,4.29l.62,1.93,1.89-.72-1.12,1.69,1.74,1.03-2.02.18.28,2.01-1.39-1.47-1.39,1.47.28-2.01-2.02-.18,1.74-1.03-1.12-1.69,1.89.72.62-1.93Z"/>
      </g>
      <g id="_δCrucis" data-name="δCrucis">
        <path id="Star7-5" data-name="Star7" class="cls-1" d="M89.77,13.47l.62,1.93,1.89-.72-1.12,1.69,1.74,1.03-2.02.18.28,2.01-1.39-1.47-1.39,1.47.28-2.01-2.02-.18,1.74-1.03-1.12-1.69,1.89.72.62-1.93Z"/>
      </g>
      <g id="_εCrucis" data-name="εCrucis">
        <path id="Star5" class="cls-1" d="M84.27,22.5l.49,1.2,1.29.09-.99.84.31,1.26-1.1-.68-1.1.68.31-1.26-.99-.84,1.29-.09.49-1.2Z"/>
      </g>
    </g>
  </g>
</svg>