<?xml version="1.0" encoding="UTF-8"?>
<svg id="Layer_2" data-name="Layer 2" xmlns="http://www.w3.org/2000/svg" viewBox="0 0 114.55 45">
  <defs>
    <style>
      .cls-1 {
        fill: #fff;
      }

      .cls-2 {
        fill: #002395;
      }

      .cls-3 {
        fill: #fecb00;
      }
    </style>
  </defs>
  <g id="Layer_1-2" data-name="Layer 1">
    <rect class="cls-2" y="0" width="114.55" height="45"/>
    <path class="cls-3" d="M36.12,0h45v45L36.12,0Z"/>
    <polygon class="cls-1" points="33.65 6.75 36.16 8.58 35.2 5.62 37.71 3.8 34.61 3.8 33.65 .84 32.69 3.8 29.58 3.8 32.09 5.62 31.13 8.58 33.65 6.75"/>
    <polygon class="cls-1" points="39.27 12.38 41.79 14.2 40.83 11.25 43.34 9.42 40.23 9.42 39.27 6.47 38.31 9.42 35.21 9.42 37.72 11.25 36.76 14.2 39.27 12.38"/>
    <polygon class="cls-1" points="44.9 18 47.41 19.83 46.45 16.87 48.96 15.05 45.86 15.05 44.9 12.09 43.94 15.05 40.83 15.05 43.34 16.87 42.38 19.83 44.9 18"/>
    <polygon class="cls-1" points="50.52 23.63 53.04 25.45 52.08 22.5 54.59 20.67 51.48 20.67 50.52 17.72 49.56 20.67 46.46 20.67 48.97 22.5 48.01 25.45 50.52 23.63"/>
    <polygon class="cls-1" points="56.15 29.25 58.66 31.08 57.7 28.12 60.21 26.3 57.11 26.3 56.15 23.34 55.19 26.3 52.08 26.3 54.59 28.12 53.63 31.08 56.15 29.25"/>
    <polygon class="cls-1" points="61.77 34.88 64.29 36.7 63.33 33.75 65.84 31.92 62.73 31.92 61.77 28.97 60.81 31.92 57.71 31.92 60.22 33.75 59.26 36.7 61.77 34.88"/>
    <polygon class="cls-1" points="68.95 39.37 71.46 37.55 68.36 37.55 67.4 34.59 66.44 37.55 63.33 37.55 65.84 39.37 64.88 42.33 67.4 40.5 69.91 42.33 68.95 39.37"/>
    <polygon class="cls-1" points="73.02 40.22 72.06 43.17 68.96 43.17 71.47 45 71.47 45 74.58 45 74.58 45 77.09 43.17 73.98 43.17 73.02 40.22"/>
    <polygon class="cls-1" points="25.51 2.95 28.02 1.13 30.54 2.95 29.58 0 26.47 0 25.51 2.95"/>
  </g>
</svg>