<?xml version="1.0" encoding="UTF-8"?>
<svg id="Layer_2" data-name="Layer 2" xmlns="http://www.w3.org/2000/svg" viewBox="0 0 114.55 45">
  <defs>
    <style>
      .cls-1 {
        fill: #fff;
      }

      .cls-2 {
        fill: #d52b1e;
      }
    </style>
  </defs>
  <g id="Layer_1-2" data-name="Layer 1">
    <path class="cls-2" d="M0,0h114.55v45H0V0Z"/>
    <path class="cls-1" d="M34.77,0h45v45h-45V0ZM58.12,41.53l-.42-8.09c-.02-.49.36-.91.85-.93.06,0,.13,0,.19.01l8.05,1.42-1.09-3c-.09-.24-.02-.52.19-.68l8.82-7.14-1.99-.93c-.28-.13-.41-.45-.32-.74l1.74-5.36-5.08,1.08c-.28.06-.57-.09-.68-.36l-.98-2.32-3.97,4.26c-.23.24-.62.25-.86.02-.15-.14-.22-.35-.18-.56l1.91-9.86-3.07,1.77c-.29.17-.66.07-.83-.22,0-.01-.01-.02-.02-.04l-3.11-6.11-3.11,6.11c-.15.3-.52.42-.82.27-.01,0-.02-.01-.04-.02l-3.07-1.77,1.91,9.86c.06.33-.15.65-.48.71-.2.04-.41-.03-.56-.18l-3.97-4.26-.98,2.32c-.11.27-.4.42-.68.36l-5.08-1.08,1.74,5.36c.1.29-.04.61-.32.74l-1.99.93,8.82,7.14c.2.16.28.44.19.68l-1.09,3,8.05-1.42c.48-.08.95.24,1.03.73.01.06.01.13.01.19l-.42,8.09h1.69Z"/>
  </g>
</svg>