<?xml version="1.0" encoding="UTF-8"?>
<svg id="Layer_2" data-name="Layer 2" xmlns="http://www.w3.org/2000/svg" viewBox="0 0 114.55 45">
  <defs>
    <style>
      .cls-1 {
        fill: #003893;
      }

      .cls-2 {
        fill: #fff;
      }

      .cls-3 {
        fill: #cf2027;
      }

      .cls-4 {
        fill: #f7d116;
      }
    </style>
  </defs>
  <g id="Layer_1-2" data-name="Layer 1">
    <path class="cls-1" d="M0,0h114.55v45H0V0Z"/>
    <path class="cls-2" d="M0,22.5h114.55v11.25H0v-11.25Z"/>
    <path class="cls-3" d="M0,26.25h114.55v3.75H0v-3.75Z"/>
    <path class="cls-4" d="M42.95,14.9l.44,1.36h1.43s-1.15.85-1.15.85l.44,1.36-1.16-.84-1.16.84.44-1.36-1.15-.84h1.43s.45-1.36.45-1.36ZM36.34,17.05l.44,1.36h1.43s-1.15.85-1.15.85l.44,1.36-1.16-.84-1.16.84.44-1.36-1.15-.84h1.43s.45-1.36.45-1.36ZM49.57,17.05l.44,1.36h1.43s-1.15.85-1.15.85l.44,1.36-1.16-.84-1.16.84.44-1.36-1.15-.84h1.43s.45-1.36.45-1.36ZM32.26,22.59l.44,1.36h1.43s-1.15.85-1.15.85l.44,1.36-1.16-.84-1.16.84.44-1.36-1.15-.84h1.43s.45-1.36.45-1.36ZM53.65,22.59l.45,1.36h1.43s-1.16.85-1.16.85l.44,1.36-1.16-.84-1.16.84.44-1.36-1.15-.84h1.43s.45-1.36.45-1.36ZM32.26,30.09l.44,1.36h1.43s-1.15.85-1.15.85l.44,1.36-1.16-.84-1.16.84.44-1.36-1.15-.84h1.43s.45-1.36.45-1.36ZM53.65,30.09l.45,1.36h1.43s-1.16.85-1.16.85l.44,1.36-1.16-.84-1.16.84.44-1.36-1.15-.84h1.43s.45-1.36.45-1.36ZM36.34,35.25l.44,1.36h1.43s-1.15.85-1.15.85l.44,1.36-1.16-.84-1.16.84.44-1.36-1.15-.84h1.43s.45-1.36.45-1.36ZM49.57,35.25l.44,1.36h1.43s-1.15.85-1.15.85l.44,1.36-1.16-.84-1.16.84.44-1.36-1.15-.84h1.43s.45-1.36.45-1.36ZM42.95,37.4l.44,1.36h1.43s-1.15.85-1.15.85l.44,1.36-1.16-.84-1.16.84.44-1.36-1.15-.84h1.43s.45-1.36.45-1.36Z"/>
  </g>
</svg>