<?xml version="1.0" encoding="UTF-8"?>
<svg id="Layer_2" data-name="Layer 2" xmlns="http://www.w3.org/2000/svg" viewBox="0 0 114.55 45">
  <defs>
    <style>
      .cls-1 {
        fill: #171796;
      }

      .cls-2, .cls-3 {
        fill: #f7db17;
      }

      .cls-4 {
        fill: #fff;
      }

      .cls-5 {
        fill: red;
      }

      .cls-6, .cls-3 {
        fill-rule: evenodd;
      }

      .cls-7 {
        fill: #0093dd;
      }
    </style>
  </defs>
  <g id="Layer_1-2" data-name="Layer 1">
    <rect class="cls-1" width="114.55" height="45"/>
    <rect class="cls-4" width="114.55" height="30"/>
    <rect class="cls-5" width="114.55" height="15"/>
    <g>
      <g>
        <path class="cls-5" d="M57.28,34.14h0c4.81,0,8.75-3.94,8.75-8.75v-10.39h-17.5v10.39c0,4.81,3.94,8.75,8.75,8.75h0Z"/>
        <path class="cls-4" d="M57.28,34h0c4.72,0,8.58-3.86,8.58-8.58v-10.25h-17.16v10.25c0,4.72,3.86,8.58,8.58,8.58Z"/>
        <g>
          <path class="cls-5" d="M52.32,15.49h-3.3v3.63h3.3v-3.63Z"/>
          <path class="cls-5" d="M52.32,22.74h3.3v-3.63h-3.3v3.63Z"/>
          <path class="cls-5" d="M49.01,25.4c0,.33.02.65.06.97h3.24v-3.63h-3.3v2.65Z"/>
          <path class="cls-5" d="M58.92,22.74h-3.3v3.63h3.3v-3.63Z"/>
          <path class="cls-5" d="M58.92,30h3.3v-3.63h-3.3v3.63Z"/>
          <path class="cls-5" d="M62.22,31.98c.73-.55,1.37-1.22,1.89-1.98h-1.89v1.98Z"/>
          <path class="cls-5" d="M52.32,30h3.3v-3.63h-3.3v3.63Z"/>
          <path class="cls-5" d="M50.43,30c.52.76,1.15,1.43,1.89,1.99v-1.99h-1.89Z"/>
          <path class="cls-5" d="M57.85,33.63c.37-.03.72-.07,1.08-.15v-3.48h-3.3v3.48c.35.07.71.12,1.07.15.38.02.77.02,1.15,0h0Z"/>
          <path class="cls-5" d="M65.46,26.37c.04-.32.06-.65.06-.98v-2.65h-3.3v3.63h3.24Z"/>
          <path class="cls-5" d="M58.92,22.74h3.3v-3.63h-3.3v3.63Z"/>
          <path class="cls-5" d="M58.92,15.49h-3.3v3.63h3.3v-3.63Z"/>
          <path class="cls-5" d="M65.52,19.12v-3.63h-3.3v3.63h3.3Z"/>
        </g>
      </g>
      <g>
        <path class="cls-4" d="M65.71,14.89l2.05-4.64-1.56-2.52-2.58.96-1.81-2.07-2.39,1.37-2.13-1.75-2.13,1.75-2.39-1.37-1.81,2.07-2.58-.96-1.56,2.52,2.04,4.64c2.58-1.17,5.43-1.82,8.44-1.82s5.86.65,8.43,1.81h0Z"/>
        <g>
          <path class="cls-7" d="M50.99,8.89h0s-2.56-.94-2.56-.94l-1.43,2.32.55,1.25,1.39,3.16c1.04-.46,2.12-.84,3.24-1.12l-1.18-4.66h0Z"/>
          <g>
            <path class="cls-4" d="M50.84,11.18c.09.17.14.37.14.58,0,.69-.56,1.25-1.25,1.25-.61,0-1.12-.44-1.23-1.01.22.38.63.64,1.1.64.69,0,1.26-.57,1.26-1.26,0-.07,0-.14-.02-.2h0Z"/>
            <path d="M49.74,13.03c-.6,0-1.13-.43-1.24-1.02l-.02-.08.04.07c.22.39.64.63,1.08.63.69,0,1.25-.56,1.25-1.25,0-.07,0-.13-.02-.2h0s.02,0,.02,0h0c.1.18.15.38.15.58,0,.7-.57,1.27-1.27,1.27ZM48.54,12.08c.14.54.63.92,1.2.92.68,0,1.24-.56,1.24-1.24,0-.17-.04-.35-.11-.5,0,.04,0,.08,0,.12,0,.7-.57,1.27-1.27,1.27-.43,0-.83-.22-1.07-.58Z"/>
          </g>
          <polygon points="49.7 9.45 49.69 9.47 49.61 9.92 49.95 10.22 49.97 10.23 49.95 10.24 49.51 10.39 49.42 10.84 49.42 10.86 49.4 10.85 49.06 10.55 48.63 10.69 48.6 10.7 48.61 10.68 48.7 10.23 48.35 9.93 48.34 9.91 48.36 9.91 48.79 9.76 48.88 9.31 48.88 9.29 48.9 9.3 49.24 9.6 49.68 9.45 49.7 9.45"/>
          <g>
            <path class="cls-2" d="M49.18,10.09l.32.28.4-.14-.73-.14Z"/>
            <path class="cls-2" d="M49.18,10.07l.73.14-.32-.28-.41.14Z"/>
            <path class="cls-2" d="M48.4,9.92l.73.14-.32-.28-.4.14Z"/>
            <path class="cls-2" d="M49.12,10.08l-.73-.14.32.28.41-.14Z"/>
            <path class="cls-2" d="M49.16,10.05l.49-.56-.4.14-.08.42Z"/>
            <path class="cls-2" d="M48.64,10.65l.49-.56-.41.14-.08.42Z"/>
            <path class="cls-2" d="M49.14,10.1l-.49.56.4-.14.08-.42Z"/>
            <path class="cls-2" d="M49.66,9.5l-.49.56.41-.14.08-.42Z"/>
            <path class="cls-2" d="M49.14,10.05l-.24-.7-.08.42.32.28Z"/>
            <path class="cls-2" d="M49.39,10.8l-.24-.7-.08.42.32.28Z"/>
            <path class="cls-2" d="M49.17,10.1l.24.7.08-.42-.32-.28Z"/>
            <path class="cls-2" d="M48.91,9.34l.24.7.08-.42-.32-.28Z"/>
          </g>
        </g>
        <g>
          <path class="cls-1" d="M55.16,8.19h0s-2.37-1.36-2.37-1.36l-1.8,2.05,1.18,4.66c1.1-.28,2.23-.47,3.39-.57l-.4-4.79h0Z"/>
          <g>
            <path class="cls-5" d="M51.88,12.39c1.16-.3,2.36-.5,3.58-.6l-.1-1.21c-1.29.11-2.56.32-3.78.63l.3,1.18h0Z"/>
            <path class="cls-5" d="M51.29,10.05c1.29-.33,2.62-.55,3.98-.66l-.1-1.19c-1.43.12-2.82.35-4.17.7l.29,1.16Z"/>
          </g>
        </g>
        <g>
          <path class="cls-7" d="M59.39,8.2h0s-2.11-1.73-2.11-1.73l-2.11,1.73.4,4.79c.56-.05,1.14-.07,1.71-.07s1.15.03,1.72.07l.4-4.79h0Z"/>
          <g id="lion">
            <path d="M57.27,10.35s0,0-.02,0c-.04.06-.08.1-.12.16-.04.01-.05.04-.04.08-.06,0-.06.04-.07.1-.06-.08-.12-.11-.18-.07,0-.05-.04-.08-.1-.09-.04,0-.07-.01-.1-.03-.01,0-.02-.01-.04-.02-.03-.02-.05,0-.04.02.06.1.12.19.18.29,0,.02,0,.03.02.05.01.03.02.06.03.09,0,0,0,.02,0,.03-.05-.02-.1-.03-.15-.03-.04,0-.06-.01-.08-.03-.01-.01-.02,0-.02.02,0,.12.04.23.13.33-.05,0-.1,0-.15,0-.02,0-.02,0-.02.02.03.07.08.13.18.17-.05.02-.07.06-.08.12,0,.05-.02.08-.05.1-.01,0-.02.01,0,.02.06.04.13.04.2.02-.03.06-.05.12-.04.19.05.01.09,0,.14-.01,0,.01,0,.04-.01.07,0,.03,0,.05-.02.08,0,0-.01.02,0,.02.07.02.14.01.2-.01,0,.05,0,.11.02.16,0,.01.02.02.03,0,.03-.05.07-.09.12-.11,0,.02.02.04.03.05.02.01.03.04.03.08,0,0,0,.01,0,.02.03,0,.11-.08.13-.13.05.03.06.05.1.1.01.02.02,0,.03,0,.01-.05.01-.11.01-.16.06.02.13.03.2.01.02,0,0-.02,0-.02-.01-.03-.02-.06-.03-.08,0-.03,0-.05,0-.06.04.02.09.02.14.01,0-.07-.01-.13-.05-.19.07.02.15.02.2-.02.01,0,0-.02,0-.02-.03-.02-.05-.05-.05-.1,0-.05-.03-.09-.08-.12.11-.04.15-.1.18-.17,0-.01,0-.02-.02-.02-.05,0-.11,0-.16,0,.1-.11.13-.21.13-.33,0-.02,0-.03-.02-.02-.02.02-.04.03-.08.03-.05,0-.1,0-.15.03,0,0,0-.02,0-.03.01-.03.02-.06.03-.09.02-.01.02-.03.02-.05.06-.1.11-.19.17-.29.01-.02-.01-.04-.04-.02-.01,0-.02.01-.04.02-.03.02-.06.03-.1.03-.06.01-.09.04-.1.09-.07-.04-.13-.02-.18.07,0-.05,0-.1-.07-.1.02-.04,0-.06-.04-.08-.04-.06-.1-.1-.14-.16,0,0-.01-.01-.02,0h0Z"/>
            <g>
              <path class="cls-2" d="M57.83,10.66s-.03,0-.04.02,0,.04,0,.04c0,0,.02,0,.03-.01h0s0,0,0,0c0-.02.01-.04,0-.04h0Z"/>
              <path class="cls-2" d="M56.72,10.66s.03,0,.04.02,0,.04,0,.04-.02,0-.03-.02-.01-.04,0-.04h0Z"/>
              <path class="cls-2" d="M57.73,10.86s-.01,0-.01.01,0,.01.01.01.01,0,.01-.01,0-.01-.01-.01Z"/>
              <path class="cls-2" d="M56.83,10.86s-.01,0-.01.01,0,.01.01.01.01,0,.01-.01,0-.01-.01-.01Z"/>
              <path class="cls-2" d="M57.78,10.79c-.17-.02-.33-.03-.5-.03s-.34,0-.5.03c0,0,0,.02,0,.02.17-.02.33-.03.5-.03s.33,0,.49.03c0,0,.01-.02,0-.02h0Z"/>
              <path class="cls-2" d="M56.77,10.77c.17-.02.34-.03.51-.03.17,0,.33,0,.5.03l.02-.04s-.01,0-.02,0c-.02,0-.02-.04,0-.06.01-.03.04-.04.05-.03,0,0,.01.01.02.03l.1-.16s-.07.05-.13.06c-.06,0-.09.03-.08.07,0,.03-.01.03-.04.01-.07-.04-.12.02-.14.08-.02.04-.04.04-.04,0,0-.02,0-.03,0-.04,0-.05-.02-.06-.05-.05-.04.02-.04,0-.03-.01,0-.01.02-.03.01-.05,0-.01-.01-.02-.03-.02-.04-.05-.1-.11-.14-.16-.04.05-.08.11-.12.16-.02,0-.03,0-.03.02,0,.02.01.03.02.05,0,.02,0,.03-.03.01-.03-.01-.04,0-.05.05,0,.02,0,.03,0,.05,0,.04-.02.04-.04,0-.02-.06-.08-.12-.15-.08-.03.02-.05.02-.04-.01,0-.04-.02-.06-.09-.07-.06,0-.08-.03-.13-.06l.09.15s0,0,.01-.01c.02,0,.04,0,.05.03.01.03,0,.05,0,.06,0,0,0,0,0,0l.02.04h0Z"/>
              <path class="cls-2" d="M57.75,10.98s0,0,0,0c-.01,0-.02.01-.03.03-.01.01-.03.03-.05.04,0,0,0,0,0,0s0,0,0,0c.02-.01.03-.03.05-.04,0,0,.01-.01.02-.02-.02,0-.04,0-.06,0-.02,0-.03.01-.05.02-.01,0-.02.02-.03.03,0,0,0,0,0,0,0,0,0,0,0,0,0-.01.02-.02.04-.03,0,0,.02,0,.02-.01-.02,0-.05,0-.07,0,0,0,0,0-.01.01,0,0,0,0-.01.01,0,0,0,0,0,0s0,0,0,0c0,0,0-.01.01-.02h0s-.04,0-.05,0c0,0,0,0,0,0,0,0,0,0-.01.01s0,0,0,.01c0,0,0,0,0,0,0,0,0,0,0,0,0,0,0-.01,0-.02,0,0,0,0,0,0-.03,0-.05,0-.08,0,0,0,0,0,0,0,0,0-.01,0-.01.01s0,0-.01.01c0,0,0,0,0,0,0,0,0,0,0,0,0,0,0-.01.01-.02,0,0,0,0,0,0-.03,0-.05,0-.08,0s-.05,0-.08,0c0,0,0,0,0,0,0,0,0,.01.01.02,0,0,0,0,0,0s0,0,0,0c0,0,0,0-.01-.01s0,0-.01-.01c0,0,0,0,0,0-.03,0-.05,0-.08,0,0,0,0,0,0,0,0,0,0,.01,0,.02,0,0,0,0,0,0s0,0,0,0c0,0,0-.01,0-.01,0,0,0,0-.01-.01,0,0,0,0,0,0-.02,0-.04,0-.05,0,0,0,0,0,0,0,0,0,0,.01.01.02,0,0,0,0,0,0s0,0,0,0c0,0,0-.01-.01-.01s0,0-.01-.01c0,0,0,0,0,0-.02,0-.05,0-.07,0,0,0,.02,0,.03.01.01,0,.03.02.04.03,0,0,0,0,0,0,0,0,0,0,0,0,0-.01-.02-.02-.03-.03-.02,0-.04-.02-.05-.02h0s-.04,0-.06,0c0,0,.01.02.02.02.01.01.03.03.05.04,0,0,0,0,0,0s0,0,0,0c-.02-.01-.03-.03-.05-.04,0,0-.02-.02-.03-.03-.04-.02-.08-.03-.13-.03-.03,0-.07,0-.1-.02,0,.02.02.04.03.05.01.02.03.03.05.03,0,0,0,0,0,0,0,.03.02.06.04.09.01.01.03.02.04.03-.02-.02-.03-.04-.04-.06-.01-.03-.02-.06-.02-.09,0,0,0,0,0,0,0,0,0,0,0,0,0,.03,0,.06.02.09.01.03.04.05.06.08,0,0,0,.01,0,.01-.03,0-.06-.03-.09-.05-.02-.02-.03-.05-.04-.09-.02,0-.04-.02-.05-.04-.01-.01-.02-.03-.03-.05,0,.1.04.18.1.25.01.02.04.04.06.05.02,0,.02.02,0,.02,0,0-.02,0-.02,0,.02,0,.04.01.05.02.03.02.05.04.05.06,0,0,0,0,0,0,0,0,0,0,0,0,0-.02-.02-.04-.04-.05-.03-.01-.06-.03-.09-.04-.03,0-.07,0-.1,0,0,0,.02.01.03.02.02,0,.04.02.08.03.02,0,.04.01.05.02.02,0,.03.02.04.03,0,0,0,0,0,0s0,0,0,0c0-.01-.02-.02-.04-.03-.01,0-.03-.01-.05-.02-.04,0-.06-.02-.08-.03-.02,0-.03-.02-.04-.03.04.09.1.13.19.15,0,0,0,0,.01,0,0,0,0,0,0,0,.02,0,.04,0,.06.01.02,0,.04,0,.06,0,0,0,0,0,0,0,0,0,0,0,0,0-.02,0-.04,0-.06,0-.01,0-.03,0-.04,0,0,0-.01,0-.02,0-.05,0-.09.05-.1.11,0,0,0,0,0,0,.02-.02.04-.03.06-.05.03-.02.05-.02.08-.02,0,0,0,0,0,0,0,0,0,0,0,0-.02,0-.05,0-.07.01-.02.01-.05.04-.07.06,0,.03-.02.06-.05.08.01,0,.02.01.04,0,.02,0,.04-.02.06-.02.02,0,.04-.01.06-.01,0,0,0,0,0,0s0,0,0,0c-.02,0-.04,0-.06.01-.02,0-.03.01-.05.02.05.01.1,0,.15-.02.01,0,.02,0,.03,0,.01,0,.02-.01.04-.02.01,0,.03-.01.04-.01,0,0,0,0,0,0,0,0,0,0,0,0-.02,0-.03,0-.05.02,0,0-.01.01-.03.02,0,0-.02.01-.02.01-.02.02-.03.04-.04.06,0,.02-.01.03-.02.05.01-.02.03-.05.04-.07.02-.02.05-.04.08-.06,0,0,0,0,0,0,0,0,0,0,0,0-.03.01-.05.03-.07.06-.02.02-.04.05-.05.08,0,.01,0,0,0,.02.02-.03.05-.05.07-.07.03-.02.06-.03.09-.03,0,0,0,0,0,0s0,0,0,0c-.03,0-.06,0-.08.03-.03.02-.05.05-.08.08.04,0,.08,0,.12-.02.02,0,.04-.03.05-.03,0,0,0-.01.01-.01,0,0,.01-.02.02-.02,0,0,0,0,0,0s0,0,0,0c0,0-.01.01-.02.02,0,0-.01.02-.02.03,0,0,0,0,0,0-.01.02-.03.04-.04.05-.01.05,0,.08-.03.13.02,0,.03-.02.04-.03.01-.01.02-.03.03-.05,0-.02.02-.04.04-.06.02-.02.04-.03.06-.04,0,0,0,0,0,0s0,0,0,0c-.02,0-.04.02-.05.03-.01.02-.03.03-.03.05,0,.02-.02.04-.03.06,0,.01-.02.02-.03.03.01,0,.02,0,.03,0,.02,0,.05-.01.06-.03.01-.01.03-.03.03-.05,0,0,0,0,0,0s0,0,0,0c0,.02-.02.04-.04.05-.01,0-.03.02-.04.02.04,0,.07,0,.1-.02.01,0,.02-.04.03-.05,0-.01.01-.02.02-.04.01-.01.02-.02.04-.03,0,0,0,0,0,0,0,0,0,0,0,0-.01,0-.02.01-.03.02,0,0-.02.02-.02.03,0,.02-.01.05-.01.07,0,.05,0,.09.01.14.01-.02.02-.03.04-.04,0,0,0,0,0,0,0-.02,0-.05,0-.07,0-.02,0-.05,0-.07,0,0,0,0,0,0,0,0,0,0,0,0,0,.02,0,.05,0,.08,0,.02,0,.04,0,.06.01-.01.01-.01.02-.02,0-.02.01-.04.01-.05,0-.02,0-.03,0-.05,0,0,0,0,0,0s0,0,0,0c0,.02,0,.04,0,.06,0,.01,0,.03-.01.04.01,0,.03-.02.04-.03,0-.02,0-.03,0-.05,0-.02,0-.03,0-.04,0,0,0,0,.01,0s0,0,0,.01c0,.01,0,.02,0,.04,0,.02,0,.04,0,.05,0,.02.01.04.03.05.02.01.04.04.04.06,0-.03,0-.06,0-.09,0-.03-.01-.06-.03-.08,0,0,0,0,0,0,0,0,0,0,0,0,.01.02.02.05.03.09,0,.03,0,.07,0,.11.02-.02.08-.06.08-.13,0,0,0-.01,0-.02,0,0,0,0,0,0s0,0,0,0c0,0,0,.02,0,.02,0,0,0,.01,0,.02,0,0,0,0,.01,0,0,0,.01,0,.02.01,0-.01,0-.03,0-.04,0-.02,0-.04,0-.06,0,0,0,0,0,0s0,0,0,0c0,.02,0,.03,0,.05,0,.02,0,.03.01.05,0,0,0,0,0,0,0,0,.01,0,.02.01,0-.02,0-.04,0-.06,0-.03,0-.05,0-.08,0,0,0,0,0,0s0,0,0,0c0,.02,0,.05,0,.07,0,.03,0,.05,0,.07,0,0,0,0,0,0,.01.01.02.03.03.04.01-.05.02-.09.01-.14,0-.02-.02-.05-.01-.07,0-.01-.01-.02-.02-.03,0-.01-.02-.02-.03-.02,0,0,0,0,0,0,0,0,0,0,0,0,.01,0,.03.02.04.03,0,0,.02.02.02.03.01,0,.02.04.03.05.03.01.07.02.1.02-.02,0-.03-.01-.04-.02-.02-.01-.03-.03-.04-.05,0,0,0,0,0,0s0,0,0,0c0,.02.02.03.03.05.02.01.06.03.09.03-.01,0-.03-.02-.03-.03-.01-.01-.02-.03-.03-.06,0-.02-.02-.04-.03-.05-.02-.02-.03-.03-.05-.03,0,0,0,0,0,0,0,0,0,0,0,0,.02,0,.04.02.06.04.02.02.03.04.04.06,0,.02.02.04.03.05.01.01.02.02.04.03-.02-.05-.01-.08-.03-.13,0-.03-.05-.06-.04-.07,0-.01.03.02.06.03.04.01.08.02.12.02-.03-.03-.05-.06-.08-.08-.03-.02-.05-.03-.08-.03,0,0,0,0,0,0,0,0,0,0,0,0,.03,0,.06,0,.09.03.02.02.04.04.07.07,0-.01,0,0,0-.02-.01-.03-.03-.05-.05-.08-.02-.02-.04-.04-.07-.06,0,0,0,0,0,0,0,0,0,0,0,0,.03.01.06.03.08.06.02.02.03.04.05.07,0-.02,0-.03-.02-.05,0-.02-.02-.04-.04-.06-.01-.01-.05-.03-.05-.04,0,0,0,0-.01,0-.01,0-.03-.01-.04-.01,0,0,0,0,0,0,0,0,0,0,0,0,.01,0,.03,0,.04.01,0,0,.01,0,.02.01.01,0,.03.01.05.02.05.02.1.03.15.02-.02,0-.03-.01-.05-.02-.02,0-.04-.01-.06-.01,0,0,0,0,0,0s0,0,0,0c.02,0,.04,0,.06.01.02,0,.04.02.06.02.01,0,.02,0,.04,0-.03-.02-.04-.05-.05-.08h0s-.05-.04-.07-.06c-.02-.01-.05-.02-.07-.01,0,0,0,0,0,0,0,0,0,0,0,0,.03,0,.05,0,.08.02.02.01.04.03.06.05,0,0,0,0,0,0,0-.06-.05-.11-.1-.11-.02,0-.04,0-.04,0,0-.01.02,0,.05-.02.09-.03.15-.07.19-.15-.01,0-.02.02-.04.03-.02.01-.04.02-.08.03-.02,0-.03.01-.05.02-.01,0-.03.02-.04.03,0,0,0,0,0,0s0,0,0,0c.01-.01.02-.02.04-.03.01,0,.03-.02.05-.02.03,0,.06-.02.08-.03.01,0,.02-.01.03-.02-.03,0-.07,0-.1,0-.03,0-.06.02-.09.04-.02.01-.04.03-.04.05,0,0,0,0,0,0,0,0,0,0,0,0,0-.02.02-.04.05-.06.02,0,.03-.02.05-.02,0,0-.02,0-.02,0-.03,0-.02-.01,0-.02.02,0,.04-.03.06-.05.06-.07.09-.16.1-.25,0,.02-.02.03-.03.04-.01.02-.03.03-.05.04,0,.04-.02.07-.04.09-.02.02-.05.04-.08.05,0,0-.01,0,0-.01.03-.02.05-.05.06-.08.01-.03.02-.06.02-.09,0,0,0,0,0,0,0,0,0,0,0,0,0,.03,0,.06-.02.09,0,.02-.02.04-.04.06.02,0,.03-.02.04-.03.02-.02.03-.05.04-.09,0,0,0,0,0,0,.02,0,.03-.02.05-.03.01-.01.02-.03.03-.05-.03.02-.07.01-.1.02-.05,0-.08.02-.12.03h0Z"/>
              <path class="cls-2" d="M57.74,10.94c-.15-.02-.3-.03-.45-.03-.15,0-.3,0-.46.02,0,0,0,0,0,.01,0,0,0,0,.03,0,.14-.01.29-.02.43-.02s.3,0,.45.02c0,0,.02-.02,0-.02h0Z"/>
              <path class="cls-3" d="M56.83,10.92c.15-.02.3-.02.45-.02s.3,0,.45.03v-.03s0,0,0,0c-.01,0-.03-.01-.03-.03s.01-.03.03-.03c.01,0,.02,0,.03.02v-.04c-.15-.02-.31-.03-.47-.03s-.32,0-.49.02v.04s.03-.01.04-.01c.02,0,.03.01.03.03s-.01.03-.03.03c0,0,0,0,0,0v.02s0,0,0,0h0ZM57.51,10.83s-.03.01-.03.03.01.03.03.03.03-.01.03-.03-.01-.03-.03-.03ZM57.51,10.84s-.01,0-.01.01,0,.01.01.01.01,0,.01-.01,0-.01-.01-.01ZM57.27,10.82s-.03.01-.03.03.01.03.03.03.03-.01.03-.03-.01-.03-.03-.03ZM57.27,10.84s-.01,0-.01.01,0,.01.01.01.01,0,.01-.01,0-.01-.01-.01ZM57.03,10.83s-.03.01-.03.03.01.03.03.03.03-.01.03-.03-.01-.03-.03-.03ZM57.03,10.84s-.01,0-.01.01,0,.01.01.01.01,0,.01-.01,0-.01-.01-.01Z"/>
            </g>
            <g>
              <path d="M57.28,10.66s-.01-.03-.02-.04c-.01-.01-.03-.02-.04-.02,0,0,0-.01,0-.02.01,0,.03-.01.03-.03,0-.02.02-.03.02-.06,0,0,.01,0,.02,0,0,.02.01.03.02.05.01.01.03.02.04.03,0,0,0,.01,0,.02-.01,0-.02,0-.03.02-.01.01-.02.03-.02.05,0,0-.01,0-.02,0h0ZM57.29,10.63s.01-.02.02-.03c0,0,.01-.01.02-.02-.01,0-.02-.02-.03-.03,0,0-.01-.02-.02-.03,0,.01,0,.02-.02.04,0,.01-.01.02-.02.03.01,0,.02.01.03.02,0,0,.01.02.02.02Z"/>
              <path d="M57.47,11.77l-.11.05s0,0-.01,0c0,0,0,0,0-.01l.11-.05s0,0,.01,0c0,0,0,0,0,.01ZM57.48,11.7l-.13.07s0,0-.01,0,0,0,0-.01l.13-.07s0,0,.01,0,0,0,0,.01ZM57.07,11.68l.13.07s0,0,0,.01,0,0-.01,0l-.13-.07s0,0,0-.01,0,0,.01,0ZM57.08,11.75l.11.05s0,0,0,.01c0,0,0,0-.01,0l-.11-.05s0,0,0-.01c0,0,0,0,.01,0h0ZM57.13,11.85s.06.01.08,0c.02,0,.03-.01.04-.03v-.11s-.05,0-.07,0c-.02,0-.04-.02-.04-.04,0-.02,0-.05,0-.07,0,0,0,0,0,0s0,0,0,0c0,.02,0,.04,0,.06,0,.01.02.02.03.03.02,0,.04,0,.07,0s.05,0,.07,0c.02,0,.03-.02.04-.03s.01-.03.01-.04c0,0,0-.01-.01-.02,0,0-.02,0-.03,0-.01,0-.02,0-.03,0,0,0-.01,0-.02,0,0,0,0,0,0,0s0,0,0,0c0,0,.01,0,.02,0,.01,0,.02,0,.04,0,.01,0,.03,0,.04.01,0,0,.02.02.02.03,0,.02,0,.04-.02.05-.01.01-.03.03-.05.03-.02,0-.04,0-.06,0v.11s0,0,0,0c0,.02.02.03.04.03.02,0,.05,0,.08,0,0,0,0,0,0,0,0,0,0,0,0,0-.03,0-.06.01-.09,0-.02,0-.04-.01-.05-.03-.01.02-.03.03-.05.03-.02,0-.05,0-.09,0,0,0,0,0,0,0,0,0,0,0,0,0h0ZM57.21,11.9h.09s0,0,0,0c0,0,0,0,0,0h-.09s0,0,0,0,0,0,0,0Z"/>
              <path d="M57.35,11.21s.07-.05.09-.07c.03-.02.06-.02.08-.02,0,0,0,0,0,0,0,0,0,0,0,0-.02,0-.04,0-.07.02-.03.01-.06.04-.09.06,0,0,0,0-.01,0s0,0,0-.01h0ZM57.21,11.22s-.07-.05-.1-.07c-.03-.02-.06-.02-.08-.02,0,0,0,0,0,0,0,0,0,0,0,0,.02,0,.06,0,.09.02.03.02.07.04.1.07,0,0,0,0,0,.01,0,0,0,0-.01,0h0ZM57.16,11.45s.02-.03.03-.05c.01-.01.02-.03.04-.04,0,0,0,0,.01,0,0,0,0,0,0,.01-.01.01-.03.02-.04.04-.01.01-.02.03-.03.04,0,0,0,0-.01,0s0,0,0-.01ZM57.25,11.06s.02.03.03.05c0,.02,0,.04,0,.06,0,.02,0,.04,0,.06,0,.02,0,.04-.02.05,0,.01-.02.02-.04.03-.01,0-.02,0-.04,0,0,.02.01.05,0,.07,0,0,0,0-.01,0,0,0-.02,0-.03-.01s-.02,0-.03-.01h0s-.04-.02-.05-.03c-.01,0-.03-.02-.03-.03h0s-.02-.02-.02-.04c0-.01,0-.03,0-.04-.02,0-.03-.02-.04-.03-.01,0-.03-.02-.04-.03,0,0,0,0,0-.01s0,0,.01,0c0,0,.02.02.03.03.01,0,.03.02.05.03.03,0,.05.01.08.02.02.01.05.03.07.04,0,0,0,0,0,0,0,0,0,0,0,0,.01,0,.02,0,.03,0,.01,0,.02,0,.03-.02.01-.01.02-.03.02-.05,0-.02,0-.03,0-.05h0s0-.04,0-.06c0-.02-.01-.03-.02-.04,0,0,0,0,0-.01s0,0,.01,0h0ZM57.16,11.29s-.05-.03-.07-.04c-.02-.01-.05-.02-.07-.02,0,.01,0,.02,0,.03,0,.01,0,.02.02.03h0s.02.02.03.02c.01,0,.03.02.05.02h0s.02,0,.03.01c0,0,.01,0,.02,0,0-.02,0-.04,0-.06,0,0,0,0,0,0h0ZM57.33,11.07s-.02.03-.02.04c0,.02,0,.04,0,.06h0s0,.04,0,.05c0,.02,0,.03.02.05,0,0,.02.02.03.02.01,0,.02,0,.03,0,0,0,0,0,0,0,0,0,0,0,0,0,.02-.02.05-.03.07-.04.03-.01.05-.02.08-.02.02,0,.03-.02.05-.03s.02-.02.03-.03c0,0,0,0,.01,0s0,0,0,.01c0,0-.02.02-.04.03-.01,0-.03.02-.04.03,0,.01,0,.03,0,.04,0,.01,0,.03-.02.04h0s-.02.02-.03.03c-.01,0-.03.02-.05.02h0s-.02,0-.03.01c0,0-.02,0-.03.01,0,0,0,0-.01,0,0-.02,0-.05,0-.07-.01,0-.02,0-.04,0-.01,0-.03-.01-.04-.03-.01-.02-.02-.04-.02-.05,0-.02,0-.04,0-.06,0-.02,0-.04,0-.06,0-.02.01-.04.03-.05,0,0,0,0,.01,0,0,0,0,0,0,.01h0ZM57.54,11.23s-.05.01-.07.02c-.02.01-.05.03-.07.04,0,0,0,0,0,0,0,.02-.01.04,0,.06,0,0,.01,0,.02,0,0,0,.02,0,.03-.01h0s.04-.02.05-.02c.01,0,.02-.02.03-.02h0s.01-.02.02-.03c0,0,0-.02,0-.03h0Z"/>
              <path class="cls-6" d="M57.47,11.24s-.05.02-.05.05.02.05.05.05.05-.02.05-.05-.02-.05-.05-.05ZM57.47,11.26s-.03.01-.03.03.01.03.03.03.03-.01.03-.03-.01-.03-.03-.03ZM57.47,11.27s-.02,0-.02.02,0,.02.02.02.02,0,.02-.02,0-.02-.02-.02ZM57.09,11.24s.05.02.05.05-.02.05-.05.05-.05-.02-.05-.05.02-.05.05-.05ZM57.09,11.26s.03.01.03.03-.01.03-.03.03-.03-.01-.03-.03.01-.03.03-.03ZM57.09,11.27s.02,0,.02.02,0,.02-.02.02-.02,0-.02-.02,0-.02.02-.02Z"/>
            </g>
          </g>
          <g id="lion-2" data-name="lion">
            <path d="M56.3,8.19s0,0-.01.01c-.04.06-.08.11-.11.16-.04.02-.05.04-.03.08-.06,0-.06.05-.06.1-.06-.08-.12-.1-.18-.06,0-.05-.04-.07-.1-.08-.04,0-.07-.01-.1-.03-.01,0-.02-.01-.04-.02-.03-.02-.05,0-.04.02.06.09.13.19.19.28,0,.02,0,.03.02.04.01.03.02.06.03.09,0,0,0,.02,0,.03-.05-.02-.1-.02-.15-.02-.04,0-.06,0-.08-.03-.01-.01-.02,0-.02.02,0,.12.04.22.15.33-.05,0-.1,0-.15.01-.02,0-.02,0-.02.02.03.07.08.13.19.16-.05.03-.07.07-.07.12,0,.05-.01.09-.04.1-.01,0-.02.02,0,.02.06.04.13.04.2.02-.03.06-.05.12-.04.19.05.01.09,0,.14-.02,0,.01,0,.04,0,.07,0,.03,0,.05-.02.08,0,0-.01.02,0,.02.08.02.14,0,.2-.02,0,.05,0,.11.02.16,0,.01.02.02.03,0,.03-.05.07-.09.11-.12,0,.02.02.04.04.05.02.01.03.04.04.07,0,0,0,.01,0,.02.03,0,.11-.09.13-.14.05.03.07.05.1.1.01.02.02,0,.03,0,.01-.05.01-.11,0-.16.06.02.13.03.2,0,.02,0,0-.02,0-.02-.01-.02-.03-.05-.03-.08,0-.03,0-.05-.01-.06.05.01.09.02.14,0,0-.07-.02-.13-.05-.19.07.01.15.01.2-.03.01,0,0-.02,0-.02-.03-.02-.05-.05-.05-.1,0-.05-.04-.09-.08-.11.11-.05.15-.11.18-.18,0-.01,0-.02-.02-.02-.05,0-.11,0-.16,0,.09-.11.13-.22.12-.34,0-.02,0-.03-.02-.02-.02.02-.04.03-.08.04-.05,0-.1,0-.14.03,0,0,0-.02,0-.02,0-.03.02-.06.03-.09.02-.01.02-.03.02-.05.06-.1.11-.2.16-.3.01-.02-.01-.04-.04-.01-.01,0-.02.02-.04.02-.03.02-.06.03-.1.04-.06.01-.09.04-.09.09-.07-.04-.13-.01-.18.08,0-.05-.01-.1-.07-.09.02-.04,0-.06-.04-.08-.04-.05-.11-.1-.15-.15,0,0-.01-.01-.02,0h0Z"/>
            <g>
              <path class="cls-2" d="M56.88,8.48s-.03,0-.04.02,0,.04,0,.04c0,0,.02,0,.03-.01h0s0,0,0-.01c0-.02,0-.04,0-.04h0Z"/>
              <path class="cls-2" d="M55.76,8.52s.03,0,.04.02.01.04,0,.04-.02,0-.03-.02-.01-.03,0-.04h0Z"/>
              <path class="cls-2" d="M56.78,8.69s-.01,0-.01.01,0,.01.01.01.01,0,.01-.01,0-.01-.01-.01Z"/>
              <path class="cls-2" d="M55.89,8.72s-.01,0-.01.01,0,.01.01.01.01,0,.01-.01,0-.01-.01-.01Z"/>
              <path class="cls-2" d="M56.84,8.62c-.17-.01-.34-.02-.5-.01s-.33.02-.5.04c0,0,0,.02,0,.02.17-.02.33-.04.5-.04s.33,0,.5,0c0,0,.01-.02,0-.02h0Z"/>
              <path class="cls-2" d="M55.83,8.64c.17-.02.34-.04.51-.05.17,0,.33,0,.5.01l.02-.04s-.01,0-.02,0c-.02,0-.02-.03-.01-.06.01-.03.03-.04.05-.03,0,0,.01.01.02.02l.09-.17s-.07.05-.13.06c-.06.01-.09.03-.08.07,0,.03-.01.03-.04.01-.07-.04-.12.02-.14.08-.01.04-.03.04-.04,0,0-.02,0-.03,0-.04,0-.05-.02-.06-.05-.05-.04.02-.04,0-.03-.01,0-.01.02-.03.01-.05,0-.01-.02-.02-.03-.02-.04-.05-.11-.1-.15-.16-.04.06-.08.11-.12.17-.02,0-.03,0-.03.02,0,.02.01.03.02.05,0,.02,0,.03-.03.01-.03-.01-.04,0-.04.05,0,.02,0,.03,0,.05,0,.04-.02.04-.04,0-.03-.06-.08-.11-.15-.07-.03.02-.04.02-.04-.01,0-.04-.03-.06-.09-.06-.06,0-.08-.02-.13-.05l.1.15s0-.01.01-.01c.02,0,.04,0,.05.03.01.02.01.05,0,.06,0,0,0,0,0,0l.02.04h0Z"/>
              <path class="cls-2" d="M56.81,8.8s0,0,0,0c-.01,0-.02.02-.03.03-.01.01-.03.03-.05.04,0,0,0,0,0,0s0,0,0,0c.02-.01.03-.03.04-.04,0,0,.01-.01.02-.02-.02,0-.04,0-.06,0-.02,0-.03.01-.05.02-.01,0-.02.02-.03.03,0,0,0,0,0,0,0,0,0,0,0,0,0-.01.02-.02.03-.03,0,0,.01,0,.02-.01-.02,0-.05,0-.07,0,0,0,0,0-.01.01,0,0,0,0-.01.02,0,0,0,0,0,0s0,0,0,0c0,0,0-.01.01-.02h0s-.04,0-.05,0c0,0,0,0,0,0,0,0,0,0-.01.01s0,0,0,.02c0,0,0,0,0,0,0,0,0,0,0,0,0,0,0-.01,0-.02,0,0,0,0,0,0-.03,0-.05,0-.08,0,0,0,0,0,0,0,0,0-.01,0-.01.01s0,0-.01.01c0,0,0,0,0,0,0,0,0,0,0,0,0,0,0-.01.01-.02,0,0,0,0,0,0-.03,0-.05,0-.08,0s-.05,0-.08,0c0,0,0,0,0,0,0,0,0,.01.01.02,0,0,0,0,0,0s0,0,0,0c0,0,0,0-.01-.01s0,0-.02-.01c0,0,0,0,0,0-.03,0-.05,0-.08,0,0,0,0,0,0,0,0,0,0,.01.01.02,0,0,0,0,0,0s0,0,0,0c0,0,0-.01,0-.01,0,0,0,0-.01-.01,0,0,0,0,0,0-.02,0-.04,0-.05,0,0,0,0,0,0,0,0,0,.01.01.01.02,0,0,0,0,0,0s0,0,0,0c0,0,0-.01-.01-.01s0,0-.01-.01c0,0,0,0,0,0-.02,0-.05,0-.07,0,0,0,.02,0,.03.01.02,0,.03.02.04.03,0,0,0,0,0,0,0,0,0,0,0,0,0-.01-.02-.02-.03-.03-.02,0-.04-.02-.06-.02h0s-.04,0-.06,0c0,0,.01.01.02.02.01.01.03.03.05.04,0,0,0,0,0,0s0,0,0,0c-.02-.01-.04-.03-.05-.04,0,0-.02-.02-.03-.03-.04-.02-.08-.03-.13-.03-.03,0-.07,0-.1-.01,0,.02.02.04.03.05.01.01.03.03.05.03,0,0,0,0,0,0,0,.03.02.06.04.08.01.01.03.02.04.03-.02-.02-.03-.04-.04-.05-.02-.03-.02-.06-.02-.09,0,0,0,0,0,0,0,0,0,0,0,0,0,.03,0,.06.02.09.01.03.04.05.07.07,0,0,0,.01,0,.01-.03,0-.07-.02-.09-.05-.02-.02-.04-.05-.04-.09-.02,0-.04-.02-.05-.03-.01-.01-.02-.03-.03-.04,0,.09.05.18.11.25.01.02.04.04.06.05.02,0,.02.02,0,.02,0,0-.02,0-.02,0,.02,0,.04.01.05.02.03.02.05.03.05.06,0,0,0,0,0,0,0,0,0,0,0,0,0-.02-.02-.03-.04-.05-.03-.01-.06-.02-.09-.03-.03,0-.07,0-.1,0,0,0,.02.01.03.02.02,0,.04.02.08.02.02,0,.04.01.05.02.02,0,.03.02.04.03,0,0,0,0,0,.01s0,0-.01,0c0-.01-.02-.02-.04-.03-.01,0-.03-.01-.05-.02-.04,0-.06-.02-.08-.03-.02,0-.03-.02-.04-.03.04.09.1.12.19.15,0,0,0,0,.01,0,0,0,0,0,0,0,.02,0,.04,0,.06,0,.02,0,.04,0,.06,0,0,0,0,0,0,0,0,0,0,0,0,0-.02,0-.04,0-.06,0-.01,0-.03,0-.04,0,0,0-.01,0-.02,0-.05,0-.09.05-.09.11,0,0,0,0,0,0,.02-.02.04-.04.06-.05.03-.02.05-.02.08-.02,0,0,0,0,0,0,0,0,0,0,0,0-.02,0-.05,0-.07.02-.02.01-.05.04-.07.06,0,.03-.02.06-.04.09.01,0,.02.01.04,0,.02,0,.04-.02.06-.03.02,0,.04-.01.06-.02,0,0,0,0,0,0s0,0,0,0c-.02,0-.04,0-.06.01-.02,0-.03.01-.05.02.05,0,.1,0,.15-.02.01,0,.02-.01.03-.01.01,0,.02-.01.04-.02.01,0,.03-.01.04-.01,0,0,0,0,0,0,0,0,0,0,0,0-.02,0-.03,0-.05.02,0,0-.01.01-.03.02,0,0-.02.01-.02.02-.02.02-.03.04-.04.07,0,.02-.01.03-.01.05.01-.02.03-.05.04-.07.02-.02.04-.05.07-.06,0,0,0,0,0,0,0,0,0,0,0,0-.03.01-.05.03-.07.06-.02.02-.03.05-.05.08,0,.01,0,0,0,.02.02-.03.05-.05.07-.07.03-.02.06-.04.09-.03,0,0,0,0,0,0s0,0,0,0c-.03,0-.06,0-.08.03-.03.02-.05.05-.08.08.04,0,.08,0,.12-.02.02,0,.04-.03.05-.04,0,0,0-.01.01-.02,0,0,.01-.02.02-.02,0,0,0,0,.01,0s0,0,0,.01c0,0-.01.01-.02.02,0,0-.01.02-.02.03,0,0,0,0,0,0-.01.02-.03.04-.04.05-.01.05,0,.08-.02.13.02,0,.03-.02.04-.03.01-.01.02-.03.03-.05,0-.02.02-.04.03-.06.02-.02.04-.03.06-.04,0,0,0,0,0,0s0,0,0,0c-.02,0-.04.02-.05.04-.01.02-.03.03-.03.06,0,.02-.02.04-.03.06,0,.01-.02.02-.03.03.01,0,.02,0,.03,0,.02,0,.05-.02.06-.03.01-.01.02-.03.03-.05,0,0,0,0,0,0s0,0,0,0c0,.02-.02.04-.04.05-.01.01-.03.02-.04.02.04,0,.07-.01.1-.03.01,0,.02-.04.03-.05,0-.01.01-.03.02-.04,0-.01.02-.02.04-.03,0,0,0,0,0,0,0,0,0,0,0,0-.01,0-.02.01-.03.03,0,0-.01.02-.02.03,0,.02,0,.05,0,.07,0,.05,0,.09.02.14.01-.02.02-.03.03-.04,0,0,0,0,0,0,0-.02,0-.05,0-.07,0-.02,0-.05,0-.07,0,0,0,0,0,0,0,0,0,0,0,0,0,.02,0,.05,0,.08,0,.02,0,.04,0,.06.01-.01.01-.01.02-.02,0-.02.01-.04.01-.05,0-.02,0-.03,0-.05,0,0,0,0,0,0s0,0,0,0c0,.02,0,.04,0,.06,0,.01,0,.03,0,.04.01,0,.02-.02.04-.03,0-.02,0-.03,0-.05,0-.02,0-.03,0-.04,0,0,0,0,.01,0s0,0,0,.01c0,.01,0,.02,0,.04,0,.02,0,.04,0,.05,0,.02.01.04.03.05.02.01.04.03.04.06,0-.03,0-.06,0-.09,0-.03-.01-.06-.03-.08,0,0,0,0,0,0,0,0,0,0,0,0,.01.02.03.05.03.09,0,.03,0,.07,0,.11.02-.02.08-.06.07-.13,0,0,0-.01,0-.02,0,0,0,0,0,0s0,0,0,0c0,0,0,.02,0,.02,0,0,0,.01,0,.02,0,0,0,0,.01,0,0,0,.01,0,.02.01,0-.01,0-.03-.01-.04,0-.02,0-.04,0-.06,0,0,0,0,0,0s0,0,0,0c0,.02,0,.03,0,.05,0,.02,0,.03.02.05,0,0,0,0,0,0,0,0,.01,0,.02.01,0-.02,0-.04,0-.06,0-.03,0-.05,0-.08,0,0,0,0,0,0s0,0,0,0c0,.02,0,.05,0,.07,0,.03,0,.05.01.07,0,0,0,0,0,0,.01.01.02.03.04.04.01-.05.01-.09,0-.14,0-.02-.02-.05-.02-.07,0-.01-.01-.02-.02-.03,0-.01-.02-.02-.03-.02,0,0,0,0,0,0,0,0,0,0,0,0,.01,0,.03.01.04.03,0,0,.02.02.02.03.01,0,.02.04.03.05.03.01.07.02.1.02-.02,0-.03,0-.04-.02-.02-.01-.03-.03-.04-.05,0,0,0,0,0,0s0,0,0,0c0,.02.02.03.04.04.02.01.07.03.09.02-.01,0-.03-.02-.04-.03-.01-.01-.02-.03-.03-.05,0-.02-.02-.04-.04-.05-.02-.02-.03-.03-.05-.03,0,0,0,0,0,0,0,0,0,0,0,0,.02,0,.04.02.06.04.02.02.03.04.04.06,0,.02.02.04.03.05.01.01.02.02.04.03-.02-.05-.02-.08-.03-.13,0-.03-.05-.06-.05-.07,0-.01.03.02.06.03.04.01.08.02.12.01-.03-.03-.06-.06-.08-.08-.03-.02-.05-.03-.08-.02,0,0,0,0,0,0,0,0,0,0,0,0,.03,0,.06,0,.09.03.03.02.05.04.07.06,0-.01,0,0,0-.02-.01-.03-.03-.05-.05-.07-.02-.02-.05-.04-.07-.05,0,0,0,0,0,0,0,0,0,0,0,0,.03.01.06.03.08.06.02.02.03.04.05.07,0-.02,0-.03-.02-.05-.01-.02-.02-.04-.04-.06-.01-.01-.05-.03-.05-.04,0,0,0,0-.01,0-.01,0-.03,0-.04-.01,0,0,0,0,0,0,0,0,0,0,0,0,.01,0,.03,0,.04.01,0,0,.02,0,.02.01.01,0,.03,0,.05.01.05.02.1.02.15.01-.02,0-.03-.01-.05-.02-.02,0-.04,0-.06,0,0,0,0,0,0,0s0,0,0,0c.02,0,.04,0,.06.01.02,0,.04.01.06.02.01,0,.02,0,.04-.01-.03-.02-.04-.05-.05-.08h0s-.05-.04-.07-.05c-.02-.01-.05-.02-.07-.01,0,0,0,0,0,0,0,0,0,0,0,0,.03,0,.05,0,.08.01.02.01.04.03.06.04,0,0,0,0,0,0,0-.06-.05-.1-.1-.11-.02,0-.04,0-.04,0,0-.01.02-.01.05-.02.08-.03.14-.07.18-.16-.01,0-.02.02-.04.03-.02.01-.04.02-.08.03-.02,0-.03.01-.05.02-.01,0-.03.02-.03.03,0,0,0,0,0,0s0,0,0,0c0-.01.02-.02.04-.03.01,0,.03-.02.05-.02.03,0,.06-.02.08-.03.01,0,.02-.01.03-.02-.03,0-.07,0-.1,0-.03.01-.06.02-.09.04-.02.01-.04.03-.04.05,0,0,0,0,0,0,0,0,0,0,0,0,0-.02.02-.05.05-.06.01,0,.03-.02.05-.03,0,0-.02,0-.02,0-.03,0-.03-.01,0-.02.02,0,.04-.03.05-.05.06-.08.09-.16.09-.25,0,.02-.01.03-.02.04-.01.02-.03.03-.05.04,0,.04-.02.07-.04.09-.02.02-.05.04-.08.05,0,0-.01,0,0-.01.03-.03.05-.05.06-.08.01-.03.02-.06.01-.09,0,0,0,0,0,0,0,0,0,0,0,0,0,.03,0,.06-.01.09,0,.02-.02.04-.04.06.02,0,.03-.02.04-.03.02-.02.03-.05.03-.09,0,0,0,0,0,0,.02,0,.03-.02.05-.03.01-.01.02-.03.03-.05-.03.02-.07.02-.1.02-.05,0-.08.02-.12.04h0Z"/>
              <path class="cls-2" d="M56.79,8.76c-.15-.01-.3-.01-.45,0-.15,0-.3.02-.46.04,0,0,0,0,0,.01,0,0,0,0,.03,0,.14-.02.28-.03.43-.04s.3,0,.45,0c0,0,.02-.02,0-.02h0Z"/>
              <path class="cls-3" d="M55.89,8.78c.15-.02.3-.04.45-.04s.3,0,.45.01v-.03s0,0,0,0c-.01,0-.03-.01-.03-.03s.01-.03.03-.03c.01,0,.02,0,.03.02v-.04c-.15-.01-.31-.01-.47,0s-.32.02-.49.04v.04s.03-.01.04-.01c.02,0,.03.01.03.03s-.01.03-.03.03c0,0,0,0,0,0v.02s0,0,0,0h0ZM56.56,8.66s-.03.01-.03.03.01.03.03.03.03-.01.03-.03-.01-.03-.03-.03ZM56.56,8.68s-.01,0-.01.01,0,.01.01.01.01,0,.01-.01,0-.01-.01-.01ZM56.32,8.67s-.03.01-.03.03.01.03.03.03.03-.01.03-.03-.01-.03-.03-.03ZM56.32,8.68s-.01,0-.01.01,0,.01.01.01.01,0,.01-.01,0-.01-.01-.01ZM56.09,8.68s-.03.01-.03.03.01.03.03.03.03-.01.03-.03-.01-.03-.03-.03ZM56.09,8.69s-.01,0-.01.01,0,.01.01.01.01,0,.01-.01,0-.01-.01-.01Z"/>
            </g>
            <g>
              <path d="M56.33,8.5s-.01-.03-.02-.04c-.01-.01-.03-.02-.04-.02,0,0,0-.01,0-.02.01,0,.02-.02.03-.03,0-.02.02-.04.02-.06,0,0,.01,0,.02,0,0,.02.01.03.02.05.01.01.03.02.04.03,0,0,0,.01,0,.02-.01,0-.02.01-.03.02-.01.01-.02.03-.02.05,0,0-.01,0-.02,0h0ZM56.33,8.47s0-.02.02-.03c0,0,.01-.01.02-.02-.01,0-.02-.01-.03-.03,0,0-.01-.02-.02-.03,0,.01,0,.03-.02.04,0,.01-.01.02-.02.03.01,0,.02,0,.03.02,0,0,.01.01.02.02Z"/>
              <path d="M56.55,9.6l-.11.05s0,0-.01,0c0,0,0,0,0-.01l.11-.05s0,0,.01,0c0,0,0,0,0,.01ZM56.56,9.53l-.13.08s0,0-.01,0,0,0,0-.01l.13-.08s0,0,.01,0,0,0,0,.01ZM56.16,9.53l.14.07s0,0,0,.01,0,0-.01,0l-.14-.07s0,0,0-.01,0,0,.01,0ZM56.17,9.6l.12.04s0,0,0,.01c0,0,0,0-.01,0l-.12-.04s0,0,0-.01c0,0,0,0,.01,0h0ZM56.23,9.7s.06,0,.08,0c.02,0,.03-.01.04-.03v-.11s-.05,0-.07,0c-.02,0-.04-.02-.05-.04-.01-.02,0-.05,0-.07,0,0,0,0,0,0s0,0,0,0c0,.02,0,.04,0,.06,0,.01.02.02.03.03.02,0,.04,0,.07,0s.05,0,.07-.01c.02,0,.03-.02.04-.03s.01-.03.01-.04c0,0,0-.01-.01-.02,0,0-.02,0-.03,0-.01,0-.02,0-.03,0,0,0-.01,0-.02,0,0,0,0,0,0,0s0,0,0,0c0,0,.01,0,.02,0,.01,0,.02,0,.04,0,.01,0,.03,0,.04,0,0,0,.02.02.02.03,0,.02,0,.04-.01.05-.01.01-.03.03-.05.03-.02,0-.04,0-.06.01v.11s0,0,0,0c0,.02.02.03.04.03.02,0,.05,0,.08,0,0,0,0,0,.01,0,0,0,0,0,0,.01-.03,0-.06.01-.09.01-.02,0-.04-.01-.05-.03-.01.02-.03.03-.05.03-.02,0-.05,0-.09,0,0,0,0,0,0,0,0,0,0,0,0,0h0ZM56.31,9.74h.09s0,0,0,0c0,0,0,0,0,0h-.09s0,0,0,0,0,0,0,0Z"/>
              <path d="M56.41,9.05s.06-.05.09-.07c.03-.02.06-.03.08-.03,0,0,0,0,0,0,0,0,0,0,0,0-.02,0-.04,0-.07.02-.03.02-.06.04-.09.07,0,0,0,0-.01,0s0,0,0-.01h0ZM56.28,9.07s-.07-.05-.1-.07c-.03-.01-.06-.02-.08-.02,0,0,0,0,0,0,0,0,0,0,0,0,.02,0,.06,0,.09.02.03.02.07.04.11.07,0,0,0,0,0,.01,0,0,0,0-.01,0h0ZM56.24,9.29s.02-.04.03-.05c.01-.01.02-.03.04-.04,0,0,0,0,.01,0,0,0,0,0,0,.01-.01.01-.02.02-.04.04-.01.01-.02.03-.03.05,0,0,0,0-.01,0s0,0,0-.01ZM56.31,8.9s.02.03.03.05c0,.02.01.04.01.06,0,.02,0,.04,0,.06,0,.02,0,.04-.02.06,0,.01-.02.02-.04.03-.01,0-.02,0-.04,0,0,.02.01.05,0,.07,0,0,0,0-.01,0,0,0-.02,0-.03-.01s-.02,0-.03-.01h0s-.04-.01-.05-.02c-.01,0-.03-.02-.03-.03h0s-.02-.02-.02-.04c0-.01,0-.03,0-.04-.02,0-.03-.02-.04-.02-.01,0-.03-.02-.04-.03,0,0,0,0,0-.01s0,0,.01,0c0,0,.02.02.03.03.01,0,.03.02.05.03.03,0,.06,0,.08.02.02.01.05.02.07.04,0,0,0,0,0,0,0,0,0,0,0,0,.01,0,.02,0,.03,0,.01,0,.02,0,.03-.02.01-.02.01-.03.02-.05,0-.02,0-.03,0-.05h0s0-.04,0-.06c0-.02-.01-.03-.02-.04,0,0,0,0,0-.01s0,0,.01,0h0ZM56.23,9.14s-.05-.03-.07-.04c-.02,0-.05-.02-.07-.02,0,.01,0,.02,0,.03,0,.01,0,.02.02.03h0s.02.02.03.02c.01,0,.03.01.05.02h0s.02,0,.03.01c0,0,.01,0,.02,0,0-.02,0-.04-.01-.06,0,0,0,0,0,0h0ZM56.4,8.91s-.02.03-.02.05c0,.02,0,.04,0,.06h0s0,.04,0,.05c0,.02,0,.03.02.05,0,0,.02.02.03.02.01,0,.02,0,.03,0,0,0,0,0,0,0,0,0,0,0,0,0,.02-.02.05-.03.07-.05.03-.01.05-.02.08-.03.02,0,.03-.02.04-.03s.02-.02.03-.03c0,0,0,0,.01,0s0,0,0,.01c0,.01-.02.02-.03.03-.01,0-.03.02-.04.03,0,.01,0,.03,0,.04,0,.01,0,.03-.02.04h0s-.02.02-.03.03c-.01,0-.03.02-.05.03h0s-.02,0-.03.01c0,0-.02,0-.03.01,0,0,0,0-.01,0-.01-.02,0-.05,0-.07-.01,0-.02,0-.04,0-.01,0-.03-.01-.04-.02-.01-.02-.02-.03-.02-.05,0-.02,0-.04,0-.06,0-.02,0-.04,0-.06,0-.02.01-.04.02-.05,0,0,0,0,.01,0,0,0,0,0,0,.01h0ZM56.61,9.06s-.05.01-.07.02c-.02.01-.05.03-.07.04,0,0,0,0,0,0,0,.02-.01.04,0,.06,0,0,.01,0,.02-.01,0,0,.02,0,.03-.01h0s.04-.02.05-.03c.01,0,.02-.02.03-.02h0s.01-.02.01-.03c0,0,0-.02,0-.03h0Z"/>
              <path class="cls-6" d="M56.54,9.08s-.05.02-.05.05.02.05.05.05.05-.02.05-.05-.02-.05-.05-.05ZM56.54,9.09s-.03.02-.03.03.02.03.03.03.03-.02.03-.03-.02-.03-.03-.03ZM56.54,9.11s-.02,0-.02.02,0,.02.02.02.02,0,.02-.02,0-.02-.02-.02ZM56.16,9.09s.05.02.05.05-.02.05-.05.05-.05-.02-.05-.05.02-.05.05-.05ZM56.16,9.11s.03.01.03.03-.01.03-.03.03-.03-.01-.03-.03.01-.03.03-.03ZM56.16,9.12s.02,0,.02.02,0,.02-.02.02-.02,0-.02-.02,0-.02.02-.02Z"/>
            </g>
          </g>
          <g id="lion-3" data-name="lion">
            <path d="M58.24,8.19s0,0-.02,0c-.04.05-.08.1-.13.16-.04.01-.06.04-.04.08-.06,0-.07.04-.07.09-.05-.09-.11-.11-.18-.08,0-.05-.04-.08-.09-.09-.04,0-.07-.02-.1-.04-.01,0-.02-.02-.04-.02-.03-.02-.05,0-.04.01.06.1.11.2.17.3,0,.02,0,.03.02.05,0,.03.02.06.03.09,0,0,0,.02,0,.02-.05-.03-.1-.03-.15-.04-.04,0-.06-.01-.08-.03-.01-.01-.02,0-.02.02,0,.12.03.23.12.34-.05,0-.1,0-.15,0-.02,0-.02,0-.02.02.03.07.07.13.18.18-.05.02-.07.06-.08.11,0,.05-.02.08-.05.1-.01,0-.02.01,0,.02.05.04.12.05.2.03-.04.06-.05.12-.05.19.05.01.09,0,.14,0,0,.01-.01.04-.01.07,0,.03-.01.05-.03.08,0,0-.02.02,0,.02.07.02.14.02.2,0,0,.05,0,.11.01.16,0,.01.01.02.03,0,.04-.05.07-.09.12-.11,0,.02.02.04.03.05.02.01.03.04.03.08,0,0,0,.01,0,.02.03,0,.12-.08.14-.13.04.03.06.06.09.11.01.02.02,0,.03,0,.02-.05.02-.11.02-.16.06.02.13.04.2.02.02,0,0-.02,0-.02-.01-.03-.02-.06-.02-.08,0-.03,0-.05,0-.06.04.02.09.03.14.02,0-.07,0-.13-.04-.19.07.02.14.02.2-.02.01,0,0-.02,0-.02-.03-.02-.04-.05-.04-.1,0-.05-.03-.09-.07-.12.11-.04.16-.1.19-.16,0-.01,0-.02-.02-.02-.05,0-.11,0-.16-.01.1-.1.14-.21.15-.33,0-.02,0-.03-.02-.02-.02.02-.04.03-.08.03-.05,0-.1,0-.15.02,0,0,0-.02,0-.03.01-.03.03-.06.04-.09.02-.01.02-.03.02-.04.06-.09.12-.19.18-.28.01-.02,0-.04-.04-.02-.01,0-.02.01-.04.02-.03.02-.06.03-.1.03-.06,0-.09.03-.1.08-.06-.04-.12-.02-.18.06,0-.05,0-.1-.06-.1.02-.04,0-.06-.04-.08-.04-.06-.1-.11-.14-.17,0,0-.01-.01-.01-.01h0Z"/>
            <g>
              <path class="cls-2" d="M58.79,8.52s-.03,0-.04.02,0,.04,0,.04c0,0,.02,0,.03-.01h0s0,0,0,0c0-.02.01-.04,0-.04h0Z"/>
              <path class="cls-2" d="M57.67,8.48s.03,0,.04.02,0,.04,0,.04-.02,0-.03-.02-.01-.04,0-.04h0Z"/>
              <path class="cls-2" d="M58.67,8.72s-.01,0-.01.01,0,.01.01.01.01,0,.01-.01,0-.01-.01-.01Z"/>
              <path class="cls-2" d="M57.78,8.69s-.01,0-.01.01,0,.01.01.01.01,0,.01-.01,0-.01-.01-.01Z"/>
              <path class="cls-2" d="M58.74,8.65c-.17-.03-.33-.04-.5-.05s-.34,0-.5,0c0,0,0,.02,0,.02.17,0,.34-.01.5,0s.33.02.49.05c0,0,.01-.02,0-.02h0Z"/>
              <path class="cls-2" d="M57.73,8.6c.17-.01.34-.01.51,0,.17,0,.33.02.5.05l.03-.04s-.01,0-.02,0c-.02,0-.02-.04,0-.06.01-.02.04-.04.05-.03,0,0,.01.01.01.03l.11-.16s-.07.04-.13.05c-.06,0-.09.03-.08.07,0,.03-.01.03-.05.01-.07-.04-.12.01-.15.07-.02.04-.04.04-.04,0,0-.02,0-.03,0-.04,0-.05-.02-.06-.05-.05-.04.02-.04,0-.03-.01,0-.01.02-.03.02-.05,0-.01-.01-.02-.03-.02-.04-.06-.1-.11-.14-.17-.04.05-.09.1-.13.16-.02,0-.03,0-.03.02,0,.02.01.04.02.05,0,.02,0,.03-.03.01-.03-.01-.04,0-.05.05,0,.02,0,.03,0,.05,0,.04-.02.04-.04,0-.02-.06-.07-.12-.15-.08-.03.02-.05.02-.04-.01,0-.04-.02-.06-.08-.07-.06-.01-.08-.03-.13-.06l.09.15s0,0,.01-.01c.02,0,.04,0,.05.03.01.03,0,.05-.01.06,0,0,0,0,0,0l.02.04h0Z"/>
              <path class="cls-2" d="M58.69,8.84s0,0,0,0c-.01,0-.02.01-.03.03-.01.01-.03.03-.05.04,0,0,0,0,0,0s0,0,0,0c.02-.01.03-.03.05-.04,0,0,.01-.01.02-.02-.02,0-.04,0-.06,0-.02,0-.04.01-.05.02-.01,0-.02.02-.03.03,0,0,0,0,0,0,0,0,0,0,0,0,0-.01.02-.02.04-.03,0,0,.02,0,.02-.01-.02,0-.05,0-.07,0,0,0,0,0-.01,0,0,0,0,0-.01.01,0,0,0,0,0,0s0,0,0,0c0,0,0-.01.01-.02h0s-.04,0-.05,0c0,0,0,0,0,0,0,0,0,0-.01.01s0,0,0,.01c0,0,0,0,0,0,0,0,0,0,0,0,0,0,0-.01.01-.02,0,0,0,0,0,0-.03,0-.05,0-.08,0,0,0,0,0,0,0,0,0-.01,0-.02.01s0,0-.01.01c0,0,0,0,0,0,0,0,0,0,0,0,0,0,0-.01.01-.02,0,0,0,0,0,0-.03,0-.05,0-.08,0s-.05,0-.08,0c0,0,0,0,0,0,0,0,0,.01.01.02,0,0,0,0,0,0s0,0,0,0c0,0,0-.01-.01-.01s0,0-.01-.01c0,0,0,0,0,0-.03,0-.05,0-.08,0,0,0,0,0,0,0,0,0,0,.01,0,.02,0,0,0,0,0,0s0,0,0,0c0,0,0-.01,0-.02,0,0,0,0-.01-.01,0,0,0,0,0,0-.02,0-.04,0-.05,0,0,0,0,0,0,0,0,0,0,.01.01.02,0,0,0,0,0,0s0,0,0,0c0,0,0-.01-.01-.02s0,0-.01-.01c0,0,0,0,0,0-.02,0-.05,0-.07,0,0,0,.02,0,.03.01.01,0,.03.02.03.03,0,0,0,0,0,0,0,0,0,0,0,0,0-.01-.02-.02-.03-.03-.02-.01-.03-.02-.05-.02h0s-.04,0-.06,0c0,0,.01.02.02.02.01.01.03.03.04.04,0,0,0,0,0,0s0,0,0,0c-.02-.01-.03-.03-.05-.04,0,0-.02-.03-.03-.03-.04-.02-.08-.03-.13-.04-.03,0-.07,0-.1-.02,0,.02.02.04.03.05.01.02.03.03.05.03,0,0,0,0,0,0,0,.04.02.06.03.09.01.01.02.03.04.03-.02-.02-.03-.04-.04-.06-.01-.03-.02-.06-.01-.09,0,0,0,0,0,0,0,0,0,0,0,0,0,.03,0,.06.01.09.01.03.03.05.06.08,0,0,0,.01,0,.01-.03-.01-.06-.03-.08-.05-.02-.02-.03-.05-.04-.09-.02,0-.04-.02-.05-.04,0-.01-.02-.03-.02-.05,0,.1.03.18.09.26.01.02.04.04.05.05.02,0,.02.02,0,.02,0,0-.02,0-.02,0,.02,0,.04.02.05.03.03.02.05.04.05.06,0,0,0,0,0,0,0,0,0,0,0,0,0-.02-.02-.04-.04-.05-.02-.02-.06-.03-.09-.04-.03,0-.07,0-.1,0,0,0,.02.01.03.02.02.01.04.02.08.03.02,0,.04.01.05.02.02,0,.03.02.04.03,0,0,0,0,0,0s0,0,0,0c0-.01-.02-.02-.03-.03-.01,0-.03-.02-.05-.02-.04,0-.06-.02-.08-.03-.02,0-.03-.02-.04-.03.04.09.1.13.18.16,0,0,0,0,.01,0,0,0,0,0,0,0,.02,0,.04.01.06.01.02,0,.04,0,.06.01,0,0,0,0,0,0,0,0,0,0,0,0-.02,0-.04,0-.06-.01-.01,0-.03,0-.04,0,0,0-.01,0-.02,0-.05,0-.1.05-.1.11,0,0,0,0,0,0,.02-.02.04-.03.06-.04.03-.01.05-.02.08-.01,0,0,0,0,0,0,0,0,0,0,0,0-.02,0-.05,0-.07.01-.02.01-.05.03-.07.05,0,.03-.02.06-.05.08.01,0,.02.02.04.01.02,0,.04-.02.06-.02.02,0,.04,0,.06-.01,0,0,0,0,0,0s0,0,0,0c-.02,0-.04,0-.06,0-.02,0-.03.01-.05.02.05.01.1,0,.15-.01.01,0,.02,0,.03,0,.01,0,.03-.01.04-.02.01,0,.03-.01.04-.01,0,0,0,0,0,0,0,0,0,0,0,0-.02,0-.03,0-.05.02,0,0-.02.01-.03.02,0,0-.02.01-.02.01-.02.02-.03.04-.04.06,0,.02-.01.03-.02.05.01-.02.03-.05.05-.07.02-.02.05-.04.08-.06,0,0,0,0,0,0,0,0,0,0,0,0-.03.01-.05.03-.07.05-.02.02-.04.05-.05.07,0,.01,0,0-.01.02.03-.03.05-.05.07-.07.03-.02.06-.03.09-.03,0,0,0,0,0,0s0,0,0,0c-.03,0-.06,0-.08.02-.03.02-.06.05-.08.08.04,0,.08,0,.12-.01.02,0,.04-.03.05-.03,0,0,0,0,.01-.01,0,0,.02-.02.02-.02,0,0,0,0,0,0s0,0,0,0c0,0-.01.01-.02.02,0,0-.01.02-.02.02,0,0,0,0,0,0-.01.02-.03.03-.04.05-.01.05,0,.08-.03.13.02,0,.03-.02.04-.03.01-.01.02-.03.03-.05,0-.02.02-.04.04-.06.02-.02.04-.03.06-.04,0,0,0,0,0,0s0,0,0,0c-.02,0-.04.02-.05.03-.02.01-.03.03-.04.05,0,.02-.02.04-.03.05-.01.01-.02.02-.04.03.01,0,.02,0,.03,0,.02,0,.05-.01.06-.02.02-.01.03-.03.04-.04,0,0,0,0,0,0s0,0,0,0c-.01.02-.02.04-.04.05-.01,0-.03.02-.04.02.04,0,.07,0,.1-.02.01,0,.02-.04.03-.05,0-.01.02-.02.02-.03.01-.01.02-.02.04-.03,0,0,0,0,0,0,0,0,0,0,0,0-.01,0-.02.01-.03.02,0,0-.02.02-.02.03,0,.02-.01.05-.01.07,0,.05,0,.09,0,.14.01-.02.02-.03.04-.04,0,0,0,0,0,0,0-.02,0-.05.01-.07,0-.02,0-.05,0-.07,0,0,0,0,0,0,0,0,0,0,0,0,0,.02,0,.05,0,.08,0,.02,0,.04,0,.06.01-.01.01-.01.02-.02,0-.02.01-.03.02-.05,0-.02,0-.03,0-.05,0,0,0,0,0,0s0,0,0,0c0,.02,0,.04,0,.06,0,.01,0,.03-.01.04.01,0,.03-.02.04-.03,0-.02,0-.03,0-.05,0-.02,0-.03,0-.04,0,0,0,0,.01,0s0,0,0,.01c0,.01,0,.02,0,.04,0,.02,0,.04,0,.05,0,.02,0,.04.03.05.02.01.03.04.04.06,0-.03,0-.06,0-.09,0-.03,0-.06-.02-.08,0,0,0,0,0,0,0,0,0,0,0,0,.01.02.02.05.02.09,0,.03,0,.07,0,.11.02-.02.09-.05.08-.13,0,0,0-.01,0-.02,0,0,0,0,0,0s0,0,0,0c0,0,0,.02,0,.02,0,0,0,.01,0,.02,0,0,.01,0,.01,0,0,0,.01,0,.02.01,0-.01,0-.03,0-.04,0-.02,0-.04,0-.06,0,0,0,0,0,0s0,0,0,0c0,.02,0,.03,0,.05,0,.02,0,.04.01.05,0,0,0,0,0,0,0,0,.01,0,.01.02,0-.02,0-.04,0-.06,0-.03,0-.05,0-.08,0,0,0,0,0,0s0,0,0,0c0,.02,0,.05,0,.07,0,.03,0,.05,0,.07,0,0,0,0,0,0,.01.01.02.03.03.04.01-.04.02-.09.02-.14,0-.02-.01-.05-.01-.07,0-.01-.01-.02-.02-.03,0-.01-.02-.02-.03-.03,0,0,0,0,0,0,0,0,0,0,0,0,.01,0,.03.02.04.03,0,.01.02.02.02.04.01,0,.02.04.03.05.03.01.07.02.1.03-.02,0-.03-.01-.04-.02-.02-.01-.03-.03-.04-.05,0,0,0,0,0,0s0,0,0,0c0,.02.02.04.03.05.02.02.06.03.09.03-.01,0-.02-.02-.03-.03-.01-.02-.02-.03-.03-.06,0-.02-.02-.04-.03-.06-.01-.02-.03-.03-.05-.04,0,0,0,0,0,0,0,0,0,0,0,0,.02,0,.04.02.06.04.02.02.03.04.03.06,0,.02.02.04.03.05,0,.01.02.02.04.03-.02-.05-.01-.08-.02-.13,0-.03-.05-.06-.04-.07.01-.01.03.02.05.03.04.01.08.03.12.02-.03-.03-.05-.06-.08-.08-.03-.02-.05-.03-.08-.03,0,0,0,0,0,0,0,0,0,0,0,0,.03,0,.06,0,.09.03.02.02.04.04.07.07,0-.01,0,0,0-.02-.01-.03-.03-.05-.05-.08-.02-.02-.04-.04-.07-.06,0,0,0,0,0,0,0,0,0,0,0,0,.03.02.05.04.07.06.02.02.03.05.04.07,0-.02,0-.04-.01-.05,0-.02-.02-.05-.04-.07-.01-.01-.05-.03-.04-.04,0,0,0,0-.01,0-.01,0-.03-.01-.04-.01,0,0,0,0,0,0,0,0,0,0,0,0,.01,0,.03,0,.04.01,0,0,.01.01.02.01.01,0,.03.01.05.02.05.02.1.03.15.02-.02,0-.03-.02-.05-.02-.02,0-.04-.01-.06-.01,0,0,0,0,0,0s0,0,0,0c.02,0,.04,0,.06.02.02,0,.04.02.06.03.01,0,.02,0,.04,0-.03-.02-.04-.05-.04-.09h0s-.04-.04-.07-.06c-.02-.01-.05-.02-.07-.02,0,0,0,0,0,0,0,0,0,0,0,0,.03,0,.05,0,.08.02.02.01.04.03.06.05,0,0,0,0,0,0,0-.06-.04-.11-.09-.11-.02,0-.04,0-.04,0,0-.01.02,0,.05-.02.09-.02.15-.06.19-.15-.01,0-.03.02-.04.03-.02,0-.04.02-.08.03-.02,0-.03,0-.05.02-.01,0-.03.02-.04.03,0,0,0,0-.01,0s0,0,0-.01c.01-.01.02-.02.04-.03.02,0,.03-.01.05-.02.03,0,.06-.02.08-.02.01,0,.02-.01.03-.02-.03,0-.07,0-.1,0-.03,0-.06.02-.09.03-.02.01-.04.03-.04.05,0,0,0,0,0,0,0,0,0,0,0,0,0-.02.02-.04.05-.06.02,0,.03-.02.05-.02,0,0-.02,0-.02,0-.03,0-.02-.02,0-.02.02,0,.04-.03.06-.05.06-.07.1-.16.11-.25,0,.02-.02.03-.03.04-.01.02-.03.03-.05.03,0,.04-.02.06-.04.09-.02.02-.05.04-.08.05,0,0-.01,0,0-.01.03-.02.05-.05.06-.07.01-.03.02-.06.02-.09,0,0,0,0,0,0,0,0,0,0,0,0,0,.03,0,.06-.02.09,0,.02-.02.04-.04.05.02,0,.03-.02.04-.03.02-.02.03-.05.04-.08,0,0,0,0,0,0,.02,0,.04-.02.05-.03.01-.01.02-.03.03-.05-.03.01-.07.01-.1.01-.05,0-.08.01-.12.03h0Z"/>
              <path class="cls-2" d="M58.68,8.8c-.15-.03-.3-.04-.45-.04-.15,0-.3,0-.46,0,0,0,0,0,0,.01,0,0,0,0,.03,0,.14,0,.29,0,.43,0s.3.02.45.04c0,0,.02-.02,0-.02h0Z"/>
              <path class="cls-3" d="M57.78,8.75c.15,0,.3-.01.45,0s.3.02.45.05v-.03s0,0,0,0c-.01,0-.03-.01-.03-.03s.01-.03.03-.03c.01,0,.02,0,.02.02v-.04c-.15-.02-.31-.04-.47-.05s-.32,0-.49,0v.04s.03-.01.03-.01c.02,0,.03.01.03.03s-.01.03-.03.03c0,0,0,0,0,0v.02s0,0,0,0h0ZM58.46,8.68s-.03.01-.03.03.01.03.03.03.03-.01.03-.03-.01-.03-.03-.03ZM58.46,8.69s-.01,0-.01.01,0,.01.01.01.01,0,.01-.01,0-.01-.01-.01ZM58.22,8.67s-.03.01-.03.03.01.03.03.03.03-.01.03-.03-.01-.03-.03-.03ZM58.22,8.68s-.01,0-.01.01,0,.01.01.01.01,0,.01-.01,0-.01-.01-.01ZM57.98,8.66s-.03.01-.03.03.01.03.03.03.03-.01.03-.03-.01-.03-.03-.03ZM57.98,8.68s-.01,0-.01.01,0,.01.01.01.01,0,.01-.01,0-.01-.01-.01Z"/>
            </g>
            <g>
              <path d="M58.24,8.5s0-.03-.02-.04c-.01-.01-.03-.02-.04-.02,0,0,0-.01,0-.02.01,0,.03-.01.04-.03.01-.01.02-.03.02-.06,0,0,.01,0,.02,0,0,.02.01.03.02.05.01.02.03.03.04.03,0,0,0,.01,0,.02-.01,0-.02,0-.03.02-.01.01-.02.03-.02.05,0,0-.01,0-.02,0h0ZM58.25,8.47s.01-.02.02-.03c0,0,.01-.01.02-.02-.01,0-.02-.02-.03-.03,0,0-.01-.02-.02-.03,0,.01-.01.02-.02.03,0,.01-.02.02-.02.02.01,0,.02.01.03.02,0,0,.01.02.02.03Z"/>
              <path d="M58.38,9.62l-.12.04s0,0-.01,0c0,0,0,0,0-.01l.12-.04s0,0,.01,0c0,0,0,0,0,.01ZM58.4,9.55l-.14.07s0,0-.01,0,0,0,0-.01l.14-.07s0,0,.01,0,0,0,0,.01ZM57.99,9.52l.13.08s0,0,0,.01,0,0-.01,0l-.13-.08s0,0,0-.01,0,0,.01,0ZM58,9.59l.11.05s0,0,0,.01c0,0,0,0-.01,0l-.11-.05s0,0,0-.01c0,0,0,0,.01,0h0ZM58.05,9.69s.06.01.08,0c.02,0,.03-.01.04-.03v-.11s-.04,0-.06-.01c-.02,0-.04-.02-.04-.04,0-.02,0-.05,0-.07,0,0,0,0,.01,0s0,0,0,.01c0,.02,0,.04,0,.06,0,.01.01.03.03.03.02,0,.04.01.07.01s.05,0,.07,0c.02,0,.03-.01.04-.03s.02-.03.01-.04c0,0,0-.01-.01-.02,0,0-.02,0-.03,0-.01,0-.02,0-.03,0,0,0-.01,0-.02,0,0,0,0,0,0,0s0,0,0,0c0,0,.01,0,.02,0,.01,0,.02,0,.04,0,.01,0,.03,0,.04.01,0,0,.02.02.02.03,0,.02,0,.04-.02.05-.01.01-.03.03-.05.03-.02,0-.04,0-.06,0v.11s0,0,0,0c0,.02.02.03.04.03.02,0,.05,0,.08,0,0,0,0,0,0,0,0,0,0,0,0,0-.03,0-.06,0-.09,0-.02,0-.04-.01-.05-.03-.01.02-.03.02-.05.03-.02,0-.05,0-.09-.01,0,0,0,0,0-.01,0,0,0,0,.01,0h0ZM58.12,9.74h.09s0,0,0,0c0,0,0,0,0,0h-.09s0,0,0,0,0,0,0,0Z"/>
              <path d="M58.28,9.06s.07-.05.1-.06c.03-.01.06-.02.08-.02,0,0,0,0,0,0,0,0,0,0,0,0-.02,0-.04,0-.07.02-.03.01-.06.03-.09.06,0,0,0,0-.01,0s0,0,0-.01h0ZM58.15,9.06s-.06-.06-.1-.07c-.03-.02-.06-.03-.08-.03,0,0,0,0,0,0,0,0,0,0,0,0,.02,0,.06,0,.09.03.03.02.07.05.1.08,0,0,0,0,0,.01,0,0,0,0-.01,0h0ZM58.09,9.28s.02-.03.03-.05c.01-.01.03-.03.04-.04,0,0,0,0,.01,0,0,0,0,0,0,.01-.01.01-.03.02-.04.03-.01.01-.02.03-.03.04,0,0,0,0-.01,0s0,0,0-.01ZM58.19,8.9s.02.03.02.05c0,.02,0,.04,0,.06,0,.02,0,.04,0,.06,0,.02-.01.04-.02.05-.01.01-.02.02-.04.02-.01,0-.02,0-.04,0,0,.02,0,.05,0,.07,0,0,0,0-.01,0,0,0-.02-.01-.03-.01s-.02,0-.03-.01h0s-.04-.02-.05-.03c-.01,0-.02-.02-.03-.03h0s-.02-.02-.02-.04c0-.01,0-.03,0-.04-.02,0-.03-.02-.04-.03-.01-.01-.03-.02-.03-.03,0,0,0,0,0-.01s0,0,.01,0c0,0,.02.02.03.03.01,0,.03.02.04.03.03,0,.05.01.08.03.02.01.05.03.07.05,0,0,0,0,0,0,0,0,0,0,0,0,.01,0,.02,0,.03,0,.01,0,.02,0,.03-.02.01-.01.02-.03.02-.05,0-.02,0-.03,0-.05h0s0-.04,0-.06c0-.02-.01-.03-.02-.05,0,0,0,0,0-.01s0,0,.01,0h0ZM58.09,9.13s-.04-.03-.07-.04c-.02-.01-.05-.02-.07-.02,0,.01,0,.02,0,.03,0,.01,0,.02.01.03h0s.02.02.03.03c.01,0,.03.02.05.03h0s.02,0,.03.01c0,0,.01,0,.02.01,0-.02,0-.04,0-.06,0,0,0,0,0,0h0ZM58.28,8.92s-.02.03-.02.04c0,.02,0,.04,0,.06h0s0,.04,0,.05c0,.02,0,.03.02.05,0,.01.02.02.03.02.01,0,.02,0,.03,0,0,0,0,0,0,0,0,0,0,0,0,0,.02-.02.05-.03.07-.04.03-.01.06-.02.08-.02.02,0,.03-.02.05-.03s.03-.02.03-.03c0,0,0,0,.01,0s0,0,0,.01c0,0-.02.02-.04.03-.01,0-.03.02-.04.02,0,.01,0,.03,0,.04,0,.01-.01.03-.02.04h0s-.02.02-.03.03c-.01,0-.03.02-.05.02h0s-.02,0-.03.01c0,0-.02,0-.03.01,0,0,0,0-.01,0,0-.02,0-.05,0-.07-.01,0-.02,0-.04,0-.01,0-.03-.01-.04-.03-.01-.02-.02-.04-.02-.06,0-.02,0-.04,0-.06,0-.02,0-.04.01-.06,0-.02.02-.03.03-.05,0,0,0,0,.01,0,0,0,0,0,0,.01h0ZM58.48,9.08s-.05,0-.07.02c-.02,0-.05.02-.07.04,0,0,0,0,0,0,0,.02-.01.04-.01.06,0,0,.01,0,.02,0,0,0,.02,0,.03-.01h0s.04-.01.05-.02c.01,0,.02-.01.03-.02h0s.01-.02.02-.03c0,0,0-.02,0-.03h0Z"/>
              <path class="cls-6" d="M58.41,9.09s-.05.02-.05.05.02.05.05.05.05-.02.05-.05-.02-.05-.05-.05ZM58.41,9.11s-.03.01-.03.03.01.03.03.03.03-.01.03-.03-.01-.03-.03-.03ZM58.4,9.12s-.02,0-.02.02,0,.02.02.02.02,0,.02-.02,0-.02-.02-.02ZM58.03,9.08s.05.02.05.05-.02.05-.05.05-.05-.02-.05-.05.02-.05.05-.05ZM58.03,9.09s.03.02.03.03-.02.03-.03.03-.03-.02-.03-.03.02-.03.03-.03ZM58.03,9.11s.02,0,.02.02,0,.02-.02.02-.02,0-.02-.02,0-.02.02-.02Z"/>
            </g>
          </g>
        </g>
        <g>
          <path class="cls-1" d="M63.56,8.89h0s-1.8-2.05-1.8-2.05l-2.37,1.36-.4,4.79c1.16.1,2.29.29,3.39.57l1.18-4.66h0Z"/>
          <path d="M59.86,9.19c.08-.02.16-.02.24.02.03.01.06.03.08.06.04-.03.07-.05.11-.08.05-.04.11-.08.17-.1.08-.04.17-.07.25-.08.09-.02.18-.02.27-.01.07,0,.15.03.22.06.06.03.13.06.19.09.07.04.13.07.2.1.08.03.18.04.28.05.05,0,.1,0,.15-.01.04-.01.06.01.02.04-.31.19-.55.02-.76-.05.08.05.14.1.2.16.08.08.17.15.32.22.09.04.2.08.33.08.04,0,.09,0,.15,0,.03,0,.04,0,.04.01,0,0,0,.03-.02.04-.08.05-.16.07-.24.07-.16.01-.33-.04-.49-.13-.13-.07-.21-.15-.31-.22-.1-.07-.19-.11-.28-.13-.09-.02-.19-.02-.27,0,.02,0,.05.02.06.03.04.03.1.04.18.05.04,0,.03.03-.04.07-.04.05-.09.08-.15.07-.09.06-.12.02-.15-.02,0,.03-.01.05-.02.07,0,.01,0,.03,0,.04.01.02.02.04.02.07,0,.01,0,.03.02.04.02.02.03.04.03.06,0,.02,0,.03.02.04.02.02.04.03.06.05.06.02.08.06.09.12.04.01.06.04.07.08.02,0,.05.02.06.04.09,0,.17,0,.25,0,.07,0,.13.05.19.11.04,0,.07,0,.11,0,.04-.02.08-.03.12-.03.07,0,.15,0,.22,0,.05.01.08.04.11.07.04.05.11.04.17.02.08-.03.14-.03.22,0,.03-.01.07-.02.1-.02.03-.03.06-.04.09-.04.05,0,.09,0,.08.07,0,.02-.01.04-.03.04-.02.05-.07.07-.13.06,0,.04-.02.06-.04.08.03.08,0,.11-.06.11-.01.02-.03.04-.06.03-.02.03-.05.04-.08.05,0,.02.01.03.03.05.04.06-.02.09-.08.09.01.04.02.08.01.12.06.03.07.07.01.11.04.07.02.12-.05.15,0,.04,0,.08-.03.1-.02.01-.04.02-.03.04.03.05.02.11-.02.11,0,0-.02,0-.02.02,0,0,0,.01-.01.02-.05.03-.1.06-.15.1,0,0-.01,0-.02,0-.03.07-.09.14-.16.22-.01.05-.04.09-.09.11,0,.02-.01.03-.03.03.03.03.04.06.01.09-.03.04-.08.07-.12.08-.09.02-.15.02-.19-.02-.03-.03-.02-.06,0-.07-.06,0-.07-.03-.07-.07,0-.02.01-.02.03-.02.03,0,.06-.02.09-.03.01-.02.03-.04.05-.05.01-.07.05-.1.11-.12.05-.02.09-.06.13-.12.03-.04.05-.09.08-.13-.02-.02-.02-.05-.02-.07-.02-.01-.04-.03-.05-.05-.04,0-.06-.02-.06-.05,0,0-.02,0-.03,0-.02.01-.04.02-.07.02-.03.03-.07.06-.1.09-.01.03-.04.05-.07.05-.08,0-.13.11-.18.16-.02.01-.03.04-.04.07,0,.06-.01.1-.04.1-.03,0-.03,0-.03,0-.01,0-.02,0-.04,0,.02.02.03.06,0,.08-.02.03-.05.04-.08.04-.06,0-.11,0-.15-.02-.04-.02-.05-.04-.05-.07-.03-.01-.04-.03-.03-.04,0-.02.02-.03.04-.02.02,0,.04-.01.06-.02.05-.06.11-.11.17-.13.02-.02.04-.04.06-.06,0-.05.04-.09.08-.13,0-.02,0-.04.02-.06,0-.01,0-.02,0-.03-.02-.03-.03-.07-.01-.1,0-.02,0-.04,0-.05-.1.06-.13.04-.14,0-.04.03-.07.05-.1,0-.04.01-.07.02-.11,0-.02,0-.05.02-.07.02-.01.02-.03.04-.05.06,0,.05-.02.09-.05.14-.02.05-.04.1-.07.15,0,.02,0,.03,0,.05,0,.06-.01.08-.04.1,0,.02-.02.05-.04.07,0,0,0,.01,0,.02.01.03.01.07-.02.1-.03.02-.06.03-.08.05-.03.02-.06,0-.09,0-.05-.02-.05-.04-.04-.05-.02,0-.03,0-.05,0-.01,0-.02-.02-.03-.02-.01-.02-.01-.04.01-.05.03-.01.05-.03.08-.05,0-.02.02-.04.04-.04.02-.04.03-.06.06-.07.02-.05.04-.09.06-.14,0-.01.01-.03.01-.04,0-.01,0-.02.01-.03,0,0,.02,0,0-.02-.01-.04,0-.08.02-.11.03-.04.06-.14.03-.18,0-.03-.01-.06,0-.08,0,0-.02,0-.03,0-.02-.01-.04,0-.06.02-.01.03-.02.06-.04.06-.01.08-.05.14-.09.15,0,.04-.01.07,0,.11,0,.04,0,.06-.02.07-.02,0-.04.02-.05.05,0,0,0,.02,0,.03.03.03.02.06,0,.09-.06.06-.13.05-.21.03-.06-.02-.07-.05-.06-.07-.08,0-.06-.07,0-.09.07-.02.13-.06.17-.13,0-.08.02-.13.06-.14,0-.05.02-.09.04-.13.02-.04.03-.08.03-.12-.04-.03-.05-.06,0-.08.01,0,.01-.02,0-.02-.03,0-.02-.03-.02-.05,0-.01,0-.02-.02-.02-.06,0-.04-.03-.02-.06.01-.01.02-.03,0-.04,0,0-.02-.03-.02-.04-.04-.03-.02-.06,0-.08-.02-.02-.03-.04-.03-.07-.07,0-.09-.04-.06-.09.02-.02.04-.04.06-.06.02-.03.03-.05.02-.08-.02-.05.04-.09.1-.12,0-.01-.01-.03-.01-.04-.03-.03-.02-.06.01-.08,0-.01-.01-.03-.01-.04-.07.01-.07-.03-.04-.1-.04-.02-.03-.07.05-.14,0-.02,0-.03,0-.04-.04,0-.07.01-.09.03-.03.02-.06.02-.09,0,0-.01-.02-.03-.04-.04-.02-.02-.02-.04-.02-.06-.09,0-.1-.06-.05-.1.03-.02.05-.05.06-.07.02-.06.07-.1.12-.14,0-.02,0-.03,0-.05-.02-.01-.04-.02-.07-.03,0-.02-.03-.05-.05-.06-.02,0-.02-.02-.01-.04-.05-.04-.03-.07-.02-.09h0Z"/>
          <g>
            <path class="cls-2" d="M61.44,11.43s-.01,0-.02,0c-.02.02-.05.05-.07.07-.02-.02-.05,0-.02.02,0,0-.01,0-.02.01-.01.03-.02.04-.05.04,0,0,0,0-.01,0,0-.01,0-.02,0-.03,0-.01,0-.03,0-.04,0,0,0,0,0,0s0,0,0,0c0,.01,0,.03,0,.04,0,.01,0,.02,0,.04-.08.02-.12.1-.17.16-.02.02-.03.05-.04.07,0,.01,0,.08-.02.08,0,0-.02,0-.02,0,0-.01-.02-.01-.03,0-.03,0-.07,0-.09,0-.02.02.03.01.06.03.01,0,.02.02.01.04-.03.06-.17.04-.22.02-.02-.01-.02-.03-.02-.04,0,0,.02,0,.03,0,.02,0,.03,0,.05-.02,0,0,0,0,0-.01s-.01,0-.01,0c-.01,0-.03.01-.04.01-.02,0-.03,0-.05,0,0,0,0,0,0,0,0,0-.01-.01-.01-.02,0,0,.02,0,.02,0,.02-.01.04-.02.07-.02.05-.05.1-.11.17-.13.02-.03.04-.05.07-.06,0-.06.04-.09.08-.13,0-.03.01-.04.02-.07,0-.01,0-.02,0-.04-.02-.03-.03-.06-.01-.1,0-.03,0-.04,0-.07,0,0,0-.01,0-.01.01-.01.03-.02.04-.03.01,0,.03-.02.04-.02,0,.02,0,.05,0,.08h0s-.01.02-.02.02c0,0,0,.02,0,.03,0,0,0,0,0,0,0,0,0,0,0,0,0,0,0-.01,0-.02,0,0,0-.01.02-.02,0,0,0,0,0,0,.02,0,.05-.01.07-.03.02-.02.04-.04.06-.06,0,.03,0,.07,0,.1-.02.02-.04.04-.05.07,0,0,0,0,0,0,0,0,0,0,0,0,.01-.02.03-.04.05-.06h0s0,0,0,0h0s0,0,0,0c.02-.02.05-.03.08-.04,0,.03,0,.06,0,.09,0,.03.02.06.05.08,0,0,0,0,0,0Z"/>
            <path class="cls-2" d="M59.99,10.59s.01-.02.02-.02c0,0,0,0,0,0,.01-.02.02-.04.03-.05.01-.02.03-.04.05-.06,0,0,0,0,0,0,0,0,0,0,0,0-.02.02-.03.03-.05.05-.01.02-.02.03-.03.05,0,0,0,.01,0,.02,0,.03,0,.05.02.07,0,0,0,0,0,0,0-.01.01-.03.02-.04.01-.01.03-.02.04-.03.01,0,.02-.02.03-.03,0,0,.01-.02.02-.03,0,0,0,0,0,0,0,0,0,0,0,0,0,.01-.01.02-.02.03,0,.01-.02.02-.03.03,0,0,0,0,0,0-.02,0-.03.02-.04.03,0,0-.01.02-.02.03,0,0,.01.02,0,.03-.02.03-.04.05,0,.07,0,.02,0,.03.02.05,0,0,0,.04-.01.06-.02.02,0,.01.02.02,0,0,0,0,0,0h0s.02-.03.03-.04c0-.01.02-.02.03-.03.01-.01.03-.03.04-.05,0-.02.01-.03.01-.05,0,0,0,0,0,0,0,0,0,0,0,0,0,.02,0,.03-.02.05,0,.02-.02.03-.04.05-.01.01-.02.02-.03.03,0,.01-.02.02-.03.04.02.02.02.04.02.07,0,0,0,0,.01,0,0,0,0,0,0,0,0,0,0-.02.01-.02l.02-.04s0,0,0,0c0,0,0,0,0,0l-.02.04s0,.02-.01.02c0,0,0,0,0,0,.02.01.02.04,0,.05-.04.03-.03.04,0,.06,0,.03,0,.06,0,.09,0,0,0,0,0,0,0,0,0,.02,0,.03v.03s0,0,0,0,0,0,0,0v-.03s0,0,0,0c0,0,0,0,0,.01-.02.05-.05.1-.06.16-.06.01-.05.07-.05.13-.05.06-.1.11-.18.14-.01,0-.05.01-.05.03,0,0,.02.02.04.01.04-.04.06-.02.01.02,0,0,0,.02,0,.02.04.04.15.05.2.02.04-.02.06-.05.02-.08,0-.05.02-.1.07-.11,0-.01,0-.03,0-.04,0-.04,0-.08.01-.12,0,0,0,0,.01-.01.02,0,.06-.06.07-.12,0-.01,0-.02,0-.04,0-.02.01-.02.02-.01,0-.01,0-.02.01-.03.02-.03.05-.05.08-.04,0-.02-.01-.05-.02-.08,0-.03,0-.07.01-.1,0,0,0,0,.01,0,0-.02.02-.05.03-.07s.02-.05.03-.07c0,0,0,0,0,0s0,0,0,0c0,.02-.02.05-.03.07,0,.02-.02.05-.03.07,0,0,0,0,0,.01,0,.03-.01.06,0,.09,0,.03.01.06.02.09,0,0,0,0,0,0,.02,0,.02.01.02.03,0,.02,0,.03,0,.05.03.06,0,.16-.03.21-.01.02-.02.05-.01.08.02.02,0,.04-.01.05,0,0,0,0,0,.01,0,.02,0,.04-.02.05-.03.05-.05.1-.07.15-.04.01-.05.03-.06.07-.02,0-.02.01-.03.03-.03.03-.05.04-.08.06-.03.01,0,.02.02.04.02.01.04-.01.05-.04.02-.02.03-.02.02,0-.01.02-.02.05-.02.06,0,.02.06.03.07.03.04,0,.08-.03.11-.05.02-.02.02-.05,0-.08h0s-.03,0-.04,0c-.02,0-.03,0-.05-.02,0,0,0,0,0,0,0,0,0,0,0,0,.02,0,.03.01.05.02.01,0,.03,0,.04,0v-.02s.04-.05.05-.08c.04-.02.04-.04.04-.08,0-.02.01-.03.01-.05.03-.05.05-.1.07-.15.03-.04.05-.08.04-.14,0-.02.01-.03.02-.03.01-.01.02-.03.03-.05,0,0,0,0,0,0,0,0,0,0,0,0,0-.01,0-.02,0-.03,0,0,0-.02.01-.02,0-.01,0-.03,0-.04,0-.01,0-.03-.01-.04,0,0,0-.01-.01-.02,0,0,0-.01,0-.02,0,0,0,0,0,0,0,0,0,0,0,0,0,0,0,0,0,.01,0,0,0,0,0,.01h0s.01.03.02.05,0,.03,0,.05c0,0,0,0,0,0,0,0,0,.01-.01.02,0,0,0,.02,0,.03,0,0,0,0,0,0,.02,0,.04,0,.07-.02h0s.02-.02.03-.04c0-.01.01-.03.02-.05,0,0,0,0,0,0,0,0,0,0,0,0,0,.02-.01.04-.02.06,0,.01-.02.03-.03.03.04.01.07,0,.1-.01,0-.05,0-.08,0-.11,0-.03.02-.05.03-.07,0,0,0,0,0,0,0,0,0,0,0,0-.01.02-.02.04-.03.06,0,.03,0,.06,0,.11,0,0,0,0,0,0,.01.02.02.04.05.02.01,0,.02-.01.03-.02,0,0,0,0,0,0,.03-.03.06-.06.08-.08.03-.02.06-.05.08-.06,0,0,0,0,0,0s0,0,0,0c-.03.02-.06.04-.08.06-.02.02-.05.04-.07.07,0,0,0,.01,0,.02,0,.03,0,.05.06.03.03,0,.03-.01.05-.03.01,0,.02-.01.03-.01.02-.01.03-.02.05-.03.01,0,.03-.02.04-.03,0-.02,0-.04.01-.05.01-.04.04-.08.07-.12,0,0,0,0,0,0,.03-.01.05-.03.06-.05.02-.02.03-.04.04-.06,0,0,0,0,0,0,0,0,0,0,0,0,0,.02-.02.04-.04.06-.02.02-.04.04-.06.05-.03.04-.05.07-.07.12,0,.01,0,.03-.01.04,0,0,0,0,0,0,0,0,0,0,0,0,0,0,0,0,0,0,0,.02,0,.05,0,.08.02,0,.04-.01.06-.03.02-.02.05-.04.07-.07,0,0,0,0,0,0,0-.02.01-.03.02-.05,0-.01.02-.02.04-.03,0,0,0,0,0,0,0,0,0,0,0,0-.01,0-.02.02-.03.03,0,.01-.02.03-.02.05,0,.03,0,.07,0,.1,0,0,0,0,0,0,.03-.02.05-.03.09-.05,0,0,0,0,0,0,0,.03,0,.06,0,.09,0,.03.02.05.04.07,0-.02.02-.03.03-.04,0,0,0,0,.01-.01,0,0,0,0,0,0,0,0,.02-.02.03-.03,0,0,.01-.01.02-.02,0,0,.01-.01.02-.02,0,0,0,0,0,0s0,0,0,0c0,0-.01.01-.02.02,0,0-.01.01-.02.02h0s-.02.02-.03.02c0,0,0,.02,0,.03,0,0,0,0,0,.01.02,0,.03,0,.05,0,0,.04.01.05.05.05,0-.01,0-.03,0-.04,0-.02,0-.03.01-.05,0,0,0,0,0,0,0,0,0,0,0,0,0,.01,0,.03-.01.04,0,.01,0,.03,0,.04h0s.03.04.06.06c0-.01.01-.03.02-.04,0-.01,0-.03,0-.04,0,0,0,0,0,0,0,0,0,0,0,0,0,.02,0,.03,0,.05s-.01.03-.02.05c0,0,0,0,0,0,0,.02,0,.03.01.04,0,0,0-.02.01-.03,0-.01.02-.02.03-.03,0,0,0,0,0,0,0,0,0,0,0,0,0,0-.02.02-.02.03,0,.01-.01.02-.02.03,0,0,0,.01.01.02-.06.1-.12.23-.23.28-.06.02-.08.05-.09.11-.02.02-.04.03-.05.06-.04.01-.07.03-.11.03,0,.03,0,.04.04.04.05-.03.06-.03.07-.03,0,0,0,.04-.05.07,0,0,0,0,0,.01.04.06.13.04.18.02.04,0,.1-.05.12-.09,0-.02,0-.04-.02-.05-.07.01-.06-.06,0-.03.02,0,.02,0,.03-.03.05-.02.08-.04.09-.1.05-.06.11-.12.15-.19.01-.01.02-.04.01-.05,0-.01.02-.03.02-.04,0-.01,0-.03,0-.04,0,0,0,0,0,0s0,0,0,0c0,.02,0,.03,0,.05,0,.01,0,.02-.01.03,0,0,0,.01.01.01.05-.04.1-.07.15-.1,0-.02.02-.03.04-.03,0,0,.01,0,.01-.01.01-.03,0-.05-.02-.08-.01-.04.01-.05.03-.06.02-.02.02-.07.02-.1h0s0,0,0-.01c0,0,0-.02,0-.03,0,0,0,0,0,0,0,0,0,0,0,0,0,.01,0,.02,0,.03,0,0,0,0,0,.01.02-.01.05-.03.06-.05,0-.03,0-.06-.02-.08,0,0-.01,0-.02,0-.01,0-.02.01-.04.02,0,0,0,0,0,0s0,0,0,0c.01,0,.02-.01.04-.02,0,0,.02,0,.03-.01.01,0,.02-.01.03-.02.02-.02-.03-.05-.04-.06,0,0,0,0,0,0-.02-.02-.05-.04-.07-.06,0,0,0,0,0,0s0,0,0,0l.06.06s0-.07,0-.11c0-.01,0-.02-.01-.03,0,0,0,0,0,0-.02,0-.03-.02-.04-.04,0-.01-.01-.03-.01-.05,0,0,0,0,0,0,0,0,0,0,0,0,0,.02,0,.03.01.04,0,.01.02.02.04.03.02,0,.06,0,.08,0,.03-.02,0-.06-.02-.08,0-.02,0-.03-.01-.05,0,0,0,0,0,0,0,0,0,0-.01-.01,0,0-.01,0-.02-.01,0,0,0,0,0,0,0,0,0,0,0,0,0,0,.01,0,.02.01,0,0,.01.01.02.02,0,0,0,0,0,0,.03,0,.05-.02.07-.05-.01-.01-.02-.02-.04-.04-.01-.01-.03-.02-.04-.03,0,0,0,0,0,0s0,0,0,0c.01.01.03.02.04.03.01.01.03.02.04.04,0,0,0,0,0,0,.03,0,.03,0,.05-.03,0-.01,0-.03-.02-.04,0-.01-.02-.02-.03-.04,0,0,0,0,0,0,0,0,0,0,0,0,.01.01.02.02.03.04,0,.01.01.03.02.04.01,0,.03,0,.04,0,.03-.02,0-.07,0-.09,0,0,0,0,0,0,0,0,0,0-.01,0,0,0-.01,0-.02-.01,0,0,0,0,0,0,0,0,0,0,0,0,0,0,.01,0,.02.01,0,0,0,0,.01,0h0s.03-.04.03-.06c0-.03.01-.02.05-.02.04,0,.06-.01.09-.06.01,0,.02-.01.02-.03,0-.03,0-.04-.03-.04-.04,0-.07,0-.1.03,0,0,0,.01.01.02,0,0,0,0,0,0,0,0,0,0,0,0v-.02c-.05,0-.08,0-.12.02h-.01s.01.02.02.03c0,.01,0,.03.01.04,0,0,0,0,0,0s0,0,0,0c0-.01,0-.02,0-.04s-.02-.03-.03-.04h0s-.06-.02-.09-.02c0,0,0,0,.01.01,0,0,.01.01.02.02,0,0,0,0,0,0,0,0,0,0,0,0,0,0-.01-.01-.02-.02,0,0-.01-.01-.02-.02,0,0,0,0,0,0-.03,0-.05,0-.08.02-.02,0-.04.01-.05.02.01.01.02.03.03.04,0,.02.02.04.02.06,0,0,0,0,0,0s0,0,0,0c0-.02-.01-.04-.02-.05s-.02-.03-.03-.04c0,0,0,0,0,0-.02,0-.03,0-.05,0l.02.03s0,0,0,0c0,0,0,0,0,0l-.02-.04s-.03,0-.04-.02c0,.02,0,.04.01.06,0,.03,0,.05,0,.08,0,0,0,0,0,0s0,0,0,0c0-.03,0-.06,0-.08,0-.02,0-.05-.01-.07,0,0-.01-.01-.02-.02-.02-.02-.03-.03-.05-.04,0,0,0,.02,0,.02,0,.01,0,.03-.02.04,0,0,0,0,0,0,0,0,0,0,0,0,.01-.01.02-.03.02-.04,0,0,0-.02,0-.03-.03-.01-.06-.02-.1-.02,0,.01.02.02.03.04,0,.01.02.03.03.04.01.01.02.03.03.04,0,.01,0,.03,0,.05,0,0,0,0,0,0s0,0,0,0c0-.02,0-.03,0-.04,0-.01-.01-.03-.02-.04,0,0,0,0,0,0,0-.02-.02-.03-.03-.04,0-.01-.02-.03-.03-.04h0s-.02,0-.04,0c0,0,0,0,0,0,0,0,0,.01,0,.02,0,0,0,0,0,0s0,0,0,0c0,0,0-.01,0-.02,0,0,0,0-.01-.01-.02,0-.05,0-.07,0,.02.03.04.06.06.1.02.04.03.08.03.11,0,0,0,0,0,0,0,0,0,0,0,0,0-.04-.02-.08-.03-.11-.02-.03-.04-.07-.06-.1,0,0,0,0,0,0-.02,0-.04,0-.06.01,0,0,.02.01.02.02,0,0,.02.01.02.02,0,0,0,0,0,0s0,0,0,0c0,0-.01-.01-.02-.02,0,0-.02-.01-.03-.02,0,0-.02,0-.03.01,0,0-.01,0-.02,0,.02.01.03.02.05.04.02.02.04.04.05.06,0,0,0,0,0,0s0,0,0,0c-.01-.02-.03-.04-.05-.06-.02-.02-.03-.03-.05-.04-.02,0-.04,0-.06,0,.01.02.02.05.03.07,0,.03.02.05.02.08,0,0,0,0,0,0s0,0,0,0c0-.03,0-.05-.02-.08,0-.03-.02-.05-.03-.08-.01,0-.02,0-.04,0,0,.02.01.05.02.07,0,.03.01.06.02.09,0,0,0,0,0,0,0,0,0,0,0,0,0-.03,0-.06-.01-.08,0-.03-.01-.05-.02-.08-.04-.04-.07-.08-.12-.09,0,.01.02.03.02.04,0,.02.01.04.01.07,0,0,0,0,0,0,0,0,0,0,0,0,0-.02,0-.04-.01-.06,0-.02-.02-.03-.03-.05-.01,0-.02,0-.03,0-.03,0-.06,0-.09,0,.02.02.04.04.04.07,0,0,0,0,0,0s0,0,0,0c0-.02-.02-.04-.05-.07-.02,0-.04,0-.06,0,.01.01.02.02.03.03,0,.01.02.03.02.04h0s0,.04.02.06c0,.02.02.03.04.04,0,0,0,0,0,0s0,0,0,0c-.02,0-.04-.02-.05-.04-.01-.02-.02-.04-.02-.06,0-.01,0-.03-.02-.04,0-.01-.02-.02-.03-.04-.02,0-.04,0-.06,0,0,.02.01.05.02.08,0,.03,0,.06,0,.1,0,0,0,0,0,0s0,0,0,0c0-.03,0-.06,0-.1,0-.03-.01-.05-.02-.08h0s-.03-.03-.05-.04c0,0,0,0,0,0,0,0,0,.01,0,.02,0,0,0,0,0,0s0,0,0,0c0,0,0-.01,0-.02,0,0,0,0,0,0,0,0,0,0,0,0,0-.04-.02-.06-.05-.07,0,.01,0,.02,0,.04,0,.02,0,.03-.02.05,0,0,0,0,0,0,0,0,0,0,0,0,0-.01.01-.03.02-.04,0-.01,0-.03,0-.04,0,0,0,0,0,0,0-.06-.02-.09-.08-.11,0,0,0,.02,0,.02,0,.01,0,.03,0,.04,0,0,0,0,0,0s0,0,0,0c0-.01,0-.03,0-.04,0-.01,0-.02,0-.03-.01-.01-.03-.03-.05-.04,0,.02,0,.04,0,.06,0,.03-.02.05-.04.08,0,0,0,0,0,0,0,0,0,0,0,0,.02-.03.03-.05.04-.08,0-.02,0-.05,0-.07,0,0-.01-.02-.02-.02,0,0,0,0,0,0,0,0,0,.01,0,.02,0,0,0,0,0,0,0,0,0,0,0,0,0,0,0-.01,0-.02,0,0,0,0,0-.01,0,0,0,0,0,0,0-.02-.01-.03-.03-.05h0s0,.01,0,.02c0,0,0,.02-.02.03,0,0,0,0,0,0,0,0,0,0,0,0,0,0,.01-.02.02-.03,0,0,0-.01,0-.02,0,0-.01-.01-.01-.02,0,0,0,.01,0,.02,0,0-.01.01-.02.02,0,0,0,0,0,0s0,0,0,0c0,0,.01-.01.02-.02s0-.01,0-.02c0,0,0,0,0-.02,0-.03,0-.04-.02-.07,0,0,0,0,0,0,0,0-.02,0-.03,0-.01,0-.03.01-.04.02,0,0,0,0,0,0,0,0,0,0,0,0,.02-.01.03-.02.04-.03.01,0,.03,0,.04,0,0,0,0-.01,0-.02-.04.02-.08.02-.11.03-.03,0-.05,0-.07-.01,0,0,0,0,0,0,0,0,0,0,0,0,.02,0,.04.01.07.01.03,0,.06,0,.11-.03,0,0,0,0,0,0,0-.02.01-.04.02-.05-.02,0-.03,0-.05,0h0s0,0,0,0,0,0,0,0h0s.03,0,.05,0c0,0,0-.01,0-.02,0-.02.03-.02.04,0,.01.01.03.03.04.04.03.01.06,0,.08-.02,0,0-.01,0-.02,0,0,0,0,0,0,0,0,0,0,0,0,0,0,0,.02,0,.03,0,0,0,0,0,0,0,.06,0,.09,0,.13-.04-.03,0-.06,0-.08,0-.03,0-.05,0-.06-.02,0,0,0,0,0,0,0,0,0,0,0,0,.02,0,.04.01.06.02.03,0,.06,0,.09,0h0s0,0,0-.01c.02,0,.03-.01.04-.03-.06,0-.13-.02-.18-.05-.01-.02-.04-.03-.06-.03-.05,0-.09,0-.13.03,0,0-.02-.02-.03-.03-.01,0-.03,0-.04-.01-.02,0-.04,0-.06,0,0,0,0,0,0,0,0,0,0,0,0,0,.02,0,.04,0,.06,0,.02,0,.04.01.06.01.06-.02.12-.04.16-.03.05-.02.11-.02.16-.02,0,0,0,0,0,0,0,0,0,0,0-.01.03-.03.04-.06.03-.08,0-.03-.04-.05-.07-.07-.04,0-.08,0-.12,0-.03,0-.05,0-.08.02.02,0,.04.02.05.04.02.02.03.05.04.09,0,0,0,0,0,.01,0,0,0,0-.01,0,0-.03-.02-.06-.04-.08-.02-.03-.06-.03-.07-.04-.04,0-.08,0-.12.02-.03,0-.05.02-.07.03.03,0,.06,0,.08,0,.02.01.04.03.06.07,0,0,0,0,0,.01s-.01,0-.01,0c-.01-.03-.03-.05-.05-.06-.04-.02-.12,0-.15.02-.02.01-.04.03-.06.06,0,0,0,0-.02,0,0,0,0-.01,0-.02.02-.02.04-.04.06-.06.02-.02.04-.03.06-.03.02-.02.06-.04.09-.05.04,0,.08-.01.12-.02-.01-.03-.03-.04-.05-.05-.02,0-.04-.01-.07,0-.05.02-.1.05-.14.08,0,0,0,0,.01,0,.01,0,.02,0,.04,0,0,0,0,0,0,.01,0,.01-.03,0-.04,0-.01,0-.02,0-.04,0,0,0,0,0,0,0-.05.03-.09.07-.14.11h0s-.07,0-.08.02c-.01.01-.02.03-.01.05,0,.02-.02.05-.02.07-.05.04-.1.08-.12.14,0,.02-.01.03-.03.05,0,0,.02,0,.02,0,0,0,0,0,0,0,0,0,0-.02,0-.03,0-.01,0-.03.01-.04,0,0,0,0,0,0,0,0,0,0,0,0,0,0-.01.02-.01.03,0,.02,0,.03,0,.05,0,0,0,0,0,0,0,0,0-.01-.01-.02,0,0-.01,0-.03,0,0,.01-.02.02-.03.03,0,0-.02.02-.02.03,0,.02.02.03.05.03.06,0,.01.04.04.06.02.01.03.02.04.04.02,0,.03,0,.05,0,0-.04,0-.06.02-.06h0s0,0,0-.01c0,0,0-.01.01-.02,0,0,0,0,0,0s0,0,0,0c0,0,0,.01-.01.02,0,0,0,.01,0,.02,0,0,0,.02,0,.04.03-.02.06-.02.09-.02.06-.07.09-.05.03,0,0,0,0,.01,0,.02,0,.02-.02.03-.02.06-.02.01-.09.08-.06.1.02,0,.03,0,.03.01,0,.02-.04.06-.03.09,0,0,.02,0,.03,0,0,0,0,0,0,0,.02-.02.04-.04.06-.06.02-.02.04-.05.05-.07,0,0,0,0,0,0,0-.02.01-.04.02-.07,0-.02.02-.05.03-.07,0,0,0,0,0,0,0,.01.02.02.02.03,0,0,.01,0,.02,0s.01,0,.02,0c0,0,.02-.01.02-.03,0,0,0,0,0,0s0,0,0,0c0,.01-.02.02-.03.03s-.02,0-.03,0c0,0-.02,0-.03,0,0,0-.01-.01-.02-.02,0,.02-.02.04-.02.06,0,.02-.02.05-.02.07,0,0,0,0,0,.01-.02.03-.04.06-.06.08-.02.02-.03.04-.05.05,0,.02,0,.03.01.05.03-.03.06-.06.09-.09.03-.03.05-.06.07-.09,0,0,0,0,0,0s0,0,0,0c0,.02-.02.03-.03.05,0,0,0,0,0,0,0,0,0,.01,0,.03,0,.02,0,.05,0,.06,0,0,0,0,0,0s0,0,0,0c0-.02,0-.04,0-.07,0,0,0-.01,0-.01,0,0-.01.02-.02.03-.03.03-.06.06-.09.09,0,0,0,0,0,0,0,0,0,0,0,0-.03.02-.05.03-.02.06l.03-.02.04-.03s0,0,0,0,0,0,0,0l-.04.03s-.02.02-.03.02c0,.01,0,.02,0,.03,0,0,0,0,0,0,.02-.02.05-.04.07-.05,0,0,0,0,0,0s0,0,0,0c-.02.02-.05.04-.07.05,0,0,0,0,0,.01-.02.02-.11.07-.1.11h0s.04-.01.06-.02c.02-.01.04-.02.06-.04,0,0,0,0,0,0,0,0,0,0,0,0-.02.02-.04.03-.06.05h0s0,0,0,.01,0,0,0,0c0,0,0,0,0,0s0,0,0,0c0,0,0,0,0,0,0,0,0,0,0,0-.02,0-.03.01-.05.02,0,.03-.01.06-.03.09-.01,0-.1.08-.06.1,0,0,.02,0,.03,0h0Z"/>
            <path class="cls-2" d="M60.03,9.39s-.04-.02-.06-.03c-.01-.02-.03-.04-.05-.05-.02-.01-.02,0-.01-.02.02,0,.03,0,.03-.01,0,0,.02,0,.03,0,0,0,.01,0,.02.01,0,0,0,0,0,0,0,0,0,0,0,0,0,0-.01-.01-.02-.02,0,0-.02,0-.03,0,0,0,0,0,0,0,0,0-.02,0-.03,0-.01-.01-.02-.03-.02-.04,0,0,0,0,0,0,0,0,.02,0,.03,0,0,0,.01,0,.02.01,0,0,0,0,0,0s0,0,0,0c0,0-.01-.01-.02-.01,0,0-.01,0-.02,0,.07-.01.14-.01.2.03.03.01.05.03.07.06,0,0-.01.01-.02.02-.04,0-.07,0-.09.02-.02.01-.02.04-.02.06h0Z"/>
          </g>
          <g>
            <path d="M61.48,11.41s-.03.02-.04.02c0,0,0,0,0,0,0-.02.02-.03.03-.05,0,0,0,0,0,0,0,0,0,.01,0,.02,0,0,0,.01,0,.02h0Z"/>
            <path d="M61.67,11.81s-.02.03-.04.04c-.01.01-.03.02-.04.03,0,0,0,0,0,0s0,0,0,0c.02-.01.03-.02.04-.03.01-.01.02-.02.03-.04,0,0,0,0,0,0,0,0,0,0,0,0Z"/>
            <path d="M61.79,11.66s-.01.02-.02.03c0,0,0,0,0,0,0,0,0,0,0,0,0,0,.01-.02.02-.03,0,0,0,0,0,0,0,0,0,0,0,0h0Z"/>
            <path d="M61.72,11.65s0,.03-.02.04-.02.02-.04.03c0,0,0,0,0,0s0,0,0,0c.02,0,.03-.02.04-.03,0-.01.01-.02.02-.04,0,0,0,0,0,0s0,0,0,0Z"/>
            <path d="M61.84,11.51s0,.01-.01.02c0,0,0,.01,0,.02,0,0,0,0,0,0s0,0,0,0c0,0,0-.02.01-.02s0-.01.01-.02c0,0,0,0,0,0,0,0,0,0,0,0h0Z"/>
            <path d="M61.94,11.52s0,.03-.01.04c0,.01-.01.03-.02.04,0,0,0,0,0,0s0,0,0,0c0-.01.01-.03.02-.04,0-.01,0-.03.01-.04,0,0,0,0,0,0s0,0,0,0Z"/>
            <path d="M61.89,10.95s.04.09.04.14c0-.02,0-.03.01-.05,0,0,0,0,0,0,.01-.02.02-.04.02-.05s0-.04,0-.05c0,0,0,0,0,0,0,0,0,0,0,0,0,.02,0,.04,0,.06,0,.02-.01.04-.03.06,0,.03-.01.06-.02.09h0s0,0,0,0c0,0,0,0,0-.01,0-.06,0-.12-.04-.17,0,0,0,0,0,0,0,0,0,0,0,0h0Z"/>
            <path d="M61.82,11.04s0,0,0,.01c0,0,0,0,0,.01,0,0,0,0,0,0s0,0,0,0c0,0,0,0,0-.01,0,0,0,0,0-.01,0,0,0,0,0,0s0,0,0,0Z"/>
            <path d="M61.8,11.17s.01.05.02.08c0,.02,0,.04,0,.05,0,0,0,0,0,0,0,0,.02-.02.03-.03,0,0,0,0,0,0s0,0,0,0c-.01,0-.02.01-.03.02,0,0-.01.02-.01.03,0,0,0,0,0,0,0-.03,0-.05,0-.08s0-.05-.02-.07c0,0,0,0,0,0s0,0,0,0Z"/>
            <path d="M61.9,11.22s0,.04,0,.06,0,.04,0,.05c0,0,0,0,0,0s0,0,0,0c0-.02,0-.03,0-.05,0-.02,0-.04,0-.06,0,0,0,0,0,0,0,0,0,0,0,0Z"/>
            <path d="M61.99,11.2s0,.04,0,.05c0,.02,0,.03-.01.05,0,.02,0,.04,0,.05,0,.02.01.04.02.06,0,0,0,0,0,0s0,0,0,0c0-.02-.02-.04-.02-.06,0-.02,0-.04,0-.06h0s0-.03.01-.05c0-.02,0-.03,0-.05,0,0,0,0,0,0s0,0,0,0h0Z"/>
            <path d="M62.03,11.06s0,.02,0,.03c0,0,0,.02,0,.03,0,0,0,0,0,0s0,0,0,0c0,0,0-.02,0-.03,0,0,0-.02,0-.03,0,0,0,0,0,0,0,0,0,0,0,0h0Z"/>
            <path d="M61.99,10.81s0,.02,0,.03c0,0,0,0,0,0,0,0,0,0,0,0,0,0,0-.02,0-.03,0,0,0,0,0,0s0,0,0,0h0Z"/>
            <path d="M62.01,10.63s0,.02,0,.07c-.01,0-.02.02-.02.04,0,.01,0,.03,0,.05,0,0,0,0,0,0s0,0,0,0c0-.02,0-.04,0-.06,0-.02.01-.03.02-.04v-.03s0-.02,0-.03c0,0,0,0,0,0s0,0,0,0h0Z"/>
            <path d="M61.83,10.56s.05.04.07.06c.02.02.03.05.03.09,0,0,0,0,0,0-.02,0-.03-.01-.05-.02.01.07,0,.12,0,.17-.02.04-.05.08-.09.09,0,0,0,0,0,0,0-.03.01-.05.02-.08s0-.05,0-.08c0,0,0,0,0,0,0,0,0,0,0,0,0,.03,0,.05,0,.08,0,.02,0,.05-.01.07.03-.02.06-.04.07-.08.02-.04.02-.1,0-.17,0,0,0,0,0,0,.02,0,.03.01.05.02,0-.03,0-.05-.02-.07-.02-.02-.04-.04-.07-.06,0,0,0,0,0,0,0,0,0,0,0,0h0Z"/>
            <path d="M62.31,10.47s0,0,0,0,0,0,0,0c0,0,0,0,0,0s0,0,0,0c0,0,0,0,0,0s0,0,0,0c0,0,0,0,0,0s0,0,0,0Z"/>
            <path d="M62.2,10.47s.02,0,.02.02c0,0,.01.01.01.02,0,0,0,0,0,0,0,0,0,0,0,0,0,0,0-.01-.01-.02s-.01,0-.02-.01c0,0,0,0,0,0s0,0,0,0h0Z"/>
            <path d="M62.03,10.51s.02.03.02.05c0,.02,0,.04,0,.06,0,0,0,0,0,0s0,0,0,0c0-.02,0-.04,0-.05,0-.02-.01-.03-.02-.04,0,0,0,0,0,0,0,0,0,0,0,0h0Z"/>
            <path d="M61.46,10.57s0,.01,0,.02c0,0,0,.01,0,.02,0,0,0,0,0,0s0,0,0,0c0,0,0-.01,0-.02,0,0,0-.01,0-.02,0,0,0,0,0,0s0,0,0,0h0Z"/>
            <path d="M61.57,10.51s0,.02,0,.03h0s0,.01,0,.01,0,0,0,0h0s0-.03,0-.04c0,0,0,0,0,0s0,0,0,0Z"/>
            <path d="M61.78,10.66s0,0,0,.01c0,0,0,0,0,.01,0,0,0,0,0,0s0,0,0,0c0,0,0,0,0-.01,0,0,0,0,0-.01,0,0,0,0,0,0s0,0,0,0h0Z"/>
            <path d="M61.86,10.49s0,0,0,.01c0,0,0,.01,0,.02,0,0,0,0,0,0,0,0,0,0,0,0,0,0,0,0,0,0s0,0,0-.01c0,0,0,0,0,0,0,0,0,0,0,0h0Z"/>
            <path d="M61.34,10.52s0,.02,0,.03c0,.01,0,.02.02.03.01.01.02.03.02.04,0,.01,0,.03,0,.04,0,0,0,0,0,0s0,0,0,0c0-.01,0-.02,0-.04,0-.01,0-.02-.02-.03,0,0-.02-.02-.02-.03,0-.01,0-.02,0-.04,0,0,0,0,0,0s0,0,0,0h0Z"/>
            <path d="M61.55,10.66s.02.04.02.06c0,.02,0,.04,0,.07,0,.03,0,.05.02.08.01.02.03.04.06.06,0-.03-.01-.06-.01-.08,0-.03.01-.06.03-.09,0-.01.02-.03.02-.04,0-.01,0-.03,0-.04,0,0,0,0,0,0,0,0,0,0,0,0,0,.01,0,.03,0,.04s-.01.03-.02.04c-.02.03-.03.06-.03.09,0,.03,0,.06.02.09,0,0,0,0,0,0-.03-.02-.06-.05-.07-.07-.02-.03-.02-.05-.02-.08,0-.02,0-.04,0-.06s0-.04-.02-.06c0,0,0,0,0,0,0,0,0,0,0,0h0Z"/>
            <path d="M61.47,10.79s0,.05-.02.07c0,.02-.02.04-.04.05,0,0,.01,0,.02,0,.01,0,.03-.01.04-.02,0,0,.02-.01.03-.02,0,0,.02-.02.03-.03,0,0,0,0,0,0s0,0,0,0c0,.01-.02.02-.03.03,0,0-.02.02-.03.02,0,0,0,.01,0,.02,0,0,0,.01,0,.02,0,0,0,0,0,0,0,0,0,0,0,0,0,0,0-.01,0-.02,0,0,0,0,0-.01-.01,0-.02.01-.03.02-.01,0-.03.01-.04.02,0,0,0,0,0,0,.02-.02.03-.04.05-.07.01-.02.02-.04.02-.06,0,0,0,0,0,0s0,0,0,0Z"/>
            <path d="M61.36,10.78v.02s0,0,0,0,0,0,0,0v-.02s0,0,0,0,0,0,0,0Z"/>
            <path d="M61.3,10.66s.02.06.01.09c0,.03-.02.05-.04.08h0s-.03.04-.04.06c0,.02-.01.03-.02.05,0,0,.01-.01.02-.02.01-.01.03-.02.05-.03.02-.01.04-.02.06-.04.02-.01.04-.03.05-.05,0,0,0,0,0,0s0,0,0,0c-.02.02-.03.03-.05.05s-.04.03-.06.04h0s-.03.01-.04.03-.02.03-.03.04c0,0,0,0,0,0,0-.03.01-.05.02-.08s.03-.04.05-.06c.02-.02.03-.05.04-.08s0-.06-.01-.09c0,0,0,0,0,0,0,0,0,0,0,0h0Z"/>
            <path d="M61.51,10.99s0,.02.02.03c0,0,0,0,0,.01.02.02.02.05.02.08,0,.03,0,.06,0,.08,0,0,0,0,0,0,0-.03-.02-.06-.04-.08-.02-.02-.04-.05-.07-.06,0,0,0,0,0,0,0,0,0,0,0,0,.03.02.06.04.08.07.02.02.03.04.03.06,0-.02,0-.04,0-.06,0-.03,0-.05-.02-.07,0,0,0,0,0-.01-.02-.02-.02-.03-.02-.04,0,0,0,0,0,0s0,0,0,0h0Z"/>
            <path d="M61.6,10.98s0,0,.01.01c0,0,0,0,.01.01,0,0,0,0,0,0s0,0,0,0c0,0,0,0-.01-.01,0,0,0,0-.01-.01,0,0,0,0,0,0s0,0,0,0Z"/>
            <path d="M61.71,11.02s-.01.04-.02.07c0,.02-.01.04-.02.07,0,0,0,0,0,0,0,0,0,0,0,0,0-.02.01-.04.02-.07,0-.02.01-.04.02-.07,0,0,0,0,0,0,0,0,0,0,0,0Z"/>
            <path d="M61.77,11.38s0,.01,0,.02c0,0,0,0,0,0,0,0,0,0,0,0,0,0,0-.02,0-.02,0,0,0,0,0,0,0,0,0,0,0,0h0Z"/>
            <path d="M61.7,11.27s0,.02,0,.03c0,.01,0,.02,0,.03,0,0,0,0,0,0,0,0,0,0,0,0,0-.01,0-.02,0-.03,0-.01,0-.02,0-.03,0,0,0,0,0,0,0,0,0,0,0,0Z"/>
            <path d="M61.61,11.27h0s0,.01,0,.02c0,0,0,0,0,0h0s0-.01,0-.02c0,0,0,0,0,0Z"/>
            <path d="M61.5,11.22s0,.01,0,.02c0,0,0,.01,0,.02,0,0,0,0,0,0,0,0,0,0,0,0,0,0,0-.01,0-.02,0,0,0-.01,0-.02,0,0,0,0,0,0s0,0,0,0h0Z"/>
            <path d="M61.34,11.39s0,.01-.01.02c0,0,0,.02,0,.02,0,0,0,0,0,0,0,0,0,0,0,0,0,0,0-.02,0-.03,0,0,0-.02.01-.02,0,0,0,0,0,0s0,0,0,0h0Z"/>
            <path d="M60.9,11.82s0,0,0,.01c0,0,0,0-.01.01,0,0,0,0,0,0,0,0,0,0,0,0,0,0,0,0,.01-.01,0,0,0,0,0-.01,0,0,0,0,0,0,0,0,0,0,0,0h0Z"/>
            <path d="M60.97,11.79s0,0,0,.01c0,0,0,0-.02,0,0,0,0,0,0,0,0,0,0,0,0,0,0,0,0,0,.01,0s0,0,0,0c0,0,0,0,0,0s0,0,0,0h0Z"/>
            <path d="M61.06,11.73s0,0,0,0,0,0,0,0c0,0,0,0,0,0s0,0,0,0c0,0,0,0,0,0,0,0,0,0,0,0s0,0,0,0c0,0,0,0,0,0h0Z"/>
            <path d="M61.2,11.37s0,.03,0,.04,0,.03,0,.04c0,0,0,0,0,0s0,0,0,0c0-.01,0-.03,0-.04s0-.03,0-.04c0,0,0,0,0,0s0,0,0,0h0Z"/>
            <path d="M61.29,10.4s0,.02,0,.03-.01.02-.02.03c0,0,0,0,0,0s0,0,0,0c0,0,.02-.02.02-.03,0,0,0-.02,0-.03,0,0,0,0,0,0s0,0,0,0Z"/>
            <path d="M61.2,10.31s.01.03.02.04c0,.01,0,.03,0,.04,0,0,0,0,0,0s0,0,0,0c0-.01,0-.03,0-.04,0-.01,0-.03-.02-.04,0,0,0,0,0,0s0,0,0,0Z"/>
            <path d="M61.07,10.47s-.03-.03-.04-.04c0-.01-.01-.03,0-.04,0,0,0,0,0,0,0,0,0,0,0,0,0,.01,0,.02,0,.03,0,.01.02.02.04.04,0,0,0,0,0,0s0,0,0,0h0Z"/>
            <path d="M61.21,10.72h0v.02s0,0,0,0,0,0,0,0h0v-.02s0,0,0,0,0,0,0,0Z"/>
            <path d="M61.03,10.53s.05.06.05.1c0,.02,0,.05,0,.07,0,0,0,0,0,0,.01,0,.02-.02.03-.03,0-.02.01-.05.01-.08,0,0,0,0,0,0,.01-.02.02-.03.02-.05s0-.03,0-.05c0,0,0,0,0,0,.02.02.03.05.04.07s.02.05.02.08c0,0,0,0,0,0s0,0,0,0c0-.03-.01-.06-.02-.08,0-.02-.02-.04-.03-.06,0,.01,0,.03,0,.04,0,.02-.01.03-.02.05,0,.04,0,.06-.01.08,0,.02-.02.03-.04.04,0,0,0,0,0,0,0,.01,0,.02,0,.04,0,0,0,0,0,0s0,0,0,0c0-.04,0-.08,0-.11,0-.03-.03-.07-.05-.09,0,0,0,0,0,0s0,0,0,0h0Z"/>
            <path d="M61.14,10.99s0,.03,0,.04c0,.01,0,.03,0,.04,0,0,0,0,0,0,0,0,0,0,0,0,0-.01,0-.03,0-.04,0-.01,0-.03,0-.04,0,0,0,0,0,0,0,0,0,0,0,0Z"/>
            <path d="M60.93,11.07s0,.02,0,.03c0,0,0,0,0,0,0,0,0,0,0,0,0,0,0-.02,0-.03,0,0,0,0,0,0,0,0,0,0,0,0h0Z"/>
            <path d="M61.11,10.84s0,.04-.01.06c0,.02-.02.04-.03.05h0s-.03.04-.03.06,0,.04,0,.06c0,0,0,0,0,0,0,0,0,0,0,0,0-.02,0-.05,0-.07,0-.02.01-.04.03-.06.01-.02.02-.03.03-.05,0-.02.01-.04.01-.05,0,0,0,0,0,0,0,0,0,0,0,0h0Z"/>
            <path d="M61.06,10.77s0,.04,0,.06c0,.02-.02.04-.04.05h0s-.03.03-.04.05c0,.02-.02.03-.02.05,0,0,0,0,0,0,0,0,0,0,0,0,0-.02.01-.03.02-.05s.02-.03.04-.05c.02-.02.03-.03.03-.05,0-.02,0-.03,0-.05,0,0,0,0,0,0,0,0,0,0,0,0h0Z"/>
            <path d="M60.84,10.88s0,.07-.01.1c-.01.03-.04.05-.06.07,0,0,0,0,0,0,0,0,0,0,0,0,.03-.02.05-.04.06-.07s.02-.06.01-.09c0,0,0,0,0,0s0,0,0,0h0Z"/>
            <path d="M60.55,11.04s0,.01,0,.02c0,0,0,.01,0,.02,0,0,0,0,0,0,0,0,0,0,0,0,0,0,0-.01,0-.02,0,0,0-.01,0-.02,0,0,0,0,0,0,0,0,0,0,0,0h0Z"/>
            <path d="M60.43,11.04s0,.04,0,.06c0,.02.01.04.03.06h0s.01.03.01.05c0,.01,0,.02,0,.03.01-.01.02-.03.03-.05,0-.02.01-.04.01-.06,0,0,0,0,0,0,0,0,0,0,0,0,0,.02,0,.04-.01.06,0,.02-.02.04-.04.06,0,0,0,0,0,0,0-.01,0-.03,0-.04s0-.03-.01-.04c-.02-.02-.02-.04-.03-.06s0-.04,0-.07c0,0,0,0,0,0s0,0,0,0h0Z"/>
            <path d="M60.45,11.43s0-.02,0-.04c0-.01,0-.02.01-.04,0,0,0,0,0,0,0,0,0,0,0,0,0,.01,0,.02-.01.03s0,.02,0,.03c0,0,0,0,0,0,0,0,0,0,0,0h0Z"/>
            <path d="M60.44,11.54v-.04s0,0,.01,0,0,0,0,0v.04s0,0-.01,0,0,0,0,0Z"/>
            <path d="M60.36,11.72s.01-.02.02-.02c0,0,.01-.02.02-.03,0,0,0,0,0,0,0,0,0,0,0,0,0,.01-.01.02-.02.03,0,0-.01.02-.02.03,0,0,0,0,0,0s0,0,0,0h0Z"/>
            <path d="M60.25,11.11v.02s0,0,0,0,0,0,0,0v-.02s0,0,0,0,0,0,0,0Z"/>
            <path d="M60.07,11.53s0,0,0-.01h0s0-.02,0-.02,0,0,0,0h0s0,.02,0,.03c0,0,0,0,0,0s0,0,0,0h0Z"/>
            <path d="M60.53,10.78s-.02.07-.02.09c0,.03,0,.05.03.06.02.02.03.04.04.06,0,0,0,0,0,0,0-.01,0-.02,0-.03,0-.01,0-.03,0-.04,0,0,0,0,0,0,0,0,0,0,0,0,0,.01,0,.03,0,.04,0,.02,0,.03-.01.05,0,0,0,0,0,0,0,0,0-.01,0-.02,0-.02-.02-.04-.04-.06-.02-.01-.03-.04-.03-.07,0-.03,0-.06.02-.1,0,0,0,0,0,0s0,0,0,0h0Z"/>
            <path d="M60.5,10.66s0,.05,0,.07c0,.02-.01.05-.02.07-.01.03-.02.06-.02.09,0,.03,0,.06.02.09,0,0,0,0,0,0,0,0,0,0,0,0-.02-.03-.02-.06-.03-.1,0-.03,0-.07.02-.1,0-.02.02-.05.02-.07,0-.02,0-.04,0-.07,0,0,0,0,0,0,0,0,0,0,0,0Z"/>
            <path d="M60.28,10.96s0,.03,0,.04c0,.01,0,.03.02.05,0,0,0,0,0,0,0,0,0,0,0,0,0-.02-.02-.03-.02-.05,0-.02,0-.03,0-.05,0,0,0,0,0,0s0,0,0,0h0Z"/>
            <path d="M60.19,10.93s0,.02,0,.03c0,0,0,.02,0,.03h0s0,.02,0,.02c0,0,0,.02.01.03,0,0,0,0,0,0s0,0,0,0c0,0-.01-.02-.01-.03,0-.01,0-.02,0-.03,0,0,0-.01,0-.02,0,0,0-.02,0-.03,0,0,0,0,0,0,0,0,0,0,0,0h0Z"/>
            <path d="M60.73,10.12s0,.05,0,.07c0,.02.01.04.03.07,0,0,0,0,0,0s0,0,0,0c-.01-.02-.02-.04-.03-.07s0-.05,0-.08c0,0,0,0,0,0,0,0,0,0,0,0h0Z"/>
            <path d="M60.67,10.19s.02.05.03.07.01.06.02.09c0,0,0,0,0,0s0,0,0,0c0-.03,0-.06-.02-.09s-.02-.05-.03-.07c0,0,0,0,0,0s0,0,0,0Z"/>
            <path d="M60.33,10.2s-.05.08-.05.12c0,.03,0,.06.02.08h0s.01.05.01.08c0,.03,0,.05-.01.08,0,0,0,0,0,0,0,0,0,0,0,0,0-.02.01-.05.01-.07,0-.02,0-.05-.01-.07-.01-.03-.02-.06-.02-.09s.02-.07.05-.12c0,0,0,0,0,0,0,0,0,0,0,0h0Z"/>
            <path d="M60.64,10.07s0,.03,0,.04c0,.01-.02.03-.03.04-.02.01-.02.03-.03.05,0,.02,0,.04,0,.07,0,0,0,0,0,0,0,0,0,0,0,0,0-.03,0-.05,0-.07,0-.02.01-.04.03-.05.01-.01.02-.02.03-.03,0-.01,0-.02,0-.04,0,0,0,0,0,0,0,0,0,0,0,0h0Z"/>
            <path d="M60.31,10.09s0,.04,0,.06c0,.02-.02.04-.04.06h0s-.03.03-.03.05c0,.02,0,.04-.01.07,0,0,0,0,0,0s0,0,0,0c0-.03,0-.05.01-.07s.02-.04.04-.06c.02-.02.03-.04.03-.06,0-.02,0-.04,0-.06,0,0,0,0,0,0s0,0,0,0h0Z"/>
            <path d="M60.5,10.1s0,.01,0,.02c0,0,0,.01,0,.02,0,0,0,0,0,0,0,0,0,0,0,0,0,0,0-.02,0-.02,0,0,0-.02,0-.02,0,0,0,0,0,0s0,0,0,0h0Z"/>
            <path d="M60.49,10.05s-.03.02-.04.04c0,.02-.01.04-.02.07,0,0,0,0,0,0,0,.01.02.03.02.04,0,.02,0,.04,0,.06,0,0,0,0,0,0s0,0,0,0c0-.02,0-.04,0-.06,0-.01,0-.03-.02-.04-.04.03-.05.07-.06.11,0,.04.02.09.05.14,0,0,0,0,0,0s0,0,0,0c-.03-.05-.05-.1-.05-.14,0-.04.02-.08.06-.12h0s0-.06.02-.08c.01-.02.03-.03.05-.04,0,0,0,0,0,0,0,0,0,0,0,0h0Z"/>
            <path d="M60.44,9.98s0,0,0,.01c0,.02,0,.05-.02.06,0,0-.02.02-.02.03,0,.01,0,.02,0,.04,0,0,0,0,0,0,0,0,0,0,0,0,0-.01,0-.03,0-.04,0-.01.01-.02.02-.03.01-.01.02-.04.02-.06,0,0,0,0,0-.01,0,0,0,0,0,0s0,0,0,0h0Z"/>
            <path d="M60.97,10.55s.01.02.01.04,0,.03,0,.04c0,0,0,0,0,0s0,0,0,0c0-.01,0-.02,0-.04,0-.01,0-.02-.01-.04,0,0,0,0,0,0s0,0,0,0Z"/>
            <path d="M60.97,10.72s0,.04,0,.06-.01.04-.02.06c0,.02-.01.04-.02.05,0,0,0,0,0,0s0,0,0,0c0-.02.01-.04.02-.05h0s.02-.04.02-.06c0-.02,0-.04,0-.06,0,0,0,0,0,0,0,0,0,0,0,0Z"/>
            <path d="M60.86,10.56s.05.07.06.11c0,.04,0,.08,0,.12,0,0,0,0,0,0s0,0,0,0c.01-.04.01-.08,0-.12s-.03-.07-.06-.11c0,0,0,0,0,0s0,0,0,0h0Z"/>
            <path d="M60.85,10.76s-.02.04-.03.06-.03.04-.05.06c-.01.01-.02.02-.03.04,0,.01-.02.03-.02.05,0,0,0,0,0,0,0-.01,0-.03,0-.04s-.01-.03-.02-.04h0s-.03-.05-.02-.08c0-.03.01-.05.03-.08.01-.02.02-.04.02-.05s0-.04,0-.06c0,0,0,0,0,0s0,0,0,0c0,.02,0,.04,0,.06s-.01.04-.02.06h0s-.03.05-.03.07c0,.02,0,.05.02.07h0s.02.03.02.05c0,0,0,.01,0,.02,0,0,0-.02.01-.03,0-.02.02-.03.03-.04.02-.02.03-.04.05-.06.01-.02.02-.04.03-.06,0,0,0,0,0,0s0,0,0,0h0Z"/>
            <path d="M60.56,10.66s0,.05,0,.07c0,.02.01.04.02.06,0,0,0,0,0,0,0,0,0,0,0,0-.01-.02-.02-.04-.03-.06,0-.02,0-.05,0-.07,0,0,0,0,0,0,0,0,0,0,0,0h0Z"/>
            <path d="M60.39,10.75h0v.03s0,0,0,0,0,0,0,0h0v-.03s0,0,0,0,0,0,0,0Z"/>
            <path d="M60.45,10.6s0,.03,0,.05c0,.02-.01.03-.03.04,0,0,0,0,0,0,0,0,0,0,0,0,.01-.01.02-.03.02-.04,0-.01,0-.03,0-.05,0,0,0,0,0,0s0,0,0,0h0Z"/>
            <path d="M60.3,10.9c-.03-.07-.03-.12-.03-.16,0-.04.03-.08.05-.1.02-.02.03-.04.04-.06s.01-.05.01-.08c0,0,0,0,0,0s0,0,0,0c0,.04,0,.07-.01.09-.01.02-.03.04-.04.06-.02.03-.04.06-.05.1,0,.04,0,.09.03.16,0,0,0,0,0,0s0,0,0,0h0Z"/>
            <path d="M60.21,10.79s0,.02,0,.03c0,.01,0,.02.01.03,0,0,0,0,0,0,0,0,0,0,0,0,0-.01-.01-.02-.01-.04s0-.02,0-.04c0,0,0,0,0,0,0,0,0,0,0,0h0Z"/>
            <path d="M60.64,10.49s.03.05.03.08,0,.05-.02.08c0,0,0,0,0,0,0,0,0,0,0,0,.01-.03.02-.05.02-.08,0-.02-.01-.05-.03-.07,0,0,0,0,0,0s0,0,0,0h0Z"/>
            <path d="M60.77,10.38s.02.05.02.08c0,.03,0,.05-.01.08,0,0,0,0,0,0,0-.02,0-.05-.02-.07s-.02-.04-.04-.05c0,0,0,0,0,0s0,0,0,0c.02.02.03.03.04.05,0,.01.01.03.01.04,0-.02,0-.03,0-.05,0-.02,0-.05-.02-.07,0,0,0,0,0,0,0,0,0,0,0,0h0Z"/>
            <path d="M60.85,10.28s.03.04.04.07c0,.03,0,.06,0,.1h0s0,.03,0,.05c0,.01,0,.03.01.04,0,0,0,0,0,0,0,0,0,0,0,0,0-.01-.01-.03-.01-.04,0-.02,0-.03,0-.05h0s0-.07,0-.09c0-.03-.02-.05-.03-.06,0,0,0,0,0,0,0,0,0,0,0,0h0Z"/>
            <path d="M60.64,10.26s-.02.03-.02.05c0,.02,0,.04,0,.06,0,0,0,0,0,0,0,0,0,0,0,0,0-.02,0-.04,0-.06,0-.02.01-.04.02-.05,0,0,0,0,0,0s0,0,0,0Z"/>
            <path d="M60.23,10.53s-.01.07-.03.1c-.02.03-.04.05-.08.07,0,0,0,0,0,0s0,0,0,0c.03-.02.05-.04.07-.06.02-.03.03-.06.03-.1,0,0,0,0,0,0s0,0,0,0h0Z"/>
            <path d="M60.22,10.39s0,.03,0,.04c0,.01,0,.03-.02.04,0,0,0,0,0,0,0,0,0,0,0,0,0-.01.01-.03.02-.04s0-.03,0-.04c0,0,0,0,0,0s0,0,0,0h0Z"/>
            <path d="M60.5,10.37h0s0,.06,0,.09h0s0,.01,0,.01h0s0,0,0,0c0,0,0,0,0,0v-.1s0,0,0,0c0,0,0,0,0,0h0s0,0,0,0h0Z"/>
            <path d="M60.56,10.25s-.03.05-.03.07,0,.04.02.07c.02.04.03.07.03.11,0,.04-.01.07-.03.11,0,0,0,0,0,0s0,0,0,0c.02-.04.03-.07.03-.11,0-.04,0-.07-.03-.11h0s-.02-.05-.02-.07c0-.02,0-.05.03-.08,0,0,0,0,0,0s0,0,0,0h0Z"/>
            <path d="M60.14,9.49s.06-.04.1-.04c.03,0,.07,0,.1.02.01,0,.02,0,.04,0,.01,0,.03,0,.04,0,0,0,0,0,0,0s0,0,0,0c-.01,0-.03,0-.04,0-.01,0-.02,0-.03,0h0s-.07.05-.1.06c-.03,0-.06,0-.08-.02,0,0,0,0,0,0s0,0,0,0c.02.02.05.02.07.02.03,0,.06-.02.09-.05-.03-.01-.06-.02-.09-.02-.03,0-.06.02-.09.04,0,0,0,0,0,0,0,0,0,0,0,0h0Z"/>
            <path d="M60.23,9.47s.02.01.02.02-.01.02-.02.02-.02-.01-.02-.02.01-.02.02-.02Z"/>
            <path d="M60.4,9.61s.03-.02.04-.03c.01,0,.02-.02.03-.03,0,0,0,0,0,0s0,0,0,0c0,.01-.02.02-.03.03-.01.01-.03.02-.04.03,0,0,0,0,0,0,0,0,0,0,0,0h0Z"/>
            <path d="M60.75,9.47s.02,0,.03,0c0,0,.02,0,.03.01,0,0,0,0,0,0s0,0,0,0c0,0-.02-.01-.02-.01s-.01,0-.02,0c0,0,0,0,0,0,0,0,0,0,0,0h0Z"/>
            <path d="M60.55,9.48s.02-.03.04-.04c.02,0,.04-.01.06,0,0,0,0,0,0,0s0,0,0,0c-.02,0-.04,0-.06,0-.01,0-.02.02-.03.04,0,0,0,0,0,0s0,0,0,0Z"/>
            <path d="M60.57,9.51s0-.02.01-.02c0,0,.01-.01.03-.01,0,0,0,0,0,0s0,0,0,0c0,0-.02,0-.02.01,0,0,0,.01,0,.02,0,0,0,0,0,0s0,0,0,0h0Z"/>
            <path d="M60.24,9.62s-.01.02-.01.03c0,0,0,.02,0,.03,0,0,0,0,0,0s0,0,0,0c0-.01,0-.02,0-.04,0-.01,0-.02.01-.03,0,0,0,0,0,0,0,0,0,0,0,0h0Z"/>
            <path d="M60.34,9.66h0s0,.02,0,.02,0,0,0,0h0s0-.02,0-.02,0,0,0,0Z"/>
            <path d="M60.27,9.56s.02,0,.03,0c0,0,.02,0,.03,0,0,0,0,0,0,0s0,0,0,0c-.01,0-.02,0-.03,0-.01,0-.02,0-.03,0,0,0,0,0,0,0,0,0,0,0,0,0h0Z"/>
            <path d="M60.33,9.38s-.01,0-.02,0c0,0-.01.01-.01.02,0,0,0,0,0,0s0,0,0,0c0,0,0-.02.02-.02,0,0,.02,0,.03,0,0,0,0,0,0,0s0,0,0,0h0Z"/>
            <path d="M60.24,9.39s-.01,0-.02.01c0,0,0,0,0,.01,0,0,0,0,0,0s0,0,0,0c0,0,0-.01.01-.02,0,0,.01,0,.02-.01,0,0,0,0,0,0,0,0,0,0,0,0Z"/>
            <path d="M60.18,9.39s-.01,0-.02.01,0,.01,0,.02c0,0,0,0,0,0,0,0,0,0,0,0,0,0,0-.01.01-.02s.01-.01.02-.02c0,0,0,0,0,0s0,0,0,0Z"/>
            <path d="M60.1,9.45s-.01.01-.02.02-.01.01-.02.02c0,0,0,0,0,0s0,0,0,0c0,0,.01-.01.02-.02s.01-.01.02-.02c0,0,0,0,0,0,0,0,0,0,0,0h0Z"/>
            <path d="M60.11,9.54s0,.01-.01.02v.02s-.02,0-.02,0,0,0,0,0v-.02s.02,0,.03-.02c0,0,0,0,0,0s0,0,0,0Z"/>
            <path d="M60.03,9.56v.03s0,0,0,0,0,0,0,0v-.03s0,0,0,0,0,0,0,0Z"/>
            <path d="M60.13,9.7s0,.03,0,.05c0,0,0,0,0,0,0,0,0,0,0,0s0,0,0,0c0,0,0,0,0,0,0-.02,0-.03,0-.05,0,0,0,0,0,0s0,0,0,0Z"/>
            <path d="M60.07,9.65s0,.02,0,.03c0,0,0,0,0,0s0,0,0,0c0-.01,0-.02,0-.03,0,0,0,0,0,0s0,0,0,0Z"/>
            <path d="M60.01,9.23s.02,0,.03.02c0,0,.01.02.02.03,0,0,0,0,0,0s0,0,0,0c0,0,0-.02-.01-.02,0,0-.01-.01-.02-.01,0,0,0,0,0,0,0,0,0,0,0,0h0Z"/>
            <path d="M60.5,9.86s.01.04.01.06c0,.02,0,.04-.01.06,0,0,0,0,0,0s0,0,0,0c0-.02.01-.04.01-.06,0-.02,0-.04-.01-.06,0,0,0,0,0,0s0,0,0,0Z"/>
            <path d="M60.34,10.04s.02-.04.03-.06.02-.04.04-.05c.02-.02.03-.04.03-.06,0-.02,0-.05,0-.07,0,0,0,0,0,0,0,0,0,0,0,0,0,.02,0,.05,0,.08,0,.02-.02.05-.03.07-.01.02-.03.03-.04.05-.01.02-.02.04-.03.06,0,0,0,0,0,0s0,0,0,0h0Z"/>
            <path d="M60.14,9.99s0-.02.01-.02.01-.01.02-.02c0,0,0,0,0,0,0,0,0,0,0,0,0,0-.02,0-.02.02,0,0,0,.01-.01.02,0,0,0,0,0,0,0,0,0,0,0,0h0Z"/>
            <path d="M60.1,9.98s.02-.02.02-.03c0,0,.02-.02.03-.02,0,0,0,0,0,0,0,0,0,0,0,0-.01,0-.02.01-.03.02,0,0-.02.02-.02.03,0,0,0,0,0,0,0,0,0,0,0,0h0Z"/>
            <path d="M60.31,9.77s.02,0,.02,0,.02,0,.02,0c0,0,0,0,0,0s0,0,0,0c0,0-.02,0-.03,0s-.02,0-.03,0c0,0,0,0,0,0s0,0,0,0h0Z"/>
            <path d="M60.2,9.75s0,0,0,0h0s0,0,0,0c0,0,0,0,0,0h0s0,0,0,0c0,0,0,0,0,0,0,0,0,0,0,0h0Z"/>
            <path d="M62.46,10.41s0,.01.01.02c0,0,0,.01,0,.02,0,0,0,0,0,0,0,0,0,0,0,0,0,0,0-.01,0-.02,0,0,0,0-.01-.01,0,0,0,0,0,0s0,0,0,0Z"/>
            <path d="M59.95,11.59s.02.02.03.02c.01,0,.03,0,.04,0,0,0,0,0,0,0s0,0,0,0c-.02,0-.03,0-.04-.01-.01,0-.03-.02-.04-.03,0,0,0,0,0,0s0,0,0,0h0Z"/>
          </g>
          <g>
            <path class="cls-5" d="M61.85,9.34c.06,0,.11,0,.16,0-.05.04-.11.06-.18.07.01-.01.02-.02.03-.03,0-.01,0-.02,0-.03Z"/>
            <path class="cls-5" d="M61.72,9.32s.07.01.11.01c0,0,0,0,0,0,0,0,0,.02,0,.02,0,0-.01.02-.03.03,0,0,0,0,0,.01-.02,0-.05,0-.08,0-.01,0-.03,0-.04,0,0,0,0,0,0,0,.01-.01.02-.03.02-.04,0-.01,0-.02,0-.03h0Z"/>
            <path class="cls-5" d="M60.73,9.04c.06,0,.13-.01.19,0,.02,0,.04.02.05.04.01.02.01.04,0,.07,0,0,0,0,0,.01,0,0,0,0,.01,0,0-.03,0-.06-.01-.09,0-.01-.01-.02-.02-.03,0,0,.01,0,.02,0,.07,0,.13.03.2.06,0,0,0,0,0,0,.01.01.02.03.02.04,0,.02-.01.03-.03.05,0,0,0,0,0,.01,0,0,0,0,.01,0,.02-.02.03-.04.03-.06,0-.01,0-.02,0-.03.05.03.11.05.16.08,0,0,0,0,0,0,0,0,0,0,0,0,0,.02,0,.03,0,.04,0,.01-.02.02-.04.03,0,0,0,0,0,.01,0,0,0,0,.01,0,.03,0,.04-.02.05-.04,0-.01.01-.03,0-.04.04.02.07.04.11.06h0s0,.02,0,.04c0,.01-.02.02-.04.03,0,0,0,0,0,.01s0,0,.01,0c.02-.01.04-.03.05-.04,0-.01,0-.02,0-.03.01,0,.03.01.04.02.04.01.08.02.12.03,0,0,0,0,0,0,0,.01.01.02,0,.03,0,.01,0,.02-.02.03,0,0,0,0,0,.01,0,0,0,0,0,0-.14-.01-.26-.08-.39-.13-.02,0-.03-.01-.05-.02-.05-.02-.1-.04-.14-.06,0,0,0,0,0,0,0,0,0,0,0,0,0,0,0,0,0,0,0,0,0,0,0,0-.04-.01-.09-.02-.13-.03-.05,0-.1,0-.15,0,0,0,0,0,0,0,0-.03,0-.05-.01-.07,0-.01-.02-.03-.04-.04h0Z"/>
            <path class="cls-5" d="M60.51,9.1c.06-.03.13-.05.19-.06.03.01.05.03.06.04.01.02.01.04,0,.06-.03,0-.06,0-.08,0-.03,0-.06.01-.09.02-.01-.03-.03-.05-.06-.06-.01,0-.02,0-.04,0h0Z"/>
            <path class="cls-5" d="M61.2,9.45s-.03-.02-.05-.03c-.09-.05-.19-.08-.28-.08,0,0,0,0,0,0,.04-.04.04-.07.03-.1,0-.02-.03-.05-.06-.07.03,0,.06,0,.1,0,.05,0,.11.02.17.05.01.03.02.06.01.08,0,.02-.02.04-.05.06,0,0,0,0,0,.01s0,0,.01,0c.03-.02.05-.04.06-.07,0-.02,0-.05,0-.08.04.02.07.04.1.06.03.02.06.04.1.07,0,.04-.01.06-.03.07-.02.01-.05.01-.08.01,0,0,0,0,0,0h0Z"/>
            <path class="cls-5" d="M61.39,9.6c-.06-.05-.11-.09-.17-.13.03,0,.06,0,.09-.01.02-.01.04-.04.04-.08.04.03.07.06.1.09.02.02.03.03.05.05,0,0,0,0,0,0,0,.01,0,.03,0,.04,0,0,0,.02-.01.02,0,0-.01.01-.03.01-.02,0-.04,0-.06,0,0,0,0,0,0,0h0Z"/>
            <path class="cls-5" d="M61.59,9.73s-.04-.02-.06-.03c-.04-.03-.09-.06-.13-.09.02,0,.05,0,.06,0,.01,0,.03-.01.03-.02,0,0,.01-.02.02-.04,0,0,0-.01,0-.02.04.03.08.07.13.09.02.01.05.03.07.04,0,0,0,0,0,0,0,.02,0,.03-.03.04-.02,0-.05.01-.09.01,0,0,0,0,0,0h0Z"/>
            <path class="cls-5" d="M61.81,9.81c-.07-.02-.13-.04-.19-.07.03,0,.06,0,.09-.02.02,0,.04-.02.04-.05.04.02.08.04.12.05,0,.02,0,.03,0,.04,0,.01-.03.02-.05.03,0,0,0,0,0,.01h0s0,0,0,0Z"/>
            <path class="cls-5" d="M62.25,9.77s.04-.01.02,0c-.13.09-.3.09-.45.05.02-.01.04-.02.05-.04,0-.01,0-.03,0-.04.05.02.1.03.15.03,0,0,0,.02,0,.02,0,.01-.02.02-.05.03,0,0,0,0,0,.01,0,0,0,0,.01,0,.03-.01.04-.02.05-.04,0-.01.01-.02.01-.03.06,0,.13,0,.2,0h0Z"/>
            <path class="cls-5" d="M61.35,12.02s-.02.02-.03.03c-.04.01-.07.03-.11.03,0,.03,0,.04.04.04.05-.03.06-.03.07-.03,0,0,0,.04-.05.07,0,0,0,0,0,.01.04.06.13.04.18.02.04,0,.1-.05.12-.09,0-.02,0-.04-.02-.05-.04,0-.05-.01-.05-.02-.04-.01-.09-.02-.14-.02Z"/>
            <path class="cls-5" d="M59.93,11.57s-.06.04-.1.05c-.01,0-.05.01-.05.03,0,0,.02.02.04.01.04-.04.06-.02.01.02,0,0,0,.02,0,.02.04.04.15.05.2.02.04-.02.06-.05.02-.08,0,0,0-.02,0-.02h-.06s-.04-.03-.04-.03l-.04-.03Z"/>
            <path class="cls-5" d="M60.86,11.89s0,0-.01,0c-.02.02.03.01.06.03.01,0,.02.02.01.04-.03.06-.17.04-.22.02-.02-.01-.02-.03-.02-.04,0,0,.02,0,.03,0,.02,0,.03,0,.05-.02,0,0,0,0,0-.01,0,0-.01,0-.01,0-.01,0-.03.01-.04.01-.02,0-.03,0-.05,0h0s-.01-.01-.01-.02c0,0,.02,0,.02,0,.02-.01.04-.02.07-.02,0,0,0,0,0-.01.04,0,.09.01.11.02h0Z"/>
            <path class="cls-5" d="M60.19,11.86s-.01.01-.02.03c-.03.03-.05.04-.08.06-.03.01,0,.02.02.04.02.01.04-.01.05-.04.02-.02.03-.02.02,0-.01.02-.02.05-.02.06,0,.02.06.03.07.03.04,0,.08-.03.11-.05.02-.02.02-.05,0-.08h0s-.03,0-.04,0c-.02,0-.03,0-.05-.02,0,0,0,0,0,0,0,0,0,0,0,0h-.06s0-.01,0-.01Z"/>
            <path class="cls-5" d="M60.45,9.38s.02,0,.03,0c.02,0,.04.01.06.01.06-.02.12-.04.16-.03.05-.02.11-.02.16-.02,0,0,0,0,0,0,0,0,0,0,0-.01.03-.03.04-.06.03-.08,0-.03-.04-.05-.07-.07-.04,0-.08,0-.12,0-.03,0-.05,0-.08.02.02,0,.04.02.05.04.02.02.03.05.04.09,0,0,0,0,0,.01s0,0-.01,0c0-.03-.02-.06-.04-.08-.02-.03-.06-.03-.07-.04-.04,0-.08,0-.12.02-.03,0-.05.02-.07.03.03,0,.06,0,.08,0,.02.01.04.03.06.07,0,0,0,0,0,.01s-.01,0-.01,0c-.01-.03-.03-.05-.05-.06-.04-.02-.12,0-.15.02-.02.01-.04.03-.06.06,0,0,0,0,0,0,.07,0,.14,0,.2.03h0ZM60.24,9.34s0,0,0,0c.02-.02.04-.04.06-.06.02-.02.04-.03.06-.03.02-.02.06-.04.09-.05.04,0,.08-.01.12-.02-.01-.03-.03-.04-.05-.05-.02,0-.04-.01-.07,0-.05.02-.1.05-.14.08,0,0,0,0,.01,0,.01,0,.02,0,.04,0,0,0,0,0,0,.01,0,.01-.03,0-.04,0-.01,0-.02,0-.04,0,0,0,0,0,0,0-.05.03-.08.06-.12.09.03,0,.05.02.07.04Z"/>
          </g>
        </g>
        <g>
          <path class="cls-7" d="M65.61,14.67l1.94-4.41-1.43-2.32-2.56.95-1.18,4.66c1.12.28,2.2.66,3.23,1.12h0Z"/>
          <path class="cls-4" d="M63.13,10.59c1.28.33,2.52.76,3.71,1.28l-.75,1.7c-1.1-.48-2.24-.88-3.42-1.18l.46-1.8Z"/>
          <path class="cls-5" d="M66.21,13.31l.5-1.14c-1.17-.52-2.4-.94-3.66-1.27l-.3,1.16c1.2.31,2.36.71,3.47,1.2l-.02.04Z"/>
          <path d="M63.41,11.79s.07-.02.11-.01c.03-.01.06-.01.1-.01.02,0,.03-.01.05-.02.01,0,.01-.02,0-.03,0-.01-.01-.02-.01-.03-.06-.03-.08-.08-.1-.14-.03,0-.05-.02-.05-.03-.02,0-.03,0-.05,0-.07,0-.09-.02-.12-.04-.02,0-.04-.02-.05-.04,0-.01-.02-.02-.02-.03-.02-.03-.01-.06.02-.06.02,0,.04,0,.06,0,.02-.01.06-.01.08,0,.03,0,.05-.02.08-.05,0-.01,0-.02,0-.04,0-.01,0-.02.02-.02.04,0,.06.02.08.05.05,0,.08.03.11.07.06,0,.11.02.11.05,0,.02-.01.04-.04.06,0,0,0,0,0,.01.02.01.03.03.03.04.04.01.07.03.1.06.09-.01.24.05.45.19.13.02.26.06.39.11.03,0,.05,0,.08,0,.22-.03.44,0,.64.15.08,0,.14.03.21.06.05.02.1.03.15.03.08,0,.16.03.24.07.09.02.18.05.23.11.04.05.03.09-.02.1-.03.06-.09.06-.17.03-.06.01-.12-.04-.18-.08-.08-.03-.16-.07-.23-.12-.04-.03-.08-.05-.12-.06-.03,0-.06-.01-.07,0,0,0,0,0,0,.01.02.02.04.04.04.08,0,.03,0,.06,0,.09,0,.04.02.06.06.08.02.02.05.03.1.04.02,0,.03.02.03.03.01.05.02.11.04.16,0,.01.02.02.03.03.05.04.03.08-.02.09-.04.04-.08.06-.13.07-.04.01-.05,0-.06-.02-.02,0-.03,0-.04-.02-.04-.03,0-.09.1-.06,0-.01.01-.02.02-.02,0-.03,0-.06,0-.09,0,0-.02-.01-.03-.02-.04-.01-.07-.03-.1-.06-.05-.05-.14-.09-.22-.14-.07,0-.12-.03-.17-.06-.02,0-.05,0-.07,0-.02,0-.04,0-.05.02-.02.03-.05.02-.07.02-.03,0-.07,0-.1,0-.02,0-.03,0-.05,0-.04,0-.07,0-.1.02-.02.02-.04.02-.06.01-.02,0-.03-.01-.03-.02-.03,0-.04-.01-.05-.02-.04-.01-.06-.02-.05-.04-.06-.01-.03-.06,0-.06.04,0,.08,0,.13.01.04.01.08,0,.11-.02.02-.02.03-.03.05-.05-.07,0-.13-.02-.17-.04-.11-.07-.2-.09-.27-.03-.02.01-.03.01-.05,0-.02,0-.04,0-.05,0-.04,0-.08,0-.12-.01-.06.01-.11.02-.17,0-.05.03-.08.03-.11,0-.02-.01-.04-.02-.06-.04-.03,0-.04-.01-.05-.02-.04,0-.04-.02-.04-.03-.02-.02-.01-.03,0-.05.03-.01.06-.02.09,0,.02,0,.04.02.05.03.02,0,.04,0,.06,0,.01-.02.05-.02.09-.02.02-.01.04-.02.07-.02,0,0,0,0,0-.01-.04-.01-.06-.04-.08-.07-.06,0-.1-.03-.15-.05-.04,0-.06,0-.09-.03-.02,0-.05,0-.07,0-.05.01-.09.01-.13,0-.03,0-.05,0-.08,0-.03.03-.06.04-.09.02-.02-.02-.04-.04-.08-.05-.03,0-.03-.02-.04-.03-.03-.02-.02-.04,0-.05.02-.01.05-.01.09,0,.01,0,.03,0,.05,0h0Z"/>
          <path class="cls-4" d="M64.88,12.23s0-.02-.03,0c-.07,0-.15,0-.21-.04-.06-.04-.12-.07-.19-.07.02-.02.04-.03.07-.04.04-.01.08-.01.14,0,.07.01.13.03.18.04.05.02.08.04.09.07,0,0,0,0,0,0,.02.01.03.02.05.04.01,0,.02.02.03.03-.02,0-.04,0-.07,0-.02,0-.05-.01-.07-.02h0Z"/>
          <path d="M65.04,8.88v.02s.09.45.09.45l-.35.3h-.02s.02.02.02.02l.44.15.09.45v.02s.02-.01.02-.01l.35-.3.44.15h.02s0-.01,0-.01l-.09-.45.35-.3h.02s-.02-.02-.02-.02l-.44-.15-.09-.45v-.02s-.02.01-.02.01l-.35.3-.44-.15h-.02Z"/>
          <g>
            <path class="cls-2" d="M64.83,9.65l.33-.28.41.14-.73.14Z"/>
            <path class="cls-2" d="M65.61,9.5l.33-.28.41.14-.73.14Z"/>
            <path class="cls-2" d="M66.35,9.37l-.33.28-.41-.14.73-.14Z"/>
            <path class="cls-2" d="M65.56,9.52l-.33.28-.41-.14.73-.14Z"/>
            <path class="cls-2" d="M65.08,8.92l.41.14.08.42-.49-.56Z"/>
            <path class="cls-2" d="M65.61,9.53l.41.14.08.42-.49-.56Z"/>
            <path class="cls-2" d="M66.09,10.1l-.41-.14-.08-.42.49.56Z"/>
            <path class="cls-2" d="M65.56,9.49l-.41-.14-.08-.42.49.56Z"/>
            <path class="cls-2" d="M65.85,8.78l.08.42-.33.28.24-.71Z"/>
            <path class="cls-2" d="M65.59,9.54l.08.42-.33.28.24-.71Z"/>
            <path class="cls-2" d="M65.33,10.24l-.08-.42.33-.28-.24.71Z"/>
            <path class="cls-2" d="M65.59,9.48l-.08-.42.33-.28-.24.71Z"/>
          </g>
        </g>
      </g>
    </g>
  </g>
</svg>