<?xml version="1.0" encoding="UTF-8"?>
<svg id="Layer_2" data-name="Layer 2" xmlns="http://www.w3.org/2000/svg" xmlns:xlink="http://www.w3.org/1999/xlink" viewBox="0 0 114.55 45">
  <defs>
    <style>
      .cls-1, .cls-2 {
        fill: #fff;
      }

      .cls-2, .cls-3 {
        fill-rule: evenodd;
      }

      .cls-4 {
        fill: none;
      }

      .cls-5, .cls-3 {
        fill: #ffcd00;
      }

      .cls-6 {
        fill: #c8102e;
      }

      .cls-7 {
        clip-path: url(#clippath);
      }
    </style>
    <clipPath id="clippath">
      <path class="cls-4" d="M59.29,20.12h-.06c-.46,0-1.53-.23-1.94-.59-.43.33-1.52.59-1.97.59-.02,0-.04,0-.06,0v.31c.03.36.1.73.2,1.08.3,1.11.93,2.04,1.82,2.76.9-.71,1.52-1.65,1.83-2.76.1-.35.16-.71.19-1.08,0-.1,0-.2.01-.3h0Z"/>
    </clipPath>
  </defs>
  <g id="Layer_1-2" data-name="Layer 1">
    <path d="M0,0h114.55v45H0V0Z"/>
    <path class="cls-1" d="M0,0h114.55v30H0V0Z"/>
    <path class="cls-6" d="M0,0h114.55v15H0V0Z"/>
    <g>
      <g>
        <path class="cls-1" d="M57.33,22.68l5.14,4.77-.37-8.66c-.05-1.31-1.19-1.01-2.02-.54-.84.54-1.8.54-2.81.18-1.01.36-1.97.36-2.81-.18-.83-.47-1.97-.77-2.02.54l-.37,8.66,5.26-4.77Z"/>
        <path class="cls-5" d="M52.08,27.5s-.01,0-.02,0c-.02,0-.03-.03-.03-.05l.37-8.66c.02-.44.16-.74.42-.89.52-.29,1.34.12,1.67.31.77.49,1.7.55,2.77.18.01,0,.02,0,.03,0,1.07.37,2,.31,2.77-.18.33-.19,1.16-.6,1.67-.31.26.15.4.44.42.89l.37,8.66s-.01.04-.03.05c-.02,0-.04,0-.05,0l-5.1-4.74-5.22,4.74s-.02.01-.03.01ZM53.24,17.89c-.14,0-.27.03-.38.09-.23.13-.36.4-.37.81l-.36,8.55,5.17-4.69s.05-.02.06,0l5.05,4.69-.36-8.54c-.02-.41-.14-.68-.37-.81-.47-.26-1.26.13-1.58.31-.79.51-1.74.57-2.83.19-1.09.38-2.04.31-2.83-.19-.24-.14-.75-.4-1.19-.4Z"/>
      </g>
      <path id="C" class="cls-5" d="M53.03,18.49l-.36,8.42-.6.54.37-8.66c.17-.12.47-.3.59-.3h0ZM53.75,19.09l-.3,7.05-.6.62.37-8.14c.12.12.47.41.54.47h0ZM54.41,19.63l-.24,5.88-.48.47.3-6.71c.12.12.35.29.42.36h0ZM55.12,19.93l-.24,5.01-.47.38.24-5.58c.12.05.36.18.47.18h0ZM55.78,19.93l-.17,4.17-.48.47.18-4.59c.12,0,.42,0,.47-.05h0Z"/>
      <path id="C-2" data-name="C" class="cls-5" d="M61.51,18.49l.36,8.42.6.54-.37-8.66c-.17-.12-.47-.3-.59-.3h0ZM60.79,19.09l.3,7.05.6.62-.37-8.14c-.12.12-.47.41-.54.47h0ZM60.13,19.63l.24,5.88.48.47-.3-6.71c-.12.12-.35.29-.42.36h0ZM59.42,19.93l.24,5.01.47.38-.24-5.58c-.12.05-.36.18-.47.18h0ZM58.77,19.93l.17,4.17.48.47-.18-4.59c-.12,0-.42,0-.47-.05h0Z"/>
      <g>
        <path class="cls-5" d="M57.51,23.63l.72,3.28-.24.24-.25-.18-.41-2.93.17,2.93-.24.3-.24-.3.17-2.93-.41,2.93-.25.18-.24-.24.72-3.28h.47,0Z"/>
        <path class="cls-5" d="M57.27,27.33l-.28-.35.11-1.94-.27,1.95-.29.21-.28-.28.73-3.33h.54l.73,3.33-.28.28-.29-.21-.27-1.95.11,1.94-.28.35ZM57.08,26.95l.2.25.2-.25-.17-2.91h.08s.41,2.9.41,2.9l.21.15.2-.2-.71-3.23h-.41s-.71,3.23-.71,3.23l.2.2.21-.15.41-2.91h.08s-.17,2.92-.17,2.92Z"/>
      </g>
      <g id="D">
        <g>
          <path class="cls-1" d="M55.66,22.19l-1.43,5.08,1.97.3.84-3.82-1.38-1.56h0Z"/>
          <path class="cls-5" d="M56.2,27.61s0,0,0,0l-1.97-.3s-.02,0-.03-.02c0-.01,0-.02,0-.04l1.43-5.08s.02-.03.03-.03c.02,0,.03,0,.04.01l1.38,1.56s.01.03.01.04l-.84,3.82s-.02.04-.04.04ZM54.28,27.23l1.88.29.83-3.76-1.31-1.48-1.4,4.95Z"/>
        </g>
        <g>
          <path class="cls-5" d="M55.36,24.39s0,0,0,0c-.02,0-.03-.01-.03-.03l-.17-.42.09-.04.15.35.88-.84.07.07-.93.89s-.02.01-.03.01Z"/>
          <path class="cls-5" d="M55.85,27.58l-.2-.62-.3.51s-.03.03-.05.02c-.02,0-.03-.02-.04-.03l-.23-.77-.34.48-.08-.06.39-.55-.3-1.1s0-.03.01-.05l.61-.63s.03-.02.05-.01c.02,0,.03.02.03.03l.17.59.38-.51s.03-.02.05-.02c.02,0,.03.02.04.04l.16.89.41-.62-.25-.85-.3.39s-.03.02-.05.02c-.02,0-.03-.02-.03-.04l-.19-1.83h.09s.18,1.7.18,1.7l.52-.68.08.06-.22.29.24.84.11-.17.08.05-.16.24.04.13-.09.03-.02-.05-.42.64.2.97-.09.02-.19-.88-.38.6s-.03.02-.05.02c-.02,0-.03-.01-.04-.03l-.2-.62-.37.61.22.72.3-.51s.03-.03.05-.02c.02,0,.03.01.04.03l.24.72-.09.03ZM55.49,25.84s0,0,0,0c.02,0,.03.01.04.03l.21.63.38-.59-.16-.87-.37.5s-.03.02-.05.02c-.02,0-.03-.02-.04-.03l-.17-.6-.54.55.28,1.01.37-.61s.02-.02.04-.02Z"/>
        </g>
      </g>
      <g id="D-2" data-name="D">
        <g>
          <path class="cls-1" d="M58.89,22.19l1.43,5.08-1.97.3-.84-3.82,1.38-1.56h0Z"/>
          <path class="cls-5" d="M58.35,27.61s-.04-.01-.04-.04l-.84-3.82s0-.03.01-.04l1.38-1.56s.03-.02.04-.01c.02,0,.03.02.03.03l1.43,5.08s0,.03,0,.04c0,.01-.02.02-.03.02l-1.97.3s0,0,0,0ZM57.56,23.76l.83,3.76,1.88-.29-1.4-4.95-1.31,1.48Z"/>
        </g>
        <g>
          <path class="cls-5" d="M59.19,24.39s-.02,0-.03-.01l-.93-.89.07-.07.88.84.15-.35.09.04-.17.42s-.02.03-.03.03c0,0,0,0,0,0Z"/>
          <path class="cls-5" d="M58.69,27.58l-.09-.03.24-.72s.02-.03.04-.03c.02,0,.04,0,.05.02l.3.51.22-.72-.37-.61-.2.62s-.02.03-.04.03c-.02,0-.04,0-.05-.02l-.38-.6-.19.88-.09-.02.2-.97-.42-.64v.05s-.11-.03-.11-.03l.04-.13-.16-.24.08-.05.11.17.24-.84-.22-.29.08-.06.52.68.18-1.71h.09s-.19,1.84-.19,1.84c0,.02-.02.04-.03.04-.02,0-.04,0-.05-.02l-.3-.39-.25.85.41.62.16-.9s.02-.03.04-.04c.02,0,.04,0,.05.02l.38.51.17-.59s.02-.03.03-.03c.02,0,.03,0,.05.01l.61.63s.02.03.01.05l-.3,1.11.39.55-.08.06-.34-.48-.23.77s-.02.03-.04.03c-.02,0-.04,0-.05-.02l-.3-.51-.2.62ZM58.43,25.91l.38.59.21-.63s.02-.03.04-.03c.02,0,.04,0,.05.02l.37.61.28-1.01-.54-.55-.17.6s-.02.03-.04.03c-.02,0-.04,0-.05-.02l-.37-.5-.16.87Z"/>
        </g>
      </g>
      <g>
        <g>
          <path class="cls-1" d="M57.27,29.54c1.5,0,2.93-.12,3.77-.36.36-.06.36-.25.36-.48.36-.12.17-.54.42-.54-.25.06-.3-.42-.6-.35,0-.42-.42-.47-.77-.36-.71.24-1.97.29-3.16.29-1.19-.05-2.44-.05-3.16-.29-.36-.12-.77-.06-.77.36-.3-.06-.36.42-.6.35.25,0,.06.42.42.54,0,.24,0,.42.37.48.83.24,2.26.36,3.76.36h0Z"/>
          <path class="cls-5" d="M57.27,29.63c-1.6,0-2.98-.13-3.78-.36-.4-.07-.43-.29-.43-.51-.18-.09-.23-.26-.25-.38-.02-.09-.03-.12-.05-.13-.02,0-.03,0-.05,0-.04-.01-.07-.05-.07-.1,0-.04.04-.08.09-.08.02,0,.04,0,.05,0,.04,0,.08-.05.15-.13.07-.09.17-.22.32-.23.02-.16.11-.25.18-.3.17-.12.43-.13.71-.04.58.19,1.51.22,2.5.26.21,0,.43.02.64.03,1.53,0,2.55-.09,3.13-.29.28-.09.54-.08.71.04.07.05.15.14.18.3.15.01.25.14.32.23.07.08.1.13.15.13.02,0,.03,0,.05,0,.04,0,.08.03.09.08,0,.04-.02.09-.07.1-.02,0-.03,0-.05,0-.02.01-.03.04-.05.13-.03.12-.07.29-.25.38,0,.22-.03.44-.42.51-.81.23-2.19.36-3.79.36ZM52.94,28.2s.03.1.05.14c.03.12.05.23.2.27.04.01.06.05.06.08,0,.24,0,.34.29.4,0,0,0,0,0,0,.77.22,2.17.35,3.73.35h0c1.59,0,2.95-.13,3.74-.35,0,0,0,0,0,0,.28-.05.28-.16.28-.4,0-.04.02-.07.06-.08.14-.05.17-.15.2-.27.01-.04.02-.1.05-.14-.05-.04-.1-.1-.14-.15-.1-.12-.15-.18-.24-.16-.03,0-.05,0-.07-.02-.02-.02-.03-.04-.03-.07,0-.11-.04-.2-.11-.25-.12-.08-.33-.09-.55-.02-.6.2-1.64.3-3.19.3-.22,0-.43-.02-.65-.03-1-.04-1.94-.07-2.55-.27-.22-.07-.43-.07-.55.02-.07.05-.11.14-.11.25,0,.03-.01.05-.03.07-.02.02-.05.02-.07.02-.09-.02-.15.04-.24.16-.04.05-.08.11-.14.15Z"/>
        </g>
        <g>
          <g>
            <path class="cls-1" d="M55.24,27.27c.48.06,1.02.12,1.44.06.24,0,.41.41-.06.47-.42.05-1.08,0-1.43-.06-.3-.05-.96-.17-1.38-.29-.42-.18-.12-.54.12-.48.37.12.84.24,1.31.3h0ZM59.31,27.27c-.48.06-1.02.12-1.43.06-.25,0-.42.41.05.47.42.05,1.08,0,1.43-.06.3-.05.96-.17,1.38-.29.42-.18.12-.54-.12-.48-.37.12-.84.24-1.31.3h0Z"/>
            <path class="cls-5" d="M58.34,27.87c-.15,0-.29,0-.41-.02-.33-.05-.34-.24-.34-.3,0-.15.14-.27.29-.27.42.06.98,0,1.42-.06.57-.08,1.06-.22,1.3-.3.15-.04.33.07.38.21.02.05.05.24-.23.36-.44.12-1.13.25-1.39.29-.24.04-.65.09-1.03.09ZM57.87,27.38c-.1,0-.19.1-.19.18,0,.1.09.17.26.2.43.06,1.09,0,1.42-.06.26-.05.95-.17,1.37-.29.14-.06.2-.15.17-.24-.03-.1-.16-.18-.26-.15-.24.08-.74.22-1.32.3h0c-.45.06-1.02.12-1.44.06ZM56.21,27.87c-.38,0-.79-.04-1.03-.09-.26-.05-.95-.17-1.38-.29-.28-.12-.25-.31-.23-.36.05-.15.22-.25.37-.22.25.08.74.22,1.31.3h0c.44.06,1,.12,1.43.06h0c.15,0,.28.12.29.27,0,.06,0,.26-.34.3-.12.02-.27.02-.41.02ZM53.88,27.01c-.09,0-.19.07-.22.16-.03.09.03.18.17.24.42.12,1.11.24,1.37.29.33.06.99.12,1.42.06.17-.02.27-.1.26-.2,0-.09-.1-.18-.19-.18-.43.06-1,0-1.45-.07,0,0,0,0,0,0-.58-.08-1.08-.22-1.32-.3-.01,0-.02,0-.04,0Z"/>
          </g>
          <g>
            <path class="cls-1" d="M53.75,27.03c-.37-.06-.54.35-.42.59.05-.12.3-.12.36-.24.06-.18-.05-.18.06-.35h0ZM55.19,28.13c0-.24.24-.21.24-.44,0-.12-.06-.3-.18-.3s-.24.12-.24.24c-.05.24.18.27.18.51ZM56.89,27.45c.35,0,.32.47.15.71,0-.17-.3-.24-.3-.35,0-.18.27-.18.15-.36ZM60.79,27.03c.37-.06.54.35.42.59-.05-.12-.3-.12-.36-.24-.06-.18.05-.18-.06-.35h0ZM59.36,28.13c0-.24-.24-.21-.24-.44,0-.12.06-.3.18-.3s.24.12.24.24c.05.24-.18.27-.18.51h0ZM57.66,27.45c-.35,0-.32.47-.15.71,0-.17.3-.24.3-.35,0-.18-.27-.18-.15-.36h0Z"/>
            <path class="cls-5" d="M57.04,28.21s0,0-.01,0c-.02,0-.03-.02-.03-.05,0-.07-.08-.12-.15-.17-.08-.05-.15-.1-.15-.18,0-.11.07-.16.12-.21.07-.05.08-.07.04-.12,0-.01-.01-.03,0-.05,0-.02.02-.03.04-.03.16,0,.24.09.28.16.09.18.02.47-.09.63,0,.01-.02.02-.04.02ZM56.96,27.51c.01.08-.05.13-.09.17-.05.04-.09.08-.09.13,0,.03.06.07.11.1.05.04.12.08.16.14.07-.14.09-.32.03-.44-.03-.05-.06-.08-.12-.1ZM57.51,28.21s-.03,0-.04-.02c-.12-.16-.18-.44-.09-.63.04-.07.12-.16.28-.16.02,0,.03,0,.04.03,0,.02,0,.03,0,.05-.04.06-.03.07.04.12.05.04.12.1.12.21,0,.08-.07.13-.15.18-.07.05-.15.1-.15.17,0,.02-.01.04-.03.05,0,0,0,0-.01,0ZM57.58,27.51c-.05.02-.09.05-.12.1-.06.12-.03.3.03.44.04-.06.1-.1.16-.14.05-.04.11-.07.11-.1,0-.06-.03-.09-.09-.13-.04-.04-.11-.09-.09-.17ZM59.36,28.18s-.05-.02-.05-.05c0-.1-.05-.14-.1-.19-.06-.05-.13-.12-.13-.26s.08-.35.23-.35c.14,0,.28.14.28.28.03.14-.03.23-.09.3-.05.06-.09.12-.09.21,0,.03-.02.05-.05.05ZM59.31,27.43c-.08,0-.14.15-.14.25,0,.1.05.14.1.19.03.02.06.05.08.09.02-.04.04-.07.07-.1.05-.07.1-.12.07-.23,0,0,0,0,0-.01,0-.09-.1-.19-.19-.19ZM55.19,28.18s-.05-.02-.05-.05c0-.09-.04-.15-.09-.21-.06-.07-.12-.16-.09-.3,0-.14.14-.28.28-.28.15,0,.23.2.23.35s-.07.21-.13.26c-.06.05-.1.09-.1.19,0,.03-.02.05-.05.05ZM55.24,27.43c-.09,0-.19.1-.19.19,0,0,0,0,0,.01-.02.1.02.16.07.23.02.03.05.06.07.1.02-.04.06-.06.08-.09.06-.05.1-.09.1-.19,0-.1-.06-.25-.14-.25ZM53.33,27.67s-.03-.01-.04-.03c-.07-.15-.05-.35.06-.5.1-.13.25-.19.41-.16.02,0,.03.01.04.03s0,.03,0,.05c-.05.08-.05.11-.04.15,0,.04.02.1-.02.19-.04.08-.12.11-.21.15-.07.03-.13.05-.15.09,0,.02-.02.03-.04.03h0ZM53.67,27.07c-.13,0-.21.08-.25.13-.07.09-.1.22-.08.33.04-.03.09-.05.14-.07.07-.03.13-.05.15-.09.02-.07.02-.1.01-.14,0-.05-.01-.09.02-.15ZM61.21,27.67h0s-.03-.01-.04-.03c-.02-.04-.09-.07-.15-.09-.08-.03-.17-.07-.2-.14-.03-.1-.03-.15-.02-.19,0-.04.01-.07-.04-.15,0-.01-.01-.03,0-.05s.02-.03.04-.03c.16-.03.31.03.41.16.11.15.13.35.06.5,0,.02-.02.03-.04.03ZM60.87,27.07c.03.06.03.11.02.15,0,.04-.01.07.01.14.02.04.08.06.15.09.05.02.1.04.14.07.02-.11,0-.23-.08-.33-.04-.05-.12-.13-.25-.13Z"/>
          </g>
        </g>
        <g>
          <path class="cls-1" d="M53.87,27.15c.12,0,.3.05.36.12l-.36-.12h0ZM54.46,27.33c.06,0,.3.05.42.12l-.42-.12h0ZM56.62,27.57c-.12,0-.36,0-.42.05l.42-.05h0ZM55.96,27.57c-.06-.06-.3-.06-.42,0h.42ZM60.67,27.15c-.12,0-.29.05-.36.12l.36-.12ZM60.08,27.33c-.06,0-.3.05-.42.12l.42-.12h0ZM57.93,27.57c.12,0,.36,0,.42.05l-.42-.05h0ZM58.58,27.57c.06-.06.3-.06.42,0h-.42,0Z"/>
          <path class="cls-5" d="M56.2,27.65s-.03,0-.03-.02c0-.01,0-.03,0-.04.07-.06.26-.06.44-.06h0s.03,0,.03.02c0,.01,0,.02,0,.03,0,.01-.02.02-.03.02l-.41.05s0,0,0,0ZM58.35,27.65s0,0,0,0l-.42-.05s-.02,0-.02,0h0s-.01-.03,0-.04.02-.02.03-.02h0c.18,0,.37,0,.44.06.01,0,.02.03,0,.04,0,.01-.02.02-.03.02ZM59,27.6h-.42s-.03-.01-.03-.03c0-.01,0-.02.01-.03.08-.08.34-.07.46,0,.01,0,.02.02.02.04s-.02.03-.03.03ZM55.96,27.6h-.42s-.03-.01-.03-.03,0-.03.02-.04c.12-.07.38-.07.46,0,0,0,.01.02,0,.04,0,.01-.02.02-.03.02ZM54.88,27.48s0,0,0,0l-.42-.12s-.02,0-.02-.01h0s0-.03,0-.04c0-.01.02-.02.03-.01.08,0,.31.06.43.12.01,0,.02.03.01.04,0,.01-.02.02-.03.02ZM59.66,27.48s-.03,0-.03-.02c0-.02,0-.03.01-.04.12-.07.35-.12.43-.12.01,0,.03,0,.03.02,0,.01,0,.03,0,.04,0,0-.01,0-.02,0l-.42.12s0,0,0,0ZM60.32,27.3s-.02,0-.03-.02c0-.01,0-.03,0-.04.08-.08.26-.13.38-.13.02,0,.03.01.03.03,0,.02,0,.03-.02.04l-.36.12s0,0-.01,0ZM54.23,27.3s0,0-.01,0l-.35-.12s0,0-.01,0h0s-.02-.03-.01-.04c0-.01.02-.02.03-.02.13,0,.32.06.38.13,0,.01.01.03,0,.04,0,0-.02.01-.03.01Z"/>
        </g>
      </g>
      <path class="cls-5" d="M53.77,28.09s-.06-.04-.05-.08c.01-.05.05-.07.08-.06.02,0,.06.05.06.06,0,.02-.02.06-.03.06,0,0-.01,0-.01,0,0,0-.03.01-.05,0h0ZM57.89,28.39s-.04-.04-.04-.05c0-.03.04-.08.07-.08.01,0,.05.02.06.03.02.03.02.07-.01.09-.02.01-.06.02-.08,0h0ZM57.92,28.57s-.04-.03-.05-.06c0-.04,0-.04.04-.06h.03s.03,0,.03,0c.04.02.05.03.05.06,0,.03-.02.05-.05.07-.03.01-.03.01-.05,0h0ZM54.1,27.76s-.06.02-.08.04c-.05.01-.11.04-.15,0-.05-.01-.11,0-.11.05.01.05.08.08.12.04.03-.04.11-.06.12,0-.03.05-.03.12-.06.18,0,.03-.02.07-.04.1-.03,0-.07,0-.1.02-.05,0-.09.03-.12.07-.03.04-.06.09-.07.14,0,.05.07.07.12.07.05.01.1.03.15.05.08.02.16.05.24.07.12.04.24.05.36.08.01,0,.02,0,.04,0,.05.01.08-.04.08-.08.02-.09.04-.18.07-.26.02-.03.04-.11-.03-.1-.04.02-.07.06-.12.06-.07,0-.03.07,0,.1,0,.04,0,.1-.04.13-.04.02-.09,0-.13-.01-.04,0-.13-.02-.09-.08.01-.04.02-.09.03-.13.02-.05.03-.1.04-.15-.03-.06-.07.02-.11.03-.03.02-.12.03-.07.07.04.03.01.09,0,.13,0,.06-.06.07-.11.06-.05,0-.11-.04-.07-.09,0-.04.02-.09.03-.13l.05-.15s.02-.09.05-.13c0-.05.04-.1.04-.15,0-.03-.01-.03-.03-.04h0ZM53.83,28.3s.01,0,.02,0c.02,0,.02.02,0,.04,0,0-.02.01-.02.01-.04,0-.05,0-.05-.02,0-.01,0-.01.03-.03.01,0,.02,0,.03,0ZM53.76,28.68s-.03-.06.02-.1c.02-.02.04-.02.06,0,.04.04.04.06,0,.09-.02.02-.03.02-.05.02-.02,0-.03,0-.05-.02ZM53.99,28.75s-.06-.04-.05-.08c0,0,0,0,0,0,0-.03.02-.04.06-.04.05,0,.06,0,.06.06,0,.03,0,.03-.01.05-.02.01-.05.02-.07.02h0ZM60.67,28.75s-.02-.02-.02-.04c0-.03.02-.05.06-.07.05-.02.07-.02.09.01.03.05.02.06,0,.09-.02.02-.02.02-.06.02-.04,0-.04,0-.06-.02ZM54.29,28.84s-.04-.03-.04-.06c0-.03,0-.03.02-.04.01,0,.03-.02.04-.02.02,0,.03,0,.04.01.04.03.05.06.03.09-.03.03-.05.04-.09.03ZM55.93,28.91s-.02-.01-.02-.02c0-.04,0-.08.02-.12,0-.04,0-.08.01-.12.01-.07.01-.14.03-.21,0-.04,0-.07.01-.11.01-.05,0-.11.02-.16,0-.02.02-.07.04-.04.03.04.07.08.11.11.03.02,0,.05-.02.06-.03.01-.04.05-.04.08,0,.03-.02.06-.02.09,0,.05,0,.09-.01.14-.01.05,0,.09-.01.14,0,.03-.01.06-.01.09,0,.03,0,.07-.03.09-.02.01-.06.01-.08-.01h0ZM58.16,28.18s-.07.06-.1.09c-.04.03.04.05.05.08.01.04.01.09.01.14.01.04.02.09.02.13,0,.05-.06.04-.09.06-.04.02-.05.05-.08.08-.02.04-.02.08-.03.12,0,.03-.02.07,0,.1,0,0,0,0,0,.01,0,.01.03,0,.04,0,.04,0,.08,0,.11-.01.09-.02.18-.02.27-.02.06,0,.11-.02.17-.02.04,0,.06-.04.06-.07-.02-.05,0-.11-.02-.16-.02-.05-.01-.11-.02-.16,0-.04-.05-.06-.08-.03-.03.03-.07.03-.09.06-.02.05.05.05.06.08.01.03,0,.07.01.11,0,.04-.04.05-.07.05-.04.02-.1.03-.12-.02-.01-.04-.01-.07-.02-.11,0-.07-.02-.13-.02-.2,0-.08-.02-.16-.02-.25,0-.03,0-.09-.05-.08h0ZM58.11,28.8h.02s0,.03,0,.03v.03s-.03,0-.03,0c0,0-.02,0-.03,0,0,0,0,0-.01,0-.02-.01-.01-.03,0-.05.01-.01.02-.02.04-.01h0ZM55.87,28.1s-.06.05-.09.05c-.07,0-.06.07,0,.09,0,.02,0,.04,0,.07,0,.06-.03.11-.02.17,0,.07-.02.13-.03.19-.02.07-.02.14-.03.21,0,.06-.05.04-.09.02,0-.03,0-.05,0-.08.02-.06-.03-.08-.08-.09-.05,0-.08-.04-.07-.08.02-.03.08-.02.11-.02.07.02.07-.08.03-.12-.03-.05-.09-.07-.11-.12,0-.06-.04-.13-.09-.16-.08,0-.14.06-.17.13-.03,0-.07.02-.1.03-.05.01-.13.11-.06.14.04.01.17.04.11.1-.03.05-.09.05-.14.04-.05,0-.11-.03-.11-.09-.01-.06,0-.12-.04-.17-.01-.06-.08-.05-.09,0-.05.04-.05.1,0,.15.02.05,0,.12-.02.17-.01.07-.09.07-.14.09-.03,0-.12,0-.09.05.06.02.12.04.18.02.06,0,.12-.05.15-.1.04-.04.11-.02.17-.02.06,0,.12.04.17.01.02-.04.09-.11.11-.04,0,.06.05.1.11.09.06,0,.04.05.04.08,0,.07.05.11.11.14.02,0,.04,0,.06,0,.06-.02.12-.04.13-.11.02-.05.02-.11.04-.16.01-.08.03-.17.03-.26.02-.08.01-.16.03-.24,0-.06.02-.12.02-.18,0-.03-.02-.04-.04-.03h0ZM55.36,28.41s.02.02.02.04c0,.03.02.05.03.05.01,0,.01.02,0,.03,0,0-.02,0-.05,0-.04,0-.07-.01-.09-.04h-.01s.02-.03.02-.03c.01-.01.03-.02.04-.04.02-.02.04-.03.05-.03ZM60.31,27.82s-.09,0-.12.02c-.08,0-.12.08-.04.12.05.12.12-.02.19-.01.11.02.12.14.13.22,0,.09.03.17.06.25.07.08-.05.13-.11.07-.05-.05-.14-.11-.2-.04-.07.03-.07.12-.13.15-.09.03-.1-.08-.15-.13-.04-.06-.13-.07-.2-.09-.03-.07-.02-.18-.08-.22-.06.02-.16.13-.07.18.08.07-.04.11-.07.15-.05.06-.06.15-.07.22-.09.05-.11-.06-.12-.13,0-.08-.08-.06-.13-.03-.07.03-.11.1-.16.15,0,.05,0,.1,0,.15.02.06.09.03.14.03.07-.03.1.05.04.09-.04.05-.17.02-.15.11.04,0,.08,0,.12,0,.08-.02.17-.08.18-.17.01-.08.13-.06.19-.08.08-.02.17-.03.19.07.05.06.17.12.23.04.06-.04.09-.1.08-.17-.01-.06.1-.06.12-.03.04.06.16.05.22,0,.06-.05.08-.13.17-.13.13-.04.27-.06.4-.11.11-.02-.02-.09-.04-.13-.08-.04-.15.12-.24.04-.07-.05-.07-.16-.09-.23-.02-.1-.01-.22-.09-.3-.05-.05-.12-.07-.19-.06h0ZM59.8,28.53s.02,0,.04.01c.03.02.06.05.06.07,0,.02,0,.02-.03.03-.01,0-.03.01-.04.01-.01,0-.05-.03-.05-.04,0,0,0-.02,0-.04,0-.02,0-.02,0-.04,0-.01.01-.02.02-.02h0ZM60.29,28.56s.04,0,.06.03c.01.02,0,.04-.03.06-.02,0-.03.01-.03.01s-.01,0-.03-.02c-.02-.01-.02-.02-.02-.04,0-.02.03-.04.06-.05h0ZM59.62,28.56s.02,0,.03.01c.01.01.02.02.02.04,0,.02,0,.04,0,.05,0,.02,0,.02-.04.02-.05,0-.05,0-.05-.05,0-.03,0-.04.02-.05.01-.01.02-.02.03-.02h0ZM59.21,28.67s.03.01.03.03c0,.02,0,.03-.02.04-.02,0-.06.01-.07,0,0,0-.01,0-.01-.01,0,0,0-.01,0-.02,0,0,0,0,0-.01s0-.01.01-.02c.01-.01.03-.02.04-.02h0ZM59.9,28.76s.02,0,.03.01c.01.01.01.03,0,.04-.01,0-.07,0-.08,0,0,0-.01,0-.01-.02,0-.01,0-.02.02-.03.02,0,.03-.01.04-.01h0ZM58.61,29.12s-.02,0,0-.02c.01-.02.04-.03.06-.04.04-.02.08-.05.1-.08,0-.02.03-.04.03-.06,0-.04,0-.07,0-.11,0-.03-.03-.06-.06-.07-.02-.02-.05-.02-.06-.05,0-.03.02-.05.03-.07.02-.03.03-.06.05-.1.02-.02.05,0,.06.02.01.02.03.04.03.07.02.02.04.05.05.09.01.02.03.05.03.07,0,.03.02.06.02.09,0,.04,0,.09-.01.13-.01.02-.03.04-.05.05-.02.02-.05.04-.08.06-.02,0-.03.03-.06.03-.04,0-.08,0-.12,0,0,0-.01,0,0,0h0ZM58.1,29.16s-.02-.03-.02-.05c0-.02,0-.03.02-.04.03-.03.05-.03.11,0,.05.03.07.03.08.01,0-.02.04-.04.07-.04.02,0,.03,0,.04.02.02.01.02.02.02.05,0,.03,0,.04-.02.06-.02.02-.02.02-.05.02-.03,0-.05-.02-.06-.04,0-.02-.01-.02-.02-.01,0,0,0,0-.02.01-.02,0-.04.02-.06.04,0,0-.02,0-.04,0-.03,0-.03,0-.05-.02h0ZM56.61,28.49s-.1.04-.11.09c.01.06.06.11.03.17.02.08-.06.1-.11.06-.03-.07-.05-.15-.1-.22-.06-.02-.09.08-.13.11.02.06.08.11.09.18.01.07-.03.14-.09.18-.05.05-.12.03-.19.04-.08.04.06.06.09.06.08,0,.16,0,.22-.06.06-.03.05-.13.12-.14.12,0,.24.02.36.02.06.02.16,0,.21.04,0,.08.07.13.14.17.04.01.08-.04.11-.04.07-.02.05-.11.09-.15.12,0,.25,0,.37,0,.02,0,.03-.03.05-.05,0-.05,0-.1-.01-.14-.02-.06,0-.14-.04-.19-.06-.02-.12.04-.18.04-.07.03-.13.1-.13.17-.04.07-.11-.01-.08-.07,0-.02,0-.05,0-.07-.04-.05-.1-.03-.16-.04-.08,0-.15-.01-.23-.01-.07,0-.14,0-.2-.01-.08,0-.07-.08-.08-.13-.01-.01-.03-.01-.05-.01ZM56.76,28.76s.05,0,.07,0c.03,0,.07-.01.1,0,.07.01.15,0,.22.02.02,0,.03.01.05.03v.15s0,.04-.01.06c0,0-.01,0-.02,0-.02,0-.04-.02-.05-.04,0-.03,0-.05,0-.08,0,0,0-.02,0-.02-.02-.01-.03-.02-.05-.02-.06,0-.13,0-.19,0-.05,0-.11,0-.16,0-.02,0-.05,0-.06-.03-.02-.02,0-.04.03-.05.02-.01.05-.01.07-.01h0ZM57.61,28.78s.02,0,.02.03v.04s0,.01,0,.02c-.04.01-.07.01-.09,0,0,0,0-.03.01-.04.02-.02.05-.03.06-.03h0Z"/>
      <g>
        <g>
          <path class="cls-1" d="M58.2,18.98c.05,0-.07-.27-.07-.27.13.14.63.17.63.17-.3-.13-.6-1.13-.56-1.93.03-.8-.11-1.11-.23-1.23-.15-.15-.63-.28-.95-.3-.18,0-.15.14-.15.14-.33-.09-.66-.12-.81-.02-.14.09-.17.56-.07.48.25-.2.47-.02.62.2.13.19.12.73-.07,1.36-.2.66-.75,1.33-.75,1.33.3,0,.71-.26.71-.26l-.1.41c.31-.15.56-.38.56-.38l.3.31c.1-.13.3-.31.3-.31,0,0,.25.26.63.3h0Z"/>
          <path class="cls-5" d="M56.33,19.15l.1-.4c-.14.08-.42.22-.65.22h-.1l.06-.07s.54-.67.74-1.31c.2-.65.19-1.16.07-1.33-.11-.16-.22-.25-.33-.26-.07-.01-.15.01-.22.07-.03.03-.06.02-.08.01-.03-.01-.05-.05-.06-.11-.01-.12.03-.38.15-.46.18-.12.56-.06.8,0,0-.02.01-.05.03-.07.03-.04.09-.06.16-.06.33.02.82.16.98.31.13.13.28.46.25,1.27-.04.82.28,1.77.54,1.89l-.02.09s-.34-.02-.54-.1c.05.14.03.17.02.18-.01.02-.03.02-.05.02h0c-.32-.03-.55-.21-.63-.28-.06.06-.19.18-.26.28l-.03.04-.31-.32c-.08.07-.29.24-.54.36l-.09.04ZM56.57,18.55l-.1.43c.26-.14.46-.33.47-.33l.03-.03.29.31c.11-.13.26-.27.27-.28l.03-.03.03.03s.22.23.56.28c-.01-.05-.04-.13-.07-.2l.07-.05c.07.07.29.12.45.14-.27-.31-.49-1.16-.46-1.87.03-.82-.12-1.1-.22-1.2-.14-.14-.61-.27-.92-.29-.03,0-.07,0-.09.02-.02.02-.01.06-.01.06v.07s-.06-.02-.06-.02c-.37-.09-.66-.1-.78-.02-.04.03-.08.11-.1.21-.02.08-.01.15,0,.18.09-.07.18-.09.28-.08.13.02.27.12.39.3.15.21.12.79-.06,1.4-.16.53-.54,1.06-.69,1.26.27-.05.59-.25.59-.25l.1-.06Z"/>
        </g>
        <path class="cls-5" d="M58.09,18.74c-.29-.42-.36-1.54-.36-1.59h.1s.07,1.13.34,1.53l-.08.05ZM57.01,18.71l-.08-.05c.21-.39.28-1.61.28-1.63h.1c0,.06-.07,1.27-.29,1.67ZM57.52,18.7c-.08-.24-.09-1.56-.09-1.61h.1c0,.38.01,1.4.08,1.58l-.09.03ZM56.53,18.68l-.07-.06c.3-.34.47-1.54.47-1.56h.09c0,.06-.17,1.26-.49,1.62Z"/>
        <g>
          <path class="cls-5" d="M56.68,16.47c-.01-.11-.04-.19-.08-.25-.15-.22-.37-.4-.62-.2,0,0,.09-.26.27-.27.14,0,.46.11.74.59,0,0-.21-.05-.26,0-.09.08-.06.14-.06.14h0ZM55.96,15.69c.02-.07.05-.13.09-.16.15-.1.48-.07.81.02,0,0-.03-.14.15-.14.32.02.8.15.95.3.04.04.08.09.11.18h0c-.07-.1-.28-.1-.33-.09-.08,0-.13,0-.24.03-.05.01-.13.03-.17.06-.03.03-.06.12-.11.12-.08,0-.07-.02-.09-.04-.03-.03-.04-.08-.07-.08-.08.01-.21-.05-.38-.18s-.23-.16-.45-.15c-.21.02-.28.14-.28.14h0Z"/>
          <path class="cls-5" d="M56.67,16.48s-.01-.02,0-.05c-.02-.09-.04-.15-.07-.2-.11-.17-.23-.26-.35-.28-.08-.01-.17.01-.25.08l-.03.03v-.04s.1-.27.29-.28c.14,0,.47.11.76.59l.02.03h-.03c-.08-.02-.21-.04-.25-.01-.04.03-.05.06-.06.08,0,.01,0,.03,0,.04h-.02ZM56.2,15.92s.03,0,.04,0c.12.02.25.12.37.29.03.04.05.1.07.17.01-.02.03-.04.05-.06.04-.04.18-.02.24,0-.28-.46-.58-.56-.72-.56-.13,0-.21.15-.24.22.06-.04.13-.06.19-.06ZM57.23,16.04c-.07,0-.08-.01-.1-.04,0,0,0,0,0-.01,0-.01-.02-.02-.02-.04-.01-.02-.02-.04-.03-.04-.08.02-.22-.05-.39-.18-.17-.13-.23-.16-.44-.15-.2.02-.27.13-.27.13h-.02s0-.03,0-.03c.01-.05.05-.13.1-.16.18-.12.57-.05.81.01,0-.02,0-.06.03-.09.03-.03.07-.05.14-.04.33.02.81.15.96.3.05.05.08.11.11.18v.02s-.02,0-.02,0h0c-.07-.1-.26-.1-.32-.09-.02,0-.04,0-.06,0-.05,0-.1,0-.17.03h-.02s-.11.03-.15.06c0,0-.02.03-.03.05-.02.04-.05.08-.09.08ZM57.07,15.89s.04.02.05.05c0,.01.01.02.02.03,0,0,0,0,.01.01,0,.01.02.02.07.02.02,0,.04-.04.06-.07.01-.02.02-.04.04-.05.04-.03.11-.05.16-.06h.02c.08-.02.13-.03.18-.03.02,0,.04,0,.06,0,0,0,.19-.02.3.06-.02-.05-.05-.09-.08-.12-.15-.15-.62-.28-.94-.3-.05,0-.09,0-.12.03-.03.03-.02.08-.02.08v.02s-.02,0-.02,0c-.38-.1-.68-.11-.8-.02-.03.02-.05.05-.07.1.04-.04.12-.08.24-.09.22-.02.29.02.46.15.17.13.29.19.37.18,0,0,0,0,0,0Z"/>
        </g>
        <circle class="cls-1" cx="57.18" cy="15.8" r=".09"/>
      </g>
      <g>
        <path class="cls-1" d="M57.27,24.54c2.45-1.88,2.24-4.64,2.24-4.64-.06.01-.13.02-.19.02-.51,0-1.74-.29-2.02-.67-.31.34-1.56.67-2.07.67-.06,0-.13,0-.19-.02,0,0-.21,2.76,2.24,4.64h0Z"/>
        <path class="cls-5" d="M57.27,24.6l-.03-.02c-2.44-1.88-2.25-4.65-2.25-4.68v-.05s.05.01.05.01c.06.01.12.02.18.02.52,0,1.74-.33,2.04-.65l.03-.04.03.04c.27.36,1.49.65,1.99.65.06,0,.12,0,.18-.02h.05s0,.04,0,.04c0,.03.18,2.8-2.25,4.68l-.03.02ZM55.08,19.95c-.01.37,0,2.82,2.19,4.54,2.2-1.71,2.21-4.16,2.2-4.54-.05,0-.1.01-.15.01-.5,0-1.68-.28-2.03-.65-.38.35-1.59.65-2.07.65-.05,0-.1,0-.15-.01Z"/>
      </g>
      <path class="cls-5" d="M57.27,24.33l-.02-.02c-.91-.72-1.55-1.69-1.85-2.8-.1-.36-.16-.73-.19-1.1,0-.08-.01-.2-.01-.31v-.04s.04,0,.04,0c.02,0,.04,0,.06,0,.46,0,1.55-.27,1.97-.59l.02-.02.02.02c.42.36,1.51.59,1.94.59h.1s0,.03,0,.03c0,.08,0,.23-.01.31-.02.36-.09.73-.19,1.1-.31,1.11-.95,2.08-1.86,2.81l-.02.02ZM55.26,20.14c0,.1,0,.2.01.27.02.36.09.72.19,1.08.3,1.11.91,2.03,1.81,2.75.9-.72,1.51-1.65,1.81-2.75.1-.36.16-.73.19-1.08,0-.07,0-.18.01-.27h-.03c-.45,0-1.52-.22-1.97-.59-.45.33-1.52.59-1.99.59,0,0-.02,0-.03,0Z"/>
      <g class="cls-7">
        <g>
          <path id="B" class="cls-3" d="M55.22,19.48h1.37v4.82h-1.37v-4.82Z"/>
          <path class="cls-2" d="M56.59,19.48h1.37v4.82h-1.37v-4.82Z"/>
          <path class="cls-3" d="M57.96,19.48h1.37v4.82h-1.37v-4.82Z"/>
        </g>
      </g>
    </g>
  </g>
</svg>