<?xml version="1.0" encoding="UTF-8"?>
<svg id="Layer_2" data-name="Layer 2" xmlns="http://www.w3.org/2000/svg" viewBox="0 0 114.55 45">
  <defs>
    <style>
      .cls-1 {
        fill: #0045af;
      }

      .cls-1, .cls-2, .cls-3, .cls-4, .cls-5, .cls-6, .cls-7, .cls-8, .cls-9, .cls-10, .cls-11, .cls-12, .cls-13, .cls-14, .cls-15, .cls-16, .cls-17, .cls-18, .cls-19, .cls-20, .cls-21 {
        stroke: #000;
        stroke-width: .02px;
      }

      .cls-2 {
        fill-rule: evenodd;
      }

      .cls-2, .cls-13, .cls-15, .cls-22 {
        fill: #9f7e00;
      }

      .cls-23, .cls-14 {
        fill: #dead00;
      }

      .cls-24, .cls-9 {
        fill: #fff;
      }

      .cls-3, .cls-5, .cls-25 {
        fill: #b50027;
      }

      .cls-26 {
        fill: rgba(0, 91, 191, .94);
      }

      .cls-4 {
        fill: #e6e6e6;
      }

      .cls-27 {
        fill: #b2b2b2;
      }

      .cls-5, .cls-6, .cls-13, .cls-18 {
        stroke-linejoin: round;
      }

      .cls-28 {
        fill: #005bbf;
      }

      .cls-6, .cls-19, .cls-20 {
        fill: none;
      }

      .cls-29, .cls-12 {
        fill: #006f46;
      }

      .cls-7 {
        fill: #b60028;
      }

      .cls-8, .cls-30 {
        fill: #c8b100;
      }

      .cls-10 {
        fill: #2b1100;
        stroke-miterlimit: 3.86;
      }

      .cls-31 {
        fill: #ce1126;
      }

      .cls-16 {
        fill: #db4446;
      }

      .cls-32 {
        fill: #ad1519;
      }

      .cls-17 {
        fill: #f6cb7e;
      }

      .cls-18 {
        fill: #d85aac;
      }

      .cls-20 {
        stroke-linecap: round;
      }

      .cls-33 {
        fill: #fabd00;
      }

      .cls-21 {
        fill: #0044ad;
      }
    </style>
  </defs>
  <g id="Layer_1-2" data-name="Layer 1">
    <g>
      <rect class="cls-32" width="114.55" height="45"/>
      <rect class="cls-33" y="11.25" width="114.55" height="22.5"/>
      <g>
        <path class="cls-25" d="M38.22,20.07c-.97,0-1.84-.12-2.5-.31.66-.19,1.54-.3,2.5-.3.97,0,1.84.12,2.51.3-.66.19-1.54.31-2.51.31"/>
        <g>
          <path class="cls-19" d="M36.04,17.78c0-.11.08-.2.19-.2s.19.09.19.2-.08.2-.19.2-.19-.09-.19-.2Z"/>
          <path class="cls-3" d="M38.18,16.1c.58,0,1.1.09,1.43.24.19.09.45.16.73.21.22.03.42.04.6.02.24,0,.58.07.93.24.28.14.52.31.68.47l-.14.13-.04.38-.37.47-.19.17-.44.39-.23.02-.07.21-2.87-.37-2.88.37-.07-.21-.23-.02-.44-.39-.19-.17-.37-.47-.04-.38-.14-.13c.16-.16.4-.33.68-.47.34-.17.69-.24.93-.24.18.01.38,0,.6-.02.28-.04.54-.11.73-.21.34-.15.82-.24,1.4-.24h0Z"/>
          <g>
            <path class="cls-15" d="M40.24,17.03l-.18-.32c.2-.13.33-.36.33-.62,0-.03,0-.06,0-.09-.02-.41-.48-.75-1.06-.75-.3,0-.58.09-.77.24,0-.06,0-.12-.02-.18.21-.14.49-.22.79-.22.67,0,1.2.42,1.22.91,0,.03,0,.06,0,.09,0,.26-.11.5-.28.66l.1.17-.12.11ZM36.18,17.03l.18-.32c-.2-.13-.33-.36-.33-.62,0-.03,0-.06,0-.09.02-.41.48-.75,1.06-.75.3,0,.58.09.77.24,0-.06,0-.12.02-.18-.21-.14-.49-.22-.79-.22-.67,0-1.2.42-1.22.91,0,.03,0,.06,0,.09,0,.26.11.5.28.66l-.1.17.12.11Z"/>
            <path class="cls-15" d="M40.73,16.21c0-.32-.19-.61-.49-.8.18.16.29.36.31.59,0,.03,0,.06,0,.09,0,.26-.11.5-.28.66l.09.18c.23-.19.37-.44.37-.72h0Z"/>
            <path class="cls-15" d="M34.04,17.25c-.13-.16-.21-.36-.21-.58,0-.13.03-.26.08-.38.19-.42.77-.72,1.46-.72.19,0,.37.02.54.06-.04.04-.07.09-.09.14-.14-.03-.29-.05-.44-.05-.63,0-1.16.27-1.32.63-.04.09-.06.2-.06.3,0,.22.09.42.24.55l-.23.41-.12-.11.16-.27h0s0,0,0,0ZM38.21,15.01c.15,0,.29.11.32.26.02.13.03.28.04.44,0,.02,0,.03,0,.05,0,.02,0,.04,0,.06,0,.33.05.63.11.81l-.47.49-.47-.49c.06-.18.11-.48.11-.81,0-.02,0-.04,0-.06,0-.02,0-.03,0-.05,0-.16.02-.31.04-.44.03-.15.17-.26.32-.26h0Z"/>
          </g>
          <g>
            <path class="cls-19" d="M38.64,20.13v-.73M38.46,20.13v-.73"/>
            <path class="cls-19" d="M38.3,20.13v-.73M38.14,20.13v-.73M37.99,20.13v-.73M37.71,20.09v-.66M37.84,20.1v-.69"/>
            <path class="cls-19" d="M37.46,20.06v-.61M37.59,20.08v-.65M37.11,20.03v-.54M37.23,20.04v-.56M37.34,20.05v-.59"/>
            <path class="cls-19" d="M36.99,20.02v-.52M36.88,20.03v-.57M36.76,20.02v-.53M36.51,19.97v-.45M36.64,20v-.5"/>
            <path class="cls-19" d="M36.39,19.96v-.41M36.27,19.97v-.39M36.15,19.89v-.29M36.02,19.89v-.27M35.88,19.86v-.2"/>
            <path class="cls-19" d="M39.33,20.09v-.67M39.04,20.11v-.71M38.82,20.12v-.72"/>
          </g>
          <g>
            <g>
              <path class="cls-15" d="M38.22,19.27c-1.07,0-2.03.14-2.71.36-.05.02-.07.06-.07.11,0,.05.02.1.07.12.68.22,1.64.36,2.71.36,1.07,0,2.03-.14,2.71-.36.05-.02.08-.07.07-.12,0-.05-.02-.1-.07-.11-.68-.22-1.64-.36-2.71-.36h0ZM38.22,19.46c.97,0,1.84.12,2.51.3-.66.19-1.54.31-2.51.31-.97,0-1.84-.12-2.5-.31.66-.19,1.54-.3,2.5-.3Z"/>
              <path class="cls-15" d="M38.21,19.27c-1.08,0-2.05.15-2.74.38.06-.03.05-.11-.02-.3-.09-.24-.22-.23-.22-.23.76-.24,1.81-.4,2.98-.4,1.17,0,2.23.15,2.99.4,0,0-.13-.01-.22.23-.07.2-.08.27-.02.3-.68-.23-1.67-.38-2.76-.38"/>
              <path class="cls-15" d="M38.22,18.72c-1.17,0-2.22.15-2.98.4-.05.02-.1,0-.12-.06-.02-.05.01-.11.06-.13.76-.25,1.84-.41,3.04-.42,1.2,0,2.28.16,3.04.42.05.02.08.08.06.13-.02.05-.07.07-.12.06-.76-.24-1.81-.4-2.98-.4"/>
            </g>
            <path class="cls-9" d="M37.38,19.01c0-.05.04-.1.1-.1s.1.04.1.1-.04.1-.1.1-.1-.04-.1-.1"/>
            <path class="cls-3" d="M38.22,19.09h-.29c-.05,0-.1-.04-.1-.1s.04-.1.1-.1h.58c.05,0,.1.04.1.1s-.04.1-.1.1h-.29Z"/>
            <path class="cls-12" d="M36.78,19.17l-.21.03c-.05,0-.1-.03-.11-.09,0-.05.03-.1.08-.11l.21-.03.21-.03c.05,0,.1.03.11.09,0,.05-.03.1-.08.11l-.21.03Z"/>
            <path class="cls-9" d="M35.94,19.19c0-.05.04-.1.1-.1s.1.04.1.1-.04.1-.1.1-.1-.04-.1-.1"/>
            <path class="cls-3" d="M35.32,19.34l.09-.12.29.04-.23.19-.13-.05-.04-.02.02-.03Z"/>
            <path class="cls-12" d="M39.66,19.17l.21.03c.05,0,.1-.03.11-.09,0-.05-.03-.1-.08-.11l-.21-.03-.21-.03c-.05,0-.1.03-.11.09,0,.05.03.1.08.11l.21.03Z"/>
            <path class="cls-9" d="M38.87,19.01c0-.05.04-.1.1-.1s.1.04.1.1-.04.1-.1.1-.1-.04-.1-.1M40.31,19.19c0-.05.04-.1.1-.1s.1.04.1.1-.04.1-.1.1-.1-.04-.1-.1"/>
            <path class="cls-3" d="M41.14,19.37l-.11-.15-.29.04.23.19.16-.06h.02s0-.02,0-.02Z"/>
          </g>
          <path class="cls-15" d="M38.21,15.17c.08,0,.15.06.16.13.02.12.03.27.03.42,0,.02,0,.03,0,.05,0,.02,0,.04,0,.06,0,.32.05.59.11.76l-.31.32-.31-.32c.06-.17.1-.45.11-.76,0-.02,0-.04,0-.06,0-.02,0-.03,0-.05,0-.15.02-.29.03-.42.02-.08.09-.13.17-.13h0Z"/>
        </g>
        <path class="cls-24" d="M38.04,16.69c0-.09.07-.17.17-.17s.17.08.17.17-.07.17-.17.17-.17-.08-.17-.17"/>
        <g>
          <path class="cls-19" d="M38.04,16.69c0-.09.07-.17.17-.17s.17.08.17.17-.07.17-.17.17-.17-.08-.17-.17Z"/>
          <g>
            <path class="cls-9" d="M38.04,16.35c0-.09.07-.17.17-.17s.17.08.17.17-.07.17-.17.17-.17-.08-.17-.17M38.08,15.99c0-.08.06-.14.13-.14s.13.06.13.14-.06.14-.13.14-.13-.06-.13-.14M38.12,15.66c0-.05.04-.1.1-.1s.1.04.1.1-.04.1-.1.1-.1-.04-.1-.1M38.13,15.38s.03-.08.08-.08.08.04.08.08-.03.08-.08.08-.08-.04-.08-.08"/>
            <path class="cls-15" d="M38.23,17.72l.11.02s-.02.1-.02.15c0,.24.19.44.43.44.19,0,.35-.13.41-.31,0,0,.04-.16.06-.16.02,0,.01.17.02.17.03.22.21.37.43.37.24,0,.43-.2.43-.44,0-.02,0-.04,0-.05l.13-.15.07.18c-.03.06-.04.12-.04.19,0,.23.18.42.41.42.14,0,.27-.07.34-.19l.09-.12v.15c0,.15.06.28.19.3,0,0,.15.01.35-.16.2-.17.31-.31.31-.31l.02.17s-.17.28-.35.39c-.1.06-.25.13-.37.11-.13-.02-.22-.13-.26-.26-.09.06-.2.09-.31.09-.24,0-.46-.15-.55-.37-.11.13-.27.21-.45.21-.2,0-.37-.1-.49-.24-.11.11-.26.18-.43.18-.22,0-.41-.12-.52-.29-.11.17-.3.29-.52.29-.17,0-.32-.07-.43-.18-.11.15-.29.24-.49.24-.18,0-.34-.08-.45-.21-.09.22-.31.37-.55.37-.11,0-.22-.03-.31-.09-.05.13-.14.24-.26.26-.12.02-.27-.04-.37-.11-.18-.11-.35-.39-.35-.39l.02-.17s.11.14.31.31c.2.17.35.16.35.16.13-.02.19-.15.19-.3v-.15s.09.12.09.12c.07.11.2.19.34.19.23,0,.41-.19.41-.42,0-.07-.01-.14-.04-.19l.07-.18.13.15s0,.04,0,.05c0,.24.19.44.43.44.21,0,.4-.15.43-.37,0,0,0-.17.02-.17.02,0,.05.16.06.16.06.18.22.31.41.31.24,0,.43-.2.43-.44,0-.05,0-.11-.02-.15l.11-.02"/>
            <path class="cls-9" d="M41.17,18.3c.02-.08,0-.16-.05-.17-.05-.02-.12.03-.14.11-.02.08,0,.16.05.17.05.02.12-.03.14-.11M39.31,17.91c0-.08-.03-.15-.08-.16-.05,0-.11.05-.12.14,0,.08.03.15.08.16.05,0,.11-.05.12-.14M37.14,17.91c0-.08.03-.15.08-.16.05,0,.11.05.12.14,0,.08-.03.15-.08.16-.05,0-.11-.05-.12-.14M35.28,18.3c-.02-.08,0-.16.05-.17.05-.02.11.03.14.11.02.08,0,.16-.05.17-.05.02-.11-.03-.14-.11"/>
            <g>
              <path class="cls-15" d="M36.13,17.92s-.05-.06-.06-.1c0-.04,0-.08.02-.12,0,0-.08-.04-.16-.07-.06-.02-.17-.02-.21-.02-.03,0-.1,0-.1,0,0,0,0,.02.02.05.02.04.04.07.04.07-.11.03-.2.11-.26.2.09.07.2.1.31.09,0,0,0,.03-.02.08,0,.04,0,.06,0,.06,0,0,.06-.02.09-.04.03-.01.13-.05.19-.09.07-.05.13-.12.13-.12M36.37,17.87s.03-.07.02-.12c0-.04-.03-.08-.06-.1,0,0,.06-.07.13-.12.05-.04.16-.08.19-.09.03-.01.09-.04.09-.04,0,0,0,.02,0,.06,0,.05-.02.08-.02.08.11-.01.23.03.31.09-.06.09-.15.17-.26.2,0,0,.02.03.04.07.02.04.02.05.02.05,0,0-.07,0-.1,0-.03,0-.14,0-.21-.02-.08-.02-.16-.07-.16-.07"/>
              <path class="cls-15" d="M36.29,17.23s.01-.02.06-.06c.05-.03.09-.03.09-.03,0,0-.01.09-.02.13,0,.03,0,.13-.03.22-.02.09-.06.16-.06.16-.04-.03-.09-.05-.14-.04-.05,0-.09.04-.12.09,0,0-.06-.05-.11-.13-.05-.08-.08-.17-.1-.2-.02-.03-.06-.11-.06-.11,0,0,.04-.02.1,0,.06.01.08.03.08.03-.01-.12.02-.25.09-.34.09.06.17.17.2.29h0Z"/>
            </g>
            <path class="cls-3" d="M36.04,17.78c0-.11.08-.2.19-.2s.19.09.19.2-.08.2-.19.2-.19-.09-.19-.2"/>
            <g>
              <path class="cls-15" d="M38.39,17s.02-.02.08-.05c.06-.02.11-.02.11-.02,0,0-.03.1-.05.14-.01.04-.03.15-.07.24-.04.1-.09.17-.09.17-.03-.04-.09-.07-.15-.07s-.11.03-.15.07c0,0-.05-.07-.09-.17-.04-.09-.06-.2-.07-.24-.01-.04-.05-.14-.05-.14,0,0,.05,0,.11.02.06.02.08.05.08.05,0-.14.07-.27.17-.36.09.09.16.22.17.36Z"/>
              <path class="cls-15" d="M38.08,17.72s-.05-.08-.05-.13.02-.09.04-.13c0,0-.08-.06-.17-.11-.07-.03-.19-.06-.23-.06-.04,0-.11-.02-.11-.02,0,0,0,.02.02.06.02.05.03.09.03.09-.13,0-.25.08-.33.17.08.09.2.16.33.17,0,0-.02.03-.03.09-.01.04-.02.06-.02.06,0,0,.07-.01.11-.02.04,0,.16-.03.23-.06.09-.04.17-.11.17-.11M38.36,17.72s.05-.08.05-.13-.02-.09-.04-.13c0,0,.08-.06.17-.11.07-.03.19-.06.23-.06.04,0,.11-.02.11-.02,0,0,0,.02-.02.06-.02.05-.03.09-.03.09.13,0,.25.08.33.17-.08.09-.2.16-.33.17,0,0,.02.03.03.09.01.04.02.06.02.06,0,0-.07-.01-.11-.02-.04,0-.16-.03-.23-.06-.09-.04-.17-.11-.17-.11M40.16,17.23s-.01-.02-.06-.06c-.05-.03-.09-.03-.09-.03,0,0,.01.09.02.13,0,.03,0,.13.03.22.02.09.06.16.06.16.04-.03.09-.05.14-.04.05,0,.09.04.12.09,0,0,.06-.05.11-.13.05-.08.08-.17.1-.2.02-.03.06-.11.06-.11,0,0-.04-.02-.1,0-.06.01-.08.03-.08.03.01-.12-.02-.25-.09-.34-.09.06-.17.17-.2.29h0Z"/>
              <path class="cls-15" d="M40.32,17.92s.05-.06.06-.1c0-.04,0-.08-.02-.12,0,0,.08-.04.16-.07.06-.02.17-.02.21-.02.03,0,.1,0,.1,0,0,0,0,.02-.02.05-.02.04-.04.07-.04.07.11.03.2.11.26.2-.09.07-.2.1-.31.09,0,0,.01.03.02.08,0,.04,0,.06,0,.06,0,0-.06-.02-.09-.04-.03-.01-.13-.05-.19-.09-.07-.05-.13-.12-.13-.12M40.07,17.87s-.03-.07-.02-.12c0-.04.03-.08.06-.1,0,0-.06-.07-.13-.12-.05-.04-.16-.08-.19-.09-.03-.01-.09-.04-.09-.04,0,0,0,.02,0,.06,0,.05.02.08.02.08-.11-.01-.23.03-.31.09.06.09.15.17.26.2,0,0-.02.03-.04.07-.02.04-.02.05-.02.05,0,0,.07,0,.1,0,.03,0,.14,0,.21-.02.08-.02.16-.07.16-.07"/>
            </g>
            <path class="cls-3" d="M40.02,17.78c0-.11.08-.2.19-.2s.19.09.19.2-.08.2-.19.2-.19-.09-.19-.2M42.14,18.22c-.04-.05-.14-.04-.21.02-.07.06-.09.16-.04.21.04.05.14.04.21-.02.07-.06.09-.16.04-.21"/>
            <path class="cls-15" d="M41.87,18.34s.03-.07.06-.1c.07-.06.16-.07.21-.02,0,0,.01.02.02.02,0,0,.1-.2.21-.26.11-.07.31-.05.31-.05,0-.15-.11-.27-.26-.27-.09,0-.17.04-.22.11l-.02-.1s-.12.03-.17.17c-.05.15,0,.36,0,.36,0,0-.03-.09-.07-.15-.04-.06-.16-.13-.22-.16-.06-.03-.12-.08-.12-.08,0,0,0,.02,0,.06,0,.05,0,.08,0,.08-.11-.02-.24,0-.33.05.04.09.12.18.23.22,0,0-.04.03-.07.07-.03.03-.04.05-.04.05,0,0,.07.01.11.02.04,0,.16.03.23.02.05,0,.12-.01.15-.02M34.58,18.34s-.03-.07-.06-.1c-.07-.06-.16-.07-.21-.02,0,0-.01.02-.02.02,0,0-.1-.2-.21-.26-.11-.07-.31-.05-.31-.05,0-.15.11-.27.26-.27.09,0,.17.04.22.11l.02-.1s.12.03.17.17c.05.15,0,.36,0,.36,0,0,.03-.09.07-.15.04-.06.16-.13.22-.16.06-.03.12-.08.12-.08,0,0,0,.02,0,.06,0,.05,0,.08,0,.08.11-.02.24,0,.33.05-.04.09-.12.18-.23.22,0,0,.04.03.07.07.03.03.04.05.04.05,0,0-.07.01-.11.02-.04,0-.16.03-.23.02-.05,0-.12-.01-.15-.02"/>
            <path class="cls-3" d="M34.31,18.22c.04-.05.14-.04.21.02.07.06.09.16.04.21-.04.05-.14.04-.21-.02-.07-.06-.09-.16-.04-.21M38.03,17.6c0-.11.08-.2.19-.2s.19.09.19.2-.08.2-.19.2-.19-.09-.19-.2"/>
          </g>
          <g>
            <path class="cls-21" d="M37.83,14.63c0-.22.17-.4.39-.4s.39.18.39.4-.17.4-.39.4-.39-.18-.39-.4"/>
            <path class="cls-15" d="M38.11,13.51v.22h-.21v.22h.21v.63h-.27s-.02.04-.02.06c0,.06.01.11.03.16,0,0,0,0,0,0h.71s0,0,0,0c.02-.05.03-.1.03-.16,0-.02-.02-.04-.02-.06h-.26v-.63h.21v-.22h-.21v-.22h-.21Z"/>
          </g>
        </g>
        <path class="cls-24" d="M42.57,17.61c0-.05.04-.1.1-.1s.1.04.1.1-.04.1-.1.1-.1-.04-.1-.1"/>
        <path class="cls-19" d="M42.57,17.61c0-.05.04-.1.1-.1s.1.04.1.1-.04.1-.1.1-.1-.04-.1-.1Z"/>
        <path class="cls-24" d="M42.7,17.36c0-.05.04-.1.1-.1s.1.04.1.1-.04.1-.1.1-.1-.04-.1-.1"/>
        <path class="cls-19" d="M42.7,17.36c0-.05.04-.1.1-.1s.1.04.1.1-.04.1-.1.1-.1-.04-.1-.1Z"/>
        <path class="cls-24" d="M42.79,17.07c0-.05.04-.1.1-.1s.1.04.1.1-.04.1-.1.1-.1-.04-.1-.1"/>
        <path class="cls-19" d="M42.79,17.07c0-.05.04-.1.1-.1s.1.04.1.1-.04.1-.1.1-.1-.04-.1-.1h0Z"/>
        <path class="cls-24" d="M42.8,16.75c0-.05.04-.1.1-.1s.1.04.1.1-.04.1-.1.1-.1-.04-.1-.1"/>
        <path class="cls-19" d="M42.8,16.75c0-.05.04-.1.1-.1s.1.04.1.1-.04.1-.1.1-.1-.04-.1-.1Z"/>
        <path class="cls-24" d="M42.73,16.45c0-.05.04-.1.1-.1s.1.04.1.1-.04.1-.1.1-.1-.04-.1-.1"/>
        <path class="cls-19" d="M42.73,16.45c0-.05.04-.1.1-.1s.1.04.1.1-.04.1-.1.1-.1-.04-.1-.1Z"/>
        <path class="cls-24" d="M42.58,16.17c0-.05.04-.1.1-.1s.1.04.1.1-.04.1-.1.1-.1-.04-.1-.1"/>
        <path class="cls-19" d="M42.58,16.17c0-.05.04-.1.1-.1s.1.04.1.1-.04.1-.1.1-.1-.04-.1-.1h0Z"/>
        <path class="cls-24" d="M42.38,15.94c0-.05.04-.1.1-.1s.1.04.1.1-.04.1-.1.1-.1-.04-.1-.1"/>
        <path class="cls-19" d="M42.38,15.94c0-.05.04-.1.1-.1s.1.04.1.1-.04.1-.1.1-.1-.04-.1-.1h0Z"/>
        <path class="cls-24" d="M42.16,15.74c0-.05.04-.1.1-.1s.1.04.1.1-.04.1-.1.1-.1-.04-.1-.1"/>
        <path class="cls-19" d="M42.16,15.74c0-.05.04-.1.1-.1s.1.04.1.1-.04.1-.1.1-.1-.04-.1-.1h0Z"/>
        <path class="cls-24" d="M41.88,15.59c0-.05.04-.1.1-.1s.1.04.1.1-.04.1-.1.1-.1-.04-.1-.1"/>
        <path class="cls-19" d="M41.88,15.59c0-.05.04-.1.1-.1s.1.04.1.1-.04.1-.1.1-.1-.04-.1-.1Z"/>
        <path class="cls-24" d="M41.6,15.48c0-.05.04-.1.1-.1s.1.04.1.1-.04.1-.1.1-.1-.04-.1-.1"/>
        <path class="cls-15" d="M42.38,17.25c.13-.16.21-.36.21-.58,0-.13-.03-.26-.08-.38-.19-.42-.77-.72-1.46-.72-.19,0-.37.02-.54.06.04.04.07.09.09.14.14-.03.29-.05.44-.05.63,0,1.16.27,1.32.63.04.09.06.2.06.3,0,.22-.09.42-.24.55l.23.41.12-.11-.16-.27h0s0,0,0,0Z"/>
        <path class="cls-19" d="M41.6,15.48c0-.05.04-.1.1-.1s.1.04.1.1-.04.1-.1.1-.1-.04-.1-.1Z"/>
        <path class="cls-24" d="M41.29,15.41c0-.05.04-.1.1-.1s.1.04.1.1-.04.1-.1.1-.1-.04-.1-.1"/>
        <path class="cls-19" d="M41.29,15.41c0-.05.04-.1.1-.1s.1.04.1.1-.04.1-.1.1-.1-.04-.1-.1Z"/>
        <path class="cls-24" d="M40.99,15.4c0-.05.04-.1.1-.1s.1.04.1.1-.04.1-.1.1-.1-.04-.1-.1"/>
        <path class="cls-19" d="M40.99,15.4c0-.05.04-.1.1-.1s.1.04.1.1-.04.1-.1.1-.1-.04-.1-.1h0Z"/>
        <path class="cls-24" d="M40.69,15.41c0-.05.04-.1.1-.1s.1.04.1.1-.04.1-.1.1-.1-.04-.1-.1"/>
        <path class="cls-19" d="M40.69,15.41c0-.05.04-.1.1-.1s.1.04.1.1-.04.1-.1.1-.1-.04-.1-.1Z"/>
        <path class="cls-24" d="M40.4,15.41c0-.05.04-.1.1-.1s.1.04.1.1-.04.1-.1.1-.1-.04-.1-.1"/>
        <g>
          <path class="cls-19" d="M40.4,15.41c0-.05.04-.1.1-.1s.1.04.1.1-.04.1-.1.1-.1-.04-.1-.1Z"/>
          <path class="cls-9" d="M40.54,15.68c0-.05.04-.1.1-.1s.1.04.1.1-.04.1-.1.1-.1-.04-.1-.1M40.6,15.99c0-.05.04-.1.1-.1s.1.04.1.1-.04.1-.1.1-.1-.04-.1-.1M40.61,16.29c0-.06.04-.1.1-.1s.1.04.1.1-.04.1-.1.1-.1-.04-.1-.1M40.53,16.57c0-.05.04-.1.1-.1s.1.04.1.1-.04.1-.1.1-.1-.04-.1-.1M40.37,16.82c0-.05.04-.1.1-.1s.1.04.1.1-.04.1-.1.1-.1-.04-.1-.1"/>
        </g>
        <path class="cls-24" d="M40.17,15.22c0-.05.04-.1.1-.1s.1.04.1.1-.04.1-.1.1-.1-.04-.1-.1"/>
        <path class="cls-19" d="M40.17,15.22c0-.05.04-.1.1-.1s.1.04.1.1-.04.1-.1.1-.1-.04-.1-.1Z"/>
        <path class="cls-24" d="M39.91,15.06c0-.05.04-.1.1-.1s.1.04.1.1-.04.1-.1.1-.1-.04-.1-.1"/>
        <path class="cls-19" d="M39.91,15.06c0-.05.04-.1.1-.1s.1.04.1.1-.04.1-.1.1-.1-.04-.1-.1Z"/>
        <path class="cls-24" d="M39.62,14.96c0-.05.04-.1.1-.1s.1.04.1.1-.04.1-.1.1-.1-.04-.1-.1"/>
        <path class="cls-19" d="M39.62,14.96c0-.05.04-.1.1-.1s.1.04.1.1-.04.1-.1.1-.1-.04-.1-.1h0Z"/>
        <path class="cls-24" d="M39.33,14.91c0-.05.04-.1.1-.1s.1.04.1.1-.04.1-.1.1-.1-.04-.1-.1"/>
        <path class="cls-19" d="M39.33,14.91c0-.05.04-.1.1-.1s.1.04.1.1-.04.1-.1.1-.1-.04-.1-.1Z"/>
        <path class="cls-24" d="M39.03,14.91c0-.05.04-.1.1-.1s.1.04.1.1-.04.1-.1.1-.1-.04-.1-.1"/>
        <path class="cls-19" d="M39.03,14.91c0-.05.04-.1.1-.1s.1.04.1.1-.04.1-.1.1-.1-.04-.1-.1h0Z"/>
        <path class="cls-24" d="M38.73,14.97c0-.05.04-.1.1-.1s.1.04.1.1-.04.1-.1.1-.1-.04-.1-.1"/>
        <path class="cls-19" d="M38.73,14.97c0-.05.04-.1.1-.1s.1.04.1.1-.04.1-.1.1-.1-.04-.1-.1Z"/>
        <path class="cls-24" d="M38.44,15.08c0-.05.04-.1.1-.1s.1.04.1.1-.04.1-.1.1-.1-.04-.1-.1"/>
        <path class="cls-19" d="M38.44,15.08c0-.05.04-.1.1-.1s.1.04.1.1-.04.1-.1.1-.1-.04-.1-.1Z"/>
        <path class="cls-24" d="M33.66,17.61c0-.05.04-.1.1-.1s.1.04.1.1-.04.1-.1.1-.1-.04-.1-.1"/>
        <path class="cls-19" d="M33.66,17.61c0-.05.04-.1.1-.1s.1.04.1.1-.04.1-.1.1-.1-.04-.1-.1Z"/>
        <path class="cls-24" d="M33.53,17.36c0-.05.04-.1.1-.1s.1.04.1.1-.04.1-.1.1-.1-.04-.1-.1"/>
        <path class="cls-19" d="M33.53,17.36c0-.05.04-.1.1-.1s.1.04.1.1-.04.1-.1.1-.1-.04-.1-.1h0Z"/>
        <path class="cls-24" d="M33.44,17.07c0-.05.04-.1.1-.1s.1.04.1.1-.04.1-.1.1-.1-.04-.1-.1"/>
        <path class="cls-19" d="M33.44,17.07c0-.05.04-.1.1-.1s.1.04.1.1-.04.1-.1.1-.1-.04-.1-.1Z"/>
        <path class="cls-24" d="M33.43,16.75c0-.05.04-.1.1-.1s.1.04.1.1-.04.1-.1.1-.1-.04-.1-.1"/>
        <path class="cls-19" d="M33.43,16.75c0-.05.04-.1.1-.1s.1.04.1.1-.04.1-.1.1-.1-.04-.1-.1Z"/>
        <path class="cls-24" d="M33.5,16.45c0-.05.04-.1.1-.1s.1.04.1.1-.04.1-.1.1-.1-.04-.1-.1"/>
        <path class="cls-19" d="M33.5,16.45c0-.05.04-.1.1-.1s.1.04.1.1-.04.1-.1.1-.1-.04-.1-.1h0Z"/>
        <path class="cls-24" d="M33.65,16.17c0-.05.04-.1.1-.1s.1.04.1.1-.04.1-.1.1-.1-.04-.1-.1"/>
        <path class="cls-19" d="M33.65,16.17c0-.05.04-.1.1-.1s.1.04.1.1-.04.1-.1.1-.1-.04-.1-.1h0Z"/>
        <path class="cls-24" d="M33.84,15.94c0-.05.04-.1.1-.1s.1.04.1.1-.04.1-.1.1-.1-.04-.1-.1"/>
        <path class="cls-19" d="M33.84,15.94c0-.05.04-.1.1-.1s.1.04.1.1-.04.1-.1.1-.1-.04-.1-.1Z"/>
        <path class="cls-24" d="M34.07,15.74c0-.05.04-.1.1-.1s.1.04.1.1-.04.1-.1.1-.1-.04-.1-.1"/>
        <path class="cls-19" d="M34.07,15.74c0-.05.04-.1.1-.1s.1.04.1.1-.04.1-.1.1-.1-.04-.1-.1h0Z"/>
        <path class="cls-24" d="M34.34,15.59c0-.05.04-.1.1-.1s.1.04.1.1-.04.1-.1.1-.1-.04-.1-.1"/>
        <path class="cls-19" d="M34.34,15.59c0-.05.04-.1.1-.1s.1.04.1.1-.04.1-.1.1-.1-.04-.1-.1Z"/>
        <path class="cls-24" d="M34.63,15.48c0-.05.04-.1.1-.1s.1.04.1.1-.04.1-.1.1-.1-.04-.1-.1"/>
        <path class="cls-19" d="M34.63,15.48c0-.05.04-.1.1-.1s.1.04.1.1-.04.1-.1.1-.1-.04-.1-.1Z"/>
        <path class="cls-24" d="M34.94,15.41c0-.05.04-.1.1-.1s.1.04.1.1-.04.1-.1.1-.1-.04-.1-.1"/>
        <path class="cls-19" d="M34.94,15.41c0-.05.04-.1.1-.1s.1.04.1.1-.04.1-.1.1-.1-.04-.1-.1Z"/>
        <path class="cls-24" d="M35.24,15.4c0-.05.04-.1.1-.1s.1.04.1.1-.04.1-.1.1-.1-.04-.1-.1"/>
        <path class="cls-19" d="M35.24,15.4c0-.05.04-.1.1-.1s.1.04.1.1-.04.1-.1.1-.1-.04-.1-.1Z"/>
        <path class="cls-24" d="M35.54,15.41c0-.05.04-.1.1-.1s.1.04.1.1-.04.1-.1.1-.1-.04-.1-.1"/>
        <path class="cls-19" d="M35.54,15.41c0-.05.04-.1.1-.1s.1.04.1.1-.04.1-.1.1-.1-.04-.1-.1Z"/>
        <path class="cls-24" d="M35.83,15.41c0-.05.04-.1.1-.1s.1.04.1.1-.04.1-.1.1-.1-.04-.1-.1"/>
        <g>
          <path class="cls-19" d="M35.83,15.41c0-.05.04-.1.1-.1s.1.04.1.1-.04.1-.1.1-.1-.04-.1-.1h0Z"/>
          <path class="cls-15" d="M36.06,16.93c-.23-.19-.37-.44-.37-.72,0-.32.19-.61.49-.8-.18.16-.29.36-.31.59,0,.03,0,.06,0,.09,0,.26.11.5.28.66l-.09.18"/>
          <path class="cls-9" d="M35.68,15.68c0-.05.04-.1.1-.1s.1.04.1.1-.04.1-.1.1-.1-.04-.1-.1M35.62,15.99c0-.05.04-.1.1-.1s.1.04.1.1-.04.1-.1.1-.1-.04-.1-.1M35.61,16.29c0-.06.04-.1.1-.1s.1.04.1.1-.04.1-.1.1-.1-.04-.1-.1M35.7,16.57c0-.05.04-.1.1-.1s.1.04.1.1-.04.1-.1.1-.1-.04-.1-.1M35.86,16.82c0-.05.04-.1.1-.1s.1.04.1.1-.04.1-.1.1-.1-.04-.1-.1"/>
        </g>
        <path class="cls-24" d="M36.05,15.22c0-.05.04-.1.1-.1s.1.04.1.1-.04.1-.1.1-.1-.04-.1-.1"/>
        <path class="cls-19" d="M36.05,15.22c0-.05.04-.1.1-.1s.1.04.1.1-.04.1-.1.1-.1-.04-.1-.1Z"/>
        <path class="cls-24" d="M36.32,15.06c0-.05.04-.1.1-.1s.1.04.1.1-.04.1-.1.1-.1-.04-.1-.1"/>
        <path class="cls-19" d="M36.32,15.06c0-.05.04-.1.1-.1s.1.04.1.1-.04.1-.1.1-.1-.04-.1-.1Z"/>
        <path class="cls-24" d="M36.6,14.96c0-.05.04-.1.1-.1s.1.04.1.1-.04.1-.1.1-.1-.04-.1-.1"/>
        <path class="cls-19" d="M36.6,14.96c0-.05.04-.1.1-.1s.1.04.1.1-.04.1-.1.1-.1-.04-.1-.1Z"/>
        <path class="cls-24" d="M36.9,14.91c0-.05.04-.1.1-.1s.1.04.1.1-.04.1-.1.1-.1-.04-.1-.1"/>
        <path class="cls-19" d="M36.9,14.91c0-.05.04-.1.1-.1s.1.04.1.1-.04.1-.1.1-.1-.04-.1-.1Z"/>
        <path class="cls-24" d="M37.2,14.91c0-.05.04-.1.1-.1s.1.04.1.1-.04.1-.1.1-.1-.04-.1-.1"/>
        <path class="cls-19" d="M37.2,14.91c0-.05.04-.1.1-.1s.1.04.1.1-.04.1-.1.1-.1-.04-.1-.1Z"/>
        <path class="cls-24" d="M37.5,14.97c0-.05.04-.1.1-.1s.1.04.1.1-.04.1-.1.1-.1-.04-.1-.1"/>
        <path class="cls-19" d="M37.5,14.97c0-.05.04-.1.1-.1s.1.04.1.1-.04.1-.1.1-.1-.04-.1-.1Z"/>
        <path class="cls-24" d="M37.78,15.08c0-.05.04-.1.1-.1s.1.04.1.1-.04.1-.1.1-.1-.04-.1-.1"/>
        <g>
          <path class="cls-19" d="M37.78,15.08c0-.05.04-.1.1-.1s.1.04.1.1-.04.1-.1.1-.1-.04-.1-.1Z"/>
          <path class="cls-15" d="M34.27,15.88c-.17.11-.29.26-.36.41-.05.12-.08.25-.08.38,0,.22.08.42.21.58l-.14.25c-.13-.19-.21-.4-.21-.64,0-.4.23-.75.59-.98h0ZM42.14,15.88c.17.11.29.26.36.41.05.12.08.25.08.38,0,.22-.08.42-.21.58l.14.25c.13-.19.21-.4.21-.64,0-.4-.23-.75-.59-.98Z"/>
        </g>
        <path class="cls-25" d="M44.74,19.68s-.06.07-.11.08c-.05.01-.11-.05-.11-.05,0,0-.04.05-.09.06-.05.01-.12-.06-.12-.06,0,0-.05.08-.09.09-.04.02-.1-.02-.1-.02,0,0-.02.04-.06.06-.02,0-.04,0-.04,0l-.05-.04-.06-.07-.05-.02s-.02-.09-.03-.1c0-.02,0-.05,0-.05-.01-.06.08-.13.2-.16.07-.02.13-.02.18,0,.05-.05.16-.08.28-.08.11,0,.21.03.26.07.05-.04.15-.07.26-.07.12,0,.23.03.28.08.05-.02.11-.02.18,0,.12.03.21.1.2.16,0,0,0,.04,0,.05,0,.02-.03.1-.03.1l-.05.02-.06.07-.05.04s-.03.01-.04,0c-.04-.02-.06-.06-.06-.06,0,0-.05.04-.1.02-.04-.02-.09-.09-.09-.09,0,0-.07.08-.12.06-.05-.01-.09-.06-.09-.06,0,0-.06.06-.11.05-.05-.01-.11-.08-.11-.08"/>
        <g>
          <path class="cls-19" d="M44.74,19.68s-.06.07-.11.08c-.05.01-.11-.05-.11-.05,0,0-.04.05-.09.06-.05.01-.12-.06-.12-.06,0,0-.05.08-.09.09-.04.02-.1-.02-.1-.02,0,0-.02.04-.06.06-.02,0-.04,0-.04,0l-.05-.04-.06-.07-.05-.02s-.02-.09-.03-.1c0-.02,0-.05,0-.05-.01-.06.08-.13.2-.16.07-.02.13-.02.18,0,.05-.05.16-.08.28-.08.11,0,.21.03.26.07.05-.04.15-.07.26-.07.12,0,.23.03.28.08.05-.02.11-.02.18,0,.12.03.21.1.2.16,0,0,0,.04,0,.05,0,.02-.03.1-.03.1l-.05.02-.06.07-.05.04s-.03.01-.04,0c-.04-.02-.06-.06-.06-.06,0,0-.05.04-.1.02-.04-.02-.09-.09-.09-.09,0,0-.07.08-.12.06-.05-.01-.09-.06-.09-.06,0,0-.06.06-.11.05-.05-.01-.11-.08-.11-.08h0,0Z"/>
          <g>
            <path class="cls-15" d="M44.62,19.27c0-.1.05-.19.12-.19s.12.08.12.19-.05.19-.12.19-.12-.08-.12-.19Z"/>
            <path class="cls-15" d="M44.69,19.27c0-.09.02-.17.06-.17s.06.08.06.17-.02.17-.06.17-.06-.08-.06-.17Z"/>
          </g>
        </g>
        <g>
          <path class="cls-22" d="M44.12,20.04c-.02-.05-.05-.1-.05-.1.17-.05.41-.09.67-.09.26,0,.5.03.67.09,0,0-.02.04-.05.09-.01.03-.03.08-.03.08-.15-.05-.35-.08-.59-.08-.24,0-.48.03-.6.08,0,0,0-.03-.02-.06h0"/>
          <path class="cls-19" d="M44.12,20.04c-.02-.05-.05-.1-.05-.1.17-.05.41-.09.67-.09.26,0,.5.03.67.09,0,0-.02.04-.05.09-.01.02-.01.03-.03.08-.15-.05-.35-.08-.59-.08-.24,0-.48.03-.6.08,0,0,0-.03-.02-.06h0"/>
          <path class="cls-30" d="M44.74,20.28c.21,0,.45-.04.53-.06.06-.02.09-.05.09-.08,0-.02-.02-.03-.03-.04-.13-.04-.35-.08-.58-.08-.23,0-.46.03-.59.08-.02,0-.03.02-.03.04,0,.03.03.06.09.08.09.02.32.06.53.06"/>
        </g>
        <g>
          <path class="cls-15" d="M44.74,20.28c.21,0,.45-.04.53-.06.06-.02.09-.05.09-.08,0-.02-.02-.03-.03-.04-.13-.04-.35-.08-.58-.08-.23,0-.46.03-.59.08-.02,0-.03.02-.03.04,0,.03.03.06.09.08.09.02.32.06.53.06h0Z"/>
          <path class="cls-4" d="M45.26,19.36s.02-.04.04-.04.04.02.04.04-.02.04-.04.04-.04-.02-.04-.04M45.24,19.22s.02-.04.04-.04.04.02.04.04-.02.04-.04.04-.04-.02-.04-.04h0ZM45.14,19.13s.02-.04.04-.04.04.02.04.04-.02.04-.04.04-.04-.02-.04-.04ZM45.01,19.08s.02-.04.04-.04.04.02.04.04-.02.04-.04.04-.04-.02-.04-.04ZM44.89,19.09s.02-.04.04-.04.04.02.04.04-.02.04-.04.04-.04-.02-.04-.04Z"/>
          <path class="cls-20" d="M45.65,19.64s.02-.07.02-.1c0-.15-.11-.27-.25-.27-.04,0-.08.01-.12.04"/>
          <path class="cls-19" d="M45.21,19.44s.02-.05.02-.08c0-.11-.1-.2-.23-.2-.05,0-.1.02-.14.04"/>
          <path class="cls-4" d="M45.68,19.51s.02-.04.04-.04.04.02.04.04-.02.04-.04.04-.04-.02-.04-.04ZM45.67,19.36s.02-.04.04-.04.04.02.04.04-.02.04-.04.04-.04-.02-.04-.04ZM45.58,19.25s.02-.04.04-.04.04.02.04.04-.02.04-.04.04-.04-.02-.04-.04ZM45.46,19.19s.02-.04.04-.04.04.02.04.04-.02.04-.04.04-.04-.02-.04-.04h0ZM45.33,19.19s.02-.04.04-.04.04.02.04.04-.02.04-.04.04-.04-.02-.04-.04Z"/>
        </g>
        <path class="cls-22" d="M45.42,19.83l-.05-.05s-.05.03-.11.02c-.06-.01-.08-.09-.08-.09,0,0-.07.06-.13.06-.06,0-.09-.06-.09-.06,0,0-.06.05-.12.04-.05,0-.11-.08-.11-.08,0,0-.05.08-.11.08-.05,0-.1-.05-.1-.05,0,0-.02.06-.09.07-.07.01-.13-.06-.13-.06,0,0-.04.07-.09.09-.05.02-.11-.03-.11-.03,0,0,0,.03-.02.04,0,.02-.03.02-.03.02l.02.05c.17-.05.4-.09.66-.09.26,0,.49.03.66.09l.02-.05"/>
        <g>
          <path class="cls-19" d="M45.42,19.83l-.05-.05s-.05.03-.11.02c-.06-.01-.08-.09-.08-.09,0,0-.07.06-.13.06-.06,0-.09-.06-.09-.06,0,0-.06.05-.12.04-.05,0-.11-.08-.11-.08,0,0-.05.08-.11.08-.05,0-.1-.05-.1-.05,0,0-.02.06-.09.07-.07.01-.13-.06-.13-.06,0,0-.04.07-.09.09-.05.02-.11-.03-.11-.03,0,0,0,.03-.02.04,0,.02-.03.02-.03.02l.02.05c.17-.05.4-.09.66-.09.26,0,.49.03.66.09l.02-.05h0,0Z"/>
          <path class="cls-4" d="M44.14,19.36s.02-.04.04-.04.04.02.04.04-.02.04-.04.04-.04-.02-.04-.04h0ZM44.17,19.22s.02-.04.04-.04.04.02.04.04-.02.04-.04.04-.04-.02-.04-.04ZM44.27,19.13s.02-.04.04-.04.04.02.04.04-.02.04-.04.04-.04-.02-.04-.04ZM44.39,19.08s.02-.04.04-.04.04.02.04.04-.02.04-.04.04-.04-.02-.04-.04ZM44.51,19.09s.02-.04.04-.04.04.02.04.04-.02.04-.04.04-.04-.02-.04-.04Z"/>
          <path class="cls-20" d="M43.83,19.64s-.02-.07-.02-.1c0-.15.11-.27.25-.27.04,0,.08.01.12.04"/>
          <path class="cls-19" d="M44.28,19.44s-.02-.05-.02-.08c0-.11.1-.2.23-.2.05,0,.1.02.14.04"/>
          <path class="cls-4" d="M43.72,19.51s.02-.04.04-.04.04.02.04.04-.02.04-.04.04-.04-.02-.04-.04ZM43.73,19.36s.02-.04.04-.04.04.02.04.04-.02.04-.04.04-.04-.02-.04-.04ZM43.82,19.25s.02-.04.04-.04.04.02.04.04-.02.04-.04.04-.04-.02-.04-.04h0ZM43.94,19.19s.02-.04.04-.04.04.02.04.04-.02.04-.04.04-.04-.02-.04-.04h0ZM44.07,19.19s.02-.04.04-.04.04.02.04.04-.02.04-.04.04-.04-.02-.04-.04h0Z"/>
          <path class="cls-15" d="M44.74,19.59h.02s0,.03,0,.04c0,.06.04.1.1.1.04,0,.08-.03.09-.07,0,0,0-.04.01-.04,0,0,0,.04,0,.04,0,.05.05.08.1.08.05,0,.1-.04.1-.1,0,0,0,0,0-.01l.03-.03.02.04s0,.03,0,.04c0,.05.04.1.09.1.03,0,.06-.02.08-.04l.02-.03v.03s.01.06.04.07c0,0,.03,0,.08-.04.05-.04.07-.07.07-.07v.04s-.04.08-.08.11c-.02.01-.06.03-.08.02-.03,0-.05-.03-.06-.06-.02.01-.05.02-.07.02-.05,0-.1-.03-.12-.08-.03.03-.06.05-.1.05-.04,0-.08-.02-.11-.05-.02.02-.06.04-.1.04-.05,0-.09-.03-.12-.07-.02.04-.07.07-.12.07-.04,0-.07-.01-.1-.04-.03.03-.07.05-.11.05-.04,0-.08-.02-.1-.05-.02.05-.07.08-.12.08-.02,0-.05,0-.07-.02-.01.03-.03.05-.06.06-.03,0-.06,0-.08-.02-.04-.03-.09-.11-.09-.11v-.04s.03.03.08.07c.05.04.08.04.08.04.03,0,.04-.04.04-.07v-.03l.02.03s.05.04.08.04c.05,0,.09-.04.09-.1,0-.02,0-.03,0-.04l.02-.04.03.03s0,0,0,.01c0,.06.04.1.1.1.05,0,.09-.03.1-.08,0,0,0-.04,0-.04,0,0,.01.04.01.04.01.04.05.07.09.07.05,0,.1-.04.1-.1,0-.01,0-.02,0-.04h.03s0,0,0,0h0Z"/>
        </g>
        <g>
          <path class="cls-30" d="M44.74,19.85c-.26,0-.5.03-.67.09-.01,0-.03,0-.03-.02,0-.01,0-.03.02-.03.17-.06.41-.09.68-.09.27,0,.51.04.68.09.01,0,.02.02.02.03,0,.01-.02.02-.03.02-.17-.05-.41-.09-.67-.09"/>
          <path class="cls-15" d="M44.74,19.85c-.26,0-.5.03-.67.09-.01,0-.03,0-.03-.02,0-.01,0-.03.02-.03.17-.06.41-.09.68-.09.27,0,.51.04.68.09.01,0,.02.02.02.03,0,.01-.02.02-.03.02-.17-.05-.41-.09-.67-.09h0Z"/>
          <path class="cls-24" d="M44.49,19.95s.02-.04.04-.04.04.02.04.04-.02.04-.04.04-.04-.02-.04-.04"/>
          <path class="cls-4" d="M44.49,19.95s.02-.04.04-.04.04.02.04.04-.02.04-.04.04-.04-.02-.04-.04h0Z"/>
          <path class="cls-25" d="M44.75,19.97h-.08s-.03-.01-.03-.03.01-.03.03-.03h.17s.03.01.03.03-.01.03-.03.03h-.09Z"/>
          <path class="cls-19" d="M44.75,19.97h-.08s-.03-.01-.03-.03.01-.03.03-.03h.17s.03.01.03.03-.01.03-.03.03h-.09Z"/>
          <path class="cls-29" d="M44.32,20h-.06s-.03,0-.03-.01c0-.02,0-.03.02-.03h.06s.06-.02.06-.02c.02,0,.03,0,.03.02,0,.02,0,.03-.02.03h-.06Z"/>
          <path class="cls-19" d="M44.32,20h-.06s-.03,0-.03-.01c0-.02,0-.03.02-.03h.06s.06-.02.06-.02c.02,0,.03,0,.03.02,0,.02,0,.03-.02.03h-.06Z"/>
          <path class="cls-25" d="M44.08,20.05l.03-.05h.06s-.03.06-.03.06l-.05-.02Z"/>
          <path class="cls-19" d="M44.08,20.05l.03-.05h.06s-.03.06-.03.06l-.05-.02Z"/>
          <path class="cls-24" d="M44.92,19.95s.02-.04.04-.04.04.02.04.04-.02.04-.04.04-.04-.02-.04-.04"/>
          <path class="cls-4" d="M44.92,19.95s.02-.04.04-.04.04.02.04.04-.02.04-.04.04-.04-.02-.04-.04h0Z"/>
          <path class="cls-29" d="M45.16,20h.06s.03,0,.03-.01c0-.02,0-.03-.02-.03h-.06s-.06-.02-.06-.02c-.02,0-.03,0-.03.02,0,.02,0,.03.02.03h.06Z"/>
          <path class="cls-19" d="M45.16,20h.06s.03,0,.03-.01c0-.02,0-.03-.02-.03h-.06s-.06-.02-.06-.02c-.02,0-.03,0-.03.02,0,.02,0,.03.02.03h.06Z"/>
          <path class="cls-25" d="M45.4,20.05l-.02-.05h-.06s.03.06.03.06h.05"/>
          <path class="cls-19" d="M45.4,20.04l-.02-.05h-.06s.03.06.03.06c.02,0,.04-.01.05-.01Z"/>
          <path class="cls-25" d="M44.74,20.22c-.21,0-.4-.02-.55-.06.15-.04.34-.07.55-.07.21,0,.41.03.55.07-.15.04-.34.06-.55.06"/>
          <path class="cls-6" d="M44.74,20.22c-.21,0-.4-.02-.55-.06.15-.04.34-.07.55-.07.21,0,.41.03.55.07-.15.04-.34.06-.55.06Z"/>
          <path class="cls-30" d="M45.41,19.72s0-.04-.01-.04c-.01,0-.03,0-.03.02,0,.02,0,.04.01.04.01,0,.03,0,.03-.03"/>
          <path class="cls-4" d="M45.41,19.72s0-.04-.01-.04c-.01,0-.03,0-.03.02,0,.02,0,.04.01.04.01,0,.03,0,.03-.03Z"/>
          <path class="cls-30" d="M44.99,19.63s0-.04-.02-.04c-.01,0-.02.01-.03.03,0,.02,0,.04.02.04.01,0,.02-.01.03-.03"/>
          <path class="cls-4" d="M44.99,19.63s0-.04-.02-.04c-.01,0-.02.01-.03.03,0,.02,0,.04.02.04.01,0,.02-.01.03-.03Z"/>
          <path class="cls-30" d="M44.5,19.63s0-.04.02-.04c.01,0,.02.01.03.03,0,.02,0,.04-.02.04-.01,0-.02-.01-.03-.03"/>
          <path class="cls-4" d="M44.5,19.63s0-.04.02-.04c.01,0,.02.01.03.03,0,.02,0,.04-.02.04-.01,0-.02-.01-.03-.03h0Z"/>
          <path class="cls-30" d="M44.08,19.72s0-.04.01-.04c.01,0,.03,0,.03.02,0,.02,0,.04-.01.04-.01,0-.03,0-.03-.03"/>
        </g>
        <g>
          <path class="cls-4" d="M44.08,19.72s0-.04.01-.04c.01,0,.03,0,.03.02,0,.02,0,.04-.01.04-.01,0-.03,0-.03-.03h0Z"/>
          <g>
            <path class="cls-15" d="M44.74,19.37l-.07.05.06.13h.02s.02,0,.02,0l.06-.13s-.05-.03-.07-.05Z"/>
            <path class="cls-15" d="M44.58,19.56l.03.05.12-.04v-.02s0-.02,0-.02l-.12-.04s-.02.04-.03.06ZM44.91,19.56l-.03.05-.12-.04v-.02s0-.02,0-.02l.12-.04s.02.04.03.06ZM44.26,19.42l-.06.06.08.11h.02s.01,0,.01,0l.03-.13s-.05-.02-.08-.03h0Z"/>
            <path class="cls-15" d="M44.13,19.64l.04.05.11-.06v-.02s0-.02,0-.02h-.12s-.01.03-.02.05h0ZM44.45,19.57l-.02.06h-.12s-.02-.03-.02-.03v-.02s.12-.06.12-.06c.02.02.03.03.05.05ZM44.01,19.66v.06s-.13.01-.13.01h-.02s0-.03,0-.03l.09-.08s.04.03.05.04h0Z"/>
          </g>
        </g>
        <path class="cls-30" d="M44.25,19.6s.02-.04.04-.04.04.02.04.04-.02.04-.04.04-.04-.02-.04-.04"/>
        <g>
          <path class="cls-3" d="M44.25,19.6s.02-.04.04-.04.04.02.04.04-.02.04-.04.04-.04-.02-.04-.04Z"/>
          <g>
            <path class="cls-15" d="M45.23,19.42l.06.06-.08.11h-.02s-.01,0-.01,0l-.03-.13s.05-.02.08-.03Z"/>
            <path class="cls-15" d="M45.35,19.64l-.04.05-.11-.06v-.02s0-.02,0-.02h.12s.01.03.02.05h0ZM45.03,19.57l.02.06h.12s.02-.03.02-.03v-.02s-.12-.06-.12-.06c-.01.02-.03.03-.05.05h0Z"/>
          </g>
        </g>
        <g>
          <path class="cls-30" d="M45.46,19.66v.06s.13.01.13.01h.02s0-.03,0-.03l-.09-.08-.05.04"/>
          <path class="cls-15" d="M45.46,19.66v.06s.13.01.13.01h.02s0-.03,0-.03l-.09-.08s-.04.03-.05.04Z"/>
          <path class="cls-30" d="M44.7,19.56s.02-.04.04-.04.04.02.04.04-.02.04-.04.04-.04-.02-.04-.04"/>
          <path class="cls-3" d="M44.7,19.56s.02-.04.04-.04.04.02.04.04-.02.04-.04.04-.04-.02-.04-.04Z"/>
          <path class="cls-30" d="M45.15,19.6s.02-.04.04-.04.04.02.04.04-.02.04-.04.04-.04-.02-.04-.04"/>
          <path class="cls-3" d="M45.15,19.6s.02-.04.04-.04.04.02.04.04-.02.04-.04.04-.04-.02-.04-.04Z"/>
          <path class="cls-30" d="M44.8,19.03v.06h-.12v-.06h.04v-.12h-.05v-.06h.05v-.05h.05v.05h.05v.06h-.05v.12h.03"/>
        </g>
        <g>
          <path class="cls-19" d="M44.8,19.03v.06h-.12v-.06h.04v-.12h-.05v-.06h.05v-.05h.05v.05h.05v.06h-.05v.12h.03,0Z"/>
          <path class="cls-21" d="M44.78,18.96s.08.06.08.11c0,.06-.05.11-.11.11s-.11-.05-.11-.11c0-.05.03-.09.08-.11"/>
          <path class="cls-15" d="M43.85,19.73s-.03-.04-.05-.06c-.02-.02-.06-.03-.06-.03,0,0,.02-.03.05-.03.02,0,.03,0,.04.02v-.02s.02,0,.03.03c0,.03,0,.07,0,.07,0,0-.01.01-.02.02h0Z"/>
          <path class="cls-3" d="M43.85,19.71s.03,0,.05,0c.02.01.02.04.01.05-.01.01-.03,0-.05,0-.02-.01-.02-.04-.01-.05h0Z"/>
        </g>
        <g>
          <path class="cls-30" d="M45.62,19.73s.03-.05.06-.07c.02-.02.06-.03.06-.03,0,0-.02-.03-.05-.03-.02,0-.03,0-.04.02v-.02s-.02,0-.03.03c0,.03,0,.07,0,.07,0,0,0,.02.01.03"/>
          <path class="cls-15" d="M45.62,19.73s.03-.05.06-.07c.02-.02.06-.03.06-.03,0,0-.02-.03-.05-.03-.02,0-.03,0-.04.02v-.02s-.02,0-.03.03c0,.03,0,.07,0,.07,0,.01,0,.02.01.03h0Z"/>
          <path class="cls-30" d="M45.62,19.71s-.03,0-.05,0c-.02.01-.02.04-.01.05.01.01.03,0,.05,0,.02-.01.02-.04.01-.05"/>
        </g>
        <g>
          <path class="cls-3" d="M45.62,19.71s-.03,0-.05,0c-.02.01-.02.04-.01.05.01.01.03,0,.05,0,.02-.01.02-.04.01-.05h0Z"/>
          <path class="cls-15" d="M44.86,19.03v.06h-.22v-.06h.08v-.12h-.05v-.06h.05v-.05h.05v.05h.05v.06h-.05v.12h.09Z"/>
          <g>
            <path class="cls-19" d="M44.74,20.22v-.12M44.71,20.22v-.12"/>
            <path class="cls-19" d="M44.68,20.22v-.12M44.65,20.22v-.12M44.63,20.22v-.12M44.58,20.22v-.11M44.6,20.22v-.11"/>
            <path class="cls-19" d="M44.54,20.21v-.1M44.56,20.21v-.11M44.48,20.21v-.09M44.5,20.21v-.09M44.52,20.21v-.1"/>
            <path class="cls-19" d="M44.46,20.21v-.09M44.44,20.21v-.09M44.42,20.2v-.09M44.38,20.2v-.07M44.4,20.2v-.08"/>
            <path class="cls-19" d="M44.35,20.2v-.07M44.33,20.2v-.06M44.31,20.18v-.05M44.29,20.18v-.04M44.27,20.18v-.03"/>
            <path class="cls-19" d="M44.86,20.22v-.11M44.81,20.22v-.12M44.77,20.22v-.12"/>
          </g>
        </g>
        <g>
          <path class="cls-23" d="M43.76,20.82h1.94v-.56h-1.94v.56Z"/>
          <path class="cls-15" d="M43.76,20.82h1.94v-.56h-1.94v.56Z"/>
          <path class="cls-23" d="M45.5,21.19s-.02,0-.04,0h-1.46s-.03,0-.04,0c.05-.02.09-.07.09-.13s-.04-.11-.09-.13c.01,0,.03,0,.04,0h1.46s.03,0,.04,0h0c-.05.02-.08.07-.08.12s.03.11.09.12"/>
          <path class="cls-13" d="M45.5,21.19s-.02,0-.04,0h-1.46s-.03,0-.04,0c.05-.02.09-.07.09-.13s-.04-.11-.09-.13c.01,0,.03,0,.04,0h1.46s.03,0,.04,0h0c-.05.02-.08.07-.08.12s.03.11.09.12h0Z"/>
          <path class="cls-23" d="M44.01,21.18h1.46s.09.03.09.07-.04.07-.09.07h-1.46s-.09-.03-.09-.07.04-.07.09-.07"/>
          <path class="cls-15" d="M44.01,21.18h1.46s.09.03.09.07-.04.07-.09.07h-1.46s-.09-.03-.09-.07.04-.07.09-.07Z"/>
          <path class="cls-23" d="M44.01,20.82h1.46s.09.03.09.06-.04.06-.09.06h-1.46s-.09-.03-.09-.06.04-.06.09-.06"/>
          <path class="cls-15" d="M44.01,20.82h1.46s.09.03.09.06-.04.06-.09.06h-1.46s-.09-.03-.09-.06.04-.06.09-.06h0Z"/>
          <path class="cls-23" d="M45.5,29.22s-.01.04-.01.06c0,.14.11.25.24.25h-2c.13,0,.24-.11.24-.25,0-.02,0-.04,0-.06.01,0,.02,0,.04,0h1.46s.03,0,.04,0"/>
          <path class="cls-13" d="M45.5,29.22s-.01.04-.01.06c0,.14.11.25.24.25h-2c.13,0,.24-.11.24-.25,0-.02,0-.04,0-.06.01,0,.02,0,.04,0h1.46s.03,0,.04,0h0,0Z"/>
          <path class="cls-23" d="M44.01,29.08h1.46s.09.03.09.07-.04.07-.09.07h-1.46s-.09-.03-.09-.07.04-.07.09-.07"/>
          <path class="cls-15" d="M44.01,29.08h1.46s.09.03.09.07-.04.07-.09.07h-1.46s-.09-.03-.09-.07.04-.07.09-.07h0Z"/>
          <path class="cls-23" d="M43.74,30.08h2v-.55h-2v.55Z"/>
          <path class="cls-15" d="M43.74,30.08h2v-.55h-2v.55Z"/>
          <path class="cls-31" d="M45.89,27.11c.2.12.33.25.31.31-.01.06-.07.1-.16.17-.14.11-.23.3-.16.39-.12-.1-.19-.26-.19-.43s.08-.34.2-.44"/>
          <path class="cls-3" d="M45.89,27.11c.2.12.33.25.31.31-.01.06-.07.1-.16.17-.14.11-.23.3-.16.39-.12-.1-.19-.26-.19-.43s.08-.34.2-.44h0Z"/>
          <path class="cls-27" d="M44.03,28.99h1.42v-7.57h-1.42v7.57Z"/>
          <path class="cls-19" d="M45.06,21.41v7.55M45.22,21.41v7.55M44.03,28.99h1.42v-7.57h-1.42v7.57Z"/>
          <path class="cls-31" d="M42.58,24.25c.31-.14.84-.24,1.44-.26.21,0,.44.02.68.07.85.15,1.49.52,1.44.82,0,0,0,.02,0,.03,0,0,.32-.78.32-.81.06-.33-.66-.74-1.6-.91-.3-.05-.58-.07-.83-.07-.6,0-1.13.08-1.44.21v.93"/>
          <path class="cls-5" d="M42.58,24.25c.31-.14.84-.24,1.44-.26.21,0,.44.02.68.07.85.15,1.49.52,1.44.82,0,0,0,.02,0,.03,0,0,.32-.78.32-.81.06-.33-.66-.74-1.6-.91-.3-.05-.58-.07-.83-.07-.6,0-1.13.08-1.44.21v.93"/>
          <path class="cls-31" d="M45.45,25.2c.39-.03.66-.15.69-.32.02-.14-.11-.3-.35-.44-.11.01-.23.03-.35.03v.74"/>
          <path class="cls-3" d="M45.45,25.2c.39-.03.66-.15.69-.32.02-.14-.11-.3-.35-.44-.11.01-.23.03-.35.03v.74"/>
          <path class="cls-31" d="M44.03,24.62c-.25.04-.43.11-.52.19v.02c-.05.1.16.31.52.54v-.74Z"/>
          <path class="cls-3" d="M44.03,24.62c-.25.04-.43.11-.52.19v.02c-.05.1.16.31.52.54v-.74Z"/>
          <path class="cls-25" d="M46.33,26.66c.04-.12-.35-.37-.89-.58-.25-.1-.45-.2-.71-.32-.75-.36-1.31-.78-1.24-.93v-.02s-.09.78-.09.78c-.07.14.44.55,1.13.91.22.12.69.3.91.39.4.15.79.43.75.54l.13-.77"/>
          <g>
            <path class="cls-6" d="M46.33,26.66c.04-.12-.35-.37-.89-.58-.25-.1-.45-.2-.71-.32-.75-.36-1.31-.78-1.24-.93v-.02s-.09.78-.09.78c-.07.14.44.55,1.13.91.22.12.69.3.91.39.4.15.79.43.75.54l.13-.77h0s0,0,0,0Z"/>
            <path class="cls-15" d="M43.47,23.92c.05-.22.12-.44.19-.65-.02,0-.03,0-.05.01-.02,0-.03,0-.05,0-.03.16-.08.31-.12.47-.08-.14-.18-.27-.25-.41-.03,0-.06.01-.09.02-.03,0-.06,0-.09.01.13.18.25.37.37.56.01,0,.03,0,.04-.01.01,0,.03,0,.04,0M44.01,23.27s-.05,0-.08,0c-.03,0-.05,0-.08,0v.61s.38,0,.38,0c0-.01,0-.03,0-.04,0-.01,0-.03,0-.04-.07,0-.15,0-.24,0v-.55M44.62,23.37c.06,0,.12.02.18.03,0-.01,0-.03,0-.04,0-.01,0-.02,0-.04l-.53-.05s0,.03,0,.04c0,.01,0,.03,0,.04.05,0,.12,0,.19,0l-.05.55s.05,0,.08,0c.03,0,.05,0,.08.01l.05-.55M44.84,23.97s.05,0,.08.01c.03,0,.05.01.07.02l.06-.28h0s.03.09.04.11l.08.21s.06,0,.09.02c.03,0,.06.02.09.03l-.03-.06c-.04-.1-.09-.19-.12-.29.1,0,.17-.03.19-.12.01-.06,0-.11-.06-.15-.04-.03-.11-.04-.16-.06l-.21-.05-.13.6M45.11,23.45c.06.01.14.03.14.1,0,.02,0,.03,0,.04-.02.09-.08.12-.19.09l.05-.23M45.85,24.15c0,.07-.02.13-.03.2.03.01.05.03.08.04.03.02.05.03.07.05l.05-.69s-.02-.01-.04-.02c-.01,0-.02-.01-.03-.02l-.56.38s.03.01.04.02c.01,0,.03.02.04.03.05-.04.1-.08.15-.12l.21.12h0s0,0,0,0ZM45.69,23.99l.19-.13-.02.23-.16-.1Z"/>
          </g>
          <path class="cls-28" d="M43.38,30.16c.13,0,.25-.03.34-.08.09-.05.21-.08.34-.08s.25.03.34.08c.09.05.21.08.34.08s.25-.03.34-.09c.09-.05.2-.07.33-.07s.25.03.34.08c.09.05.21.08.34.08v.23c-.13,0-.26-.03-.34-.08-.09-.05-.2-.08-.34-.08s-.24.03-.33.08c-.09.05-.21.09-.34.09s-.25-.03-.34-.08c-.09-.05-.21-.08-.34-.08s-.25.03-.34.08c-.09.05-.21.08-.34.08v-.23"/>
          <path class="cls-1" d="M43.38,30.16c.13,0,.25-.03.34-.08.09-.05.21-.08.34-.08s.25.03.34.08c.09.05.21.08.34.08s.25-.03.34-.09c.09-.05.2-.07.33-.07s.25.03.34.08c.09.05.21.08.34.08v.23c-.13,0-.26-.03-.34-.08-.09-.05-.2-.08-.34-.08s-.24.03-.33.08c-.09.05-.21.09-.34.09s-.25-.03-.34-.08c-.09-.05-.21-.08-.34-.08s-.25.03-.34.08c-.09.05-.21.08-.34.08v-.23Z"/>
          <path class="cls-27" d="M43.38,30.39c.13,0,.25-.03.34-.08.09-.05.21-.08.34-.08s.25.03.34.08c.09.05.21.08.34.08s.25-.03.34-.09c.09-.05.2-.08.33-.08s.25.03.34.08c.09.05.21.08.34.08v.23c-.13,0-.26-.03-.34-.08-.09-.05-.2-.08-.34-.08s-.24.03-.33.08c-.09.05-.21.09-.34.09s-.25-.03-.34-.08c-.09-.05-.21-.08-.34-.08s-.25.03-.34.08c-.09.05-.21.08-.34.08v-.23"/>
          <path class="cls-19" d="M43.38,30.39c.13,0,.25-.03.34-.08.09-.05.21-.08.34-.08s.25.03.34.08c.09.05.21.08.34.08s.25-.03.34-.09c.09-.05.2-.08.33-.08s.25.03.34.08c.09.05.21.08.34.08v.23c-.13,0-.26-.03-.34-.08-.09-.05-.2-.08-.34-.08s-.24.03-.33.08c-.09.05-.21.09-.34.09s-.25-.03-.34-.08c-.09-.05-.21-.08-.34-.08s-.25.03-.34.08c-.09.05-.21.08-.34.08v-.23"/>
          <path class="cls-28" d="M43.38,30.62c.13,0,.25-.03.34-.08.09-.05.21-.08.34-.08s.25.03.34.08c.09.05.21.08.34.08s.25-.03.34-.09c.09-.05.2-.08.33-.08s.25.03.34.08c.09.05.21.08.34.08v.23c-.13,0-.26-.03-.34-.08-.09-.05-.2-.08-.34-.08s-.24.03-.33.08c-.09.05-.21.09-.34.09s-.25-.03-.34-.08c-.09-.05-.21-.08-.34-.08s-.25.03-.34.08c-.09.05-.21.08-.34.08v-.23"/>
          <path class="cls-1" d="M43.38,30.62c.13,0,.25-.03.34-.08.09-.05.21-.08.34-.08s.25.03.34.08c.09.05.21.08.34.08s.25-.03.34-.09c.09-.05.2-.08.33-.08s.25.03.34.08c.09.05.21.08.34.08v.23c-.13,0-.26-.03-.34-.08-.09-.05-.2-.08-.34-.08s-.24.03-.33.08c-.09.05-.21.09-.34.09s-.25-.03-.34-.08c-.09-.05-.21-.08-.34-.08s-.25.03-.34.08c-.09.05-.21.08-.34.08v-.23"/>
          <path class="cls-27" d="M43.38,31.08c.13,0,.25-.03.34-.08.09-.05.21-.08.34-.08s.25.03.34.08c.09.05.21.08.34.08s.25-.03.34-.09c.09-.05.2-.07.33-.07s.25.03.34.08c.09.05.21.08.34.08v-.23c-.13,0-.26-.03-.34-.09-.09-.05-.2-.08-.34-.08s-.24.03-.33.08c-.09.05-.21.09-.34.09s-.25-.03-.34-.08c-.09-.05-.21-.08-.34-.08s-.25.03-.34.08c-.09.05-.21.08-.34.08v.23"/>
          <path class="cls-19" d="M43.38,31.08c.13,0,.25-.03.34-.08.09-.05.21-.08.34-.08s.25.03.34.08c.09.05.21.08.34.08s.25-.03.34-.09c.09-.05.2-.07.33-.07s.25.03.34.08c.09.05.21.08.34.08v-.23c-.13,0-.26-.03-.34-.09-.09-.05-.2-.08-.34-.08s-.24.03-.33.08c-.09.05-.21.09-.34.09s-.25-.03-.34-.08c-.09-.05-.21-.08-.34-.08s-.25.03-.34.08c-.09.05-.21.08-.34.08v.23"/>
          <path class="cls-28" d="M43.38,31.31c.13,0,.25-.03.34-.08.09-.05.21-.08.34-.08s.25.03.34.08c.09.05.21.08.34.08s.25-.03.34-.09c.09-.05.2-.08.33-.08s.25.03.34.08c.09.05.21.08.34.08v-.23c-.13,0-.26-.03-.34-.09-.09-.05-.2-.08-.34-.08s-.24.03-.33.07c-.09.05-.21.09-.34.09s-.25-.03-.34-.08c-.09-.05-.21-.08-.34-.08s-.25.03-.34.08c-.09.05-.21.08-.34.08v.23"/>
          <path class="cls-1" d="M43.38,31.31c.13,0,.25-.03.34-.08.09-.05.21-.08.34-.08s.25.03.34.08c.09.05.21.08.34.08s.25-.03.34-.09c.09-.05.2-.08.33-.08s.25.03.34.08c.09.05.21.08.34.08v-.23c-.13,0-.26-.03-.34-.09-.09-.05-.2-.08-.34-.08s-.24.03-.33.07c-.09.05-.21.09-.34.09s-.25-.03-.34-.08c-.09-.05-.21-.08-.34-.08s-.25.03-.34.08c-.09.05-.21.08-.34.08v.23Z"/>
          <path class="cls-31" d="M31.07,19.85s-.04,0-.07-.02c-.02-.02-.1-.09-.1-.09l-.06-.05-.05-.08s-.06-.11-.03-.2c.03-.09.08-.12.12-.14.04-.03.14-.06.14-.06,0,0,.07-.04.1-.04.02,0,.11-.03.11-.03,0,0,.02-.02.05-.03.02-.01.06-.01.08-.02.02,0,.07-.02.1-.02.05,0,.12,0,.14,0s.11,0,.14,0,.16-.01.19-.01.06,0,.1,0c.04,0,.11.03.13.04.02.01.14.06.18.07.04.01.15.04.2.06.05.03.08.07.1.1.02.04.03.07.04.1,0,.03,0,.08,0,.11,0,.03-.04.08-.04.08l-.05.1-.07.06s-.05.05-.09.05c-.04,0-.44-.08-.7-.08s-.67.08-.67.08"/>
          <g>
            <path class="cls-5" d="M31.07,19.85s-.04,0-.07-.02c-.02-.02-.1-.09-.1-.09l-.06-.05-.05-.08s-.06-.11-.03-.2c.03-.09.08-.12.12-.14.04-.03.14-.06.14-.06,0,0,.07-.04.1-.04.02,0,.11-.03.11-.03,0,0,.02-.02.05-.03.02-.01.06-.01.08-.02.02,0,.07-.02.1-.02.05,0,.12,0,.14,0s.11,0,.14,0,.16-.01.19-.01.06,0,.1,0c.04,0,.11.03.13.04.02.01.14.06.18.07.04.01.15.04.2.06.05.03.08.07.1.1.02.04.03.07.04.1,0,.03,0,.08,0,.11,0,.03-.04.08-.04.08l-.05.1-.07.06s-.05.05-.09.05c-.04,0-.44-.08-.7-.08s-.67.08-.67.08h0Z"/>
            <g>
              <path class="cls-15" d="M31.62,19.23c0-.13.05-.24.12-.24s.12.11.12.24-.05.24-.12.24-.12-.11-.12-.24h0Z"/>
              <path class="cls-15" d="M31.69,19.23c0-.12.02-.22.06-.22s.06.1.06.22-.02.22-.06.22-.06-.1-.06-.22Z"/>
              <path class="cls-15" d="M31.74,19.83h-.42v-.11s-.03-.12-.03-.12l-.02-.15c-.12-.17-.22-.28-.26-.25,0-.03.02-.05.04-.07.1-.07.31.09.47.36.01.02.03.05.04.07h.35s.03-.05.04-.07c.16-.26.37-.42.47-.36.02.01.03.04.04.07-.04-.02-.14.09-.26.25l-.02.15-.02.12v.11h-.43Z"/>
            </g>
            <path class="cls-19" d="M31.03,19.2c.08-.05.26.11.41.36M32.45,19.2c-.08-.05-.26.11-.41.36"/>
          </g>
          <path class="cls-22" d="M31.12,20.04c-.02-.05-.05-.1-.05-.1.17-.05.41-.09.67-.09.26,0,.5.03.67.09,0,0-.02.04-.05.09-.01.03-.03.08-.03.08-.15-.05-.35-.08-.59-.08-.24,0-.48.03-.6.08,0,0,0-.03-.02-.06h0"/>
          <path class="cls-19" d="M31.12,20.04c-.02-.05-.05-.1-.05-.1.17-.05.41-.09.67-.09.26,0,.5.03.67.09,0,0-.02.04-.05.09-.01.02-.01.03-.03.08-.15-.05-.35-.08-.59-.08-.24,0-.48.03-.6.08,0,0,0-.03-.02-.06h0"/>
          <path class="cls-30" d="M31.74,20.28c.21,0,.45-.04.53-.06.06-.02.09-.05.09-.08,0-.02-.02-.03-.03-.04-.13-.04-.35-.08-.58-.08-.23,0-.46.03-.59.08-.02,0-.03.02-.03.04,0,.03.03.06.09.08.09.02.32.06.53.06"/>
          <path class="cls-15" d="M31.74,20.28c.21,0,.45-.04.53-.06.06-.02.09-.05.09-.08,0-.02-.02-.03-.03-.04-.13-.04-.35-.08-.58-.08-.23,0-.46.03-.59.08-.02,0-.03.02-.03.04,0,.03.03.06.09.08.09.02.32.06.53.06Z"/>
          <path class="cls-22" d="M32.42,19.83l-.05-.05s-.05.03-.11.02c-.06-.01-.08-.09-.08-.09,0,0-.07.06-.13.06-.06,0-.09-.06-.09-.06,0,0-.06.05-.12.04-.05,0-.11-.08-.11-.08,0,0-.05.08-.11.08-.05,0-.1-.05-.1-.05,0,0-.02.06-.09.07-.07.01-.13-.06-.13-.06,0,0-.04.07-.09.09-.05.02-.11-.03-.11-.03,0,0,0,.03-.02.04,0,.02-.03.02-.03.02l.02.05c.17-.05.4-.09.66-.09.26,0,.49.03.66.09l.02-.05"/>
          <path class="cls-19" d="M32.42,19.83l-.05-.05s-.05.03-.11.02c-.06-.01-.08-.09-.08-.09,0,0-.07.06-.13.06-.06,0-.09-.06-.09-.06,0,0-.06.05-.12.04-.05,0-.11-.08-.11-.08,0,0-.05.08-.11.08-.05,0-.1-.05-.1-.05,0,0-.02.06-.09.07-.07.01-.13-.06-.13-.06,0,0-.04.07-.09.09-.05.02-.11-.03-.11-.03,0,0,0,.03-.02.04,0,.02-.03.02-.03.02l.02.05c.17-.05.4-.09.66-.09.26,0,.49.03.66.09l.02-.05h0Z"/>
          <path class="cls-15" d="M31.74,19.59h.02s0,.03,0,.04c0,.06.04.1.1.1.04,0,.08-.03.09-.07,0,0,0-.04.01-.04,0,0,0,.04,0,.04,0,.05.05.08.1.08.05,0,.1-.04.1-.1,0,0,0,0,0-.01l.03-.03.02.04s0,.03,0,.04c0,.05.04.1.09.1.03,0,.06-.02.08-.04l.02-.03v.03s.01.06.04.07c0,0,.03,0,.08-.04.05-.04.07-.07.07-.07v.04s-.04.08-.08.11c-.02.01-.06.03-.08.02-.03,0-.05-.03-.06-.06-.02.01-.05.02-.07.02-.05,0-.1-.03-.12-.08-.03.03-.06.05-.1.05-.04,0-.08-.02-.11-.05-.02.02-.06.04-.1.04-.05,0-.09-.03-.12-.07-.02.04-.07.07-.12.07-.04,0-.07-.01-.1-.04-.03.03-.07.05-.11.05-.04,0-.08-.02-.1-.05-.02.05-.07.08-.12.08-.02,0-.05,0-.07-.02-.01.03-.03.05-.06.06-.03,0-.06,0-.08-.02-.04-.03-.09-.11-.09-.11v-.04s.03.03.08.07c.05.04.08.04.08.04.03,0,.04-.04.04-.07v-.03l.02.03s.05.04.08.04c.05,0,.09-.04.09-.1,0-.02,0-.03,0-.04l.02-.04.03.03s0,0,0,.01c0,.06.04.1.1.1.05,0,.09-.03.1-.08,0,0,0-.04,0-.04,0,0,.01.04.01.04.01.04.05.07.09.07.05,0,.1-.04.1-.1,0-.01,0-.02,0-.04h.03s0,0,0,0h0Z"/>
          <path class="cls-30" d="M31.74,19.85c-.26,0-.5.03-.67.09-.01,0-.03,0-.03-.02,0-.01,0-.03.02-.03.17-.06.41-.09.68-.09.27,0,.51.04.68.09.01,0,.02.02.02.03,0,.01-.02.02-.03.02-.17-.05-.41-.09-.67-.09"/>
          <path class="cls-15" d="M31.74,19.85c-.26,0-.5.03-.67.09-.01,0-.03,0-.03-.02,0-.01,0-.03.02-.03.17-.06.41-.09.68-.09.27,0,.51.04.68.09.01,0,.02.02.02.03,0,.01-.02.02-.03.02-.17-.05-.41-.09-.67-.09Z"/>
          <path class="cls-24" d="M31.48,19.95s.02-.04.04-.04.04.02.04.04-.02.04-.04.04-.04-.02-.04-.04"/>
          <path class="cls-4" d="M31.48,19.95s.02-.04.04-.04.04.02.04.04-.02.04-.04.04-.04-.02-.04-.04h0Z"/>
          <path class="cls-31" d="M31.74,19.97h-.08s-.03-.01-.03-.03.01-.03.03-.03h.17s.03.01.03.03-.01.03-.03.03h-.09Z"/>
          <path class="cls-3" d="M31.74,19.97h-.08s-.03-.01-.03-.03.01-.03.03-.03h.17s.03.01.03.03-.01.03-.03.03h-.09Z"/>
          <path class="cls-29" d="M31.32,20h-.06s-.03,0-.03-.01c0-.02,0-.03.02-.03h.06s.06-.02.06-.02c.02,0,.03,0,.03.02,0,.02,0,.03-.02.03h-.06Z"/>
          <path class="cls-19" d="M31.32,20h-.06s-.03,0-.03-.01c0-.02,0-.03.02-.03h.06s.06-.02.06-.02c.02,0,.03,0,.03.02,0,.02,0,.03-.02.03h-.06Z"/>
          <path class="cls-31" d="M31.07,20.05l.03-.05h.06s-.03.06-.03.06l-.05-.02Z"/>
          <path class="cls-3" d="M31.07,20.05l.03-.05h.06s-.03.06-.03.06l-.05-.02Z"/>
          <path class="cls-24" d="M31.92,19.95s.02-.04.04-.04.04.02.04.04-.02.04-.04.04-.04-.02-.04-.04"/>
          <path class="cls-4" d="M31.92,19.95s.02-.04.04-.04.04.02.04.04-.02.04-.04.04-.04-.02-.04-.04h0Z"/>
          <path class="cls-29" d="M32.16,20h.06s.03,0,.03-.01c0-.02,0-.03-.02-.03h-.06s-.06-.02-.06-.02c-.02,0-.03,0-.03.02,0,.02,0,.03.02.03h.06Z"/>
          <path class="cls-19" d="M32.16,20h.06s.03,0,.03-.01c0-.02,0-.03-.02-.03h-.06s-.06-.02-.06-.02c-.02,0-.03,0-.03.02,0,.02,0,.03.02.03h.06Z"/>
          <path class="cls-31" d="M32.4,20.05l-.02-.05h-.06s.03.06.03.06h.05"/>
          <path class="cls-3" d="M32.4,20.04l-.02-.05h-.06s.03.06.03.06c.02,0,.04-.01.05-.01Z"/>
          <path class="cls-31" d="M31.74,20.22c-.21,0-.4-.02-.55-.06.15-.04.34-.07.55-.07.21,0,.41.03.55.07-.15.04-.34.06-.55.06"/>
          <path class="cls-5" d="M31.74,20.22c-.21,0-.4-.02-.55-.06.15-.04.34-.07.55-.07.21,0,.41.03.55.07-.15.04-.34.06-.55.06h0Z"/>
          <path class="cls-30" d="M32.41,19.72s0-.04-.01-.04c-.01,0-.03,0-.03.02,0,.02,0,.04.01.04.01,0,.03,0,.03-.03"/>
          <path class="cls-4" d="M32.41,19.72s0-.04-.01-.04c-.01,0-.03,0-.03.02,0,.02,0,.04.01.04.01,0,.03,0,.03-.03Z"/>
          <path class="cls-30" d="M31.98,19.63s0-.04-.02-.04c-.01,0-.02.01-.03.03,0,.02,0,.04.02.04.01,0,.02-.01.03-.03"/>
          <path class="cls-4" d="M31.98,19.63s0-.04-.02-.04c-.01,0-.02.01-.03.03,0,.02,0,.04.02.04.01,0,.02-.01.03-.03Z"/>
          <path class="cls-30" d="M31.49,19.63s0-.04.02-.04c.01,0,.02.01.03.03,0,.02,0,.04-.02.04-.01,0-.02-.01-.03-.03"/>
          <path class="cls-4" d="M31.49,19.63s0-.04.02-.04c.01,0,.02.01.03.03,0,.02,0,.04-.02.04-.01,0-.02-.01-.03-.03Z"/>
          <path class="cls-30" d="M31.07,19.72s0-.04.01-.04c.01,0,.03,0,.03.02,0,.02,0,.04-.01.04-.01,0-.03,0-.03-.03"/>
          <g>
            <path class="cls-4" d="M31.07,19.72s0-.04.01-.04c.01,0,.03,0,.03.02,0,.02,0,.04-.01.04-.01,0-.03,0-.03-.03Z"/>
            <g>
              <path class="cls-15" d="M31.74,19.37l-.07.05.06.13h.02s.02,0,.02,0l.06-.13s-.05-.03-.07-.05h0Z"/>
              <path class="cls-15" d="M31.57,19.56l.03.05.12-.04v-.02s0-.02,0-.02l-.12-.04s-.02.04-.03.06ZM31.9,19.56l-.03.05-.12-.04v-.02s0-.02,0-.02l.12-.04s.02.04.03.06ZM31.25,19.42l-.06.06.08.11h.02s.01,0,.01,0l.03-.13s-.05-.02-.08-.03Z"/>
              <path class="cls-15" d="M31.13,19.64l.04.05.11-.06v-.02s0-.02,0-.02h-.12s-.01.03-.02.05ZM31.45,19.57l-.02.06h-.12s-.02-.03-.02-.03v-.02s.12-.06.12-.06c.02.02.03.03.05.05ZM31.01,19.66v.06s-.13.01-.13.01h-.02s0-.03,0-.03l.09-.08s.04.03.05.04Z"/>
            </g>
          </g>
          <path class="cls-30" d="M31.24,19.6s.02-.04.04-.04.04.02.04.04-.02.04-.04.04-.04-.02-.04-.04"/>
          <g>
            <path class="cls-3" d="M31.24,19.6s.02-.04.04-.04.04.02.04.04-.02.04-.04.04-.04-.02-.04-.04Z"/>
            <g>
              <path class="cls-15" d="M32.23,19.42l.06.06-.08.11h-.02s-.01,0-.01,0l-.03-.13s.05-.02.08-.03Z"/>
              <path class="cls-15" d="M32.35,19.64l-.04.05-.11-.06v-.02s0-.02,0-.02h.12s.01.03.02.05ZM32.03,19.57l.02.06h.12s.02-.03.02-.03v-.02s-.12-.06-.12-.06c-.01.02-.03.03-.05.05Z"/>
            </g>
          </g>
          <path class="cls-30" d="M32.45,19.66v.06s.13.01.13.01h.02s0-.03,0-.03l-.09-.08-.05.04"/>
          <path class="cls-15" d="M32.45,19.66v.06s.13.01.13.01h.02s0-.03,0-.03l-.09-.08s-.04.03-.05.04Z"/>
          <path class="cls-30" d="M31.7,19.56s.02-.04.04-.04.04.02.04.04-.02.04-.04.04-.04-.02-.04-.04"/>
          <path class="cls-3" d="M31.7,19.56s.02-.04.04-.04.04.02.04.04-.02.04-.04.04-.04-.02-.04-.04Z"/>
          <path class="cls-30" d="M32.15,19.6s.02-.04.04-.04.04.02.04.04-.02.04-.04.04-.04-.02-.04-.04"/>
          <g>
            <path class="cls-3" d="M32.15,19.6s.02-.04.04-.04.04.02.04.04-.02.04-.04.04-.04-.02-.04-.04Z"/>
            <path class="cls-15" d="M30.84,19.73s-.03-.04-.05-.06c-.02-.02-.06-.03-.06-.03,0,0,.02-.03.05-.03.02,0,.03,0,.04.02v-.02s.02,0,.03.03c0,.03,0,.07,0,.07,0,0-.01.01-.02.02h0Z"/>
            <path class="cls-3" d="M30.85,19.71s.03,0,.05,0c.02.01.02.04.01.05-.01.01-.03,0-.05,0-.02-.01-.02-.04-.01-.05h0Z"/>
          </g>
          <path class="cls-30" d="M32.61,19.73s.03-.05.06-.07c.02-.02.06-.03.06-.03,0,0-.02-.03-.05-.03-.02,0-.03,0-.04.02v-.02s-.02,0-.03.03c0,.03,0,.07,0,.07,0,0,0,.02.01.03"/>
          <path class="cls-15" d="M32.61,19.73s.03-.05.06-.07c.02-.02.06-.03.06-.03,0,0-.02-.03-.05-.03-.02,0-.03,0-.04.02v-.02s-.02,0-.03.03c0,.03,0,.07,0,.07,0,.01,0,.02.01.03h0Z"/>
          <path class="cls-30" d="M32.62,19.71s-.03,0-.05,0c-.02.01-.02.04-.01.05.01.01.03,0,.05,0,.02-.01.02-.04.01-.05"/>
          <g>
            <path class="cls-3" d="M32.62,19.71s-.03,0-.05,0c-.02.01-.02.04-.01.05.01.01.03,0,.05,0,.02-.01.02-.04.01-.05h0Z"/>
            <path class="cls-21" d="M31.77,18.84s.08.06.08.11c0,.06-.05.11-.11.11s-.11-.05-.11-.11c0-.05.03-.09.08-.11"/>
            <path class="cls-15" d="M31.85,18.91v.06h-.22v-.06h.08v-.12h-.05v-.06h.05v-.05h.05v.05h.05v.06h-.05v.12h.09Z"/>
            <g>
              <path class="cls-19" d="M31.73,20.22v-.12M31.7,20.22v-.12"/>
              <path class="cls-19" d="M31.67,20.22v-.12M31.65,20.22v-.12M31.62,20.22v-.12M31.57,20.22v-.11M31.59,20.22v-.11"/>
              <path class="cls-19" d="M31.53,20.21v-.1M31.55,20.21v-.11M31.47,20.21v-.09M31.49,20.21v-.09M31.51,20.21v-.1"/>
              <path class="cls-19" d="M31.45,20.21v-.09M31.43,20.21v-.09M31.41,20.2v-.09M31.37,20.2v-.07M31.39,20.2v-.08"/>
              <path class="cls-19" d="M31.34,20.2v-.07M31.32,20.2v-.06M31.3,20.18v-.05M31.28,20.18v-.04M31.26,20.18v-.03"/>
              <path class="cls-19" d="M31.85,20.22v-.11M31.8,20.22v-.12M31.76,20.22v-.12"/>
            </g>
          </g>
          <path class="cls-22" d="M30.76,20.82h1.94v-.56h-1.94v.56Z"/>
          <path class="cls-19" d="M30.76,20.82h1.94v-.56h-1.94v.56Z"/>
          <path class="cls-23" d="M30.96,21.19s.02,0,.04,0h1.46s.03,0,.04,0c-.05-.02-.09-.07-.09-.13s.04-.11.09-.13c-.01,0-.03,0-.04,0h-1.46s-.03,0-.04,0h0c.05.02.08.07.08.12s-.03.11-.08.12"/>
          <g>
            <path class="cls-13" d="M30.96,21.19s.02,0,.04,0h1.46s.03,0,.04,0c-.05-.02-.09-.07-.09-.13s.04-.11.09-.13c-.01,0-.03,0-.04,0h-1.46s-.03,0-.04,0h0c.05.02.08.07.08.12s-.03.11-.08.12Z"/>
            <path class="cls-22" d="M31,21.18h1.46s.09.03.09.07-.04.07-.09.07h-1.46s-.09-.03-.09-.07.04-.07.09-.07"/>
            <path class="cls-15" d="M31,21.18h1.46s.09.03.09.07-.04.07-.09.07h-1.46s-.09-.03-.09-.07.04-.07.09-.07Z"/>
          </g>
          <path class="cls-23" d="M31,20.82h1.46s.09.03.09.06-.04.06-.09.06h-1.46s-.09-.03-.09-.06.04-.06.09-.06"/>
          <path class="cls-15" d="M31,20.82h1.46s.09.03.09.06-.04.06-.09.06h-1.46s-.09-.03-.09-.06.04-.06.09-.06Z"/>
          <path class="cls-23" d="M30.96,29.22s.01.04.01.06c0,.14-.11.25-.24.25h2c-.13,0-.25-.11-.25-.25,0-.02,0-.04,0-.06-.01,0-.03,0-.04,0h-1.46s-.03,0-.04,0"/>
          <path class="cls-13" d="M30.96,29.22s.01.04.01.06c0,.14-.11.25-.24.25h2c-.13,0-.25-.11-.25-.25,0-.02,0-.04,0-.06-.01,0-.03,0-.04,0h-1.46s-.03,0-.04,0Z"/>
          <path class="cls-23" d="M31,29.08h1.46s.09.03.09.07-.04.07-.09.07h-1.46s-.09-.03-.09-.07.04-.07.09-.07"/>
          <path class="cls-15" d="M31,29.08h1.46s.09.03.09.07-.04.07-.09.07h-1.46s-.09-.03-.09-.07.04-.07.09-.07h0Z"/>
          <path class="cls-22" d="M30.73,30.08h2v-.55h-2v.55Z"/>
          <path class="cls-19" d="M30.73,30.08h2v-.55h-2v.55Z"/>
          <path class="cls-31" d="M30.57,27.11c-.2.12-.33.25-.31.31.01.06.07.1.16.17.14.11.23.3.16.39.12-.1.19-.26.19-.43s-.08-.34-.2-.44"/>
          <path class="cls-3" d="M30.57,27.11c-.2.12-.33.25-.31.31.01.06.07.1.16.17.14.11.23.3.16.39.12-.1.19-.26.19-.43s-.08-.34-.2-.44h0Z"/>
          <path class="cls-27" d="M31.02,28.99h1.42v-7.57h-1.42v7.57Z"/>
          <path class="cls-19" d="M32.03,21.43v7.55M32.19,21.43v7.55M31.02,28.99h1.42v-7.57h-1.42v7.57Z"/>
          <path class="cls-25" d="M33.88,24.25c-.31-.14-.84-.24-1.44-.26-.21,0-.44.02-.68.07-.85.15-1.49.52-1.44.82,0,0,0,.02,0,.03,0,0-.32-.78-.32-.81-.06-.33.66-.74,1.6-.91.3-.05.58-.07.83-.07.6,0,1.13.08,1.44.21v.93"/>
          <path class="cls-6" d="M33.88,24.25c-.31-.14-.84-.24-1.44-.26-.21,0-.44.02-.68.07-.85.15-1.49.52-1.44.82,0,0,0,.02,0,.03,0,0-.32-.78-.32-.81-.06-.33.66-.74,1.6-.91.3-.05.58-.07.83-.07.6,0,1.13.08,1.44.21v.93"/>
          <path class="cls-31" d="M31.01,25.2c-.39-.03-.66-.15-.69-.32-.02-.14.11-.3.35-.44.11.01.23.03.35.03v.74"/>
          <path class="cls-3" d="M31.01,25.2c-.39-.03-.66-.15-.69-.32-.02-.14.11-.3.35-.44.11.01.23.03.35.03v.74"/>
          <path class="cls-31" d="M32.44,24.62c.25.04.43.11.52.19v.02c.05.1-.16.31-.52.54v-.74"/>
          <path class="cls-3" d="M32.44,24.62c.25.04.43.11.52.19v.02c.05.1-.16.31-.52.54v-.74"/>
          <path class="cls-25" d="M30.13,26.66c-.04-.12.35-.37.89-.58.25-.1.45-.2.71-.32.75-.36,1.31-.78,1.24-.93v-.02s.09.78.09.78c.07.14-.44.55-1.13.91-.22.12-.69.3-.91.39-.4.15-.79.43-.75.54l-.13-.77"/>
          <g>
            <path class="cls-6" d="M30.13,26.66c-.04-.12.35-.37.89-.58.25-.1.45-.2.71-.32.75-.36,1.31-.78,1.24-.93v-.02s.09.78.09.78c.07.14-.44.55-1.13.91-.22.12-.69.3-.91.39-.4.15-.79.43-.75.54l-.13-.77h0s0,0,0,0Z"/>
            <path class="cls-15" d="M30.92,23.89c.17-.07.29-.15.23-.3-.04-.09-.12-.11-.26-.06l-.24.09.21.57s.05-.02.07-.03c.02,0,.05-.02.07-.02l-.09-.25h0s0,0,0,0ZM30.82,23.61l.06-.02s.11,0,.13.08c.02.05.01.11-.04.15-.02.01-.04.02-.06.03l-.09-.23ZM31.47,23.37s-.05.02-.07.02c-.03,0-.05,0-.08.01l.12.6.38-.08s-.01-.02-.01-.04c0-.01,0-.03,0-.04-.07.02-.14.04-.23.06l-.11-.53M32.24,23.88c.07-.22.16-.42.25-.63-.02,0-.03,0-.05,0-.02,0-.03,0-.05,0-.05.15-.1.3-.16.46-.07-.14-.15-.28-.21-.43-.03,0-.06,0-.09.01-.03,0-.06,0-.09,0,.11.2.22.39.32.59.01,0,.03,0,.04,0,.01,0,.03,0,.04,0M33.04,23.42s.03-.06.04-.08c-.02-.02-.08-.05-.16-.06-.16-.02-.25.06-.26.16-.02.21.29.2.27.34,0,.06-.07.09-.13.08-.07,0-.12-.05-.13-.11h-.02s-.03.07-.04.11c.05.03.1.05.16.06.16.02.28-.05.29-.17.02-.2-.29-.22-.28-.34,0-.05.04-.08.12-.07.06,0,.09.04.11.09h.02"/>
          </g>
          <path class="cls-28" d="M33.09,30.16c-.13,0-.25-.03-.34-.08-.09-.05-.21-.08-.34-.08s-.25.03-.34.08c-.09.05-.21.08-.34.08s-.25-.03-.34-.09c-.09-.05-.2-.07-.33-.07s-.25.03-.34.08c-.09.05-.21.08-.34.08v.23c.13,0,.26-.03.34-.08.09-.05.2-.08.34-.08s.24.03.33.08c.09.05.21.09.34.09s.25-.03.34-.08c.09-.05.21-.08.34-.08s.25.03.34.08c.09.05.21.08.34.08v-.23"/>
          <path class="cls-21" d="M33.09,30.16c-.13,0-.25-.03-.34-.08-.09-.05-.21-.08-.34-.08s-.25.03-.34.08c-.09.05-.21.08-.34.08s-.25-.03-.34-.09c-.09-.05-.2-.07-.33-.07s-.25.03-.34.08c-.09.05-.21.08-.34.08v.23c.13,0,.26-.03.34-.08.09-.05.2-.08.34-.08s.24.03.33.08c.09.05.21.09.34.09s.25-.03.34-.08c.09-.05.21-.08.34-.08s.25.03.34.08c.09.05.21.08.34.08v-.23s0,0,0,0Z"/>
          <path class="cls-27" d="M33.09,30.39c-.13,0-.25-.03-.34-.08-.09-.05-.21-.08-.34-.08s-.25.03-.34.08c-.09.05-.21.08-.34.08s-.25-.03-.34-.09c-.09-.05-.2-.08-.33-.08s-.25.03-.34.08c-.09.05-.21.08-.34.08v.23c.13,0,.26-.03.34-.08.09-.05.2-.08.34-.08s.24.03.33.08c.09.05.21.09.34.09s.25-.03.34-.08c.09-.05.21-.08.34-.08s.25.03.34.08c.09.05.21.08.34.08v-.23"/>
          <path class="cls-19" d="M33.09,30.39c-.13,0-.25-.03-.34-.08-.09-.05-.21-.08-.34-.08s-.25.03-.34.08c-.09.05-.21.08-.34.08s-.25-.03-.34-.09c-.09-.05-.2-.08-.33-.08s-.25.03-.34.08c-.09.05-.21.08-.34.08v.23c.13,0,.26-.03.34-.08.09-.05.2-.08.34-.08s.24.03.33.08c.09.05.21.09.34.09s.25-.03.34-.08c.09-.05.21-.08.34-.08s.25.03.34.08c.09.05.21.08.34.08v-.23"/>
          <path class="cls-28" d="M33.09,30.62c-.13,0-.25-.03-.34-.08-.09-.05-.21-.08-.34-.08s-.25.03-.34.08c-.09.05-.21.08-.34.08s-.25-.03-.34-.09c-.09-.05-.2-.08-.33-.08s-.25.03-.34.08c-.09.05-.21.08-.34.08v.23c.13,0,.26-.03.34-.08.09-.05.2-.08.34-.08s.24.03.33.08c.09.05.21.09.34.09s.25-.03.34-.08c.09-.05.21-.08.34-.08s.25.03.34.08c.09.05.21.08.34.08v-.23"/>
          <path class="cls-21" d="M33.09,30.62c-.13,0-.25-.03-.34-.08-.09-.05-.21-.08-.34-.08s-.25.03-.34.08c-.09.05-.21.08-.34.08s-.25-.03-.34-.09c-.09-.05-.2-.08-.33-.08s-.25.03-.34.08c-.09.05-.21.08-.34.08v.23c.13,0,.26-.03.34-.08.09-.05.2-.08.34-.08s.24.03.33.08c.09.05.21.09.34.09s.25-.03.34-.08c.09-.05.21-.08.34-.08s.25.03.34.08c.09.05.21.08.34.08v-.23"/>
          <path class="cls-27" d="M33.09,31.08c-.13,0-.25-.03-.34-.08-.09-.05-.21-.08-.34-.08s-.25.03-.34.08c-.09.05-.21.08-.34.08s-.25-.03-.34-.09c-.09-.05-.2-.07-.33-.07s-.25.03-.34.08c-.09.05-.21.08-.34.08v-.23c.13,0,.26-.03.34-.09.09-.05.2-.08.34-.08s.24.03.33.08c.09.05.21.09.34.09s.25-.03.34-.08c.09-.05.21-.08.34-.08s.25.03.34.08c.09.05.21.08.34.08v.23"/>
          <path class="cls-19" d="M33.09,31.08c-.13,0-.25-.03-.34-.08-.09-.05-.21-.08-.34-.08s-.25.03-.34.08c-.09.05-.21.08-.34.08s-.25-.03-.34-.09c-.09-.05-.2-.07-.33-.07s-.25.03-.34.08c-.09.05-.21.08-.34.08v-.23c.13,0,.26-.03.34-.09.09-.05.2-.08.34-.08s.24.03.33.08c.09.05.21.09.34.09s.25-.03.34-.08c.09-.05.21-.08.34-.08s.25.03.34.08c.09.05.21.08.34.08v.23"/>
          <path class="cls-28" d="M33.09,31.31c-.13,0-.25-.03-.34-.08-.09-.05-.21-.08-.34-.08s-.25.03-.34.08c-.09.05-.21.08-.34.08s-.25-.03-.34-.09c-.09-.05-.2-.08-.33-.08s-.25.03-.34.08c-.09.05-.21.08-.34.08v-.23c.13,0,.26-.03.34-.09.09-.05.2-.08.34-.08s.24.03.33.07c.09.05.21.09.34.09s.25-.03.34-.08c.09-.05.21-.08.34-.08s.25.03.34.08c.09.05.21.08.34.08v.23"/>
          <path class="cls-21" d="M33.09,31.31c-.13,0-.25-.03-.34-.08-.09-.05-.21-.08-.34-.08s-.25.03-.34.08c-.09.05-.21.08-.34.08s-.25-.03-.34-.09c-.09-.05-.2-.08-.33-.08s-.25.03-.34.08c-.09.05-.21.08-.34.08v-.23c.13,0,.26-.03.34-.09.09-.05.2-.08.34-.08s.24.03.33.07c.09.05.21.09.34.09s.25-.03.34-.08c.09-.05.21-.08.34-.08s.25.03.34.08c.09.05.21.08.34.08v.23Z"/>
        </g>
        <path class="cls-27" d="M38.25,31.46c-1.14,0-2.27-.3-3.22-.81-.7-.38-1.17-1.14-1.17-2.01v-3.17h8.76v3.17c0,.87-.46,1.64-1.17,2.01-.95.51-2.06.81-3.21.81"/>
        <g>
          <path class="cls-19" d="M38.25,31.46c-1.14,0-2.27-.3-3.22-.81-.7-.38-1.17-1.14-1.17-2.01v-3.17h8.76v3.17c0,.87-.46,1.64-1.17,2.01-.95.51-2.06.81-3.21.81h0Z"/>
          <path class="cls-25" d="M38.24,28.63c0,1.25-.97,2.27-2.18,2.27s-2.19-1.01-2.19-2.27v-3.17h4.38v3.17Z"/>
          <g>
            <g>
              <path class="cls-15" d="M34.81,30.5c.14.08.32.21.53.26v-5.42h-.53v5.15Z"/>
              <path class="cls-13" d="M33.85,28.59c.01.67.26,1.16.5,1.49v-4.7h-.49v3.21Z"/>
              <path class="cls-15" d="M35.79,30.88c.2.02.35.02.51,0v-5.53h-.51v5.53ZM36.75,30.76c.2-.04.43-.18.53-.25v-5.16h-.51v5.42ZM37.76,30.03c.21-.21.41-.68.49-1.21v-3.46s-.5,0-.5,0v4.68Z"/>
            </g>
            <path class="cls-19" d="M38.24,28.63c0,1.25-.97,2.27-2.18,2.27s-2.19-1.01-2.19-2.27v-3.17h4.38v3.17Z"/>
          </g>
          <path class="cls-25" d="M33.86,25.46h4.38v-5.3h-4.38v5.3Z"/>
          <g>
            <path class="cls-10" d="M34.72,24.46v-.39h.38v-.68s0-.68,0-.68h-.19s0-.21,0-.21c0-.11,0-.26,0-.34v-.14s.05,0,.05,0c.02,0,.08,0,.14,0h.09v-.34h-.17v-.11c0-.06,0-.15,0-.2v-.09h.16v.04s0,.05.05.05.05,0,.05-.05v-.04h.22v.04s.02.05.06.05c.03,0,.05-.01.05-.05v-.03h.16v.4h-.18s0,.17,0,.17v.17s.25,0,.25,0v-.82h-.17v-.4h.17v.04s-.01.04-.01.04h.03s.04,0,.05,0c.02,0,.03,0,.03-.04v-.04h.22v.04s.01.06.05.06c.04,0,.05,0,.06-.06v-.04h.16v.4h-.17v.82h.21v-.33s-.17,0-.17,0v-.16c0-.09,0-.18,0-.21v-.04s.08,0,.08,0h.08s0,.04,0,.04c0,.05.01.06.05.06.04,0,.05,0,.06-.05v-.04h.07s.08,0,.1,0h.04s0,.1,0,.1h.05c.05,0,.06,0,.07-.05,0-.03.01-.04.1-.05h.06s0,.4,0,.4h-.04s-.06.01-.09.01h-.05v.33h.1c.06,0,.12.01.15.01h.05v.18c0,.1,0,.25,0,.34v.17s-.08,0-.08,0h-.09v1.36h.18s.18,0,.18,0v.77h-2.64v-.39Z"/>
            <path class="cls-15" d="M35.13,22.68v1.42h-.37v.73h2.57v-.73h-.35v-1.42h-1.85Z"/>
            <path class="cls-15" d="M34.76,24.83h2.54M34.76,24.65h2.57M34.76,24.47h2.57M34.76,24.29h2.57M34.76,24.1h2.57M35.13,23.9h1.85M35.13,23.72h1.85M35.13,23.56h1.85M35.13,23.38h1.85M35.13,23.21h1.85"/>
            <path class="cls-14" d="M35.13,23.03h1.85"/>
            <path class="cls-15" d="M36.59,22.86v.17M35.13,22.85h1.85"/>
            <path class="cls-14" d="M35.13,24.82v-.18"/>
            <path class="cls-15" d="M35.13,24.47v-.18M34.96,24.47v.18"/>
            <path class="cls-14" d="M35.31,24.65v-.18"/>
            <path class="cls-15" d="M35.5,24.09v-.19M35.5,23.72v-.16M35.31,24.29v-.2"/>
            <path class="cls-14" d="M34.96,24.29v-.2"/>
            <path class="cls-15" d="M35.31,23.72v.18M35.68,23.72v.18M36.04,23.72v.18M35.86,23.72v-.16M36.04,23.38v.18M35.86,22.85v.18M36.04,22.68v.18M35.68,22.68v.18M35.33,22.68v.18M36.98,24.82v-.18M36.98,24.47v-.18M37.14,24.47v.18M36.77,24.65v-.18M36.6,24.09v-.19M36.6,23.72v-.16"/>
            <path class="cls-14" d="M36.77,24.29v-.2"/>
            <path class="cls-15" d="M37.14,24.29v-.2"/>
            <path class="cls-14" d="M36.77,23.72v.19"/>
            <path class="cls-15" d="M36.41,23.72v.19M36.23,23.72v-.16M36.23,23.21v.18"/>
            <path class="cls-14" d="M36.04,23.03v.18"/>
            <g>
              <path class="cls-15" d="M36.23,22.85v.18M36.41,22.68v.17M36.77,22.68v.17M35.86,23.38v-.18"/>
              <g>
                <path class="cls-15" d="M36.41,24.82v-.48c0-.09-.04-.36-.38-.36-.32,0-.36.27-.36.36v.48h.73Z"/>
                <path class="cls-15" d="M36.24,24.47h.36s0-.18,0-.18l-.12-.2-.25.19c.03.07.01.14.01.19h0ZM36.14,24.19l.08-.28h-.37s.09.28.09.28c.07-.01.14-.01.2,0h0ZM36.42,23.56v-.42c0-.11.06-.21.18-.21s.18.09.18.21v.42h-.36Z"/>
                <path class="cls-15" d="M35.51,24.65h.34s0,0,0,0v.16s0,0,0,0h-.34s0,0,0,0v-.16s0,0,0,0Z"/>
                <path class="cls-15" d="M36.24,24.65h.36v.18h-.36v-.18ZM35.86,24.47h-.35s0-.18,0-.18l.11-.19.25.18c-.02.07,0,.07,0,.19h0Z"/>
              </g>
              <path class="cls-15" d="M35.5,22.86v.17"/>
              <path class="cls-15" d="M35.31,23.56v-.42c0-.11.07-.21.19-.21s.19.1.19.21v.42h-.37Z"/>
            </g>
            <path class="cls-15" d="M35.23,21.66h.37v1.04h-.37v-1.04ZM35.86,21.18h.37v1.51h-.37v-1.51ZM36.47,21.66h.37v1.04h-.37v-1.04Z"/>
            <g>
              <path class="cls-15" d="M35.87,22.11h.36M35.86,22.26h.36M36.47,21.75h.36M36.47,21.95h.36M36.47,22.1h.36M36.48,22.27h.36M36.65,21.75v-.1M36.66,22.1v-.14M36.65,22.41v-.14M35.23,22.11h.36M35.23,22.27h.36"/>
              <path class="cls-2" d="M34.95,22.7v-.66h.28s.08.06.08.06v.32s.24,0,.24,0v-.33s.07-.05.07-.05h.24s.08.07.08.07v.32s.24,0,.24,0v-.31s.07-.07.07-.07h.24s.07.06.07.06v.31s.23,0,.23,0v-.3s.07-.07.07-.07h.3v.66h-2.2Z"/>
              <path class="cls-15" d="M34.95,22.51h2.2M35.13,22.51v.19M35.5,22.51v.19"/>
            </g>
            <path class="cls-14" d="M35.87,22.51v.19"/>
            <path class="cls-15" d="M36.23,22.51v.19M36.6,22.51v.19M36.98,22.51v.19M35.31,22.32v.19M35.3,22.14h-.35M35.31,22.33h-.35M35.93,22.14h-.39M36.55,22.14h-.37M37.15,22.14h-.38M35.93,22.33h-.39M36.55,22.33h-.38M37.15,22.33h-.38M35.13,22.14v.19M35.68,22.33v.18M35.87,22.14v.19M36.23,22.14v.19M36.98,22.13v.2M35.68,22.04v.11"/>
            <path class="cls-14" d="M36.04,22.42v.09"/>
            <path class="cls-15" d="M36.41,22.33v.17M36.4,22.03v.11"/>
            <path class="cls-14" d="M36.77,22.33v.17"/>
            <g>
              <path class="cls-21" d="M36.24,24.82v-.4c0-.07.01-.27-.2-.25-.22-.01-.18.18-.18.25v.4h.38Z"/>
              <path class="cls-21" d="M36.69,23.49v-.31c0-.08-.03-.16-.1-.16s-.1.08-.1.16v.31h.2ZM35.59,23.49v-.31c0-.08-.03-.16-.1-.16s-.1.08-.1.16v.31h.2Z"/>
            </g>
            <path class="cls-15" d="M35.86,21.96h.36M35.86,21.76h.36M35.86,21.6h.36M35.86,21.43h.36M35.86,21.28h.37M36.04,21.43v-.15"/>
            <path class="cls-14" d="M36.04,21.76v-.15"/>
            <path class="cls-15" d="M36.04,22.11v-.15M36.04,22.41v-.15M35.23,21.76h.36M35.23,21.96h.36M35.41,21.76v-.1M35.41,22.1v-.14"/>
            <g>
              <path class="cls-14" d="M35.41,22.42v-.14"/>
              <g>
                <path class="cls-15" d="M35.7,20.8v.38s.71,0,.71,0v-.37s-.13,0-.13,0v.09s-.14,0-.14,0v-.09h-.18v.09h-.14v-.09s-.12,0-.12,0Z"/>
                <path class="cls-14" d="M35.7,21.02h.71M36.04,21.18v-.15"/>
                <path class="cls-15" d="M35.06,21.29v.38s.71,0,.71,0v-.37s-.13,0-.13,0v.09s-.14,0-.14,0v-.09h-.18v.09h-.14v-.09s-.12,0-.12,0Z"/>
                <path class="cls-14" d="M35.06,21.51h.71M35.4,21.67v-.15"/>
                <path class="cls-15" d="M36.31,21.28v.38s.71,0,.71,0v-.37s-.13,0-.13,0v.09s-.14,0-.14,0v-.09h-.18v.09h-.14v-.09s-.12,0-.12,0Z"/>
                <path class="cls-14" d="M36.31,21.5h.71M36.66,21.66v-.15"/>
              </g>
            </g>
            <g>
              <path class="cls-19" d="M33.86,25.46h4.38v-5.3h-4.38v5.3Z"/>
              <path class="cls-19" d="M41.26,26.78l-.16-.07-.28.35.09.15.34-.42ZM41.38,26.89l.09.15-.28.35-.16-.07.34-.42Z"/>
            </g>
            <path class="cls-7" d="M42.63,25.46v3.17c0,1.25-.98,2.27-2.2,2.27s-2.19-1.01-2.19-2.27v-3.17h4.39Z"/>
            <g>
              <path class="cls-15" d="M38.88,25.78c-.14,0-.25.12-.25.26,0,.12.07.21.17.25v.41l-.16.05v.45l.16.05v-.15h0v-.26h.16v-.55s.02,0,.02,0l.5.61-.09.15.28.34.16-.07.39.48s-.01.03-.02.04h-.26l-.05-.17h-.44l-.05.17h-.3c-.02-.08-.08-.15-.16-.17v-.56h-.16v.15h0v.41c-.08.03-.15.1-.17.19,0,0,0,0,0,0,0,.02,0,.03,0,.05,0,.12.07.22.18.25v.27l-.16.06.02.45.16.04c.02.13.06.25.1.36v.02c-.1.11-.09.28.02.37.07.06.16.08.24.05.07.09.15.17.24.24l-.04.18c.12.09.25.16.38.22l.12-.13c.1.04.21.06.31.08.03.12.13.21.25.21s.22-.09.25-.21c.1-.02.2-.04.3-.08h0s.08-.03.13-.05l-.08-.15c.08-.04.15-.08.22-.13l.08.14c-.07.05-.15.09-.22.13-.04.02-.08.04-.12.05l.12.12c.14-.06.26-.13.38-.22l-.03-.18c.08-.07.16-.15.23-.24.08.03.17.01.24-.05.11-.09.12-.26.03-.37l-.02-.02c.05-.11.08-.23.1-.36l.16-.04.02-.45-.16-.06v-.27c.1-.03.18-.13.18-.25,0-.02,0-.03,0-.05,0,0,0,0,0,0-.02-.09-.09-.16-.17-.19v-.41s.17-.05.17-.05v-.45l-.16-.05v-.41c.1-.03.18-.13.18-.25,0-.15-.11-.26-.25-.26-.11,0-.21.08-.24.18h-.43v.16h-.26v-.16h-.39c-.03-.11-.13-.18-.24-.18s-.21.08-.24.18h-.39v.16h-.26v-.16h-.43c-.03-.11-.13-.18-.24-.18h0Z"/>
              <path class="cls-8" d="M39.45,25.8l-.05.17h.53l-.05-.17h-.44ZM40.98,25.8l-.05.17h.53l-.05-.17h-.44ZM38.88,25.93c.06,0,.11.05.11.11s-.05.11-.11.11-.11-.05-.11-.11.05-.11.11-.11h0Z"/>
              <path class="cls-3" d="M39.12,26.13h.29l.05.17h.44l.05-.17h.25c.03.08.09.14.17.17v.19l-.16.05v.45l.16.05v.63s-.02,0-.03.01l-.39-.47.09-.15-.29-.35-.15.07-.5-.61s.02-.04.03-.06Z"/>
              <path class="cls-3" d="M40.67,26.13h.26l.05.17h.44l.05-.17h.29s.01.02.02.03l-.51.62-.16-.07-.28.35.09.15.09-.11.16-.2.12.11-.25.31.15.07.28-.35-.09-.15.5-.61s.02.01.03.02v.41l-.17.05v.45l.17.05v.42c-.08.03-.14.09-.16.17h-.29l-.05-.17h-.44l-.05.17h-.24s-.01-.04-.02-.06l.38-.47.09-.11-.12-.1-.47.58s-.02,0-.03,0v-.77h-.16v-.26h.16v.41l.16-.05v-.45l-.16-.05v-.2c.08-.03.13-.09.16-.17h0Z"/>
              <path class="cls-8" d="M38.95,26.71v.55l.16-.05v-.45l-.16-.05Z"/>
              <path class="cls-3" d="M41.91,26.85h.16v.26h-.16v-.26ZM39.68,26.91l.17.2-.12.11-.17-.2.12-.1Z"/>
              <path class="cls-8" d="M38.87,27.81s.08.02.09.06c0,0,0,0,0,0,0,.02.01.03.01.05,0,.06-.05.11-.11.11s-.11-.05-.11-.11c0-.02,0-.03.01-.05,0,0,0,0,0,0,.02-.04.06-.06.1-.06ZM41.99,27.81s.08.03.09.06h0s0,.03,0,.05c0,.06-.05.11-.11.11s-.11-.05-.11-.11c0-.02,0-.03.01-.05.02-.03.06-.06.1-.06h0Z"/>
              <path class="cls-3" d="M39.54,27.84h.27v.16h.4s.01.03.02.05l-.37.45-.16-.07-.28.35.09.15-.31.37s-.09-.02-.14-.02c-.04-.09-.06-.19-.08-.3,0-.04-.01-.09-.02-.14h-.16s0-.1,0-.15v-.12h.16v.12s0,.1,0,.15c0,.05.01.09.02.14l.16-.06s-.02-.3-.02-.23c0,.07,0-.23,0-.23l-.16-.04v-.26c.07-.03.13-.09.16-.17h.43v-.16ZM41.07,27.84h.26v.16h.43c.03.08.08.14.16.17v.26l-.17.04s0,.29,0,.23c0-.08-.02.23-.02.23l.17.06c-.02.1-.05.2-.09.3-.04,0-.09,0-.13.02l-.31-.37.09-.15-.28-.35-.16.07-.35-.44s.02-.03.02-.05h.39v-.16h0Z"/>
              <g>
                <g>
                  <path class="cls-15" d="M42.07,28.58v-.41c.1-.03.18-.13.18-.25s-.08-.22-.18-.25v-.56s-.16,0-.16,0v.56c-.08.03-.14.09-.16.17h-.43v.16h.43c.03.08.08.14.16.16v.41s.16,0,.16,0h0ZM42.07,26.3v.55h-.16v-.55s-.02,0-.04-.02l-.58.72-.12-.1.59-.73s-.01-.02-.01-.03h-.43v-.16h.43c.03-.11.13-.18.24-.18.14,0,.25.12.25.26,0,.12-.07.22-.18.25h0ZM40.51,26.29v.34h-.16v-.34c-.08-.03-.14-.09-.17-.17h-.38v-.16h.38c.03-.11.13-.18.24-.18s.21.08.24.18h.39v.16h-.39c-.03.08-.08.14-.16.17h0ZM41.24,29.02l-.16.07-.28-.34.09-.15.35.42Z"/>
                  <path class="cls-15" d="M39.94,26.13l-.05.17h-.44l-.05-.17h.53ZM39.94,25.96l-.05-.17h-.44l-.05.17h.53Z"/>
                  <path class="cls-15" d="M39.62,29.02l.16.07.28-.34-.09-.15-.35.42ZM39.5,28.92l-.09-.15.28-.34.16.07-.35.42Z"/>
                  <path class="cls-15" d="M39.61,29.96l-.08.15c-.13-.09-.25-.2-.35-.33-.08.03-.17.01-.24-.05-.11-.09-.12-.26-.03-.37v-.02c-.05-.16-.09-.33-.11-.51h.16c.01.15.05.3.1.43.05,0,.09,0,.14.02l.4-.48.12.11-.4.48c.05.09.05.2,0,.29.09.11.19.2.3.28h0Z"/>
                  <path class="cls-15" d="M39.49,29.87c.14.12.3.21.47.27l.04-.17c-.14-.05-.27-.12-.39-.21l-.12.11ZM39.41,30.02c.14.11.3.21.47.27l-.12.12c-.14-.05-.26-.13-.38-.21l.04-.18Z"/>
                  <path class="cls-15" d="M38.79,28.58v-.41c-.1-.03-.18-.13-.18-.25s.08-.22.18-.25v-.56s.16,0,.16,0v.56c.08.03.14.09.16.17h.43v.16h-.43c-.03.08-.08.14-.16.16v.41s-.16,0-.16,0"/>
                  <path class="cls-15" d="M38.82,28.99l-.16-.04-.02-.45.16-.06v.26c0,.1,0,.2.02.29h0ZM38.95,28.43l.16.04s0,.29,0,.23c0-.08.02.23.02.23l-.16.06c-.02-.09-.02-.19-.02-.28v-.27h0ZM38.79,26.7l-.16.05v.45l.16.05v-.55ZM38.95,26.7l.16.05v.45l-.16.05v-.55ZM39.41,27.84l.05-.17h.44l.05.17h-.53Z"/>
                </g>
                <path class="cls-14" d="M39.41,28l.05.17h.44l.05-.17h-.53Z"/>
                <g>
                  <path class="cls-15" d="M40.68,30.2c.12-.02.24-.06.35-.11l.08.15c-.13.06-.27.11-.42.13-.02.12-.13.21-.25.21s-.22-.09-.25-.21c-.16-.02-.3-.07-.44-.13l.08-.15c.12.06.25.09.38.11.03-.07.08-.12.15-.14v-.71h.16v.71c.07.02.13.07.16.14h0Z"/>
                  <path class="cls-15" d="M41.37,29.87c-.14.12-.3.21-.47.27l-.04-.17c.14-.05.27-.12.39-.21l.12.11ZM41.45,30.02c-.14.11-.3.21-.47.27l.12.12c.14-.05.26-.13.38-.21l-.04-.18ZM40.52,29.49l.16-.05v-.45l-.16-.05v.55ZM40.36,29.49l-.16-.05v-.45l.16-.05v.55Z"/>
                  <path class="cls-15" d="M40.93,26.13l.05.17h.44l.05-.17h-.53ZM40.93,25.96l.05-.17h.44l.05.17h-.53Z"/>
                </g>
              </g>
              <path class="cls-15" d="M39.41,28l.05.17h.44l.05-.17h-.53Z"/>
              <path class="cls-14" d="M40.93,28l.05.17h.44l.05-.17h-.53Z"/>
              <g>
                <path class="cls-3" d="M40.34,28.16s.01,0,.02,0v.78l-.16.05v.45l.16.05v.57c-.07.02-.12.07-.15.14-.09-.01-.17-.03-.25-.06l.04-.17c-.14-.05-.27-.12-.39-.21l-.12.11s.07.06.11.08c-.04-.03-.07-.05-.11-.08-.07-.06-.13-.12-.18-.18.06-.09.06-.2,0-.29l.31-.37.16.07.28-.35-.09-.15.37-.45ZM40.54,28.16l.45.55.12-.1.17.2-.12.11-.17-.2-.09-.11-.09.15.28.35.16-.07.31.37c-.05.09-.05.2,0,.29-.06.07-.12.13-.18.18-.03.03-.07.06-.11.08.04-.03.07-.05.11-.08l-.12-.11c-.12.09-.25.16-.39.21l.04.17c-.07.03-.15.05-.23.06-.03-.07-.09-.12-.16-.14v-.57l.17-.05v-.45l-.17-.05v-.77s.01,0,.02,0ZM42.07,28.57v.12c0,.05,0,.1,0,.15h-.16s0-.1,0-.15v-.12h.16Z"/>
                <path class="cls-3" d="M39.76,28.61l.12.1-.17.2-.12-.11.17-.2ZM40.36,29.09h.16v.26h-.16v-.26ZM39.61,29.96c.07.05.15.09.23.13l-.08.15c-.08-.04-.15-.08-.22-.13l.08-.15Z"/>
              </g>
              <path class="cls-15" d="M40.22,28.05s-.01-.03-.02-.05h-.4v-.16h.4s.01-.03.02-.04l-.49-.59.12-.11.48.58s.02,0,.03-.01v-.78h.16v.77s.02,0,.02,0l.47-.58.12.1-.47.58s.02.04.03.06h.38v.16h-.39s-.02.04-.02.05l.45.55-.12.11-.45-.56s-.01,0-.02,0v.92h-.16v-.92s-.01,0-.02,0l-.46.56-.12-.11.46-.56"/>
              <path class="cls-3" d="M39.01,29.46s.11-.05.15-.01c.05.04.05.11.01.16-.04.05-.11.05-.15.01-.05-.04-.05-.11-.01-.16h0ZM38.76,27.92c0-.06.05-.11.11-.11s.11.05.11.11-.05.11-.11.11-.11-.05-.11-.11Z"/>
              <path class="cls-15" d="M41.25,29.96l.08.15c.13-.09.25-.2.35-.33.08.03.17.01.24-.05.11-.09.12-.26.03-.37v-.02c.05-.16.09-.33.11-.51h-.16c-.01.15-.05.3-.1.43-.04,0-.09,0-.14.02l-.4-.48-.12.11.4.48c-.05.09-.05.2,0,.29-.09.11-.19.2-.3.28h0Z"/>
              <path class="cls-3" d="M41.84,29.46s-.11-.05-.15-.01c-.05.04-.05.11-.01.16.04.05.11.05.15.01.05-.04.05-.11.01-.16Z"/>
              <path class="cls-15" d="M42.05,28.99l.16-.04.02-.45-.16-.06v.26c0,.1,0,.2-.02.29h0ZM41.91,28.43l-.16.04s0,.29,0,.23c0-.08-.02.23-.02.23l.16.06c.02-.09.02-.19.02-.28v-.27M41.91,26.7l-.16.05v.45l.16.05v-.55ZM42.07,26.7l.16.05v.45l-.16.05v-.55ZM41.36,28.92l.09-.15-.28-.34-.16.07.35.42Z"/>
              <path class="cls-19" d="M38.77,26.05c0-.06.05-.11.11-.11s.11.05.11.11-.05.11-.11.11-.11-.05-.11-.11h0Z"/>
              <path class="cls-3" d="M41.88,27.92c0-.06.05-.11.11-.11s.11.05.11.11-.05.11-.11.11-.11-.05-.11-.11Z"/>
              <path class="cls-15" d="M41.46,27.84l-.05-.17h-.44l-.05.17h.53ZM41.46,28l-.05.17h-.44l-.05-.17h.53Z"/>
              <path class="cls-3" d="M40.33,30.31c0-.06.05-.11.11-.11s.11.05.11.11-.05.11-.11.11-.11-.05-.11-.11ZM41.88,26.05c0-.06.05-.11.11-.11s.11.05.11.11-.05.11-.11.11-.11-.05-.11-.11ZM40.32,26.05c0-.06.05-.11.11-.11s.11.05.11.11-.05.11-.11.11-.11-.05-.11-.11Z"/>
              <g>
                <path class="cls-15" d="M38.98,26.29l.59.72.12-.11-.59-.71s.02-.04.03-.06h.43v-.16h-.43c-.03-.11-.13-.18-.24-.18-.14,0-.25.12-.25.26,0,.11.07.21.17.25v.55s.16,0,.16,0v-.55s.02,0,.03,0Z"/>
                <path class="cls-15" d="M39.59,26.79l.16-.07.28.34-.09.15-.35-.42ZM39.47,26.9l-.09.15.28.34.16-.07-.35-.42Z"/>
              </g>
              <path class="cls-15" d="M40.36,26.49l-.16.05v.45l.16.05v-.55ZM40.51,26.49l.16.05v.45l-.16.05v-.55Z"/>
              <path class="cls-12" d="M40.18,27.92c0-.15.11-.26.25-.26s.25.12.25.26-.11.26-.25.26-.25-.12-.25-.26"/>
            </g>
            <path class="cls-8" d="M38.51,25.45h.38v-.1h-.38v.1Z"/>
            <path class="cls-14" d="M38.51,25.45h.38v-.1h-.38v.1Z"/>
            <g>
              <path class="cls-17" d="M38.46,30.05c.18.06.27.21.27.38,0,.23-.2.4-.46.4s-.47-.17-.47-.4c0-.17.09-.36.27-.38,0,0,0-.02-.02-.05-.02-.02-.06-.06-.06-.06,0,0,.07-.01.11,0,.04.02.07.04.07.04,0,0,.02-.04.05-.07.03-.03.06-.05.06-.05,0,0,.04.04.05.06.01.03.02.06.02.06,0,0,.04-.03.07-.05.03-.01.07-.02.07-.02,0,0-.01.04-.02.07,0,.02-.01.03-.01.05v.02s0,0,0,0Z"/>
              <path class="cls-12" d="M38.24,31.08s-.35-.25-.5-.29c-.19-.04-.41,0-.5-.01,0,0,.11.09.16.14.05.05.21.16.3.18.28.08.54-.02.54-.02M38.34,31.1s.22-.25.45-.29c.27-.04.45.02.56.06,0,0-.09.05-.14.08-.05.04-.17.15-.36.15-.19,0-.4-.02-.43-.02-.03,0-.06,0-.09.01"/>
              <path class="cls-3" d="M38.23,30.74c-.09-.09-.1-.16-.1-.3s.05-.26.14-.35c.09.09.14.22.14.35,0,.14,0,.21-.09.3l-.05.04-.04-.03Z"/>
              <path class="cls-12" d="M38.18,31.28s.06-.12.06-.25c0-.1-.01-.21-.01-.21h.07s.03.11.03.21-.02.22-.02.22c0,0-.05,0-.06.02-.02,0-.06.03-.06.03h-.03s0-.02,0-.02Z"/>
            </g>
          </g>
          <path class="cls-27" d="M38.23,25.46h4.39v-5.3h-4.39v5.3Z"/>
          <path class="cls-19" d="M38.23,25.46h4.39v-5.3h-4.39v5.3Z"/>
          <g>
            <path class="cls-3" d="M40.97,24.77s-.05.06-.03.11c.02.05.05.1.05.1,0,0,0-.08.02-.1.03-.03.09-.04.09-.04,0,0-.05-.05-.06-.05-.01,0-.07-.03-.07-.03h0ZM41.24,24.86s-.03.07.02.12c.05.05.1.05.1.05,0,0-.04-.08-.03-.12.01-.04.05-.07.05-.07,0,0-.06-.02-.07-.02,0,0-.07.03-.07.03h0ZM40.48,21.55v-.06s.01-.03.01-.03c0,0-.14.01-.21-.01-.07-.02-.14-.06-.21-.12-.07-.06-.1-.1-.15-.11-.12-.02-.21.04-.21.04,0,0,.09.04.16.12.07.09.14.13.17.15.05.02.23,0,.28,0,.05,0,.16.02.16.02h0s0,0,0,0Z"/>
            <path class="cls-9" d="M40.23,21.64l.03-.05.03.05h-.06M40.3,21.63l.03-.05.04.05h-.07M40.27,21.32l.07.03-.06.04v-.06M40.36,21.35l.06.02-.05.04v-.06Z"/>
            <path class="cls-18" d="M41.14,21.34s0,.07,0,.13c0,.06-.02.12,0,.15,0,.04.01.06.03.09.01.03.02.09.02.09,0,0-.03-.03-.06-.05-.02-.01-.03-.03-.05-.04,0,0,0,.07,0,.1,0,.03.02.08.04.12.03.03.08.08.09.13.02.04.01.14.01.14,0,0-.04-.07-.08-.08-.03-.01-.11-.06-.11-.06,0,0,.07.08.07.15s-.03.15-.03.15c0,0-.03-.06-.07-.11-.04-.04-.1-.08-.1-.08,0,0,.04.11.04.19s-.01.23-.01.23c0,0-.03-.06-.07-.09-.03-.03-.08-.06-.09-.07-.01-.02.04.06.05.11,0,.05.03.22.17.45.08.13.21.36.48.28.27-.07.17-.47.11-.66-.06-.19-.09-.39-.08-.46,0-.07.05-.28.04-.32,0-.04-.02-.19.01-.31.03-.13.06-.18.08-.23.02-.05.03-.08.04-.13,0-.05,0-.13,0-.13,0,0,.05.1.06.14.01.04.01.14.01.14,0,0,0-.11.09-.16.08-.05.16-.11.19-.14.02-.03.03-.05.03-.05,0,0,0,.18-.05.25-.03.05-.15.2-.15.2,0,0,.06-.03.11-.03.04,0,.08,0,.08,0,0,0-.05.05-.12.16-.07.11-.04.12-.09.21-.05.09-.09.09-.15.15-.09.08-.04.41-.03.46.01.05.18.45.18.55,0,.1.02.32-.14.46-.1.09-.27.09-.31.12-.04.03-.11.11-.11.28s.06.2.1.24c.04.04.1.02.11.05.01.03.02.05.04.07.02.02.03.04.03.08,0,.04-.08.12-.1.18-.03.06-.08.21-.08.23s0,.09.02.13c0,0,.08.1.03.12-.03.01-.07-.02-.08-.02-.05.01-.07.05-.09.04-.03,0-.03-.02-.03-.07,0-.05,0-.07-.02-.07-.02,0-.03.02-.03.04,0,.03,0,.08-.03.08s-.05-.04-.07-.05c-.02,0-.07-.02-.08-.05,0-.03.03-.08.07-.09.03,0,.07-.03.04-.05-.02-.02-.04-.02-.07,0-.02.02-.07,0-.07-.03,0-.03,0-.06,0-.08,0-.02-.04-.05,0-.08.05-.03.07.03.12.02.05,0,.08-.03.09-.06.02-.03.02-.1-.02-.14-.03-.04-.07-.05-.08-.08-.01-.03-.03-.09-.03-.09,0,0,0,.11,0,.13,0,.02,0,.08,0,.08,0,0-.03-.04-.06-.07-.03-.03-.06-.13-.06-.13,0,0,0,.09,0,.13s.04.07.03.08c-.01.01-.07-.07-.09-.08-.02-.01-.07-.06-.09-.1-.02-.05-.04-.11-.04-.13,0-.02-.02-.12,0-.15.02-.04.04-.11.04-.11h-.12c-.07,0-.11-.02-.14.03-.03.05-.01.15.02.27.03.13.05.19.04.21,0,.02-.05.07-.07.08-.02.01-.06,0-.08,0-.02,0-.05-.03-.11-.03s-.1,0-.12,0c-.02,0-.08-.04-.1-.03-.03,0-.07.03-.06.07.02.06-.02.07-.04.07-.03,0-.05-.01-.08-.02-.03-.01-.08,0-.07-.04,0-.04.02-.04.03-.07.02-.03.02-.05,0-.05-.02,0-.04,0-.06.01-.02.02-.04.05-.07.04-.02-.01-.04-.04-.04-.1s-.06-.11,0-.11c.05,0,.12.05.14.01.01-.03,0-.05-.02-.07-.03-.03-.07-.04-.03-.07.04-.03.05-.03.06-.05.01-.02.04-.07.06-.06.05.03,0,.07.06.13.05.07.09.09.18.08.09-.01.12-.02.12-.05s0-.08-.01-.1c0-.02.01-.09.01-.09,0,0-.04.03-.05.06-.01.03-.04.08-.04.08,0,0-.01-.06,0-.1,0-.03.01-.07,0-.08,0-.03-.02-.09-.02-.09,0,0-.01.07-.02.09,0,.02-.01.1-.01.1,0,0-.06-.06-.04-.15.01-.07,0-.17,0-.2.02-.03.07-.16.18-.16.11,0,.2,0,.24,0,.04,0,.18-.03.18-.03,0,0-.26-.14-.32-.19-.06-.04-.15-.15-.18-.21-.03-.05-.06-.15-.06-.15,0,0-.05,0-.09.03-.04.02-.08.06-.11.09-.02.03-.06.1-.06.1,0,0,0-.09,0-.12s0-.08,0-.08c0,0-.03.12-.09.17-.06.05-.13.11-.13.11,0,0,0-.07,0-.08s.01-.09.01-.09c0,0-.04.07-.11.08-.06.01-.16,0-.17.05,0,.04.02.1,0,.13-.01.03-.05.05-.05.05,0,0-.04-.03-.07-.04-.03,0-.06.02-.06.02,0,0-.03-.04-.02-.06.01-.03.06-.06.05-.08-.01-.02-.05,0-.08.02-.02.01-.08.03-.07-.02,0-.04.02-.07,0-.1-.01-.03,0-.05.02-.06.02,0,.1,0,.11-.02,0-.02-.02-.05-.07-.06-.05-.01-.08-.05-.05-.07s.03-.04.05-.06.02-.07.06-.05c.05.02.04.08.09.1.05.02.16,0,.19-.02.02-.02.1-.08.13-.09.03-.01.14-.11.14-.11,0,0-.07-.05-.09-.08-.02-.03-.07-.09-.09-.1-.02-.01-.13-.06-.17-.06-.04,0-.15-.05-.15-.05,0,0,.05-.02.07-.03s.06-.05.08-.05c.02,0,.02,0,.02,0,0,0-.11,0-.13-.01-.02,0-.09-.05-.11-.05s-.07.01-.07.01c0,0,.07-.05.12-.06.05,0,.1,0,.1,0,0,0-.08-.03-.1-.06-.02-.03-.04-.08-.05-.1-.01-.02-.02-.05-.05-.06-.03,0-.07.04-.1.03-.03,0-.05-.02-.05-.06,0-.04,0-.03,0-.05,0-.02-.05-.08-.01-.09.04-.01.12,0,.12,0,0-.02-.04-.06-.07-.08-.03-.02-.08-.05-.06-.07.03-.03.05-.04.07-.06.01-.02.03-.09.06-.07.03.02.08.12.1.11.02,0,.03-.08.02-.11,0-.03,0-.08.02-.08.02,0,.04.04.08.04.04,0,.1-.01.09.02,0,.03-.03.07-.05.1-.03.03-.04.1-.02.14.02.04.06.11.1.14.04.03.11.05.16.08.05.03.16.13.19.14.04.01.07.03.07.03,0,0,.04-.02.1-.02s.19.01.24-.01c.05-.02.11-.06.09-.11-.02-.05-.13-.09-.12-.13,0-.04.05-.04.12-.04.07,0,.16.01.17-.09.02-.1.02-.16-.07-.18-.09-.02-.16-.03-.18-.1-.02-.07-.03-.09-.02-.11.02-.02.05-.03.12-.04.07,0,.15,0,.17-.02.02-.02.03-.07.05-.09.03-.02.13-.04.13-.04,0,0,.13.07.24.16.11.09.2.21.2.21"/>
            <path class="cls-11" d="M40.23,21.27s-.01-.05-.02-.06c0-.01,0-.03,0-.03,0,0,.07,0,.07.02,0,.03-.02.03-.03.04,0,.01-.02.03-.02.03"/>
            <path class="cls-11" d="M40.58,21.13v-.04s.06,0,.09.03c.05.04.08.1.08.1,0,0-.05-.03-.07-.04,0,0-.02,0-.04,0s-.03-.01-.03-.02c0-.01,0-.03,0-.03h-.03s0,0,0,0Z"/>
            <path class="cls-20" d="M41.06,21.71s-.03-.05-.04-.06c0-.01-.02-.05-.02-.05"/>
            <path class="cls-16" d="M39.25,21.25s.04.03.07.04c.03,0,.07,0,.07,0s.02-.05,0-.09c-.02-.11-.11-.14-.11-.14,0,0,.03.07.01.1-.02.05-.06.08-.06.08"/>
            <path class="cls-3" d="M39.25,21.25s.04.03.07.04c.03,0,.07,0,.07,0s.02-.05,0-.09c-.02-.11-.11-.14-.11-.14,0,0,.03.07.01.1-.02.05-.06.08-.06.08h0Z"/>
            <path class="cls-16" d="M39.06,21.35s-.04-.07-.12-.06c-.08.01-.13.08-.13.08,0,0,.09,0,.11.01.03.02.04.08.04.08,0,0,.05-.03.06-.05.01-.02.03-.06.03-.06"/>
            <path class="cls-3" d="M39.06,21.35s-.04-.07-.12-.06c-.08.01-.13.08-.13.08,0,0,.09,0,.11.01.03.02.04.08.04.08,0,0,.05-.03.06-.05.01-.02.03-.06.03-.06Z"/>
            <path class="cls-16" d="M38.96,21.65s-.07.01-.1.06c-.04.05-.03.13-.03.13,0,0,.04-.05.08-.05s.1.02.1.02c0,0-.02-.05-.02-.08s-.03-.08-.03-.08"/>
            <path class="cls-3" d="M38.96,21.65s-.07.01-.1.06c-.04.05-.03.13-.03.13,0,0,.04-.05.08-.05s.1.02.1.02c0,0-.02-.05-.02-.08s-.03-.08-.03-.08Z"/>
            <path class="cls-6" d="M39.88,21.95s-.07.02-.1.06c-.03.05-.03.1-.03.1,0,0,.06-.05.14-.03.08.02.08.03.12.03.03,0,.11-.03.11-.03,0,0-.06.08-.06.14,0,.06.02.08.01.11,0,.07-.05.15-.05.15,0,0,.03-.02.09-.03.06-.02.12-.05.15-.08.03-.03.08-.1.08-.1,0,0-.01.09,0,.13.01.04.02.16.02.16,0,0,.04-.04.07-.06.02-.01.06-.04.08-.07.01-.02.03-.1.03-.1,0,0,0,.09.03.13.02.04.06.17.06.17,0,0,.02-.08.05-.11.03-.03.06-.08.06-.1,0-.03,0-.08,0-.08l.03.08M39.78,22.47s.04-.08.08-.1c.04-.03.09-.07.11-.08.01,0,.08-.04.08-.04M40.14,22.74s.09-.05.12-.07c.06-.04.1-.11.1-.11"/>
            <path class="cls-16" d="M39.18,22.61s-.04-.04-.1-.03c-.06.01-.11.09-.11.09,0,0,.05-.02.09,0,.03,0,.05.04.05.04,0,0,.03-.03.04-.04,0-.02.03-.05.03-.05"/>
            <path class="cls-3" d="M39.18,22.61s-.04-.04-.1-.03c-.06.01-.11.09-.11.09,0,0,.05-.02.09,0,.03,0,.05.04.05.04,0,0,.03-.03.04-.04,0-.02.03-.05.03-.05h0,0Z"/>
            <path class="cls-16" d="M39.11,22.89s-.05-.01-.1.03c-.05.04-.05.12-.05.12,0,0,.04-.04.08-.04.03,0,.08.03.08.03,0,0,0-.05,0-.06,0-.04-.01-.08-.01-.08"/>
            <path class="cls-3" d="M39.11,22.89s-.05-.01-.1.03c-.05.04-.05.12-.05.12,0,0,.04-.04.08-.04.03,0,.08.03.08.03,0,0,0-.05,0-.06,0-.04-.01-.08-.01-.08Z"/>
            <path class="cls-16" d="M39.24,23.15s0,.08.03.12c.03.05.1.06.1.06,0,0-.02-.05-.02-.08,0-.04.03-.07.03-.07,0,0-.03-.04-.06-.04s-.07,0-.07,0"/>
            <path class="cls-3" d="M39.24,23.15s0,.08.03.12c.03.05.1.06.1.06,0,0-.02-.05-.02-.08,0-.04.03-.07.03-.07,0,0-.03-.04-.06-.04s-.07,0-.07,0h0Z"/>
            <path class="cls-19" d="M40.69,23.28s.18.12.17.22c0,.1-.1.23-.1.23"/>
            <path class="cls-16" d="M39.88,23.82s-.04-.06-.11-.06c-.06,0-.13.07-.13.07,0,0,.08,0,.1.02.02.03.04.06.04.06,0,0,.03-.02.05-.03.01-.01.05-.06.05-.06"/>
            <path class="cls-3" d="M39.88,23.82s-.04-.06-.11-.06c-.06,0-.13.07-.13.07,0,0,.08,0,.1.02.02.03.04.06.04.06,0,0,.03-.02.05-.03.01-.01.05-.06.05-.06h0Z"/>
            <path class="cls-16" d="M39.69,24.09s-.08-.01-.12.03c-.04.05-.04.13-.04.13,0,0,.05-.06.09-.05.04,0,.09.03.09.03,0,0,0-.05-.01-.07,0-.02-.02-.07-.02-.07"/>
            <path class="cls-3" d="M39.69,24.09s-.08-.01-.12.03c-.04.05-.04.13-.04.13,0,0,.05-.06.09-.05.04,0,.09.03.09.03,0,0,0-.05-.01-.07,0-.02-.02-.07-.02-.07Z"/>
            <path class="cls-16" d="M39.86,24.37s-.04.06,0,.11c.03.05.09.07.09.07,0,0-.02-.04-.01-.08,0-.03.06-.08.06-.08l-.13-.03"/>
            <g>
              <path class="cls-3" d="M39.86,24.37s-.04.06,0,.11c.03.05.09.07.09.07,0,0-.02-.04-.01-.08,0-.03.06-.08.06-.08l-.13-.03h0s0,0,0,0ZM40.94,24.49s-.07-.02-.11,0c-.04.03-.07.13-.07.13,0,0,.06-.06.11-.05.05,0,.08.03.08.03,0,0,0-.04,0-.07,0-.02-.01-.04-.01-.04"/>
              <path class="cls-3" d="M40.94,24.49s-.07-.02-.11,0c-.04.03-.07.13-.07.13,0,0,.06-.06.11-.05.05,0,.08.03.08.03,0,0,0-.04,0-.07,0-.02-.01-.04-.01-.04h0Z"/>
            </g>
            <g>
              <g>
                <path class="cls-15" d="M41.09,20.93h-.03s-.01.02-.02.04c-.02.02-.06.03-.07,0,0-.01-.01-.02-.01-.04-.01,0-.03,0-.04,0-.02-.01-.03-.05-.01-.08,0,0,0-.01,0-.02v-.03s-.03,0-.03,0v.02s-.06.03-.07.02c0,0,0-.01-.01-.02,0,0,0,0-.02.01-.05.01-.07-.1-.07-.13l-.02.02s.01.07,0,.12c0,.06-.03.11-.03.11.07.02.16.08.26.16.1.08.17.17.2.23,0,0,.05-.03.1-.05.05-.02.12-.02.12-.02l.02-.02s-.14,0-.14-.04c0,0,0,0,0-.02-.02,0-.02,0-.03,0-.02-.01-.02-.04,0-.07h.02s0-.04,0-.04h-.03s0,.01-.01.02c-.02.02-.06.02-.07,0-.01-.01-.01-.03,0-.04-.01,0-.03,0-.04,0-.02-.01-.03-.05,0-.08,0-.01.02-.03.03-.03v-.03"/>
                <path class="cls-15" d="M40.97,21.07l-.03-.02s0-.01,0-.02c0,0,.01,0,.02,0l.03.02.03.02s0,.01,0,.02c0,0-.01,0-.02,0l-.03-.02M40.82,20.96h-.02s0-.03,0-.03c0,0,0,0,.01,0h.02s.02.03.02.03c0,0,0,.01,0,.02,0,0,0,0-.02,0h-.02"/>
              </g>
              <ellipse class="cls-15" cx="41.05" cy="21.13" rx=".01" ry=".02" transform="translate(-1.26 39.6) rotate(-50.82)"/>
              <path class="cls-15" d="M41.11,21.2l.02.02s.01,0,.02,0c0,0,0-.01,0-.01l-.02-.02-.02-.02s-.01,0-.02,0c0,0,0,.01,0,.02l.02.02"/>
              <ellipse class="cls-15" cx="41.18" cy="21.27" rx=".01" ry=".02" transform="translate(-4.99 25.35) rotate(-32.37)"/>
              <g>
                <path class="cls-15" d="M40.96,20.71h-.05s-.01.08-.01.08h0s.01.01.01.01l.07-.05s-.02-.03-.02-.05Z"/>
                <path class="cls-15" d="M40.82,20.75v.05s.08.01.08.01h.01s0-.02,0-.02l-.05-.07s-.03.02-.04.03h0Z"/>
                <path class="cls-15" d="M40.98,20.86l-.04.03-.05-.07h0s.01-.02.01-.02h.08s0,.04,0,.06Z"/>
                <circle class="cls-15" cx="40.9" cy="20.8" r=".03"/>
                <path class="cls-15" d="M40.69,20.71s-.01-.04-.02-.07c0-.02-.03-.04-.03-.04,0,0,.04-.02.08,0,.03.03,0,.08,0,.08,0,0,0,.01-.02.02"/>
                <path class="cls-15" d="M40.78,20.74l-.04.03-.06-.06h0s0-.02,0-.02h.08s0,.03,0,.04h0Z"/>
                <path class="cls-15" d="M40.68,20.71s0-.03.02-.03c0,0,.02.01.02.03,0,.01,0,.03-.02.03-.01,0-.02-.01-.02-.03M41.16,20.84h-.05s-.02.07-.02.07h0s.01.01.01.01l.07-.04s-.01-.03-.02-.05h0Z"/>
                <path class="cls-15" d="M41.01,20.87v.05s.07.02.07.02h.01s0-.02,0-.02l-.04-.07s-.03.01-.05.02Z"/>
                <path class="cls-15" d="M41.16,20.99l-.05.02-.04-.07h0s.01-.02.01-.02l.08.02s0,.03,0,.05Z"/>
                <circle class="cls-15" cx="41.08" cy="20.93" r=".03"/>
                <path class="cls-15" d="M41.33,21.02v.05s-.07.03-.07.03h-.01s0-.02,0-.02l.03-.08s.03,0,.05.01Z"/>
                <path class="cls-15" d="M41.31,21.17h-.05s-.03-.07-.03-.07h0s.01-.02.01-.02l.07.03s0,.03-.02.05Z"/>
                <path class="cls-15" d="M41.18,21.02l-.02.05.07.03h.01s0-.02,0-.02l-.03-.08s-.03,0-.05.01Z"/>
                <circle class="cls-15" cx="41.25" cy="21.09" r=".03"/>
                <path class="cls-15" d="M41.38,21.28s.04,0,.07,0c.02,0,.05.03.05.03,0,0,0-.04-.02-.07-.03-.03-.08.02-.08.02,0,0-.01.01-.01.02"/>
                <path class="cls-15" d="M41.34,21.2l-.03.04.07.05h0s.01-.01.01-.01v-.08s-.04,0-.06,0Z"/>
                <path class="cls-15" d="M41.39,21.3s.02-.01.02-.02c0-.01-.02-.02-.03-.01-.01,0-.02.01-.02.02,0,0,.02.02.03.01"/>
              </g>
            </g>
          </g>
          <path class="cls-24" d="M40.63,21.15s0,0,0,.01c0,0,0,0,0,0,.02,0,.02,0,.03,0,0-.01,0-.01-.02-.02,0,0-.01,0-.01,0Z"/>
          <g>
            <ellipse class="cls-15" cx="40.74" cy="20.9" rx=".01" ry=".02" transform="translate(-.23 41.35) rotate(-53.68)"/>
            <ellipse class="cls-15" cx="40.9" cy="21.01" rx=".01" ry=".02" transform="translate(-.25 41.52) rotate(-53.68)"/>
          </g>
          <path class="cls-31" d="M36.83,25.44c0-.96.63-1.74,1.42-1.74s1.42.78,1.42,1.74-.63,1.74-1.42,1.74-1.42-.78-1.42-1.74"/>
          <path class="cls-3" d="M36.83,25.44c0-.96.63-1.74,1.42-1.74s1.42.78,1.42,1.74-.63,1.74-1.42,1.74-1.42-.78-1.42-1.74Z"/>
          <path class="cls-26" d="M37.25,25.44c0-.7.45-1.27,1-1.27s1,.57,1,1.27-.45,1.28-1,1.28-1-.57-1-1.28"/>
          <g>
            <path class="cls-21" d="M37.25,25.44c0-.7.45-1.27,1-1.27s1,.57,1,1.27-.45,1.28-1,1.28-1-.57-1-1.28h0Z"/>
            <g>
              <path class="cls-15" d="M37.77,24.56s-.12.14-.12.27.05.24.05.24c-.02-.05-.07-.09-.12-.09-.07,0-.13.06-.13.13,0,.02.01.06.02.07l.04.09s.05-.05.09-.05c.05,0,.09.04.09.1,0,0,0,.02,0,.02h-.11v.1h.09l-.07.15.09-.04.07.09.07-.09.09.04-.07-.15h.09v-.1h-.11s0-.02,0-.02c0-.05.04-.1.09-.1.04,0,.07.02.09.05l.04-.09s.02-.05.02-.07c0-.07-.06-.13-.13-.13-.06,0-.1.04-.12.09,0,0,.05-.11.05-.24s-.12-.27-.12-.27"/>
              <path class="cls-15" d="M37.59,25.45h.38v-.1h-.38v.1ZM38.7,24.56s-.12.14-.12.27.05.24.05.24c-.02-.05-.07-.09-.12-.09-.07,0-.13.06-.13.13,0,.02.01.06.02.07l.04.09s.05-.05.09-.05c.05,0,.09.04.09.1,0,0,0,.02,0,.02h-.11v.1h.09l-.07.15.09-.04.07.09.07-.09.09.04-.07-.15h.09v-.1h-.11s0-.02,0-.02c0-.05.04-.1.09-.1.04,0,.07.02.09.05l.04-.09s.02-.05.02-.07c0-.07-.06-.13-.13-.13-.06,0-.11.04-.12.09,0,0,.05-.11.05-.24s-.12-.27-.12-.27M38.24,25.43s-.12.14-.12.27.05.24.05.24c-.02-.05-.07-.09-.12-.09-.07,0-.13.06-.13.13,0,.02.01.06.02.07l.04.09s.05-.05.09-.05c.05,0,.09.04.09.1,0,0,0,.02,0,.02h-.11v.1h.1l-.07.15.09-.04.07.09.07-.09.09.04-.07-.15h.1v-.1h-.11s0-.02,0-.02c0-.05.04-.1.09-.1.04,0,.07.02.09.05l.04-.09s.02-.05.02-.07c0-.07-.06-.13-.13-.13-.06,0-.1.04-.12.09,0,0,.05-.11.05-.24s-.12-.27-.12-.27"/>
              <path class="cls-15" d="M38.05,26.32h.38v-.1h-.38v.1ZM38.51,25.45h.38v-.1h-.38v.1Z"/>
            </g>
          </g>
        </g>
        <g>
          <path class="cls-19" d="M38.25,31.46c-1.14,0-2.27-.3-3.22-.81-.7-.38-1.17-1.14-1.17-2.01v-8.47s8.76,0,8.76,0v5.3s0,3.17,0,3.17c0,.87-.46,1.64-1.17,2.01-.95.51-2.06.81-3.21.81h0Z"/>
          <rect class="cls-15" x="43.74" y="29.53" width="2" height=".55"/>
          <rect class="cls-15" x="30.73" y="29.53" width="2" height=".55"/>
        </g>
      </g>
    </g>
  </g>
</svg>