<?xml version="1.0" encoding="UTF-8"?>
<svg id="Layer_2" data-name="Layer 2" xmlns="http://www.w3.org/2000/svg" viewBox="0 0 114.55 45">
  <defs>
    <style>
      .cls-1 {
        fill: #fff;
      }

      .cls-2 {
        fill: #da0000;
      }

      .cls-3 {
        fill: #239f40;
      }
    </style>
  </defs>
  <g id="Layer_1-2" data-name="Layer 1">
    <path class="cls-3" d="M0,0h114.55v45H0V0Z"/>
    <path class="cls-2" d="M0,22.5h114.55v22.5H0v-22.5Z"/>
    <path class="cls-1" d="M0,15h114.55v15H0v-15Z"/>
    <g>
      <rect class="cls-1" x="1.52" y="12.55" width="4.54" height=".35"/>
      <polygon class="cls-1" points="1.87 13.6 2.92 13.6 2.92 14.3 4.67 14.3 4.67 13.25 3.62 13.25 3.62 13.6 4.32 13.6 4.32 13.95 3.27 13.95 3.27 13.25 1.52 13.25 1.52 14.3 1.87 14.3 1.87 13.6"/>
      <rect class="cls-1" x="2.22" y="13.95" width=".35" height=".35"/>
      <polygon class="cls-1" points="7.81 13.95 7.46 13.95 7.46 12.55 7.11 12.55 7.11 13.95 6.77 13.95 6.77 12.55 6.42 12.55 6.42 13.25 5.02 13.25 5.02 14.3 6.07 14.3 6.07 13.95 5.37 13.95 5.37 13.6 6.42 13.6 6.42 14.3 8.16 14.3 8.16 12.55 7.81 12.55 7.81 13.95"/>
      <rect class="cls-1" x="1.52" y="14.65" width="3.15" height=".7"/>
      <rect class="cls-1" x="5.02" y="14.65" width="3.15" height=".7"/>
      <rect class="cls-1" x="1.52" y="29.65" width="3.15" height=".7"/>
      <rect class="cls-1" x="5.02" y="29.65" width="3.15" height=".7"/>
      <rect class="cls-1" x="1.52" y="30.7" width="4.54" height=".35"/>
      <polygon class="cls-1" points="7.81 32.09 7.46 32.09 7.46 30.7 7.11 30.7 7.11 32.09 6.77 32.09 6.77 30.7 6.42 30.7 6.42 31.4 5.02 31.4 5.02 32.44 6.07 32.44 6.07 32.09 5.37 32.09 5.37 31.75 6.42 31.75 6.42 32.44 8.16 32.44 8.16 30.7 7.81 30.7 7.81 32.09"/>
      <rect class="cls-1" x="2.22" y="32.09" width=".35" height=".35"/>
      <polygon class="cls-1" points="3.62 31.75 4.32 31.75 4.32 32.09 3.27 32.09 3.27 31.4 1.52 31.4 1.52 32.44 1.87 32.44 1.87 31.75 2.92 31.75 2.92 32.44 4.67 32.44 4.67 31.4 3.62 31.4 3.62 31.75"/>
      <rect class="cls-1" x="9.21" y="13.95" width=".35" height=".35"/>
      <polygon class="cls-1" points="14.8 13.95 14.45 13.95 14.45 12.55 14.11 12.55 14.11 13.95 13.76 13.95 13.76 12.55 13.41 12.55 13.41 13.25 12.01 13.25 12.01 14.3 13.06 14.3 13.06 13.95 12.36 13.95 12.36 13.6 13.41 13.6 13.41 14.3 15.15 14.3 15.15 12.55 14.8 12.55 14.8 13.95"/>
      <polygon class="cls-1" points="8.86 13.6 9.91 13.6 9.91 14.3 11.66 14.3 11.66 13.25 10.61 13.25 10.61 13.6 11.31 13.6 11.31 13.95 10.26 13.95 10.26 13.25 8.51 13.25 8.51 14.3 8.86 14.3 8.86 13.6"/>
      <rect class="cls-1" x="8.51" y="12.55" width="4.54" height=".35"/>
      <rect class="cls-1" x="12.01" y="14.65" width="3.15" height=".7"/>
      <rect class="cls-1" x="8.51" y="14.65" width="3.15" height=".7"/>
      <rect class="cls-1" x="12.01" y="29.65" width="3.15" height=".7"/>
      <rect class="cls-1" x="8.51" y="29.65" width="3.15" height=".7"/>
      <rect class="cls-1" x="8.51" y="30.7" width="4.54" height=".35"/>
      <polygon class="cls-1" points="14.8 32.09 14.45 32.09 14.45 30.7 14.11 30.7 14.11 32.09 13.76 32.09 13.76 30.7 13.41 30.7 13.41 31.4 12.01 31.4 12.01 32.44 13.06 32.44 13.06 32.09 12.36 32.09 12.36 31.75 13.41 31.75 13.41 32.44 15.15 32.44 15.15 30.7 14.8 30.7 14.8 32.09"/>
      <polygon class="cls-1" points="10.61 31.75 11.31 31.75 11.31 32.09 10.26 32.09 10.26 31.4 8.51 31.4 8.51 32.44 8.86 32.44 8.86 31.75 9.91 31.75 9.91 32.44 11.66 32.44 11.66 31.4 10.61 31.4 10.61 31.75"/>
      <rect class="cls-1" x="9.21" y="32.09" width=".35" height=".35"/>
      <polygon class="cls-1" points="21.8 13.95 21.45 13.95 21.45 12.55 21.1 12.55 21.1 13.95 20.75 13.95 20.75 12.55 20.4 12.55 20.4 13.25 19 13.25 19 14.3 20.05 14.3 20.05 13.95 19.35 13.95 19.35 13.6 20.4 13.6 20.4 14.3 22.14 14.3 22.14 12.55 21.8 12.55 21.8 13.95"/>
      <rect class="cls-1" x="15.5" y="12.55" width="4.54" height=".35"/>
      <polygon class="cls-1" points="18.65 14.3 18.65 13.25 17.6 13.25 17.6 13.6 18.3 13.6 18.3 13.95 17.25 13.95 17.25 13.25 15.5 13.25 15.5 14.3 15.85 14.3 15.85 13.6 16.9 13.6 16.9 14.3 18.65 14.3"/>
      <rect class="cls-1" x="16.2" y="13.95" width=".35" height=".35"/>
      <rect class="cls-1" x="19" y="14.65" width="3.15" height=".7"/>
      <rect class="cls-1" x="15.5" y="14.65" width="3.15" height=".7"/>
      <rect class="cls-1" x="15.5" y="29.65" width="3.15" height=".7"/>
      <rect class="cls-1" x="19" y="29.65" width="3.15" height=".7"/>
      <rect class="cls-1" x="15.5" y="30.7" width="4.54" height=".35"/>
      <rect class="cls-1" x="16.2" y="32.09" width=".35" height=".35"/>
      <polygon class="cls-1" points="17.6 31.75 18.3 31.75 18.3 32.09 17.25 32.09 17.25 31.4 15.5 31.4 15.5 32.44 15.85 32.44 15.85 31.75 16.9 31.75 16.9 32.44 18.65 32.44 18.65 31.4 17.6 31.4 17.6 31.75"/>
      <polygon class="cls-1" points="21.8 32.09 21.45 32.09 21.45 30.7 21.1 30.7 21.1 32.09 20.75 32.09 20.75 30.7 20.4 30.7 20.4 31.4 19 31.4 19 32.44 20.05 32.44 20.05 32.09 19.35 32.09 19.35 31.75 20.4 31.75 20.4 32.44 22.14 32.44 22.14 30.7 21.8 30.7 21.8 32.09"/>
      <rect class="cls-1" x="23.19" y="13.95" width=".35" height=".35"/>
      <rect class="cls-1" x="22.49" y="12.55" width="4.54" height=".35"/>
      <polygon class="cls-1" points="22.84 13.6 23.89 13.6 23.89 14.3 25.64 14.3 25.64 13.25 24.59 13.25 24.59 13.6 25.29 13.6 25.29 13.95 24.24 13.95 24.24 13.25 22.49 13.25 22.49 14.3 22.84 14.3 22.84 13.6"/>
      <polygon class="cls-1" points="28.79 13.95 28.44 13.95 28.44 12.55 28.09 12.55 28.09 13.95 27.74 13.95 27.74 12.55 27.39 12.55 27.39 13.25 25.99 13.25 25.99 14.3 27.04 14.3 27.04 13.95 26.34 13.95 26.34 13.6 27.39 13.6 27.39 14.3 29.14 14.3 29.14 12.55 28.79 12.55 28.79 13.95"/>
      <rect class="cls-1" x="25.99" y="14.65" width="3.15" height=".7"/>
      <rect class="cls-1" x="22.49" y="14.65" width="3.15" height=".7"/>
      <rect class="cls-1" x="22.49" y="29.65" width="3.15" height=".7"/>
      <rect class="cls-1" x="25.99" y="29.65" width="3.15" height=".7"/>
      <polygon class="cls-1" points="28.79 32.09 28.44 32.09 28.44 30.7 28.09 30.7 28.09 32.09 27.74 32.09 27.74 30.7 27.39 30.7 27.39 31.4 25.99 31.4 25.99 32.44 27.04 32.44 27.04 32.09 26.34 32.09 26.34 31.75 27.39 31.75 27.39 32.44 29.14 32.44 29.14 30.7 28.79 30.7 28.79 32.09"/>
      <polygon class="cls-1" points="24.59 31.75 25.29 31.75 25.29 32.09 24.24 32.09 24.24 31.4 22.49 31.4 22.49 32.44 22.84 32.44 22.84 31.75 23.89 31.75 23.89 32.44 25.64 32.44 25.64 31.4 24.59 31.4 24.59 31.75"/>
      <rect class="cls-1" x="22.49" y="30.7" width="4.54" height=".35"/>
      <rect class="cls-1" x="23.19" y="32.09" width=".35" height=".35"/>
      <rect class="cls-1" x="30.18" y="13.95" width=".35" height=".35"/>
      <rect class="cls-1" x="29.48" y="12.55" width="4.54" height=".35"/>
      <polygon class="cls-1" points="35.78 13.95 35.43 13.95 35.43 12.55 35.08 12.55 35.08 13.95 34.73 13.95 34.73 12.55 34.38 12.55 34.38 13.25 32.98 13.25 32.98 14.3 34.03 14.3 34.03 13.95 33.33 13.95 33.33 13.6 34.38 13.6 34.38 14.3 36.13 14.3 36.13 12.55 35.78 12.55 35.78 13.95"/>
      <polygon class="cls-1" points="29.83 13.6 30.88 13.6 30.88 14.3 32.63 14.3 32.63 13.25 31.58 13.25 31.58 13.6 32.28 13.6 32.28 13.95 31.23 13.95 31.23 13.25 29.48 13.25 29.48 14.3 29.83 14.3 29.83 13.6"/>
      <rect class="cls-1" x="32.98" y="14.65" width="3.15" height=".7"/>
      <rect class="cls-1" x="29.48" y="14.65" width="3.15" height=".7"/>
      <rect class="cls-1" x="29.48" y="29.65" width="3.15" height=".7"/>
      <rect class="cls-1" x="32.98" y="29.65" width="3.15" height=".7"/>
      <polygon class="cls-1" points="35.78 32.09 35.43 32.09 35.43 30.7 35.08 30.7 35.08 32.09 34.73 32.09 34.73 30.7 34.38 30.7 34.38 31.4 32.98 31.4 32.98 32.44 34.03 32.44 34.03 32.09 33.33 32.09 33.33 31.75 34.38 31.75 34.38 32.44 36.13 32.44 36.13 30.7 35.78 30.7 35.78 32.09"/>
      <polygon class="cls-1" points="31.58 31.75 32.28 31.75 32.28 32.09 31.23 32.09 31.23 31.4 29.48 31.4 29.48 32.44 29.83 32.44 29.83 31.75 30.88 31.75 30.88 32.44 32.63 32.44 32.63 31.4 31.58 31.4 31.58 31.75"/>
      <rect class="cls-1" x="29.48" y="30.7" width="4.54" height=".35"/>
      <rect class="cls-1" x="30.18" y="32.09" width=".35" height=".35"/>
      <polygon class="cls-1" points="37.17 14.3 37.17 14.3 37.52 14.3 37.52 13.95 37.17 13.95 37.17 13.95 37.17 14.3"/>
      <polygon class="cls-1" points="37.17 32.09 37.17 32.44 37.17 32.44 37.52 32.44 37.52 32.09 37.17 32.09 37.17 32.09"/>
      <polygon class="cls-1" points="60.94 13.25 60.94 14.3 60.94 14.3 61.99 14.3 61.99 13.95 61.29 13.95 61.29 13.6 62.34 13.6 62.34 14.3 64.09 14.3 64.09 12.55 63.74 12.55 63.74 13.95 63.39 13.95 63.39 12.55 63.39 12.55 63.04 12.55 63.04 12.55 63.04 13.95 62.69 13.95 62.69 12.55 62.34 12.55 62.34 13.25 60.94 13.25 60.94 13.25"/>
      <polygon class="cls-1" points="58.15 14.3 58.15 14.3 58.5 14.3 58.5 13.95 58.15 13.95 58.15 13.95 58.15 14.3"/>
      <polygon class="cls-1" points="58.15 32.09 58.15 32.44 58.15 32.44 58.5 32.44 58.5 32.09 58.15 32.09 58.15 32.09"/>
      <polygon class="cls-1" points="65.14 14.3 65.14 14.3 65.49 14.3 65.49 13.95 65.14 13.95 65.14 13.95 65.14 14.3"/>
      <polygon class="cls-1" points="65.14 32.09 65.14 32.44 65.14 32.44 65.49 32.44 65.49 32.09 65.14 32.09 65.14 32.09"/>
      <polygon class="cls-1" points="36.83 13.6 37.87 13.6 37.87 14.3 39.62 14.3 39.62 13.25 38.57 13.25 38.57 13.6 39.27 13.6 39.27 13.95 38.22 13.95 38.22 13.25 38.22 13.25 36.48 13.25 36.48 14.3 36.83 14.3 36.83 13.6"/>
      <polygon class="cls-1" points="42.77 13.95 42.42 13.95 42.42 12.55 42.42 12.55 42.07 12.55 42.07 13.95 41.72 13.95 41.72 12.55 41.37 12.55 41.37 13.25 39.97 13.25 39.97 13.25 39.97 14.3 39.97 14.3 41.02 14.3 41.02 13.95 40.32 13.95 40.32 13.6 41.37 13.6 41.37 14.3 43.12 14.3 43.12 12.55 42.77 12.55 42.77 13.95"/>
      <rect class="cls-1" x="36.48" y="12.55" width="4.54" height=".35"/>
      <rect class="cls-1" x="36.48" y="14.65" width="3.15" height=".7"/>
      <rect class="cls-1" x="39.97" y="14.65" width="3.15" height=".7"/>
      <rect class="cls-1" x="39.97" y="29.65" width="3.15" height=".7"/>
      <rect class="cls-1" x="36.48" y="29.65" width="3.15" height=".7"/>
      <polygon class="cls-1" points="38.57 31.75 39.27 31.75 39.27 32.09 38.22 32.09 38.22 31.4 38.22 31.4 36.48 31.4 36.48 32.44 36.83 32.44 36.83 31.75 37.87 31.75 37.87 32.44 39.62 32.44 39.62 31.4 38.57 31.4 38.57 31.75"/>
      <polygon class="cls-1" points="42.77 32.09 42.42 32.09 42.42 30.7 42.42 30.7 42.07 30.7 42.07 32.09 41.72 32.09 41.72 30.7 41.37 30.7 41.37 31.4 39.97 31.4 39.97 31.4 39.97 32.44 39.97 32.44 41.02 32.44 41.02 32.09 40.32 32.09 40.32 31.75 41.37 31.75 41.37 32.44 43.12 32.44 43.12 30.7 42.77 30.7 42.77 32.09"/>
      <rect class="cls-1" x="36.48" y="30.7" width="4.54" height=".35"/>
      <rect class="cls-1" x="44.17" y="13.95" width=".35" height=".35"/>
      <polygon class="cls-1" points="49.76 13.95 49.41 13.95 49.41 12.55 49.06 12.55 49.06 13.95 48.71 13.95 48.71 12.55 48.71 12.55 48.36 12.55 48.36 12.55 48.36 13.25 46.96 13.25 46.96 14.3 48.01 14.3 48.01 13.95 47.31 13.95 47.31 13.6 48.36 13.6 48.36 14.3 48.36 14.3 50.11 14.3 50.11 12.55 49.76 12.55 49.76 13.95"/>
      <polygon class="cls-1" points="46.61 14.3 46.61 14.3 46.61 13.25 46.61 13.25 45.56 13.25 45.56 13.6 46.26 13.6 46.26 13.95 45.21 13.95 45.21 13.25 43.47 13.25 43.47 14.3 43.82 14.3 43.82 13.6 44.86 13.6 44.86 14.3 46.61 14.3"/>
      <polygon class="cls-1" points="48.01 12.9 48.01 12.55 43.47 12.55 43.47 12.55 43.47 12.9 43.47 12.9 48.01 12.9"/>
      <polygon class="cls-1" points="46.61 15.35 46.61 15.35 46.61 14.65 46.61 14.65 43.47 14.65 43.47 14.65 43.47 15.35 43.47 15.35 46.61 15.35"/>
      <rect class="cls-1" x="46.96" y="14.65" width="3.15" height=".7"/>
      <rect class="cls-1" x="46.96" y="29.65" width="3.15" height=".7"/>
      <polygon class="cls-1" points="46.61 30.35 46.61 30.35 46.61 29.65 46.61 29.65 43.47 29.65 43.47 29.65 43.47 30.35 43.47 30.35 46.61 30.35"/>
      <polygon class="cls-1" points="48.01 31.05 48.01 30.7 43.47 30.7 43.47 30.7 43.47 31.05 43.47 31.05 48.01 31.05"/>
      <polygon class="cls-1" points="45.56 31.4 45.56 31.75 46.26 31.75 46.26 32.09 45.21 32.09 45.21 31.4 43.47 31.4 43.47 32.44 43.82 32.44 43.82 31.75 44.86 31.75 44.86 32.44 46.61 32.44 46.61 32.44 46.61 31.4 46.61 31.4 45.56 31.4"/>
      <polygon class="cls-1" points="49.76 32.09 49.41 32.09 49.41 30.7 49.06 30.7 49.06 32.09 48.71 32.09 48.71 30.7 48.71 30.7 48.36 30.7 48.36 30.7 48.36 31.4 46.96 31.4 46.96 32.44 48.01 32.44 48.01 32.09 47.31 32.09 47.31 31.75 48.36 31.75 48.36 32.44 48.36 32.44 50.11 32.44 50.11 30.7 49.76 30.7 49.76 32.09"/>
      <rect class="cls-1" x="44.17" y="32.09" width=".35" height=".35"/>
      <rect class="cls-1" x="50.46" y="12.55" width="4.54" height=".35"/>
      <polygon class="cls-1" points="56.75 12.55 56.75 13.95 56.4 13.95 56.4 12.55 56.05 12.55 56.05 13.95 55.7 13.95 55.7 12.55 55.35 12.55 55.35 13.25 53.95 13.25 53.95 14.3 55 14.3 55 13.95 54.3 13.95 54.3 13.6 55.35 13.6 55.35 14.3 57.1 14.3 57.1 14.3 57.1 12.55 57.1 12.55 56.75 12.55"/>
      <polygon class="cls-1" points="50.81 14.3 50.81 13.6 51.86 13.6 51.86 14.3 53.6 14.3 53.6 13.25 52.55 13.25 52.55 13.6 53.25 13.6 53.25 13.95 52.2 13.95 52.2 13.25 50.46 13.25 50.46 13.25 50.46 14.3 50.46 14.3 50.81 14.3"/>
      <rect class="cls-1" x="51.16" y="13.95" width=".35" height=".35"/>
      <polygon class="cls-1" points="53.6 15.35 53.6 14.65 53.6 14.65 50.46 14.65 50.46 15.35 53.6 15.35 53.6 15.35"/>
      <polygon class="cls-1" points="53.95 14.65 53.95 15.35 57.1 15.35 57.1 15.35 57.1 14.65 57.1 14.65 53.95 14.65"/>
      <polygon class="cls-1" points="53.6 30.35 53.6 29.65 53.6 29.65 50.46 29.65 50.46 30.35 53.6 30.35 53.6 30.35"/>
      <polygon class="cls-1" points="53.95 29.65 53.95 30.35 57.1 30.35 57.1 30.35 57.1 29.65 57.1 29.65 53.95 29.65"/>
      <rect class="cls-1" x="51.16" y="32.09" width=".35" height=".35"/>
      <polygon class="cls-1" points="52.55 31.75 53.25 31.75 53.25 32.09 52.2 32.09 52.2 31.4 50.46 31.4 50.46 31.4 50.46 32.44 50.46 32.44 50.81 32.44 50.81 31.75 51.86 31.75 51.86 32.44 53.6 32.44 53.6 31.4 52.55 31.4 52.55 31.75"/>
      <polygon class="cls-1" points="56.75 30.7 56.75 32.09 56.4 32.09 56.4 30.7 56.05 30.7 56.05 32.09 55.7 32.09 55.7 30.7 55.35 30.7 55.35 31.4 53.95 31.4 53.95 32.44 55 32.44 55 32.09 54.3 32.09 54.3 31.75 55.35 31.75 55.35 32.44 57.1 32.44 57.1 32.44 57.1 30.7 57.1 30.7 56.75 30.7"/>
      <rect class="cls-1" x="50.46" y="30.7" width="4.54" height=".35"/>
      <polygon class="cls-1" points="57.8 13.6 58.85 13.6 58.85 14.3 58.85 14.3 60.59 14.3 60.59 13.25 59.54 13.25 59.54 13.6 60.24 13.6 60.24 13.95 59.2 13.95 59.2 13.25 57.45 13.25 57.45 14.3 57.8 14.3 57.8 13.6"/>
      <rect class="cls-1" x="57.45" y="12.55" width="4.54" height=".35"/>
      <rect class="cls-1" x="57.45" y="14.65" width="3.15" height=".7"/>
      <polygon class="cls-1" points="60.94 14.65 60.94 14.65 60.94 15.35 60.94 15.35 64.09 15.35 64.09 15.35 64.09 14.65 64.09 14.65 60.94 14.65"/>
      <polygon class="cls-1" points="60.94 29.65 60.94 29.65 60.94 30.35 60.94 30.35 64.09 30.35 64.09 30.35 64.09 29.65 64.09 29.65 60.94 29.65"/>
      <rect class="cls-1" x="57.45" y="29.65" width="3.15" height=".7"/>
      <polygon class="cls-1" points="59.54 31.75 60.24 31.75 60.24 32.09 59.2 32.09 59.2 31.4 57.45 31.4 57.45 32.44 57.8 32.44 57.8 31.75 58.85 31.75 58.85 32.44 58.85 32.44 60.59 32.44 60.59 31.4 59.54 31.4 59.54 31.75"/>
      <polygon class="cls-1" points="63.74 32.09 63.39 32.09 63.39 30.7 63.39 30.7 63.04 30.7 63.04 30.7 63.04 32.09 62.69 32.09 62.69 30.7 62.34 30.7 62.34 31.4 60.94 31.4 60.94 31.4 60.94 32.44 60.94 32.44 61.99 32.44 61.99 32.09 61.29 32.09 61.29 31.75 62.34 31.75 62.34 32.44 64.09 32.44 64.09 30.7 63.74 30.7 63.74 32.09"/>
      <rect class="cls-1" x="57.45" y="30.7" width="4.54" height=".35"/>
      <polygon class="cls-1" points="70.73 13.95 70.38 13.95 70.38 12.55 70.03 12.55 70.03 13.95 69.68 13.95 69.68 12.55 69.33 12.55 69.33 12.55 69.33 13.25 67.93 13.25 67.93 14.3 68.98 14.3 68.98 13.95 68.28 13.95 68.28 13.6 69.33 13.6 69.33 14.3 69.33 14.3 71.08 14.3 71.08 12.55 70.73 12.55 70.73 13.95"/>
      <polygon class="cls-1" points="64.79 13.6 65.84 13.6 65.84 14.3 67.58 14.3 67.58 14.3 67.58 13.25 67.58 13.25 66.54 13.25 66.54 13.6 67.23 13.6 67.23 13.95 66.19 13.95 66.19 13.25 64.44 13.25 64.44 14.3 64.79 14.3 64.79 13.6"/>
      <rect class="cls-1" x="64.44" y="12.55" width="4.54" height=".35"/>
      <rect class="cls-1" x="64.44" y="14.65" width="3.15" height=".7"/>
      <rect class="cls-1" x="67.93" y="14.65" width="3.15" height=".7"/>
      <rect class="cls-1" x="67.93" y="29.65" width="3.15" height=".7"/>
      <rect class="cls-1" x="64.44" y="29.65" width="3.15" height=".7"/>
      <polygon class="cls-1" points="66.54 31.4 66.54 31.75 67.23 31.75 67.23 32.09 66.19 32.09 66.19 31.4 64.44 31.4 64.44 32.44 64.79 32.44 64.79 31.75 65.84 31.75 65.84 32.44 67.58 32.44 67.58 32.44 67.58 31.4 67.58 31.4 66.54 31.4"/>
      <polygon class="cls-1" points="70.73 32.09 70.38 32.09 70.38 30.7 70.03 30.7 70.03 32.09 69.68 32.09 69.68 30.7 69.33 30.7 69.33 30.7 69.33 31.4 67.93 31.4 67.93 32.44 68.98 32.44 68.98 32.09 68.28 32.09 68.28 31.75 69.33 31.75 69.33 32.44 69.33 32.44 71.08 32.44 71.08 30.7 70.73 30.7 70.73 32.09"/>
      <rect class="cls-1" x="64.44" y="30.7" width="4.54" height=".35"/>
      <polygon class="cls-1" points="71.78 14.3 71.78 13.6 72.83 13.6 72.83 14.3 74.57 14.3 74.57 14.3 74.57 13.25 74.57 13.25 73.53 13.25 73.53 13.25 73.53 13.6 73.53 13.6 74.23 13.6 74.23 13.95 73.18 13.95 73.18 13.25 71.43 13.25 71.43 14.3 71.78 14.3 71.78 14.3"/>
      <polygon class="cls-1" points="77.72 12.55 77.72 12.55 77.72 13.95 77.37 13.95 77.37 12.55 77.02 12.55 77.02 13.95 76.67 13.95 76.67 12.55 76.32 12.55 76.32 12.55 76.32 13.25 74.92 13.25 74.92 14.3 75.97 14.3 75.97 13.95 75.27 13.95 75.27 13.6 76.32 13.6 76.32 14.3 76.32 14.3 78.07 14.3 78.07 14.3 78.07 12.55 78.07 12.55 77.72 12.55"/>
      <rect class="cls-1" x="71.43" y="12.55" width="4.54" height=".35"/>
      <rect class="cls-1" x="72.13" y="13.95" width=".35" height=".35"/>
      <polygon class="cls-1" points="74.57 15.35 74.57 14.65 74.57 14.65 71.43 14.65 71.43 15.35 74.57 15.35 74.57 15.35"/>
      <rect class="cls-1" x="74.92" y="14.65" width="3.15" height=".7"/>
      <polygon class="cls-1" points="74.57 30.35 74.57 29.65 74.57 29.65 71.43 29.65 71.43 30.35 74.57 30.35 74.57 30.35"/>
      <rect class="cls-1" x="74.92" y="29.65" width="3.15" height=".7"/>
      <rect class="cls-1" x="72.13" y="32.09" width=".35" height=".35"/>
      <polygon class="cls-1" points="73.53 31.4 73.53 31.4 73.53 31.75 73.53 31.75 74.23 31.75 74.23 32.09 73.18 32.09 73.18 31.4 71.43 31.4 71.43 32.44 71.78 32.44 71.78 32.44 71.78 31.75 72.83 31.75 72.83 32.44 74.57 32.44 74.57 32.44 74.57 31.4 74.57 31.4 73.53 31.4"/>
      <rect class="cls-1" x="71.43" y="30.7" width="4.54" height=".35"/>
      <polygon class="cls-1" points="77.72 30.7 77.72 30.7 77.72 32.09 77.37 32.09 77.37 30.7 77.02 30.7 77.02 32.09 76.67 32.09 76.67 30.7 76.32 30.7 76.32 30.7 76.32 31.4 74.92 31.4 74.92 32.44 75.97 32.44 75.97 32.09 75.27 32.09 75.27 31.75 76.32 31.75 76.32 32.44 76.32 32.44 78.07 32.44 78.07 32.44 78.07 30.7 78.07 30.7 77.72 30.7"/>
      <polygon class="cls-1" points="84.71 13.95 84.36 13.95 84.36 12.55 84.01 12.55 84.01 13.95 83.66 13.95 83.66 12.55 83.31 12.55 83.31 13.25 81.91 13.25 81.91 14.3 82.96 14.3 82.96 13.95 82.26 13.95 82.26 13.6 83.31 13.6 83.31 14.3 85.06 14.3 85.06 12.55 84.71 12.55 84.71 13.95"/>
      <rect class="cls-1" x="78.42" y="12.55" width="4.54" height=".35"/>
      <polygon class="cls-1" points="78.77 13.6 79.82 13.6 79.82 14.3 81.57 14.3 81.57 13.25 80.52 13.25 80.52 13.6 81.22 13.6 81.22 13.95 80.17 13.95 80.17 13.25 78.42 13.25 78.42 14.3 78.77 14.3 78.77 13.6"/>
      <rect class="cls-1" x="79.12" y="13.95" width=".35" height=".35"/>
      <rect class="cls-1" x="81.91" y="14.65" width="3.15" height=".7"/>
      <rect class="cls-1" x="78.42" y="14.65" width="3.15" height=".7"/>
      <rect class="cls-1" x="78.42" y="29.65" width="3.15" height=".7"/>
      <rect class="cls-1" x="81.91" y="29.65" width="3.15" height=".7"/>
      <rect class="cls-1" x="78.42" y="30.7" width="4.54" height=".35"/>
      <rect class="cls-1" x="79.12" y="32.09" width=".35" height=".35"/>
      <polygon class="cls-1" points="84.71 32.09 84.36 32.09 84.36 30.7 84.01 30.7 84.01 32.09 83.66 32.09 83.66 30.7 83.31 30.7 83.31 31.4 81.91 31.4 81.91 32.44 82.96 32.44 82.96 32.09 82.26 32.09 82.26 31.75 83.31 31.75 83.31 32.44 85.06 32.44 85.06 30.7 84.71 30.7 84.71 32.09"/>
      <polygon class="cls-1" points="80.52 31.75 81.22 31.75 81.22 32.09 80.17 32.09 80.17 31.4 78.42 31.4 78.42 32.44 78.77 32.44 78.77 31.75 79.82 31.75 79.82 32.44 81.57 32.44 81.57 31.4 80.52 31.4 80.52 31.75"/>
      <polygon class="cls-1" points="91.7 13.95 91.35 13.95 91.35 12.55 91 12.55 91 13.95 90.65 13.95 90.65 12.55 90.3 12.55 90.3 13.25 88.91 13.25 88.91 14.3 89.95 14.3 89.95 13.95 89.25 13.95 89.25 13.6 90.3 13.6 90.3 14.3 92.05 14.3 92.05 12.55 91.7 12.55 91.7 13.95"/>
      <rect class="cls-1" x="86.11" y="13.95" width=".35" height=".35"/>
      <rect class="cls-1" x="85.41" y="12.55" width="4.54" height=".35"/>
      <polygon class="cls-1" points="85.76 13.6 86.81 13.6 86.81 14.3 88.56 14.3 88.56 13.25 87.51 13.25 87.51 13.6 88.21 13.6 88.21 13.95 87.16 13.95 87.16 13.25 85.41 13.25 85.41 14.3 85.76 14.3 85.76 13.6"/>
      <rect class="cls-1" x="85.41" y="14.65" width="3.15" height=".7"/>
      <rect class="cls-1" x="88.91" y="14.65" width="3.15" height=".7"/>
      <rect class="cls-1" x="85.41" y="29.65" width="3.15" height=".7"/>
      <rect class="cls-1" x="88.91" y="29.65" width="3.15" height=".7"/>
      <rect class="cls-1" x="85.41" y="30.7" width="4.54" height=".35"/>
      <rect class="cls-1" x="86.11" y="32.09" width=".35" height=".35"/>
      <polygon class="cls-1" points="91.7 32.09 91.35 32.09 91.35 30.7 91 30.7 91 32.09 90.65 32.09 90.65 30.7 90.3 30.7 90.3 31.4 88.91 31.4 88.91 32.44 89.95 32.44 89.95 32.09 89.25 32.09 89.25 31.75 90.3 31.75 90.3 32.44 92.05 32.44 92.05 30.7 91.7 30.7 91.7 32.09"/>
      <polygon class="cls-1" points="87.51 31.75 88.21 31.75 88.21 32.09 87.16 32.09 87.16 31.4 85.41 31.4 85.41 32.44 85.76 32.44 85.76 31.75 86.81 31.75 86.81 32.44 88.56 32.44 88.56 31.4 87.51 31.4 87.51 31.75"/>
      <rect class="cls-1" x="93.1" y="13.95" width=".35" height=".35"/>
      <polygon class="cls-1" points="92.75 13.6 93.8 13.6 93.8 14.3 95.55 14.3 95.55 13.25 94.5 13.25 94.5 13.6 95.2 13.6 95.2 13.95 94.15 13.95 94.15 13.25 92.4 13.25 92.4 14.3 92.75 14.3 92.75 13.6"/>
      <rect class="cls-1" x="92.4" y="12.55" width="4.54" height=".35"/>
      <polygon class="cls-1" points="98.69 13.95 98.34 13.95 98.34 12.55 97.99 12.55 97.99 13.95 97.64 13.95 97.64 12.55 97.29 12.55 97.29 13.25 95.9 13.25 95.9 14.3 96.94 14.3 96.94 13.95 96.25 13.95 96.25 13.6 97.29 13.6 97.29 14.3 99.04 14.3 99.04 12.55 98.69 12.55 98.69 13.95"/>
      <rect class="cls-1" x="92.4" y="14.65" width="3.15" height=".7"/>
      <rect class="cls-1" x="95.9" y="14.65" width="3.15" height=".7"/>
      <rect class="cls-1" x="92.4" y="29.65" width="3.15" height=".7"/>
      <rect class="cls-1" x="95.9" y="29.65" width="3.15" height=".7"/>
      <polygon class="cls-1" points="94.5 31.75 95.2 31.75 95.2 32.09 94.15 32.09 94.15 31.4 92.4 31.4 92.4 32.44 92.75 32.44 92.75 31.75 93.8 31.75 93.8 32.44 95.55 32.44 95.55 31.4 94.5 31.4 94.5 31.75"/>
      <rect class="cls-1" x="92.4" y="30.7" width="4.54" height=".35"/>
      <polygon class="cls-1" points="98.69 32.09 98.34 32.09 98.34 30.7 97.99 30.7 97.99 32.09 97.64 32.09 97.64 30.7 97.29 30.7 97.29 31.4 95.9 31.4 95.9 32.44 96.94 32.44 96.94 32.09 96.25 32.09 96.25 31.75 97.29 31.75 97.29 32.44 99.04 32.44 99.04 30.7 98.69 30.7 98.69 32.09"/>
      <rect class="cls-1" x="93.1" y="32.09" width=".35" height=".35"/>
      <polygon class="cls-1" points="105.68 13.95 105.33 13.95 105.33 12.55 104.98 12.55 104.98 13.95 104.63 13.95 104.63 12.55 104.28 12.55 104.28 13.25 102.89 13.25 102.89 14.3 103.94 14.3 103.94 13.95 103.24 13.95 103.24 13.6 104.28 13.6 104.28 14.3 106.03 14.3 106.03 12.55 105.68 12.55 105.68 13.95"/>
      <rect class="cls-1" x="99.39" y="12.55" width="4.54" height=".35"/>
      <rect class="cls-1" x="100.09" y="13.95" width=".35" height=".35"/>
      <polygon class="cls-1" points="99.74 13.6 100.79 13.6 100.79 14.3 102.54 14.3 102.54 13.25 101.49 13.25 101.49 13.6 102.19 13.6 102.19 13.95 101.14 13.95 101.14 13.25 99.39 13.25 99.39 14.3 99.74 14.3 99.74 13.6"/>
      <rect class="cls-1" x="99.39" y="14.65" width="3.15" height=".7"/>
      <rect class="cls-1" x="102.89" y="14.65" width="3.15" height=".7"/>
      <rect class="cls-1" x="99.39" y="29.65" width="3.15" height=".7"/>
      <rect class="cls-1" x="102.89" y="29.65" width="3.15" height=".7"/>
      <polygon class="cls-1" points="101.49 31.75 102.19 31.75 102.19 32.09 101.14 32.09 101.14 31.4 99.39 31.4 99.39 32.44 99.74 32.44 99.74 31.75 100.79 31.75 100.79 32.44 102.54 32.44 102.54 31.4 101.49 31.4 101.49 31.75"/>
      <rect class="cls-1" x="99.39" y="30.7" width="4.54" height=".35"/>
      <rect class="cls-1" x="100.09" y="32.09" width=".35" height=".35"/>
      <polygon class="cls-1" points="105.68 32.09 105.33 32.09 105.33 30.7 104.98 30.7 104.98 32.09 104.63 32.09 104.63 30.7 104.28 30.7 104.28 31.4 102.89 31.4 102.89 32.44 103.94 32.44 103.94 32.09 103.24 32.09 103.24 31.75 104.28 31.75 104.28 32.44 106.03 32.44 106.03 30.7 105.68 30.7 105.68 32.09"/>
      <polygon class="cls-1" points="112.67 12.55 112.67 13.95 112.32 13.95 112.32 12.55 111.97 12.55 111.97 13.95 111.63 13.95 111.63 12.55 111.28 12.55 111.28 13.25 109.88 13.25 109.88 14.3 110.93 14.3 110.93 13.95 110.23 13.95 110.23 13.6 111.28 13.6 111.28 14.3 113.02 14.3 113.02 12.55 112.67 12.55"/>
      <rect class="cls-1" x="107.08" y="13.95" width=".35" height=".35"/>
      <polygon class="cls-1" points="106.73 13.6 107.78 13.6 107.78 14.3 109.53 14.3 109.53 13.25 108.48 13.25 108.48 13.6 109.18 13.6 109.18 13.95 108.13 13.95 108.13 13.25 106.38 13.25 106.38 14.3 106.73 14.3 106.73 13.6"/>
      <rect class="cls-1" x="106.38" y="12.55" width="4.54" height=".35"/>
      <rect class="cls-1" x="109.88" y="14.65" width="3.15" height=".7"/>
      <rect class="cls-1" x="106.38" y="14.65" width="3.15" height=".7"/>
      <rect class="cls-1" x="106.38" y="29.65" width="3.15" height=".7"/>
      <rect class="cls-1" x="109.88" y="29.65" width="3.15" height=".7"/>
      <polygon class="cls-1" points="112.67 32.09 112.32 32.09 112.32 30.7 111.97 30.7 111.97 32.09 111.63 32.09 111.63 30.7 111.28 30.7 111.28 31.4 109.88 31.4 109.88 32.44 110.93 32.44 110.93 32.09 110.23 32.09 110.23 31.75 111.28 31.75 111.28 32.44 113.02 32.44 113.02 30.7 112.67 30.7 112.67 32.09"/>
      <rect class="cls-1" x="107.08" y="32.09" width=".35" height=".35"/>
      <rect class="cls-1" x="106.38" y="30.7" width="4.54" height=".35"/>
      <polygon class="cls-1" points="108.48 31.75 109.18 31.75 109.18 32.09 108.13 32.09 108.13 31.4 106.38 31.4 106.38 32.44 106.73 32.44 106.73 31.75 107.78 31.75 107.78 32.44 109.53 32.44 109.53 31.4 108.48 31.4 108.48 31.75"/>
    </g>
    <g>
      <g id="f">
        <path class="cls-2" d="M54.29,27.06c2.61.85,5.41-.58,6.26-3.2.62-1.9.03-3.99-1.48-5.29,1.68,2.49,1.02,5.88-1.47,7.56-.97.66-2.13.98-3.31.93"/>
        <path class="cls-2" d="M60.64,26.1c1.99-1.16,2.66-3.7,1.51-5.69-.56-.97-1.49-1.67-2.57-1.94,2.4,1.81,2.88,5.23,1.07,7.63,0,0,0,0,0,0M57.27,27.95l-.27-5.45.27-4.29c.17.23.39.42.64.54v3.2l-.22,5.41-.43.58ZM57.16,17.87l.11.1c.24.36.73.46,1.09.22.32-.21.44-.62.29-.96-.07.4-.46.67-.86.6-.22-.04-.4-.17-.51-.36"/>
      </g>
      <g id="f-2" data-name="f">
        <path class="cls-2" d="M60.26,27.06c-2.61.85-5.41-.58-6.26-3.2-.62-1.9-.03-3.99,1.48-5.29-1.68,2.49-1.02,5.88,1.47,7.56.97.66,2.13.98,3.31.93"/>
        <path class="cls-2" d="M53.91,26.1c-1.99-1.16-2.66-3.7-1.51-5.69.56-.97,1.49-1.67,2.57-1.94-2.4,1.81-2.88,5.23-1.07,7.63,0,0,0,0,0,0M57.27,27.95l.27-5.45-.27-4.29c-.17.23-.39.42-.64.54v3.2l.22,5.41.43.58ZM57.38,17.87l-.11.1c-.24.36-.73.46-1.09.22-.32-.21-.44-.62-.29-.96.07.4.46.67.86.6.22-.04.4-.17.51-.36"/>
      </g>
    </g>
  </g>
</svg>