<?xml version="1.0" encoding="UTF-8"?>
<svg id="Layer_2" data-name="Layer 2" xmlns="http://www.w3.org/2000/svg" viewBox="0 0 114.55 45">
  <defs>
    <style>
      .cls-1 {
        fill: #fff;
      }

      .cls-2 {
        fill: #017b3d;
      }

      .cls-3 {
        fill: #cd1125;
      }
    </style>
  </defs>
  <g id="Layer_1-2" data-name="Layer 1">
    <path class="cls-1" d="M0,0h114.55v45H0V0Z"/>
    <path class="cls-3" d="M0,0h114.55v15H0V0Z"/>
    <path d="M0,30h114.55v15H0v-15Z"/>
    <path class="cls-2" d="M56.84,25.65h-10.99c-.09.77-.89,1.34-1.78,1.27-.1,0-.19-.02-.29-.05,1.54-.76,1.44-1.52.47-3.23.54-.19.62-.24,1.17-.61-.39,1.17,1,1.03,2.02,1.03,0-.41.04-.88-.27-.94.4-.14.43-.19,1.06-.72v1.57h7.59v-1.08c0-.13-.1-.23-.23-.23s-.23.1-.23.23v.63c0,.09-.08.17-.17.17h-5.8v-1.02l4.35-4.2c-.03.22.42.8.61.89-.14.02-.3,0-.4.1l-3.56,3.44h3.95c0-.91.85-.91,1.25-1.24.4.32,1.25.32,1.25,1.24v2.76ZM57.66,25.65v-7.19c.4.22.72.48,1.22.6-.02.28-.28.38-.28.57v4.42c.56.12.68-.2.95-.36.07.7.52,1.4.5,1.95h-2.39ZM65.18,20.85l.88-.74v3.86h.63v-4.39c.31-.26.7-.53.88-.86v6.93h-5.54c-.08-1.43-.08-2.9,1.59-2.59v-.59c0-.14-.2-.03-.2-.15l1.14-.95v2.6h.62v-3.12ZM64.89,18.88c-.11,0-.27-.59-.23-.7.04-.13.19-.13.25-.07.1.1.09.76-.02.77ZM63.86,19.68c-.31-.18-.26-.26.01-.18.47.14.71.02,1.05-.32l.26.13c.34.17.54.1.66-.31.03-.12.14-.09.16.05.11.57-.32.74-.76.59-.24-.08-.28-.08-.4.01-.26.2-.64.24-.98.03ZM68.39,25.65v-7.19c.4.22.72.48,1.22.6-.02.28-.28.38-.28.57v4.42c.56.12.68-.2.95-.36.07.7.52,1.4.5,1.95h-2.39ZM46.85,26.45c0-.19.15-.34.34-.34s.34.15.34.34-.15.34-.34.34-.34-.15-.34-.34ZM63.1,23.84c0,.11.11.19.26.19s.26-.09.26-.19-.11-.19-.26-.19-.26.09-.26.19Z"/>
  </g>
</svg>