<?xml version="1.0" encoding="UTF-8"?>
<svg id="Layer_2" data-name="Layer 2" xmlns="http://www.w3.org/2000/svg" viewBox="0 0 114.55 45">
  <defs>
    <style>
      .cls-1 {
        fill: #fff;
      }

      .cls-2 {
        fill: #cd2e3a;
      }

      .cls-3 {
        fill: #0047a0;
      }
    </style>
  </defs>
  <g id="Layer_1-2" data-name="Layer 1">
    <path class="cls-1" d="M0,0v45h114.55V0H0Z"/>
    <g>
      <g>
        <path d="M40.89,4.82l-6.24,9.36M36.99,15.74l6.24-9.36M45.57,7.94l-6.24,9.36M68.97,37.06l2.86-4.29M72.35,31.99l2.86-4.29M77.55,29.26l-2.86,4.29M74.17,34.33l-2.86,4.29M73.65,40.18l2.86-4.29M77.03,35.11l2.86-4.29"/>
        <path d="M74.43,40.7l-1.56-1.04,2.86-4.29,1.56,1.04-2.86,4.29ZM72.09,39.14l-1.56-1.04,2.86-4.29,1.56,1.04-2.86,4.29ZM69.75,37.58l-1.56-1.04,2.86-4.29,1.56,1.04-2.86,4.29ZM77.81,35.63l-1.56-1.04,2.86-4.29,1.56,1.04-2.86,4.29ZM75.47,34.07l-1.56-1.04,2.86-4.29,1.56,1.04-2.86,4.29ZM73.13,32.51l-1.56-1.04,2.86-4.29,1.56,1.04-2.86,4.29ZM40.11,17.82l-1.56-1.04,6.24-9.36,1.56,1.04-6.24,9.36ZM37.77,16.26l-1.56-1.04,6.24-9.36,1.56,1.04-6.24,9.36ZM35.43,14.7l-1.56-1.04,6.24-9.36,1.56,1.04-6.24,9.36Z"/>
      </g>
      <g>
        <path d="M34.65,30.82l6.24,9.36M43.23,38.62l-2.86-4.29M39.85,33.55l-2.86-4.29M39.33,27.7l6.24,9.36M75.21,17.3l-2.86-4.29M71.83,12.23l-2.86-4.29M71.31,6.38l6.24,9.36M79.89,14.18l-2.86-4.29M76.51,9.11l-2.86-4.29"/>
        <path d="M40.11,40.7l-6.24-9.36,1.56-1.04,6.24,9.36-1.56,1.04ZM42.45,39.14l-2.86-4.29,1.56-1.04,2.86,4.29-1.56,1.04ZM44.79,37.58l-6.24-9.36,1.56-1.04,6.24,9.36-1.56,1.04ZM39.07,34.07l-2.86-4.29,1.56-1.04,2.86,4.29-1.56,1.04ZM74.43,17.82l-2.86-4.29,1.56-1.04,2.86,4.29-1.56,1.04ZM76.77,16.26l-6.24-9.36,1.56-1.04,6.24,9.36-1.56,1.04ZM79.11,14.7l-2.86-4.29,1.56-1.04,2.86,4.29-1.56,1.04ZM71.05,12.75l-2.86-4.29,1.56-1.04,2.86,4.29-1.56,1.04ZM75.73,9.63l-2.86-4.29,1.56-1.04,2.86,4.29-1.56,1.04Z"/>
      </g>
    </g>
    <g>
      <path class="cls-2" d="M61.95,25.62c-2.58,3.88-7.82,4.92-11.7,2.34s-4.92-7.82-2.34-11.7c3.45-5.17,10.43-6.57,15.6-3.12s6.57,10.43,3.12,15.6"/>
      <path class="cls-3" d="M47.91,16.26c-3.45,5.17-2.05,12.15,3.12,15.6s12.15,2.05,15.6-3.12c1.72-2.58,1.02-6.08-1.56-7.8s-6.08-1.02-7.8,1.56-5.22,3.28-7.8,1.56-3.28-5.22-1.56-7.8"/>
    </g>
  </g>
</svg>