<?xml version="1.0" encoding="UTF-8"?>
<svg id="Layer_2" data-name="Layer 2" xmlns="http://www.w3.org/2000/svg" viewBox="0 0 114.55 45">
  <defs>
    <style>
      .cls-1 {
        fill: #005430;
      }

      .cls-2 {
        fill: #fff;
      }
    </style>
  </defs>
  <g id="Layer_1-2" data-name="Layer 1">
    <path id="green" class="cls-1" d="M0,45h114.55V0H0v45Z"/>
    <g id="white">
      <g id="shahada">
        <path class="cls-2" d="M74.15,17.87c0-.79-.31-2.92-.39-3.63-.08-.71-.16-1.36-.14-1.51.02-.15.24.2.36.23.06-.01.03-.23-.08-.42-.08-.13-.33-.61-.49-.89-.07-.13-.09-.21-.13-.23-.04-.02-.32.56-.29.62.08.12.13.17.14.38.01.21.12,1.68.26,2.8.1.84.33,2.66.34,3.79,0,.37-.04.72-.09.87-.13.23-.32.44-1.06.87-.82.48-1.92.88-2.4,1.15-.29.17-.2.19.06.12.26-.07,1.57-.31,2.22-.58.6-.25.99-.68,1.29-1.3.37-.77.39-1.42.39-2.26"/>
        <path class="cls-2" d="M71.6,11.87c.06-.02.59-.05.73-.02-.09.13-.73.43-.73.48.02.04.44-.07.57-.13.09-.05.14-.13.21-.2.15-.17.33-.5.29-.54-.07-.07-.79-.02-.89-.01-.06,0-.22.3-.25.37-.03.07,0,.07.07.04"/>
        <path class="cls-2" d="M72.67,16.55c.11-.37.14-.82-.01-1.3-.15-.49-.54-.79-.81-.94l-.05.47s.39.19.65.67c.17.31.24.74.1,1.22-.02.12.06.05.12-.13"/>
        <path class="cls-2" d="M68.59,18.92c.1-.34.12-.74-.01-1.17-.14-.44-.48-.71-.73-.85l-.04.42s.35.17.59.61c.15.28.21.67.09,1.1-.02.11.06.05.11-.12"/>
        <path class="cls-2" d="M54.41,12.5c.16.29.22.7.1,1.16-.02.11.06.05.11-.12.1-.35.13-.78-.01-1.23-.15-.47-.51-.75-.77-.89l-.05.45s.37.18.62.64"/>
        <path class="cls-2" d="M44.84,12.65c.13.31.14.74-.07,1.18-.04.11.06.06.15-.11.18-.34.27-.77.18-1.24-.09-.49-.46-.82-.73-1l-.12.44s.39.23.6.72"/>
        <path class="cls-2" d="M47.49,19.65c.17-.31.24-.53.32-.9.07-.33.07-.71.05-1.09.51-.21,1.11-.55,1.32-.58-.14.48.19.99.86.93.05.54.1,1.01.12,1.3.05.58.05,1.3.04,1.43,0,.13.09.1.18-.18.13-.38.16-1.37.12-2.02-.01-.16-.03-.38-.05-.64.43-.2.51-.59.67-.75.15.51.95.58,1.2.47.31-.14.41-.38.49-.95.08-.57-.15-.8-.24-.86,0,.07-.21.74-.21.74,0,0,.19.2.2.3-.16.14-.49.15-.76.06-.28-.09-.36-.26-.35-.37.02-.11.12-.21.12-.35,0-.14-.06-.1-.17.02-.11.12-.18.23-.34.49-.13.21-.33.47-.69.54-.06-.62-.13-1.28-.17-1.7-.02-.22-.26-2.11-.28-2.32-.01-.18-.04-.4-.04-.5,0-.08.06-.05.13.04.08.08.22.23.24.22.08-.04,0-.29-.11-.51-.11-.22-.46-1.09-.54-1.13-.04-.02-.28.52-.3.62.04.07.14.17.14.47,0,.08.05.86.13,1.59.06.65.15,1.26.16,1.34.06.5.13,1.19.2,1.88-.39-.07-.49-.33-.48-.48,0-.17.08-.35.05-.39-.07-.05-.52.2-1.14.47-.18.08-.37.16-.58.23-.05-.47-.13-.91-.15-1.25v-.04c.41-.03.74-.23.89-.43.19-.25.32-.75.34-1.14.01-.39-.3-1.1-.37-1.32-.08-.23-.11-.38-.12-.46,0-.08.17.09.28.12.07.02.05-.15-.04-.26-.09-.11-.58-.86-.62-.81-.02.03-.22.58-.23.66.08.05.17.19.17.33,0,.14.12.73.24,1.06.12.33.38.97.39,1.14-.18.13-.6.35-1.01.34-.07-.58-.16-1.25-.21-1.73-.02-.18-.02-.38-.02-.48,0-.08.06-.07.14.01.08.08.21.21.23.2.06-.02,0-.2-.1-.42s-.55-1.15-.62-1.18c-.04-.02-.23.5-.25.61.04.07.14.17.15.46,0,.24.12,1.39.22,2.4-.41-.21-.55-.51-.6-1.02-.04-.35-.04-1.01-.16-1.55-.07-.31-.22-.62-.4-.79-.04.1-.23.73-.23.73.06.18.25.79.25,1.31,0,.53-.05,1.04-.64,1.4-.59.35-1.47.21-1.69-.34-.22-.55.27-1.94.26-2.27,0-.33-.07-.37-.2-.32-.14.05-.42.37-.66.88-.24.51-.35,1.15-.49,1.58-.14.43-.36.87-.69.85-.34-.02-.52-.33-.62-.78-.1-.45-.04-1.04-.01-1.19.07-.38-.09-.3-.19.29-.06.37-.12.95.09,1.57.22.61.59.84.92.76.33-.08.61-.84.71-1.19.1-.34.55-1.86.81-1.94.04.17-.2.72-.27,1.37-.07.65.1,1.52.92,1.67.82.15,1.38-.38,1.58-.75.2-.37.3-.76.32-.95.03.5.36,1.27,1.02,1.49l.07.02c.04.41.11.94.17,1.49-.13.04-.26.08-.39.11-.02-.05-.03-.11-.06-.15-.2-.43-.53-.83-.99-.8-.47.03-.98.66-.96,1.11.01.31.18.56.8.63.28.03.58,0,.89-.07.04.13.07.25.07.37-.2.23-1.81,1.45-3.03,1.57-1.21.12-1.58-.52-1.59-1.16,0-.49.28-.97.49-1.3.29-.21.53-.48.69-.69.04.03.08.05.12.07.14.08.2.21.2.21.03-.04.15-.27.1-.37-.02-.03-.13-.09-.26-.17.14-.34.14-.69-.04-.77-.2-.09-.46.15-.57.3-.06.08-.08.16-.08.23,0,.09.04.18.15.25.11.07.21.14.3.2-.26.28-.89.69-1.27.92-.01-.04-.07,0-.15.09l-.1.06c-.31.19-1.04.6-1.18.7-.14.1-.05.08,0,.06.1-.05.24-.12.39-.19.21-.1.46-.22.7-.34-.07.12-.15.26-.21.42-.29.68-.75,2.09.25,2.94.96.81,2.62.5,4-.34,1.37-.84,1.67-1.14,1.89-1.45M43.01,16.29s-.05-.08-.02-.11c.05-.04.11-.08.18-.1.15-.03.21.15.15.42-.12-.07-.24-.15-.32-.21M46.16,17.44c-.7,0-.73-.12-.72-.21.01-.08.23-.3.51-.16.12.06.25.19.37.36-.05,0-.11,0-.16,0M44.01,21.12c-1.32.36-2.61-.2-2.69-1.31-.06-.85.25-1.48.45-1.84.19-.09.37-.18.52-.27-.35.56-.55,1.3-.41,1.94.15.72.78,1.15,1.83,1.01,1.04-.14,2.46-1.13,2.86-1.51.12-.14.2-.26.31-.51.05-.1.11-.24.13-.39.02-.1.02-.21.03-.31.12-.04.25-.08.37-.12.04.45.07.9.07,1.29-.65.76-2.14,1.65-3.47,2.01"/>
        <path class="cls-2" d="M67.14,18.22c-.04-.74-.15-2.08-.21-2.76-.05-.61-.16-1.43-.24-2.17-.02-.18-.02-.36-.02-.46,0-.08.08-.05.16.03s.21.19.23.17c.08-.04-.02-.24-.13-.46-.11-.22-.55-1.12-.63-1.16-.04-.02-.25.52-.26.63.04.07.14.17.15.46.01.3.16,1.66.27,2.75.07.76.17,2.01.24,2.95,0,0,.07.89.07.99.04.58.02,1.3.02,1.43,0,.13.09.1.19-.18.1-.29.16-.93.17-1.51l-.02-.74Z"/>
        <path class="cls-2" d="M63.39,15.63c-.14.04-.35-.1-.33-.4.01-.27.13-.53.18-.69.06-.22.06-.43,0-.31-.12.27-.34.79-.38,1.15-.05.35.07.58.23.66.19.1.34-.06.43-.29.09-.22.07-.47.01-.41-.05.06-.07.27-.14.29"/>
        <path class="cls-2" d="M61.44,16.72c.07-.19.09-.38.03-.28-.12.23-.36.68-.43.98-.07.31.01.52.15.6.16.1.3-.03.4-.22.1-.19.1-.41.04-.36-.05.05-.09.24-.15.25-.12.03-.3-.11-.26-.38.03-.24.16-.45.21-.59"/>
        <path class="cls-2" d="M55.77,20.75c.12-.2.18-.4.1-.3-.19.23-.54.67-.68,1-.14.32-.1.57.03.68.16.14.33.02.49-.17.15-.19.2-.43.13-.39-.07.05-.14.24-.21.25-.14,0-.3-.18-.2-.46.09-.25.27-.47.36-.61"/>
        <path class="cls-2" d="M65.72,15.06c-.14.03-.34-.12-.31-.42.03-.27.16-.52.22-.68.08-.22.09-.43.03-.31-.13.26-.38.77-.45,1.13-.07.35.03.59.19.67.19.11.34-.04.45-.26.1-.21.1-.47.04-.41-.06.06-.09.27-.16.29"/>
        <path class="cls-2" d="M65.67,18.73c.19.11.34-.04.45-.26.1-.21.1-.47.04-.41-.06.06-.09.27-.16.29-.14.03-.34-.12-.31-.42.03-.27.16-.52.22-.68.07-.22.09-.43.03-.31-.13.26-.38.77-.45,1.13-.07.35.03.59.19.67"/>
        <path class="cls-2" d="M68.08,14.04c.09-.26.11-.52.03-.38-.16.32-.46.94-.54,1.36-.08.43.04.71.23.81.23.13.41-.05.54-.32.13-.26.12-.57.04-.5-.07.07-.11.33-.19.35-.17.04-.41-.14-.37-.51.04-.33.2-.63.26-.82"/>
        <path class="cls-2" d="M48.82,18.61c.15-.32.2-.64.09-.47-.24.38-.71,1.13-.86,1.65-.16.53-.04.9.18,1.05.27.19.52-.02.72-.34.19-.31.23-.7.12-.62-.1.08-.18.4-.28.41-.22.03-.5-.23-.4-.68.09-.41.33-.77.44-1"/>
        <path class="cls-2" d="M69.62,21.8c.11-.09,1.1-.63,1.29-.73,0,0,.19-.3.13-.34-.06-.03-.42.3-.64.31-.22,0-.53-.16-.54-.29.03-.1.3-.26.4-.26.1,0,.08.22.11.24.03.03.16-.15.18-.23.02-.08,0-.39-.18-.34-.28.07-.71.6-.76.76-.05.17.21.31.41.39-.02,0-.16.08-.25.17,0,0-.1.11-.14.33"/>
        <path class="cls-2" d="M66.24,22.46c.11-.09,1.1-.63,1.29-.73,0,0,.19-.3.13-.34-.06-.03-.42.3-.64.31-.22,0-.53-.16-.54-.29.03-.1.3-.26.4-.26.1,0,.08.22.11.24.03.03.16-.15.18-.23.02-.08,0-.39-.18-.34-.28.07-.71.6-.76.76-.05.17.21.31.41.39-.02,0-.16.08-.25.17,0,0-.1.11-.14.33"/>
        <path class="cls-2" d="M58.64,12.9c.09.1.67.84,1.13,1.31.46.46,1.24,1.22,1.81,1.73.11.1.23.21.35.32.14,1.11.31,2.52.38,3.11.07.58.08,1.3.08,1.43,0,.13.09.1.18-.18.12-.38.13-1.37.07-2.02-.04-.4-.13-1.16-.22-1.85.34.33.66.67.87.91.4.46.73.8.93,1.29.14.35.13.62.19.68.05.05.11-.37.04-.77-.1-.65-.24-.93-1.08-1.86-.32-.36-.7-.73-1.07-1.08-.01-.11-.03-.21-.04-.3-.03-.22-.31-2.11-.34-2.32-.02-.18-.05-.4-.05-.5,0-.08.05-.05.14.03.08.08.22.23.25.22.08-.04,0-.28-.12-.5-.11-.22-.49-1.08-.57-1.12-.04-.02-.27.52-.28.63.04.07.14.17.15.46,0,.08.08.86.17,1.59.08.65.18,1.26.19,1.33h0c-.38-.34-.71-.64-.92-.82-.47-.43-1.52-1.45-1.56-1.61,0-.05.07-.02.22,0,.15.02.28.08.26,0-.01-.03-.07-.12-.21-.21-.14-.09-.51-.32-.78-.48-.27-.16-.41-.3-.47-.26-.03.02,0,.58.01.64.07,0,.19.09.28.19"/>
        <path class="cls-2" d="M59.39,11.9c.11-.02.64-.01.84.03-.08.06-.63.33-.73.4-.11.07-.13.1-.08.1.16-.04.51-.1.68-.19.16-.07.43-.44.54-.57.1-.14.1-.2.08-.24-.11-.06-.8-.12-1.14-.03-.09.06-.27.4-.3.47-.03.07,0,.07.12.04"/>
        <path class="cls-2" d="M62.35,11.86c.09-.02.52,0,.68.02-.07.05-.5.27-.59.32-.09.05-.11.08-.07.08.13-.03.41-.08.55-.15.13-.06.35-.35.43-.46.08-.11.08-.16.06-.19-.09-.05-.65-.09-.92-.03-.07.05-.22.32-.24.38-.02.06,0,.05.1.03"/>
        <path class="cls-2" d="M64.76,11.83c.09-.02.52,0,.68.02-.06.05-.5.27-.59.32-.09.05-.11.08-.06.08.13-.03.43-.08.57-.15.13-.06.28-.35.36-.46.08-.11.08-.16.06-.19-.09-.05-.6-.09-.87-.03-.07.05-.22.32-.24.38s0,.05.1.03"/>
        <path class="cls-2" d="M63.26,13c-.14.22.04.41.1.59-.09.08-.22,0-.27-.06-.1-.14-.06-.44-.18-.48-.03.08-.05.17-.05.17,0,0,.09.2.06.33-.01.08-.08.17-.18.18-.25,0-.13-.36-.22-.57-.02.05-.03.11-.06.15.02.05.03.13.03.18,0,.09,0,.18.01.26.02.11.08.18.17.18.19.01.27-.14.3-.26.03.13.28.27.4.11.16-.21.03-.38-.05-.57-.06-.14-.04-.24-.08-.19"/>
        <path class="cls-2" d="M56.23,12.4c.01.09.06.16.14.16.16.02.24-.11.27-.21.02.11.23.24.34.11.15-.17.05-.33-.02-.5-.04-.13-.03-.21-.06-.17-.13.19.01.35.06.51-.08.07-.19,0-.23-.07-.08-.13-.03-.38-.13-.42-.03.07-.05.14-.05.14,0,0,.06.18.04.29-.02.07-.08.15-.16.14-.22,0-.09-.32-.17-.5-.02.04-.03.09-.06.13.01.05.02.11.02.15,0,.08,0,.16,0,.22"/>
        <path class="cls-2" d="M61.33,21.1s.08-.14.06-.21-.1-.37-.27-.45c-.17-.07-.3.08-.38.3h-.06s-.03.08-.04.17c-.02.13-.05.21-.27.4-.18.16-.77.56-1.15.74-.38.19-.66.35-.76.39-.1.05-.07.07.03.04.1-.03.61-.19.81-.28.2-.08.45-.22.75-.41.33-.21.53-.43.59-.62.05-.14.06-.19.06-.19,0,0,.12.07.33.12.21.05.27.03.29,0M61.05,20.68c.09.04.15.14.17.2-.11,0-.3-.05-.39-.09.05-.1.14-.14.22-.11"/>
        <path class="cls-2" d="M59.1,21.31c-.29-.04-1.03-.15-1.21-.58.15-.22.85-.5,1.72-.76.87-.26,1.79-.6,2.03-.76.05-.02.16-.01.16-.01.04-.13.26-.57.28-.66-.24.01-1.75.12-2.42.16-.67.04-1.96.03-2.39.02.26-.19.89-.56,1.78-.88.12-.04.22-.08.32-.11.07.13.13.26.14.38.06-.06.1-.25.09-.45.52-.17.79-.22.91-.25.07-.09.2-.48.22-.76-.08-.14-.32-.32-.54-.47-.3-.21-.62-.39-.94-.31-.44.11-.53.92-.43,1.09.03.05.11.15.2.27-.32.13-.66.27-.95.43-.66.35-1.4.73-1.61,1.09l-.06.03s-.15.6-.17.66c.14,0,1.16,0,1.88-.03.71-.02,1.34-.05,1.58-.05-.36.09-1.31.44-1.58.65-.27.21-.44.52-.45,1.07-.25-.1-.73-.33-1.13-.87-.45-.61-.36-1.23-.54-2.05-.26-1.19-.82-2.19-1.16-2.5-.12.42-.13.74-.13.74,0,0,.43.96.65,1.57.22.61.41,1.22.4,1.35-.18.4-1.25,1.23-2.15,1.72-.85.46-1.59.51-1.86.18-.05-.06-.09-.14-.11-.23.12-.05.23-.11.35-.16.76-.35,2.12-1.08,2.43-1.46.34-.46.34-1.12.14-1.49-.2-.37-.51-.81-.54-.96-.02-.07.2.03.34.04.06,0,.03-.09-.1-.23-.11-.11-.53-.46-.69-.59-.04-.03-.07-.02-.08.02-.03.14-.1.44-.12.59l.02.07s.1.06.13.14c.04.11.16.42.37.8.21.39.51.81.54,1.03-.25.31-1.49.99-2.7,1.54.07-.23.19-.5.35-.79.04-.05.09-.11.12-.18.12-.22.13-.49.06-.43-.06.06-.11.28-.18.29-.15.03-.35-.14-.3-.46.05-.28.2-.54.26-.7.09-.23.12-.45.05-.33-.15.27-.44.8-.53,1.17-.09.37,0,.62.16.72.06.04.11.05.17.04-.11.2-.24.45-.33.75-.49.22-.96.41-1.36.55-1.41.51-2.42.8-3.12,1.02h-.03c.05-.15.04-.3-.01-.25-.06.06-.11.28-.18.29-.15.03-.35-.14-.3-.46.05-.28.2-.54.26-.7.09-.23.12-.45.05-.33-.15.27-.44.8-.53,1.17-.09.37,0,.62.16.72.19.12.36-.03.49-.26l.04-.09s.12-.01.23-.03c.32-.07,1.13-.19,2.24-.33.82-.11,1.39-.33,1.94-.58,0,.06,0,.12,0,.19.03.75.52.96,1.2.82.65-.14,1.56-.73,2.1-1.14.57-.42.89-.79.98-.92.15-.32.19-.67.2-.84.05.46.09,1.1.52,1.64.4.5,1.22,1.2,2.77,1.22,0-.18-.07-.76-.07-.76M59,16.65c.22-.25.69-.09,1.05.23-.18.04-.43.12-.7.22-.16-.19-.34-.38-.35-.44"/>
        <path class="cls-2" d="M50.32,13.25c.1-.05.41-.18.74-.38.33-.19.64-.42.79-.58.06-.06.11-.11.14-.16.1.04.17.08.21.1.06.02.15.06.2-.12.06-.18-.02-.3-.13-.44-.09-.12-.24-.29-.35-.34-.1-.04-.15.19-.13.18h.08c-.14.08-.24.29-.25.37-.01.08,0,.14.2.19l.08.02c-.16.19-.47.4-.68.54-.3.2-.72.46-.84.53-.12.07-.11.1-.06.08M52.1,11.82v-.1c.15.16.25.35.24.37-.06,0-.14-.05-.28-.11.02-.05.03-.1.04-.16M51.7,11.82s.05-.11.17-.16c.11-.05.16.08.17.24l-.03.06-.1-.04c-.11-.03-.18-.05-.2-.11"/>
        <path class="cls-2" d="M57.71,16.22c.16-.11.61-.43.86-.64.18-.15.38-.36.52-.55.09.06.17.11.25.15.14.08.2.21.2.21.03-.04.15-.27.1-.37-.03-.04-.21-.14-.39-.25.09-.21.22-.57.04-.69-.16-.11-.42.07-.54.3-.1.19-.11.35.08.48.05.04.11.07.16.11-.19.21-.55.52-.8.74-.31.26-.61.52-.66.58v.02c-.08-.19-.06-.31-.12-.25-.22.35.06.62.16.9-.14.12-.34.01-.41-.1-.15-.22-.1-.68-.27-.75-.04.12-.07.26-.07.26,0,0,.13.31.1.51-.02.12-.13.27-.27.27-.39,0-.2-.56-.34-.88-.03.08-.05.16-.09.24.03.08.04.2.05.27,0,.14,0,.28.02.4.03.16.12.27.26.28.29.02.42-.21.46-.4.05.19.43.41.62.17.25-.32.05-.59-.08-.88v-.04s.07-.02.18-.09M58.83,14.45c.1-.18.3-.19.36-.1.05.07.05.22-.02.37-.18-.11-.34-.22-.34-.27"/>
        <path class="cls-2" d="M51.43,15.1c-.34-.02-.52-.33-.62-.78-.1-.45-.04-1.04-.01-1.19.03-.15-.13-.07-.19.29-.06.37-.12.95.09,1.57.22.61.59.84.92.76.33-.08.61-.84.71-1.18.1-.34.55-1.74.81-1.82.04.17-.2.6-.27,1.25-.07.65.06,1.49.88,1.65.82.15,1.38-.38,1.58-.75.2-.37.3-.76.32-.95.03.5.36,1.27,1.02,1.49.64.21,1.12.02,1.34-.26.19-.25.35-.75.36-1.14.01-.39-.32-1.1-.4-1.32-.08-.23-.11-.38-.12-.46,0-.08.17.09.28.12.07.02.05-.15-.04-.26-.09-.11-.58-.86-.62-.81-.02.03-.22.58-.23.66.08.05.17.19.18.33,0,.14.14.73.26,1.06s.35.97.37,1.14c-.23.17-.76.38-1.26.16-.5-.21-.66-.52-.72-1.08-.04-.35-.04-1.01-.16-1.55-.07-.31-.22-.62-.4-.79-.04.1-.23.73-.23.73.06.18.25.79.25,1.31,0,.53-.05,1.04-.64,1.4-.59.35-1.43.21-1.65-.34-.22-.55.27-1.8.26-2.13,0-.33-.07-.37-.2-.32-.14.05-.42.37-.66.88-.24.51-.35,1.03-.49,1.46-.14.43-.36.87-.69.85"/>
        <path class="cls-2" d="M41.6,13.18c.42-.03.77-.35.86-.43.09-.08.14-.21.07-.16-.48.43-1.13.44-1.16.37.02-.07.19-.19.43-.35.15-.1.28-.19.38-.33h.03c.18.05.4.13.46.06.11-.1.12-.27,0-.46-.1-.16-.32-.3-.52-.41-.2-.1-.23.06-.26.12-.02.06-.01.1.03.1-.06.09-.11.2-.12.29-.01.06,0,.11.02.15,0,.01.04.06.11.08l.08.03c-.15.13-.31.24-.4.29-.16.1-.35.26-.41.44-.06.17-.04.24.38.21M42.34,11.95l.02-.09v-.06c.13.1.34.28.33.39-.08-.02-.24-.05-.39-.09.02-.05.04-.1.05-.15M41.95,11.98c-.1-.08,0-.15.08-.2.11-.06.18-.01.23.16-.02.05-.05.1-.08.14-.09-.03-.21-.07-.24-.09"/>
        <path class="cls-2" d="M42.85,17.89c-.12.1-.17.44-.14.46.02.02.4.15.46.17l.03-.1c.18.16.38.96.42.96.04,0,.11-.09.15-.3.04-.2.08-.49.12-.73.04-.22.1-.34.23-.37.13-.02.23.14.26.26,0,0,.09-.22.11-.36-.02-.07-.23-.35-.4-.25-.17.09-.27.47-.31.71-.03.24-.06.54-.1.58-.04-.2-.18-.57-.35-.77-.19-.23-.41-.31-.47-.26"/>
        <path class="cls-2" d="M41.26,17.48c.16-.04.51-.1.68-.18.16-.07.43-.44.53-.57.1-.14.11-.2.08-.24-.11-.06-.8-.12-1.14-.03-.09.06-.27.4-.3.47-.03.07,0,.07.12.04.11-.03.65-.01.84.03-.08.06-.63.33-.73.4-.11.07-.13.1-.08.1"/>
        <path class="cls-2" d="M73.53,19.42c-.02-.41-.21-1.03-.97-1.99-.26-.33-.63-.76-1.02-1.2-.01-.15-.02-.29-.03-.4-.05-.61-.22-1.84-.3-2.57-.02-.18-.02-.38-.02-.48,0-.08.06-.07.14.01.08.08.2.21.23.2.06-.02,0-.2-.1-.42-.11-.22-.52-1.1-.6-1.14-.04-.02-.23.5-.25.61.04.07.14.17.15.46.01.3.19,2.04.29,3.14v.06c-.57-.65-1.12-1.24-1.34-1.47-.04-.04-.08-.09-.13-.14-.04-.29-.07-.57-.09-.81-.02-.18-.02-.38-.02-.48,0-.08.06-.07.14.01.08.08.2.21.23.2.06-.02,0-.2-.1-.42-.11-.22-.54-1.12-.62-1.16-.04-.02-.24.54-.26.65.04.07.14.17.15.46,0,.13.04.51.08.99-.38-.46-.76-.93-.79-1.03,0-.05.07-.02.22,0,.15.02.29.07.27,0-.01-.03-.07-.12-.21-.21-.14-.09-.51-.32-.78-.48-.27-.16-.41-.3-.47-.26-.03.02,0,.58.01.64.07,0,.2.06.28.17.08.11.61.84,1.02,1.34.12.14.31.36.52.62.04.46.09.93.12,1.32.08.9.39,3.27.39,4.05-.22.21-.68.5-1.15.51-.47,0-.73-.12-.92-.47-.06-.11-.11-.22-.17-.32-.13-.23-.41-.37-.69-.3h-.04s-.07.05-.07.05c-.19.1-.38.26-.57.51-.33.44-.53.92-.77,1.33-.25.43-.44.72-.88.65-.31-.05-.55-.31-.69-.64.41-.28.7-.65.92-1.16.28-.66.38-1.41.36-2.25-.02-.79-.38-2.65-.48-3.36-.09-.71-.23-1.3-.22-1.45.01-.15.25.2.37.22.06-.01.03-.23-.09-.42-.08-.13-.33-.7-.49-.98-.08-.13-.1-.21-.13-.22-.04-.02-.31.57-.27.63.08.12.14.17.15.38.02.21.2,1.72.37,2.84.12.84.39,2.37.43,3.5.01.37-.04.63-.09.78-.12.23-.31.48-.98.96-.1-.67,0-1.22-.09-1.27-.11.01-.13.33-.14.71,0,.18,0,.43.04.69-.82.55-1.91,1.05-2.42,1.32-.3.16-.19.19.06.12.25-.08,1.65-.44,2.39-.84l.08-.04c.04.13.08.26.14.38.25.52.61.83,1,.8.33-.03.56-.37.77-.79.21-.42.56-1.22.91-1.52.13-.11.27-.21.4-.26,0,0,.24-.08.45.06.08.05.14.12.17.21.09.19.19.43.39.63.36.35.95.28,1.39.07.44-.2.66-.52.76-.9.17-.65.14-1.31.11-1.9-.04-.67-.14-1.36-.21-2.09-.02-.23-.06-.56-.1-.91.43.49.87,1,1.14,1.27.09.09.19.2.29.31.08,1.1.16,2.49.2,3.07.04.58.01,1.3,0,1.43,0,.13.07.1.17-.18.14-.38.22-1.36.19-2.02-.02-.39-.06-1.1-.1-1.77.33.4.65.79.85,1.06.37.48.7,1.05.82,1.4.12.36.13.46.15.52s.12-.2.11-.6"/>
      </g>
      <path id="sword" class="cls-2" d="M67.36,32.93c-.03-.09-.13-.16-.25-.16s-.22.07-.25.16h-1.14c-.01-.13,0-.25.04-.38h2.36s.07.11.07.11c.06.1.13.19.22.27h-1.03ZM68.93,31.83h-2.84c.22-.16.33-.39.3-.62-.02-.15-.16-.26-.34-.27h-.09c-.22.02-.37.18-.35.35v.07s.02.1.02.1c.01.13,0,.25-.04.38h-20.98c.31.45.88.73,1.49.73h19.14c-.22.15-.33.38-.3.61.02.17.22.29.43.27.22-.02.37-.18.35-.35v-.07s1.12,0,1.12,0c.02.11.13.19.26.19s.24-.08.26-.19h1.14c.24.17.54.26.86.26.3,0,.55-.21.55-.47v-.14c0-.47-.45-.86-1-.86"/>
    </g>
  </g>
</svg>