<?xml version="1.0" encoding="UTF-8"?>
<svg id="Layer_2" data-name="Layer 2" xmlns="http://www.w3.org/2000/svg" viewBox="0 0 114.55 45">
  <defs>
    <style>
      .cls-1 {
        fill: #c1272d;
      }

      .cls-2 {
        fill: #006233;
      }
    </style>
  </defs>
  <g id="Layer_1-2" data-name="Layer 1">
    <path class="cls-1" d="M0,0h114.55v45H0V0Z"/>
    <path class="cls-2" d="M63.88,31.6l-6.61-4.8-6.61,4.8,2.53-7.77-6.61-4.8h8.17l2.53-7.77,2.53,7.77h8.17l-6.61,4.8,2.53,7.77ZM58.18,26.14l3.67,2.66-1.4-4.31-2.27,1.65ZM54.1,24.49l-1.4,4.31,3.67-2.66-2.27-1.65ZM54.44,23.42l2.83,2.06,2.83-2.06-1.08-3.33h-3.5l-1.08,3.33ZM60.15,20.09l.87,2.67,3.67-2.67h-4.53ZM49.87,20.09l3.67,2.67.87-2.67h-4.53ZM55.87,19.02h2.8l-1.4-4.31-1.4,4.31Z"/>
  </g>
</svg>