<?xml version="1.0" encoding="UTF-8"?>
<svg id="Layer_2" data-name="Layer 2" xmlns="http://www.w3.org/2000/svg" viewBox="0 0 114.55 45">
  <defs>
    <style>
      .cls-1 {
        fill: #0038a8;
      }

      .cls-2 {
        fill: #fff;
      }

      .cls-3 {
        fill: #009b3a;
      }

      .cls-4 {
        fill: #fedf00;
      }

      .cls-5 {
        fill: #d52b1e;
      }
    </style>
  </defs>
  <g id="Layer_1-2" data-name="Layer 1">
    <path class="cls-1" d="M0,0h114.55v45H0V0Z"/>
    <path class="cls-2" d="M0,0h114.55v30H0V0Z"/>
    <path class="cls-5" d="M0,0h114.55v15H0V0Z"/>
    <g>
      <path class="cls-2" d="M62.98,22.5c0,3.15-2.55,5.71-5.7,5.71s-5.7-2.55-5.7-5.71,2.55-5.7,5.7-5.7,5.7,2.55,5.7,5.7Z"/>
      <path d="M57.27,28.33c-3.21,0-5.83-2.62-5.83-5.83s2.61-5.83,5.83-5.83,5.83,2.61,5.83,5.83-2.62,5.83-5.83,5.83ZM57.27,16.92c-3.08,0-5.58,2.5-5.58,5.58s2.5,5.58,5.58,5.58,5.58-2.5,5.58-5.58-2.5-5.58-5.58-5.58Z"/>
    </g>
    <g>
      <path class="cls-3" d="M60.03,21.61c-.14,0-.14.15-.14.15,0,0,0-.05,0,0,0,.05.02.17.12.18.11,0,.14-.12.14-.18,0-.02,0-.16-.13-.16"/>
      <path d="M60.03,21.99s0,0-.01,0c-.13-.01-.16-.16-.16-.22,0,0,0,0,0,0h0s0-.09.06-.14c.03-.03.07-.04.11-.04h0c.13,0,.16.12.16.19,0,.04-.02.13-.07.17-.03.02-.06.04-.1.04ZM59.93,21.74s0,.02,0,.03c0,.04.02.14.09.15.02,0,.04,0,.06-.02.04-.03.05-.09.05-.13,0-.02,0-.12-.1-.13h0s-.05,0-.07.02c-.02.02-.03.05-.03.07Z"/>
    </g>
    <path d="M53.69,24.78l-.05-.08s-.02-.02-.04-.05c0-.01-.02-.02-.04-.02-.02,0-.03,0-.04,0-.02.01-.03.03-.03.05,0,.02,0,.05.03.08l.05.08.13-.08ZM54.18,24.75l-.62.37-.19-.32c-.04-.06-.06-.11-.06-.14,0-.04,0-.07.01-.11.02-.04.04-.07.08-.09.03-.02.07-.03.1-.03.03,0,.07,0,.1.02.02.01.04.03.07.05,0-.03,0-.05,0-.06,0,0,0-.03.02-.05,0-.02.02-.04.02-.05l.13-.2.13.22-.13.22s-.03.05-.03.06c0,.02,0,.04.01.06v.02s.26-.15.26-.15l.11.19ZM53.08,24.25l-.19-.57.15-.05.12.35.11-.04-.11-.33.14-.05.11.33.13-.04-.12-.37.15-.05.19.58-.68.23ZM53.1,23.1v-.05s-.02-.07-.04-.09c-.02-.01-.04-.02-.06-.02-.02,0-.04.01-.05.03-.01.02-.02.05-.01.09v.06s.17-.02.17-.02ZM52.82,23.36l-.04-.37c0-.08,0-.14.04-.19.03-.04.09-.07.16-.08.07,0,.13,0,.18.04.04.04.07.1.08.19v.12s.28-.03.28-.03l.03.22-.72.08ZM52.8,21.95l.02-.22.43.05s.08.02.12.03c.04.02.07.04.09.07.02.03.04.06.05.1.01.04.01.1,0,.16,0,.04-.01.08-.02.11,0,.04-.02.07-.04.1-.02.03-.04.05-.07.07-.03.02-.06.03-.09.04-.05,0-.09.01-.12,0l-.43-.05.02-.22.44.05s.07,0,.1-.02c.02-.02.04-.05.04-.09,0-.04,0-.07-.02-.09-.02-.02-.05-.04-.09-.04l-.44-.05ZM53.52,21.34l.04-.11s.01-.06,0-.08c0-.02-.02-.03-.04-.04-.02,0-.04,0-.06,0-.02.01-.03.03-.05.07l-.04.11.14.05ZM53.25,21.25l.03-.09s.01-.06,0-.08c0-.02-.02-.03-.04-.04-.02,0-.04,0-.05,0-.02,0-.03.03-.04.06l-.03.09.13.04ZM52.91,21.37l.14-.39c.02-.07.06-.11.1-.13.04-.02.09-.03.14-.01.04.02.07.04.09.07.01.02.02.05.02.09.03-.05.06-.07.1-.09.04-.01.08-.01.12,0,.03.01.06.03.09.06.02.03.04.06.04.09,0,.02,0,.05,0,.09-.01.05-.02.08-.02.1l-.13.36-.68-.24ZM53.28,20.44l.12-.19.46.28.18-.3.15.09-.29.49-.62-.37ZM53.75,19.73l.14-.17.55.47-.14.17-.55-.47ZM54.75,19.35l.19-.08c.02.05.04.1.04.15,0,.05,0,.09-.03.13-.02.04-.06.08-.1.12-.06.05-.12.08-.17.1-.05.01-.11.01-.18-.01-.06-.02-.12-.07-.18-.13-.08-.09-.11-.18-.1-.27,0-.09.06-.17.14-.25.07-.06.14-.09.2-.09.06,0,.13.01.2.06l-.12.16s-.03-.02-.05-.02c-.02,0-.04,0-.06,0-.02,0-.04.01-.05.03-.04.03-.06.07-.05.12,0,.04.03.08.07.13.05.06.1.1.13.1.04,0,.07,0,.11-.03.03-.03.05-.06.05-.09,0-.03,0-.07-.03-.11M55.48,18.91l-.19-.19.05.27.14-.07ZM55.59,19.03l-.23.11.02.12-.2.1-.09-.77.22-.11.57.52-.21.11-.09-.09ZM56.47,18.28l.06.39h.05s.08-.02.1-.04c.02-.01.03-.03.04-.06,0-.03,0-.07,0-.13-.01-.08-.03-.13-.06-.15-.03-.02-.07-.03-.13-.02h-.06ZM56.23,18.15l.33-.05c.06,0,.12,0,.16,0,.04.01.08.03.11.06.03.03.05.06.07.11.02.04.03.09.04.14.01.08.01.14,0,.18-.01.04-.03.08-.06.12-.03.03-.06.06-.09.07-.04.02-.08.03-.13.04l-.33.05-.1-.71ZM57.21,18.01l.6.04v.15s-.38-.03-.38-.03v.11s.34.03.34.03v.15s-.36-.02-.36-.02v.14s.37.03.37.03v.16s-.62-.04-.62-.04l.05-.72ZM58.13,18.09l.21.06-.15.52.33.09-.05.17-.55-.16.2-.69ZM59.34,18.89l.05.03s.07.03.09.03c.02,0,.04-.01.05-.03.01-.02.02-.04.01-.06,0-.02-.02-.04-.06-.07l-.05-.04-.09.13ZM59.32,18.51l.31.2c.07.04.11.09.12.15.01.05,0,.11-.04.17-.04.06-.09.1-.15.11-.06,0-.13,0-.2-.06l-.1-.07-.15.22-.19-.12.4-.6ZM60.11,19.61l.13-.24-.24.13.11.11ZM60.03,19.76l-.18-.18-.11.06-.16-.16.33-.15.37-.17.17.17-.31.7-.17-.16.06-.11ZM60.7,20.07l.05.08s.02.02.04.04c.01.01.02.02.04.02.02,0,.03,0,.04-.01.02-.01.03-.03.03-.05,0-.02,0-.05-.03-.08l-.05-.08-.12.08ZM60.22,20.11l.61-.39.2.31c.04.06.06.11.07.14,0,.04,0,.07,0,.11-.01.04-.04.07-.08.09-.03.02-.07.03-.1.03-.03,0-.07,0-.1-.02-.02-.01-.05-.03-.07-.05,0,.03.01.05,0,.06,0,.02,0,.03-.01.05,0,.02-.01.03-.02.05l-.12.2-.14-.21.12-.22s.02-.05.02-.06c0-.02,0-.04-.02-.05v-.02s-.26.16-.26.16l-.12-.19ZM61.07,21.08l.22-.16-.27.02.05.15ZM60.94,21.18l-.09-.24h-.12s-.08-.21-.08-.21h.77s.08.24.08.24l-.59.5-.08-.22.1-.07ZM61.28,21.95l.15-.02.04.34-.3.04c-.05-.06-.09-.11-.11-.16-.02-.05-.04-.11-.05-.18-.01-.08,0-.16.02-.21.02-.06.06-.1.11-.14.05-.04.12-.06.19-.07.08-.01.15,0,.21.02.06.02.11.07.15.12.03.05.05.11.06.19.01.08.01.14,0,.18,0,.04-.03.08-.05.11-.03.03-.07.06-.11.07l-.06-.21s.04-.03.06-.05c.01-.02.01-.05.01-.08,0-.05-.03-.09-.06-.11-.04-.02-.09-.03-.17-.02-.08,0-.13.03-.16.06-.03.03-.04.08-.03.13,0,.02,0,.05.02.07.01.02.03.05.05.07h.07s-.02-.16-.02-.16ZM61.74,23.03l-.03.22-.43-.05s-.08-.02-.12-.03c-.04-.02-.07-.04-.09-.07-.02-.03-.04-.06-.05-.09-.01-.05-.01-.1,0-.16,0-.03.01-.07.02-.11,0-.04.02-.07.04-.1.02-.03.04-.05.07-.07.03-.02.06-.03.09-.04.05,0,.09-.01.12,0l.43.05-.03.22-.44-.05s-.07,0-.1.02c-.02.02-.04.05-.04.09,0,.04,0,.07.02.09.02.02.05.04.09.04l.44.05ZM61.08,23.85h.27s-.22-.15-.22-.15l-.05.15ZM60.92,23.84l.08-.24-.1-.07.07-.22.59.49-.08.23-.77.02.08-.22h.12ZM61.31,24.5l-.13.21h-.28s.14.25.14.25l-.12.21-.22-.45-.26-.15.11-.19.26.15.5-.03Z"/>
    <path d="M57.27,27.33c-2.66,0-4.83-2.17-4.83-4.83s2.16-4.82,4.83-4.82,4.82,2.16,4.82,4.82h0c0,2.66-2.16,4.83-4.82,4.83ZM57.27,17.78c-2.6,0-4.72,2.12-4.72,4.72s2.12,4.73,4.72,4.73,4.72-2.12,4.72-4.73h0c0-2.6-2.12-4.72-4.72-4.72Z"/>
    <path d="M57.27,26.09c-1.99,0-3.6-1.62-3.6-3.6s1.62-3.6,3.6-3.6,3.6,1.62,3.6,3.6-1.62,3.6-3.6,3.6ZM57.27,18.98c-1.93,0-3.5,1.57-3.5,3.5s1.57,3.5,3.5,3.5,3.5-1.57,3.5-3.5-1.57-3.5-3.5-3.5Z"/>
    <g>
      <path class="cls-4" d="M57.27,21.21l.3.85.9.02-.72.55.26.87-.74-.51-.74.51.26-.87-.72-.55.9-.02.3-.85Z"/>
      <path d="M58.05,23.54l-.05-.03-.73-.51-.78.54.02-.06.26-.85-.76-.57.95-.02.31-.9.02.06.29.84.95.02-.05.04-.71.54.27.91ZM56.13,22.1l.69.52h0s-.24.82-.24.82l.71-.49h.01s.7.49.7.49l-.25-.82h.01s.67-.52.67-.52l-.86-.02h0s-.28-.81-.28-.81l-.28.81h-.01s-.85.02-.85.02Z"/>
    </g>
    <g>
      <path class="cls-3" d="M58.91,24.94s-.15.04-.18.04c-.03,0-.16,0-.21,0-.03,0-.09.01-.12.01-.26-.03.42-.03.51-.06M58.23,24.73s.1-.22.13-.27c.03-.05.1-.19.14-.25.02-.03.11-.12.13-.08-.15.13-.27.35-.33.5,0,.02-.06.1-.07.12-.02.02-.01.06-.04.07-.03,0,0,0,0,0,0,0,.02-.06.04-.09h0ZM59.21,24.88s-.12-.02-.19-.04c-.07-.02-.2-.04-.3-.04-.1,0-.2.03-.28.06-.08.03-.19.03-.19.03,0,0-.06,0-.03,0,.03-.01.12-.09.12-.09l.06-.08s.33-.41.3-.52c.05-.08.1-.23.08-.25-.01-.01-.24.07-.29.12-.06.05-.1.16-.12.22-.02.06-.11.11-.11.11-.07.05-.13.22-.15.35-.03.13-.36.21-.36.21,0,0-.09.03-.01.06.01,0,.05.07.08.07.04,0,.25-.08.28-.08.07.02.14.03.21.06.08.03.14.04.2.02.06-.02.13-.01.19,0,.06.01.12,0,.16,0,.04-.01.15-.07.15-.07,0,0,.11-.05.18-.08.07-.03.03-.04.03-.04"/>
      <path d="M58.44,25.12s-.09-.01-.15-.03c-.07-.02-.14-.04-.2-.06h0s-.08.02-.12.04c-.07.02-.12.04-.15.04-.03,0-.06-.03-.08-.05,0,0-.01-.02-.02-.02,0,0-.05-.01-.05-.05,0-.03.04-.05.06-.06.09-.02.32-.09.34-.19.01-.07.06-.3.16-.37.02-.01.09-.06.1-.1.01-.04.05-.17.13-.23.03-.02.23-.13.31-.13.01,0,.02,0,.02,0,.04.05-.05.23-.07.27,0,.03,0,.08-.07.2-.06.11-.19.29-.24.34l-.07.09s-.03.02-.06.04c.04,0,.09-.01.13-.03.09-.03.18-.07.29-.07h.02c.1,0,.21.02.29.04.07.02.19.04.19.04h0s.03.02.03.04c0,.03-.03.04-.05.06-.07.03-.18.08-.18.08,0,0-.11.06-.15.07-.04.01-.11.02-.17,0-.04,0-.13-.02-.18,0-.02,0-.04.01-.07.01ZM58.09,24.98s0,0,0,0c.07.02.14.03.21.06.07.03.13.04.18.02.06-.02.15-.01.21,0,.06.01.12,0,.15,0,.03,0,.11-.05.14-.07,0,0,.12-.05.18-.08,0,0,0,0,0,0-.04,0-.11-.02-.16-.04-.07-.02-.18-.04-.27-.04,0,0-.01,0-.02,0-.1,0-.19.03-.27.06-.09.03-.2.04-.2.04-.02,0-.06,0-.07-.02,0,0,0-.02.02-.04.02,0,.08-.05.12-.08l.07-.09s.31-.41.28-.49h0s0-.02,0-.02c.04-.07.08-.17.08-.21-.06.02-.22.08-.26.11-.05.04-.09.14-.11.21-.02.07-.11.12-.12.13-.06.05-.12.21-.14.34-.03.15-.34.22-.38.23,0,0-.01,0-.02,0,0,0,0,0,0,0,.01,0,.02.01.04.03,0,0,.03.03.04.03,0,0,0,0,0,0,.02,0,.09-.02.13-.04.08-.03.12-.04.14-.04ZM58.4,25.02c-.06,0-.09,0-.08-.04,0-.03,0-.03.24-.04.13,0,.31-.01.35-.03l.03.04s-.1.04-.18.05h-.02s-.09,0-.15,0c-.03,0-.05,0-.07,0-.01,0-.03,0-.04,0-.03,0-.06,0-.08,0ZM58.2,24.85h-.02s-.03-.02-.03-.04c0-.01,0-.02.02-.02,0-.02.02-.05.04-.07,0-.01.03-.05.05-.1.03-.07.07-.15.09-.18.01-.02.03-.05.05-.08.03-.06.07-.13.1-.17,0,0,.08-.1.13-.1h0s.03.01.04.02v.02s0,.01,0,.01c-.16.14-.28.39-.32.49,0,.02-.06.1-.08.13,0,0,0,.01,0,.02,0,.02-.01.04-.04.05v.02Z"/>
    </g>
    <g>
      <path class="cls-3" d="M58.32,25.28s-.45-.24-.48-.24c-.01,0-.21-.11-.29-.14-.06-.02-.15-.03-.18-.02-.07,0-.2.04-.2.04l.11.05s.11.05.16.08c.07.04.08.09.08.09l.41.18.08.06s.08-.1.31-.09"/>
      <path d="M58.01,25.4l-.1-.07-.42-.18h0s0-.05-.07-.08c-.05-.03-.16-.08-.16-.08l-.17-.07.06-.02s.12-.03.2-.04c0,0,.01,0,.02,0,.04,0,.11,0,.17.03.06.02.16.07.23.1.03.01.06.03.06.03.02,0,.38.19.48.25v.04s-.04,0-.05,0c-.18,0-.25.08-.25.08v.02ZM57.53,25.11l.4.18.07.05s.1-.08.23-.08c-.17-.09-.38-.2-.4-.2,0,0-.02,0-.07-.03-.07-.03-.17-.08-.22-.1-.06-.02-.14-.03-.18-.02-.04,0-.09.01-.13.02l.05.02s.11.05.16.08c.06.03.08.07.09.09Z"/>
    </g>
    <g>
      <path class="cls-3" d="M58.77,24.33c.14-.13.21-.31.33-.41.02.01.02.04,0,.08-.02.04-.05.05-.06.07-.02.03-.1.09-.11.13-.02.03-.04.08-.1.12-.06.04-.04.1-.05.12,0,.03-.1.1-.15.18,0,.09-.01.05-.07.08.1-.15.15-.24.22-.37M58.45,24.74s-.29.18-.2.16c.09-.02.35-.12.42-.15.09-.04.14-.12.21-.19.07-.07.28-.27.32-.35.04-.08.07-.19-.08-.45,0,0-.02.05-.08.1-.05.05-.13.1-.13.1l-.09.09s-.33.61-.37.7"/>
      <path d="M58.24,24.92s-.02,0-.03-.02c-.01-.03,0-.04.13-.12.03-.02.08-.05.09-.06.05-.1.36-.67.37-.7h0s.09-.09.09-.09c0,0,.08-.06.13-.1.05-.04.07-.09.07-.09l.02-.05.03.04c.15.26.12.38.08.47-.04.07-.21.24-.3.33l-.03.03s-.03.04-.05.06c-.05.05-.1.11-.17.14-.08.03-.34.13-.43.15,0,0-.01,0-.02,0ZM58.85,24.06c-.03.05-.33.61-.37.69h0s-.02.02-.1.08c.11-.04.24-.08.29-.11.06-.03.1-.08.15-.13.02-.02.04-.04.05-.06l.03-.03c.08-.08.25-.25.29-.32.03-.07.06-.17-.05-.38-.01.02-.03.04-.06.06-.05.05-.13.1-.14.1l-.09.08ZM58.57,24.73l-.04-.04c.1-.14.15-.24.21-.37h0c.07-.07.12-.15.18-.22.05-.07.1-.14.16-.19h.02s.02,0,.02,0c.05.03.02.09,0,.11-.02.03-.03.04-.05.06,0,0-.01.01-.02.02-.01.02-.03.04-.05.05-.02.02-.05.05-.06.07-.02.04-.04.09-.11.13-.03.02-.03.05-.03.08,0,0,0,.02,0,.03,0,.02-.02.04-.05.07-.03.03-.07.07-.09.11,0,.06-.01.08-.05.09,0,0-.02,0-.03.01ZM59.07,24s-.01.02-.02.02c0,0,.01-.01.02-.02Z"/>
    </g>
    <g>
      <path class="cls-3" d="M59.6,24.52s-.18-.02-.2-.02c-.02,0-.12-.01-.26-.01s-.2.05-.23.09c-.04.04-.15.15-.15.15h.06c.14-.12.26-.08.3-.08.05,0,.1,0,.25-.05.15-.05.14,0,.12,0-.07.03-.14.04-.22.04-.11,0-.2.03-.25.03s-.36.09-.36.09c0,0,.34.02.38.03.04.02.09,0,.14-.01.13-.06.19-.07.25-.08.05-.01.12-.05.12-.05,0,0,.03-.02.07-.08.03-.06-.02-.04-.02-.04M59.77,23.58c.02-.05.08-.18.13-.23.04-.03.1-.04.13-.06.01,0,.11,0-.01.02-.05.01-.12.04-.15.1-.04.12-.08.22-.16.3-.06.06-.1.14-.1.14l-.06.02c.12-.07.17-.2.22-.3h0ZM60.32,23.52c-.07.02-.09.04-.09.04-.15.04-.21.14-.27.21-.03.04-.08.07-.23.14-.14.06-.25.16-.25.16,0,0-.04,0-.04.03,0,.01.04,0,.04,0,0,0,.29-.04.41-.12.08-.05.12-.08.2-.2.03-.05.07-.15.07-.08,0,.16-.25.32-.36.37-.06.02-.14.04-.24.05-.1.02-.16.01-.16,0,.01-.03.02-.04.05-.07.05-.06.16-.08.25-.12.1-.05.2-.11.25-.17.05-.06.07-.08.08-.13.04-.13.04-.2.07-.24.12-.15.14-.2.15-.27,0-.02-.06.04-.1.05-.07.04-.09.04-.23.08-.14.03-.14.12-.16.17,0,.02-.06.09-.09.1-.03.01-.09.11-.12.16-.02.04-.05.07-.08.07-.03,0,.05-.3.07-.35.02-.05.02-.14.02-.17s0-.11-.05-.12c-.05,0-.06-.08-.06-.08-.13.11-.06.31-.04.42.01.11-.03.33-.03.33.12.05.03.2-.01.25-.04.05-.12.06-.15.1-.04.04-.3.41-.3.41l.32-.09s.03,0-.02-.03c-.05-.03.02-.17.06-.2.08-.06.19-.02.19-.02,0,0,.15.02.33-.05.15-.06.22-.16.29-.23.04-.04.11-.17.16-.25.03-.05.08-.13.05-.12"/>
      <path d="M59.09,24.83s-.04,0-.06,0c-.02,0-.23-.02-.37-.03v-.05s.04-.01.07-.02h0s.11-.11.15-.15c0,0,0,0,.01-.01h-.02s.04-.06.04-.06c.01-.01.26-.36.3-.41.02-.03.05-.04.08-.05.03-.01.05-.03.07-.05.03-.04.08-.12.06-.17,0-.02-.02-.03-.04-.04h-.02s0-.03,0-.03c0,0,.04-.21.03-.32,0-.02,0-.05-.01-.07-.02-.12-.05-.27.06-.37l.04-.03v.05s0,.05.04.06c.07.01.07.11.07.14,0,0,0,.12-.02.19-.02.05-.07.24-.07.31.01,0,.02-.02.03-.04.02-.05.09-.16.13-.18.02,0,.07-.07.08-.09,0,0,0-.02.01-.03.02-.05.04-.12.16-.15.03,0,.05-.01.07-.02.08-.02.1-.02.15-.05.01,0,.03-.02.04-.03.04-.03.06-.04.08-.03h.01s0,.03,0,.03c0,.08-.03.13-.15.28-.02.02-.03.06-.04.12,0,.03-.02.07-.03.11.04-.04.09-.07.16-.09,0,0,.04-.02.09-.04h0s.03,0,.04,0c.01.02.02.04-.05.15l-.03.05c-.05.08-.1.17-.13.21-.01.01-.03.03-.04.04-.06.07-.13.14-.26.19-.19.07-.34.05-.35.05,0,0-.1-.04-.17.01-.02.02-.07.1-.06.14,0,0,0,.02,0,.02.02.02.05.04.04.06,0,.01-.02.02-.03.02l-.08.02c.08,0,.14,0,.18.01.01,0,.02,0,.03,0,.02,0,.16.01.19.02.02,0,.04,0,.05.01.02.02,0,.06,0,.07-.04.06-.07.09-.08.09,0,0-.07.04-.13.05h0c-.05.01-.11.03-.23.08-.03.02-.07.03-.11.03ZM58.83,24.75c.1,0,.2.02.22.02.03.01.08,0,.12-.01.13-.06.19-.07.24-.08h0c.05-.01.11-.05.11-.05h0s.03-.02.06-.07c0,0,0,0,0,0h0c-.07,0-.18-.02-.19-.02,0,0-.02,0-.03,0-.04,0-.12-.01-.23-.01-.14,0-.18.05-.21.08-.01.02-.04.04-.06.06.1-.05.17-.04.22-.04.01,0,.02,0,.03,0h.02s.1,0,.22-.05c.11-.04.14-.02.15-.01,0,0,.01.02.01.03,0,.01-.01.02-.03.03-.07.03-.15.04-.22.05-.06,0-.12.01-.16.02-.04,0-.07,0-.09,0-.02,0-.1.02-.19.04,0,0,0,0,0,0h0ZM59.48,24.58h0,0ZM59.44,23.74s.05.05.05.07c.02.08-.05.18-.07.21-.02.03-.06.05-.09.06-.03.01-.05.02-.06.04-.03.03-.18.24-.25.34l.22-.06s-.02-.03-.02-.05c0-.06.05-.15.08-.18.03-.03.07-.04.1-.04,0,0,0,0,0,0,0,0-.01-.02,0-.03,0-.03.02-.04.04-.06,0,0,.01-.01.02-.02.04-.04.1-.07.17-.09.01,0,.03-.01.04-.02.02-.01.04-.02.06-.03.02,0,.03-.01.04-.02.07-.04.14-.09.18-.13.05-.06.06-.07.07-.12.01-.05.02-.08.03-.12.01-.06.02-.1.05-.14.09-.11.12-.16.13-.21,0,0,0,0,0,0-.02.01-.03.02-.04.03-.06.03-.08.04-.16.06-.02,0-.04.01-.07.02-.1.02-.11.07-.13.12,0,.01,0,.02-.01.03,0,.02-.07.1-.1.11-.02,0-.08.09-.1.15-.02.05-.06.08-.1.08,0,0,0,0,0,0h-.01s0-.02,0-.02c-.03-.05.07-.36.07-.37.02-.04.02-.12.02-.17,0-.04,0-.09-.03-.09-.03,0-.05-.03-.06-.05-.06.08-.03.2-.02.29,0,.03,0,.05.01.07.01.1-.01.26-.02.32ZM59.51,24.15s.15.02.31-.05c.1-.04.16-.09.21-.14-.08.06-.16.11-.21.13-.06.02-.13.04-.21.05h-.03s-.05.01-.06.01ZM59.68,23.96c-.07.04-.13.08-.16.1.08-.01.28-.05.37-.11.08-.05.12-.08.19-.19,0-.01.02-.03.03-.05.02-.04.04-.07.06-.07,0,0,0,0,0,0,.02,0,.02.03.03.04,0,.02,0,.05-.01.07.02-.03.04-.06.05-.09l.03-.05s.03-.05.04-.07c-.03.01-.04.02-.04.02h0c-.12.04-.18.11-.24.18,0,.01-.02.02-.02.03-.03.04-.08.07-.2.12-.02.01-.04.02-.06.03-.01,0-.03.01-.05.02ZM59.55,23.9l-.02-.05c.09-.05.14-.15.18-.23.01-.02.02-.04.03-.06.05-.12.1-.2.14-.24.03-.03.07-.04.1-.05.01,0,.02,0,.03-.01,0,0,.06-.01.08,0h.01s0,.03,0,.03c0,.02-.02.03-.08.04-.02,0-.1.03-.14.08-.04.12-.08.23-.17.31-.05.06-.09.13-.09.13h0s-.07.04-.07.04Z"/>
    </g>
    <g>
      <path class="cls-3" d="M59.41,24.38s.03-.01.07-.06c.04-.05,0-.13-.06-.13-.03,0-.07,0-.14.08-.06.09.03.12.07.12.02,0,.04,0,.06-.02"/>
      <path d="M59.36,24.43h0s-.09-.02-.11-.07c0-.02-.01-.06.02-.1.06-.09.1-.09.15-.09h0s0,0,0,0c.04,0,.08.02.1.06.02.04.01.08-.02.11h0c-.04.05-.05.06-.08.07-.03.01-.05.02-.07.02ZM59.42,24.22s0,0,0,0h-.01s-.05,0-.1.07c0,.01-.02.03-.01.05,0,.02.04.03.06.03h0s.02,0,.04-.01h0s.02,0,.06-.05h0s.01-.04,0-.06-.02-.03-.04-.03Z"/>
    </g>
    <g>
      <path class="cls-3" d="M59.24,23.82c-.04.07-.07.15-.03.18,0,0,.04.03.06.03s.09-.03.13-.1c.04-.06.07-.13,0-.17-.07-.04-.13,0-.16.05"/>
      <path d="M59.27,24.06s-.06-.02-.07-.03h0c-.05-.05-.02-.15.02-.22.05-.08.12-.1.19-.06.03.02.06.04.06.07.01.05-.01.09-.04.14-.04.07-.12.11-.16.11ZM59.23,23.98s0,0,0,0c0,0,.03.02.04.02.01,0,.08-.03.11-.08.02-.03.04-.07.04-.09,0-.01-.01-.02-.03-.03-.03-.02-.08-.03-.12.04h0c-.04.08-.05.13-.04.14h0Z"/>
    </g>
    <g>
      <path class="cls-3" d="M59.49,22.95s0-.01-.02-.04c-.04-.05-.1-.13-.1-.13-.09.05-.12.15-.12.19s.01.13,0,.22c0,.03,0,.07-.05.18-.04.11,0,.21.02.25,0,.04.04.14.04.14,0,0,.03-.02.05-.02.01,0,.06,0,.06,0,0,0,.05-.1.06-.15,0-.04,0-.11-.02-.21-.03-.15-.02-.19,0-.28.02-.08.1-.14.1-.14"/>
      <path d="M59.24,23.79v-.03s-.05-.11-.05-.15c0,0,0,0,0-.02-.02-.05-.05-.14,0-.24.04-.1.05-.14.05-.17,0-.06,0-.12,0-.17,0-.02,0-.03,0-.05,0-.04.03-.15.13-.21h.02s.01,0,.01,0c0,0,.06.08.1.12.04.04.03.06.02.07h0s-.07.06-.09.13c-.02.08-.02.12,0,.27.02.1.03.17.02.21,0,.06-.05.15-.06.16h0s-.02.01-.02.01c-.02,0-.05,0-.05,0,0,0-.02.01-.04.02l-.03.02ZM59.36,22.82c-.06.05-.09.12-.09.15,0,.01,0,.02,0,.04,0,.05,0,.11,0,.18,0,.03-.01.07-.06.18-.03.08,0,.16.01.21,0,0,0,.02,0,.02,0,.02.02.08.03.11,0,0,.02-.01.03-.01.01,0,.03,0,.05,0,.02-.03.04-.09.04-.12,0-.03,0-.09-.02-.2-.03-.15-.02-.2,0-.29.02-.07.07-.12.1-.15,0,0,0,0-.01-.01-.03-.03-.07-.08-.09-.11Z"/>
    </g>
    <g>
      <path class="cls-3" d="M59.62,23.1s.05-.01.08-.06c.03-.05.02-.11.02-.11-.08-.15-.18-.03-.18-.03-.09.19.08.2.08.2"/>
      <path d="M59.62,23.13h0s-.08,0-.12-.07c-.03-.04-.02-.1.01-.17h0s.06-.07.12-.06c.04,0,.08.04.11.09h0s0,.08-.03.14c-.03.06-.09.07-.09.07h0ZM59.56,22.91s-.03.08-.01.12c.02.03.06.04.07.04.01,0,.04-.02.05-.04.02-.04.02-.08.02-.09-.02-.03-.04-.05-.06-.06,0,0,0,0,0,0-.03,0-.05.02-.07.03Z"/>
    </g>
    <g>
      <path class="cls-3" d="M59.89,22.82c-.12,0-.17.21-.17.21,0,0-.02.05-.08.09-.07.04-.03.1-.03.2s-.07.29-.07.29l-.03.06s0,.05.04-.04c.07-.14.15-.11.18-.26.02-.11.21-.15.21-.15h-.05c-.2-.1.01-.33.04-.37.04-.04.07-.04-.04-.04"/>
      <path d="M59.51,23.73s0,0,0,0c-.02,0-.03-.02-.03-.04h0s.03-.08.03-.08c0,0,.07-.18.07-.27,0-.03,0-.06,0-.08,0-.06-.02-.11.05-.15.05-.03.07-.07.07-.07,0-.02.07-.23.2-.24h.01c.07,0,.09,0,.1.02,0,.02,0,.04-.02.05,0,0-.01.01-.02.02h0c-.09.11-.12.19-.11.24,0,.03.03.05.06.07h.05v.07s-.17.05-.18.12c-.02.1-.06.13-.1.17-.03.02-.06.05-.09.11-.02.04-.04.07-.07.07ZM59.89,22.85c-.07,0-.13.14-.14.19,0,0-.02.07-.1.11-.03.02-.03.03-.02.09,0,.03,0,.05,0,.09,0,.05-.02.13-.04.19,0,0,.01-.01.02-.02.03-.03.06-.05.07-.13.01-.07.08-.12.14-.15-.04-.02-.06-.06-.06-.09-.02-.11.07-.23.12-.28h0Z"/>
    </g>
    <g>
      <path class="cls-3" d="M59.85,23.07c-.05.11.1.12.13.1.01,0,.05-.05.05-.05.06-.09,0-.15-.03-.16-.03-.01-.1-.02-.15.1"/>
      <path d="M59.94,23.21s-.07,0-.1-.03c-.02-.02-.04-.05-.01-.12h0c.06-.14.14-.13.19-.12.02,0,.05.03.07.07.01.03.02.08-.02.13-.01.02-.04.05-.06.05-.01,0-.04.01-.06.01ZM59.97,22.99s-.07.03-.1.09h0s0,.05,0,.05c.02.02.08.02.09.01,0,0,.02-.02.04-.04.02-.03.03-.06.02-.08,0-.02-.02-.03-.03-.03,0,0-.02,0-.02,0Z"/>
    </g>
    <g>
      <path class="cls-3" d="M59.56,22.63c.04.07.15.28.18.27.02,0,0-.05,0-.05,0,0,0-.06-.02-.12-.02-.07-.01-.15-.05-.21-.03-.06-.12-.12-.15-.21-.03-.09,0-.25,0-.28,0-.02.01,0,0-.03-.02-.02-.16-.1-.16-.1,0,0,0,.05,0,.15,0,.02,0,.05-.01.09,0,.04.02.09.08.2.07.13.1.21.13.28M60.41,21.65s-.04.07-.05.08c-.01.02-.24.21-.26.22-.01,0-.13.05-.24.34-.11.29-.06.57-.06.57h.05s0-.04,0-.04c0,0,.02-.1.03-.17.02-.07.1-.17.15-.25.05-.07.09-.18.09-.18.06-.12.09-.23.15-.32,0,.1-.39.73-.43.95l.12-.02c.09-.08.21-.26.29-.38.08-.11.12-.29.13-.37.01-.08.01-.44.01-.44"/>
      <path d="M59.74,22.92s-.07-.05-.2-.28h0s-.04-.07-.06-.12c-.02-.04-.04-.1-.08-.16-.06-.12-.08-.17-.08-.22,0-.02,0-.04,0-.05,0-.01,0-.03,0-.04,0-.09,0-.15,0-.15v-.05s.04.02.04.02c.04.02.15.08.17.1.01.01.02.03,0,.05-.02.11-.02.21,0,.26.02.05.06.1.09.14.02.02.04.05.05.07.03.04.03.09.04.14,0,.03,0,.05.01.07,0,.02,0,.03.01.05,0-.11,0-.29.07-.48.07-.18.15-.3.24-.35.02-.01.24-.2.26-.22,0,0,.03-.05.05-.08h.02s.03.01.03.01c0,.01,0,.36-.01.44-.02.08-.05.26-.14.38l-.03.05c-.08.11-.18.26-.26.33h0s-.16.03-.16.03h0s-.05,0-.05,0c0,.01,0,.03-.02.03,0,0,0,0-.02,0ZM59.39,21.95s0,.06,0,.11c0,.01,0,.03,0,.04,0,.01,0,.03,0,.05,0,.03.02.08.08.19.03.07.06.12.08.16.02.04.04.08.06.11h0c.07.13.11.19.13.23,0-.02,0-.06-.02-.11,0-.03-.01-.05-.01-.08,0-.04-.01-.09-.03-.12-.01-.02-.03-.04-.05-.06-.04-.04-.08-.09-.1-.15-.03-.08-.02-.21,0-.29,0,0,0,0,0,0-.01-.01-.06-.04-.11-.07ZM60.11,21.97s0,0,0,0c-.1.06-.18.21-.22.32-.09.23-.07.46-.06.53h.01s0-.01,0-.01l.03-.17c.01-.07.08-.15.13-.22l.03-.04c.05-.07.09-.17.09-.17.02-.05.04-.09.06-.14.03-.07.06-.13.09-.19l.04-.06v.08c0,.05-.07.19-.18.41-.09.18-.2.39-.24.51h.07c.08-.08.17-.22.25-.33l.03-.05c.08-.11.11-.29.13-.36,0-.05.01-.23.01-.35,0,0,0,.01-.01.01-.01.01-.25.21-.26.22h0Z"/>
    </g>
    <g>
      <path class="cls-3" d="M59.63,21.71c-.06-.05-.1-.07-.1-.07,0,0,.01.11.01.17s0,.17,0,.23c0,.06-.03.15.01.25.04.09.09.14.12.2.03.06.09.36.09.36,0,0-.02-.4,0-.52.02-.11.02-.29,0-.37-.03-.09-.07-.19-.13-.25M59.9,21.32s.06-.11.08-.21c0-.05.01-.12,0-.17,0-.03-.01-.09,0-.1.01,0,0,.02,0,.07,0,.02,0,.07-.01.13,0,.05,0,.09-.03.16-.02.06,0,.13-.01.15-.01.02-.05.09-.05.09,0,0-.02.06-.02.11,0,.06,0,.12,0,.12,0,0,.03-.05.08-.06,0,0,.01-.09.01-.12s.04-.22.06-.28c.03-.09.04-.23,0-.41-.01-.05-.02-.19-.02-.19,0,0-.06.04-.09.21-.01.05.01.19,0,.33,0,.08-.08.4-.09.42"/>
      <path d="M59.74,22.86c-.02-.12-.06-.31-.08-.35-.01-.02-.03-.04-.04-.06-.03-.04-.06-.08-.08-.14-.03-.08-.02-.16-.02-.22,0-.02,0-.03,0-.04,0-.04,0-.09,0-.15,0-.03,0-.06,0-.09,0-.06-.01-.17-.01-.17v-.04s.03.01.03.01c0,0,.05.02.11.08h0c.07.07.11.19.13.26.03.09.02.27,0,.39-.02.11,0,.51,0,.51h-.05ZM59.56,21.69s0,.09,0,.13c0,.02,0,.05,0,.09,0,.05,0,.11,0,.15,0,.01,0,.03,0,.05,0,.05-.02.12.01.19.03.06.05.09.08.13.02.02.03.04.04.06,0,.02.02.05.03.09,0-.1,0-.19,0-.24.02-.11.02-.28,0-.36-.02-.06-.06-.18-.12-.23-.02-.02-.04-.03-.06-.04ZM59.86,21.76v-.09s0-.04,0-.09l-.03-.02s.04-.15.06-.26h0s0-.01,0-.01t0,0c.01-.06.02-.11.02-.14,0-.08,0-.15,0-.21,0-.06,0-.1,0-.13.03-.17.09-.22.1-.23l.04-.03v.05s.01.15.02.19c.05.21.01.38,0,.42-.02.06-.05.25-.05.27,0,.03-.01.12-.01.13v.02s-.02,0-.02,0c-.04,0-.06.04-.06.04l-.04.08ZM59.91,21.45s-.02.05-.02.1c0,.02,0,.04,0,.06.01,0,.02-.01.04-.02,0-.03.01-.08.01-.1,0-.04.04-.23.06-.29.01-.04.05-.18,0-.36h0s0,.03,0,.05c0,.01,0,.03,0,.06,0,.02,0,.05,0,.08,0,.06,0,.1-.03.17-.01.03,0,.06,0,.09,0,.03,0,.05,0,.06,0,.01-.03.06-.05.09h0ZM59.99,20.69s-.03.07-.04.14c0,.02,0,.06,0,.12,0,.02,0,.05,0,.08,0-.03,0-.07,0-.1,0,0,0-.02,0-.03,0-.04-.01-.08.02-.09h.01s.01,0,.01,0c0,0,0,0,0,0,0,0,0,0,0,0,0-.03-.01-.08-.02-.12Z"/>
    </g>
    <g>
      <path class="cls-3" d="M59.9,21.32s0,0,0,0c0,0,0,0,0,0"/>
      <path d="M59.91,21.35l-.04-.03s0,0,0,0h0s0,0,0,0h.01s0,0,0,0l.04.02s0,.02-.01.02Z"/>
    </g>
    <g>
      <path class="cls-3" d="M59.68,20.48s.03.03.02.06c0,.03,0,.07,0,.08,0,.01.01.08.02.12.01.04.03.05.02.12,0,.05-.05.1-.04.18,0,.04.04.08.05.12.01.02,0,.09,0,.14,0,.05.03.08.03.08,0,0-.03.06-.04-.02-.01-.09-.02-.13-.03-.17-.03-.07-.05-.18-.01-.27,0-.02.01-.05.01-.09s-.02-.11-.03-.15c0-.03,0-.1,0-.13M59.54,20.92c0,.05.02.08.08.19.02.04.06.13.06.16,0,.03.01.06.01.07,0,0,0,.08,0,.08v.03s-.16-.09-.22-.14c-.07-.05-.15-.12-.2-.16-.06-.05-.19-.2-.19-.33l-.06-.06s-.05.28.17.46c.06.05.13.11.28.18.15.07.13.13.19.26.06.13.1.21.11.25,0,.04-.02.6-.02.6v.05s.14-.52.21-.58c0,0-.13-.02-.12-.22l-.02-.13s-.03-.16.02-.26c0,0,.06-.18.04-.34-.01-.1-.02-.12-.03-.21-.02-.14-.07-.34-.08-.37-.02-.07-.03-.08-.05-.14,0-.02-.02-.09-.04-.09-.01,0-.03.08-.03.08,0,0-.03.09-.03.12-.02.08-.06.14-.08.31,0,.03,0,.11-.01.12,0,0,0,.06,0,.08"/>
      <path d="M59.8,22.57h-.05s0-.05,0-.05c0-.22.02-.58.02-.6,0-.02-.03-.08-.07-.16l-.04-.08s-.03-.06-.04-.09c-.03-.07-.04-.11-.14-.16-.15-.07-.22-.12-.28-.18h0c-.23-.19-.19-.48-.18-.49v-.05s.11.09.11.09h0c0,.13.13.28.18.32l.03.03s.11.09.16.13c.05.03.13.08.18.12,0-.02,0-.05,0-.06,0,0,0-.04-.01-.07,0-.03-.04-.11-.06-.15v-.02c-.06-.09-.07-.12-.08-.17,0-.02,0-.08,0-.09,0,0,0-.04,0-.06s0-.04,0-.06c.01-.12.04-.19.06-.24,0-.02.02-.05.02-.07,0-.03.03-.12.03-.12.02-.08.03-.1.05-.1,0,0,0,0,0,0,.03,0,.05.05.06.09,0,0,0,.01,0,.02v.03s.03.05.05.11h0c.04.16.07.29.08.37,0,.05.01.09.02.12v.09c.03.16-.02.35-.03.35-.05.1-.02.25-.02.25l.02.13c0,.18.09.2.1.2h.05s-.04.04-.04.04c-.04.04-.14.37-.19.57ZM59.05,20.81c0,.09.02.27.17.39.07.05.13.11.28.17.12.06.14.11.17.19,0,.02.02.05.03.09l.04.08c.04.09.07.14.07.17,0,.03,0,.3-.01.47.04-.14.09-.3.14-.38-.04-.02-.11-.08-.11-.24l-.02-.13s-.02-.13,0-.23c0,.01-.03.03-.05.02-.03,0-.04-.05-.04-.06v-.02c-.01-.07-.02-.1-.03-.14-.03-.08-.06-.2-.01-.3,0-.01.01-.04.01-.08,0-.02,0-.05-.01-.08,0-.02-.01-.05-.01-.07,0-.03,0-.07,0-.11v-.02h0s0-.01,0-.02c0-.02,0-.03,0-.03v-.05s.03.01.04.02c.02.02.01.05,0,.07,0,.02,0,.06,0,.07,0,.01.01.08.02.11,0,0,0,.02,0,.02,0,.02.02.05.01.11,0,.02,0,.04-.02.06-.01.03-.03.07-.02.11,0,.02.02.05.03.07,0,.02.02.03.02.04,0,.02,0,.05,0,.09,0,.02,0,.04,0,.05,0,.04.02.07.02.07h0s0,0,0,0h0s.05-.18.04-.33v-.09s-.02-.07-.03-.12c-.01-.08-.04-.2-.08-.35h0c-.02-.07-.02-.08-.04-.12v-.03s-.02-.01-.02-.02c0,0,0-.01,0-.02,0,.01,0,.02,0,.04,0,0-.03.09-.03.12,0,.03-.01.05-.02.08-.02.05-.04.12-.05.23,0,.01,0,.03,0,.06,0,.05,0,.07,0,.07,0,0,0,.05,0,.06h0s.02.07.06.16v.02s.07.13.08.16c0,.02.01.06.01.08,0,0,0,.08,0,.08v.08s-.04-.02-.04-.02c0,0-.16-.09-.23-.14-.06-.04-.12-.09-.16-.13l-.03-.03s-.19-.2-.2-.34h-.01Z"/>
    </g>
    <g>
      <path class="cls-3" d="M59.65,21.63s-.02-.05-.05-.08c-.05-.05-.11-.1-.29-.19-.18-.09-.22-.23-.31-.29-.04-.03-.12-.04-.12-.04,0,0,.08.11.1.15.02.05.03.08.13.17.1.09.22.12.29.15.11.03.25.14.25.14M59.1,20.79s.05.17.15.29c.15.19.43.32.43.32-.03-.12-.07-.25-.11-.31-.13-.21-.47-.31-.47-.31,0,0,0,0,0,0M59.5,20.88c.08-.17-.15-.33-.21-.44.02-.02.05.03.08.06.04.05.14.19.14.19l.03-.15-.27-.25s-.09.07-.09.07c-.04.23.32.52.32.52"/>
      <path d="M59.72,21.71l-.08-.06s-.14-.1-.24-.13h0c-.08-.03-.19-.06-.29-.15-.09-.08-.1-.12-.12-.16v-.02s-.08-.11-.1-.14l-.04-.05h.06s.09.02.13.06c.04.02.07.06.1.1.05.06.11.13.21.19.19.09.25.14.29.19.02.03.05.08.05.08l.04.09ZM58.95,21.08s.05.07.06.09v.02s.04.07.12.14c.09.08.19.11.27.14h.01s.1.05.15.07c-.04-.04-.11-.08-.25-.15-.11-.06-.18-.14-.23-.2-.03-.04-.06-.07-.09-.09-.01,0-.03-.02-.05-.02ZM59.71,21.45l-.05-.02s-.29-.14-.44-.33c-.06-.08-.11-.18-.15-.29h0s0,0,0,0h0s-.01-.03,0-.04h.02s.01,0,.01,0c.05.02.35.12.47.32.04.06.08.19.11.32v.05ZM59.13,20.83c.03.09.08.18.13.24.1.13.28.24.37.29-.03-.1-.06-.2-.09-.25-.09-.15-.31-.25-.41-.28ZM59.48,20.9s-.37-.3-.33-.54h0s.01-.02.01-.02c.03-.01.07-.03.07-.04v-.05s.32.29.32.29l-.04.19c.02.05.02.11,0,.16h-.02s-.02,0-.02,0ZM59.21,20.38c-.02.17.2.38.28.46.02-.09-.06-.19-.14-.27-.04-.04-.07-.08-.09-.12v-.02s0-.01,0-.01c0,0,.02-.01.03,0,.03,0,.05.03.07.06,0,0,0,.01.01.02.02.03.07.1.11.15l.02-.08-.24-.21s-.05.03-.07.04Z"/>
    </g>
    <g>
      <path class="cls-3" d="M59.03,20.5c-.07.03-.09.03-.09.03l.04.1.02.03s.08.12.13.14c.02,0,.1.02.18.05.1.04.26.18.26.18,0,0-.26-.3-.37-.52l-.03-.13h-.1s.03.1-.04.13"/>
      <path d="M59.55,21.04s-.16-.14-.25-.18c-.05-.02-.11-.04-.14-.04-.01,0-.03,0-.03,0-.05-.02-.13-.13-.15-.15l-.02-.03-.05-.13h.04s.02,0,.08-.03h0s.03-.09.02-.09v-.03s.14,0,.14,0l.04.15c.1.21.36.51.36.51l-.04.04ZM59,20.61l.02.02s.09.12.12.13c0,0,.02,0,.03,0,.03,0,.09.02.15.05.03.01.05.03.08.05-.08-.1-.17-.24-.23-.35l-.03-.11h-.05s0,.1-.06.12h0s-.05.02-.06.02l.02.06Z"/>
    </g>
    <g>
      <path class="cls-3" d="M58.04,20.31s.09.08.14.11c.06.04.23.13.35.16.03,0,.19.02.19.02,0-.07.08-.08.08-.08l-.22-.02c-.18-.01-.32-.09-.43-.21.14.09.35.22.52.22.69-.07-.21-.08-.28-.13-.08-.05-.15-.14-.15-.14h-.2s-.1-.02,0,.07"/>
      <path d="M58.75,20.62h-.03s-.16-.02-.19-.03c-.09-.02-.21-.07-.36-.16-.05-.03-.1-.07-.15-.11-.03-.03-.07-.06-.05-.1.01-.03.06-.03.07-.03h.21s0,.02,0,.02c0,0,.07.08.15.13.02.01.17.03.27.04.24.03.28.03.28.07,0,.02,0,.04-.15.06v.03s-.05,0-.06.05v.03ZM58.02,20.25s.01.02.03.04h0s.09.07.14.1c.18.11.29.14.34.15.02,0,.12.02.16.02,0-.01,0-.02.02-.03h-.08s-.03-.01-.04-.01h-.02c-.18-.02-.32-.09-.44-.22l.03-.04.04.02s.08.05.13.08c-.05-.04-.1-.09-.11-.11h-.19s0,0-.01,0ZM58.65,20.48s.02,0,.02,0c.08,0,.13-.01.17-.02-.05,0-.12-.01-.17-.02-.12-.01-.21-.02-.26-.03.06.03.13.06.19.07h.05Z"/>
    </g>
    <g>
      <path class="cls-3" d="M58.85,20.7s.08-.01.09-.06c0-.05-.01-.09-.08-.11-.04,0-.1-.01-.13.05-.03.07.07.11.07.11,0,0,.02,0,.04,0M58.93,20.3c-.06,0-.08.05-.07.14.02.09.16.05.16.05h.03s.02-.03,0-.1c-.01-.08-.07-.09-.13-.09M59.16,20.37h0s0,0,0,0"/>
      <path d="M58.84,20.72s-.04,0-.04,0c0,0-.07-.03-.09-.08,0-.02,0-.04,0-.06.03-.07.1-.08.16-.07,0,0,0,0,0,0-.02-.01-.03-.03-.03-.06,0-.07,0-.11.02-.14.02-.02.04-.03.07-.03.03,0,.14,0,.15.11.01.08,0,.11-.02.11l-.03.02s-.06.02-.11,0c.03.02.05.06.04.11-.01.07-.06.08-.11.08,0,0,0,0-.01,0ZM58.82,20.55s-.05,0-.07.04c0,0,0,.02,0,.02.01.02.05.05.06.05,0,0,.02,0,.03,0h0s.06-.01.06-.04c0-.04,0-.07-.06-.08,0,0-.02,0-.03,0ZM58.93,20.33s-.03,0-.03.01c0,.01-.02.04-.01.1,0,.01,0,.02.02.03.03.02.09,0,.11,0h.02s0-.03,0-.07c0-.05-.04-.07-.1-.07ZM59.14,20.4l-.02-.04h.03s0,.01,0,.01h.02s-.02,0-.02,0h0s0,.02,0,.02v-.02s0,.02,0,.02h-.02Z"/>
    </g>
    <g>
      <path class="cls-3" d="M59.16,20.37s0,0,.02,0c.03-.01.06-.08.06-.08.01-.1-.05-.12-.05-.12-.12-.02-.12.08-.12.08-.03.13.08.13.09.13M58.64,19.91s.07.11.08.12c.01,0,.09.09.12.13.03.04.12.21.12.21,0,0,.02,0,.02-.02.02-.03-.06-.23-.07-.25-.03-.06-.07-.11-.12-.16-.01,0-.05-.06-.09-.11.08.1.29.4.35.53,0,0,0-.14-.02-.22-.03-.22-.08-.29-.1-.32-.03-.06-.11-.12-.17-.14-.06-.02-.13-.05-.2-.07-.08-.02-.02.05.01.11.04.07.06.13.07.18"/>
      <path d="M58.94,20.4v-.02s-.1-.17-.12-.2c-.03-.04-.1-.12-.11-.13h0s-.08-.09-.08-.13c0-.04-.04-.11-.07-.17,0-.01-.01-.03-.02-.04-.02-.04-.04-.07-.02-.09.02-.02.05-.01.06,0,.05.02.1.03.14.05.02,0,.04.02.06.02.06.02.15.08.19.15h0s.07.13.1.33h0s0,0,.02,0c.03-.02.06-.03.11-.02.03.01.09.06.07.15,0,.02-.04.09-.08.1-.01,0-.02,0-.02,0v-.02s-.01.03-.01.03c-.01,0-.05,0-.08-.02h-.05s-.02-.02-.02-.04c0,.01,0,.02,0,.03-.01.02-.04.03-.04.03h-.02ZM59.15,20.18s-.03,0-.04.01c-.02.02-.02.05-.02.05,0,.03-.01.06,0,.08.02.02.04.02.05.02h0s0,0,.02,0c0,0,.03-.04.04-.07.01-.07-.04-.09-.04-.09,0,0-.02,0-.02,0ZM58.55,19.65s0,.02.01.02c0,.01.02.03.02.04.04.09.07.15.07.19,0,.01.01.04.07.1.01.01.1.1.12.14.02.02.06.1.09.15,0-.03-.02-.08-.03-.11-.08-.13-.18-.27-.23-.33l.04-.03h0s.02.03.02.03c.02.03.05.07.06.07h.01c.04.06.09.1.12.17,0,0,.01.03.03.07.02.03.04.07.06.1,0-.04,0-.07,0-.1-.02-.19-.07-.26-.09-.3,0,0,0,0,0-.01-.03-.05-.1-.11-.16-.13-.02,0-.04-.02-.06-.02-.04-.02-.09-.03-.13-.05Z"/>
    </g>
    <g>
      <path class="cls-3" d="M58.35,20.27c.08.06.11.11.27.13.16.02.17.01.17.01,0,0,.08-.04.04-.07-.23-.1-.45-.22-.57-.36,0,0,.02-.02.1.06.05.05.08.07.11.09.08.06.12.08.21.12.04.02.16.05.16.05,0,0,.02-.03.03-.04.01,0,0-.06-.11-.14-.05-.05-.1-.1-.14-.16,0,0-.12-.03-.24-.05-.09-.01-.27-.15-.27-.11,0,.04.03.16.07.23.05.08.09.15.17.22"/>
      <path d="M58.77,20.45s-.07,0-.16-.02c-.15-.02-.19-.06-.26-.12l-.02-.02c-.07-.06-.12-.14-.16-.21v-.02c-.07-.09-.09-.21-.09-.24v-.02s.01-.01.01-.01c.02-.01.05,0,.12.04.05.03.12.07.16.08.12.02.24.05.24.05h.01s0,.01,0,.01c.04.06.08.11.14.15.03.02.13.11.12.16v.02s-.02,0-.02,0c0,0,0,.01-.01.02h0s.01.04.01.05c0,.04-.05.06-.07.07,0,0,0,0-.03,0ZM58.37,20.25l.02.02c.06.05.1.09.23.11.13.02.16.02.16.02.02-.01.03-.02.04-.03-.28-.12-.47-.24-.57-.37l-.02-.02.02-.02s.07,0,.14.06c.04.04.07.06.09.08h.01c.07.06.1.07.16.11l.04.02s.09.03.13.04c0,0,.01-.02.02-.02,0-.02-.04-.05-.1-.1-.05-.04-.1-.1-.14-.15-.03,0-.13-.03-.23-.04-.05,0-.12-.05-.18-.08-.02,0-.04-.02-.05-.03,0,.05.03.13.07.19v.02c.06.07.1.14.16.19h0ZM58.86,20.25s0,0,0,0c0,0,0,0,0,0Z"/>
    </g>
    <g>
      <path class="cls-3" d="M57.04,25.02c-.07.02-.58.21-.58.21l-.14.06c.2-.04.35.06.35.06l.57-.27s0,0-.02-.02c-.02-.01-.11-.06-.18-.04"/>
      <path d="M56.66,25.37h0s-.1-.07-.24-.07c-.03,0-.06,0-.1.01v-.04s.13-.06.13-.06c.02,0,.52-.19.59-.21.01,0,.03,0,.04,0,.08,0,.16.05.16.05.02.01.02.03.02.03v.02s-.6.28-.6.28ZM56.45,25.26c.11,0,.19.05.22.06l.54-.25s-.1-.05-.16-.04h0c-.07.02-.58.21-.58.21h-.02Z"/>
    </g>
    <g>
      <path class="cls-3" d="M56.29,25.31s0,.02,0,.02c.03.02.02.02.15.04.13.01.22-.01.24-.04.03-.03-.33-.08-.39-.02"/>
      <path d="M56.52,25.39s-.05,0-.08,0c-.11-.01-.13-.02-.15-.03h0s-.02-.02-.02-.03c0-.01,0-.03.01-.03h0c.07-.06.39-.02.42.02.01.01.01.03,0,.04-.02.02-.09.05-.18.05ZM56.32,25.32s.03.02.13.03c.1.01.17,0,.2-.01-.07-.02-.27-.04-.33-.01ZM56.3,25.31s0,0,0,0c0,0,0,0,0,0Z"/>
    </g>
    <g>
      <path class="cls-3" d="M55.47,23.45l-.02-.16s-.03-.44-.08-.52c0-.02,0-.06-.04-.07-.06,0-.06.14-.07.27-.1.65.42,1.14.42,1.14l-.21-.66Z"/>
      <path d="M55.66,24.13s-.53-.51-.43-1.17v-.04c0-.11.01-.2.05-.24.01-.01.03-.02.05-.02.04,0,.05.04.06.07,0,0,0,.01,0,.01.05.09.08.49.08.53l.02.16.21.66-.05.03ZM55.32,22.73s-.03.12-.03.2v.04c-.07.46.18.85.32,1.02l-.17-.53-.02-.16c0-.12-.04-.45-.08-.51,0-.01,0-.02,0-.03,0,0,0-.02,0-.02Z"/>
    </g>
    <g>
      <path class="cls-3" d="M58.02,25.37s-.05-.01-.02-.05c.03-.04.13-.06.15-.06.02,0,.07,0,.11.02.04.01.1.05.08.07-.02.03-.07.06-.15.06-.07,0-.1,0-.13,0-.03-.01-.05-.02-.05-.02"/>
      <path d="M58.2,25.42c-.07,0-.1,0-.13-.01-.03,0-.05-.02-.05-.02,0,0-.04-.01-.05-.04,0-.01,0-.03.01-.06.04-.05.15-.07.17-.07.02,0,.08,0,.12.02.03,0,.09.03.1.07,0,.01,0,.03,0,.04-.02.03-.09.07-.17.07ZM58.02,25.34s0,0,.01,0h0s.02,0,.05.02c.02,0,.06,0,.12,0,.07,0,.11-.03.12-.04,0,0-.03-.03-.06-.04-.04,0-.08-.01-.1-.01h0s-.11.02-.13.05c0,0,0,0,0,0h0Z"/>
    </g>
    <g>
      <path class="cls-3" d="M57.46,25.06s-.18-.08-.35-.16c-.22-.11-.49-.26-.67-.53-.23-.34-.43-.52-.48-.56-.05-.04-.06-.05-.08-.02-.02.02,0,.04,0,.07.05.08.17.22.21.3.07.14.22.29.22.38,0,.01-.04,0-.04,0,0,0-.35-.12-.49-.55-.1-.31-.06-.4-.08-.55-.04-.27-.05-.3-.19-.6,0,0-.08-.14-.09-.11-.01.04.01.17.01.17v.16s0,.35,0,.37-.09.24.29.61c0,0,0,.06-.04,0-.04-.04-.3-.25-.39-.59-.08-.34-.1-.68-.03-.82.06-.13.17-.44.12-.71,0-.03-.01-.11-.03-.09,0,.01-.04.15-.06.2-.03.07-.07.13-.09.17-.03.08-.16.19-.13.41.03.25.05.29.08.38.01.03.04.12.02.12-.02,0-.07-.1-.07-.1,0,0-.24-.47-.09-.85.15-.38.52-.74.52-.74,0,0,.3-.25.36-.31.02-.02.02-.04.01-.04-.08.02-.66.14-.86.83,0,0-.01.03-.03.02-.02,0,0-.04,0-.04,0,0,.13-.49.49-.71.39-.24.35-.21.48-.29.08-.05.16-.12.25-.27,0-.02.05-.1.04-.12,0-.01-.02,0-.03.03,0,0-.11.17-.28.23-.17.06-.3-.02-.47.16-.17.19-.3.44-.3.44,0,0-.04.07-.05.06-.02,0,0-.07,0-.07,0,0,.22-.47.4-.57.18-.1.34-.19.44-.27.12-.1.34-.34.42-.42.02-.02.13-.13.16-.17.02-.02.05-.05.05-.06-.02-.01-.13.04-.13.04,0,0-.59.16-.96.72-.02.03-.06.08-.08.1-.04.04-.06.11-.06.11-.02-.02.21-.31.21-.31l.04-.19s.07-.28.21-.48c.01-.02.1-.1.11-.12.03-.03-.05.03-.04.01,0,0-.55.4-.55.9,0,.09-.06.17-.13.28-.09.13-.12.21-.16.4-.02.08-.03.16-.05.24,0,0,0,.07-.02.07-.02,0-.02-.06-.02-.06,0,0,.06-.37.1-.49.04-.11.06-.19.06-.19,0,0-.02-.28.04-.43.05-.13.19-.31.21-.35,0-.02.07-.14.09-.29,0-.02-.01,0-.04.05-.06.14-.11.17-.21.3,0,0-.26.19-.35.74,0,0,0,.21-.03.53-.02.24,0,.46.02.59.02.08.05.08.03.09-.01,0,0,0-.02-.06-.04-.07-.06-.19-.06-.34,0-.29.03-.52.03-.52,0,0,.02-.47-.17-.68,0-.01.03.09.05.2.02.13-.02.31-.03.38-.01.07-.14.38-.1.67,0,0,.11.49.25.73,0,0,.09.1.01,0-.08-.1-.23-.48-.25-.51-.01-.03-.12-.27-.23-.36-.05-.05-.21-.14-.21-.14,0,0-.08-.06-.02.02.05.07.12.18.15.23.07.11.12.22.17.33.05.11.17.44.17.44l.07.21s.13.07.19.15c.06.06.17.2.27.46.04.11.13.21.13.21,0,0-.02.04-.1-.1-.08-.14-.15-.39-.33-.59-.14-.15-.51-.3-.51-.3,0,0,.24.42.3.49.1.12.25.29.29.33.04.05.27.33.3.37.05.07.09.1.12.13.06.06.24.18.25.2,0,.02,0,0,0,0-.08-.05-.17-.12-.27-.18-.1-.06-.47-.22-.72-.57-.06-.1-.09-.14-.11-.13-.03.02.17.68.58.89,0,0,.45.2.55.26.06.03.17.08.22.12.03.02-.03.02-.03.02-.24-.02-.59-.05-.8-.17,0,0-.09-.06-.02.03.06.07.17.24.39.34.22.1.54.15.65.16.11,0,.52,0,.6.03.08.03.21.11.28.13.07.02.27.1.27.1,0,0,.06.03.09.05.04.01.19.01.2-.02.01-.03-.04-.06-.04-.06"/>
      <path d="M57.39,25.17s-.07,0-.09-.01c-.03-.01-.09-.04-.1-.05h0s-.2-.08-.27-.1c-.04-.01-.09-.04-.15-.07-.05-.03-.1-.05-.14-.06-.05-.02-.29-.02-.44-.03-.06,0-.12,0-.15,0-.11,0-.43-.06-.66-.16-.19-.08-.3-.22-.37-.31-.01-.01-.02-.03-.03-.04-.03-.03-.04-.06-.03-.07.01-.01.03,0,.07.02.21.12.58.15.78.17-.03-.02-.08-.04-.12-.07-.03-.02-.06-.03-.08-.04-.1-.06-.55-.26-.55-.26-.39-.2-.59-.79-.6-.89,0,0,0-.02.01-.03.04-.02.07.03.14.14.2.28.48.43.63.52,0,0,.02.01.03.02-.02-.02-.04-.04-.06-.08-.03-.04-.26-.32-.3-.37-.01-.02-.04-.05-.07-.08-.06-.07-.15-.17-.21-.25-.06-.08-.29-.48-.3-.5l-.03-.05.06.02s.16.07.31.15l-.06-.16s-.12-.33-.17-.44c-.05-.11-.11-.22-.17-.33,0-.01-.02-.03-.03-.05-.03-.06-.08-.14-.12-.19-.02-.03-.04-.05-.02-.07.01-.02.03,0,.07.02,0,0,.15.09.21.14.11.1.22.34.24.37h0s0,.02,0,.02c-.04-.13-.06-.22-.06-.23-.04-.23.04-.48.08-.6,0-.03.02-.06.02-.07v-.03c.02-.08.05-.23.03-.34-.01-.06-.03-.12-.04-.16-.01-.04-.02-.05,0-.06h.01s.01,0,.01,0c.12.13.16.36.17.52,0-.07,0-.12,0-.12.09-.53.33-.73.35-.75.03-.04.05-.06.07-.09.06-.07.09-.11.13-.21.03-.06.04-.07.05-.07,0,0,0,0,0,0,0,0,.02,0,.02.03-.01.09-.04.19-.09.29h0s-.03.05-.05.09c-.05.07-.12.18-.16.27-.06.15-.04.42-.04.42h0s0,0,0,0c0,0-.03.08-.06.19-.02.06-.04.17-.06.28,0-.02,0-.03,0-.05.04-.2.07-.28.16-.41.07-.1.13-.19.13-.27,0-.5.54-.9.56-.91h0s0,0,0,0c0,0,0,0,.01,0,.03-.02.05-.03.06-.01.01.02,0,.03,0,.04,0,0-.03.03-.05.06s-.05.05-.06.06c-.14.19-.21.47-.21.47l-.02.11c.36-.43.84-.56.85-.56.12-.06.14-.04.14-.04h0s0,.02,0,.02c0,.01,0,.02-.03.04,0,0-.02.02-.02.02-.02.03-.08.1-.14.16h-.01s-.03.05-.05.07c-.1.11-.26.29-.37.37-.09.07-.23.16-.45.27-.17.09-.38.52-.39.56,0,0,0,0,0-.01,0,0,.14-.26.3-.45.12-.13.22-.13.32-.14.05,0,.1,0,.16-.03.15-.05.25-.2.27-.22,0-.01.02-.05.04-.05h0s.02,0,.02.02c0,.03-.04.13-.04.14-.1.17-.18.23-.25.28-.04.02-.06.04-.08.05-.06.03-.11.06-.39.24-.13.08-.23.2-.31.32.21-.29.5-.41.68-.45h0s.02,0,.03,0c0,.01,0,.04-.02.06-.06.06-.35.3-.36.31,0,0-.37.36-.51.73-.14.37.09.83.09.83,0,.02.02.04.03.05,0-.02,0-.04-.02-.06v-.02c-.03-.08-.05-.13-.08-.37-.02-.17.05-.28.1-.36.02-.03.03-.05.04-.07,0-.03.03-.06.04-.09.02-.03.03-.06.04-.08.01-.02.03-.08.04-.12.02-.06.02-.07.03-.08.01-.01.02-.01.03-.01.02,0,.03.04.04.09,0,0,0,.02,0,.02.05.3-.08.63-.13.73-.06.14-.05.48.03.81.06.26.24.44.33.53-.14-.15-.26-.35-.23-.54,0,0,0,0,0,0,0-.02.01-.36.01-.37v-.16s-.04-.14-.03-.18c0,0,.01-.02.02-.02h0s.11.12.11.12c.14.31.15.34.19.61,0,.05,0,.09,0,.14,0,.1,0,.2.07.41.14.41.48.53.48.53,0,0,0,0,.01,0-.01-.05-.06-.11-.11-.18-.04-.06-.08-.11-.11-.17-.02-.04-.07-.11-.11-.17-.04-.05-.07-.1-.09-.13-.01-.02-.03-.06,0-.09,0,0,.02-.02.03-.02h0s.03,0,.05.03c0,0,.01.01.02.02.06.04.26.23.49.57.18.27.44.42.67.53.17.08.34.16.35.16h0s.07.05.05.09c0,0-.01.02-.02.02-.02.01-.07.02-.11.02ZM55.05,24.34s0,.01.01.02c.06.08.17.21.35.29.21.09.53.15.64.16.03,0,.09,0,.15,0,.22,0,.4.01.46.03.04.01.09.04.14.07.05.03.1.05.14.07.07.02.26.1.27.1,0,0,.06.03.09.05.03.01.16,0,.18,0,0,0-.02-.02-.04-.04-.02,0-.19-.09-.34-.16-.23-.11-.5-.27-.68-.54-.22-.33-.43-.52-.48-.56,0,0-.02-.01-.02-.02,0,0-.02-.01-.02-.02,0,0,0,0,0,0,0,.01,0,.02.01.04.02.03.05.08.09.13.05.06.09.13.12.17.03.05.07.11.11.16.06.09.12.17.12.23h0s-.01.02-.01.02c0,0-.02.01-.06-.01-.01,0-.36-.13-.5-.56-.07-.21-.07-.32-.08-.42,0-.04,0-.09,0-.13-.04-.28-.05-.29-.18-.6,0-.01-.04-.06-.06-.08,0,.04,0,.1.02.14l.02.16c0,.12-.01.36-.01.37,0,0,0,0,0,.01-.04.21.13.43.28.58h0s0,.01,0,.01c0,0,0,.04-.02.05-.02.01-.05-.02-.06-.03,0,0-.01-.01-.02-.02-.07-.06-.24-.22-.33-.45,0,0,0,0,0,0h0s-.05-.01-.1-.11c-.02-.04-.04-.09-.07-.14-.06-.13-.13-.3-.26-.44-.1-.11-.34-.23-.45-.27.07.12.22.38.27.44.07.08.15.18.21.25.03.04.06.07.07.08.04.05.27.33.3.37.04.05.07.08.09.11,0,0,.01.01.02.02.04.04.12.1.18.14.05.04.07.05.08.06h0s0,.01,0,.01h0s0,.01,0,.02v.02s-.02,0-.02,0c-.01,0-.02-.01-.02-.02,0,0,0,0,0,0-.04-.02-.09-.06-.14-.1-.04-.03-.08-.06-.13-.09-.02-.01-.04-.03-.08-.04-.15-.09-.44-.24-.65-.53-.02-.03-.05-.09-.07-.11.02.13.22.66.57.84.02,0,.46.2.56.26.02.01.05.03.07.04.05.03.11.06.15.08.02.02.02.03.01.04-.01.03-.06.02-.06.02-.19-.02-.55-.04-.78-.16ZM54.74,22.72s.13.08.19.15c.11.12.2.28.27.46.02.05.05.1.07.13,0,0,0,0,0,0-.08-.34-.1-.69-.03-.83.03-.07.18-.41.12-.7,0,0,0-.01,0-.02,0,0,0-.01,0-.02,0,0,0,.02,0,.03-.01.05-.03.1-.04.13-.01.03-.03.06-.04.09-.02.03-.03.06-.04.08,0,.02-.02.05-.04.08-.05.07-.11.18-.09.33.03.23.04.28.07.36v.02c.04.11.04.14.01.15h0s-.01,0-.01,0c0,0-.03,0-.08-.11,0-.02-.24-.48-.09-.86.15-.38.52-.74.53-.74s.28-.23.36-.3c-.24.07-.65.26-.81.81,0,0-.01.03-.03.04,0,0-.02,0-.03,0,0,0-.02-.01-.02-.02,0-.02,0-.04,0-.05.01-.04.14-.51.5-.72.28-.17.34-.21.39-.24.02-.01.05-.03.08-.05.07-.04.14-.1.24-.26,0,0,0,0,0-.02-.05.06-.14.15-.25.19-.06.02-.11.02-.17.03-.1,0-.19.01-.29.13-.16.18-.3.44-.3.44-.05.08-.06.08-.08.08,0,0-.02,0-.02-.02,0-.02,0-.06.01-.08,0-.02.23-.48.41-.58.21-.11.35-.2.44-.27.1-.08.27-.26.36-.36.02-.02.04-.04.05-.05v-.02s.13-.12.15-.15c0,0,0,0,.01-.01-.02,0-.04.02-.06.03,0,0-.59.17-.95.71-.02.03-.06.08-.08.1,0,0,0,0-.01.01,0,0-.01.02-.02.02-.02.03-.03.06-.03.07v.03s-.03-.02-.03-.02c0,0-.02-.02.03-.1,0,0,0-.01.01-.02.03-.05.08-.12.17-.22l.04-.18s.07-.27.21-.47c-.16.15-.43.44-.43.79,0,.1-.06.19-.14.3-.09.12-.12.2-.16.39-.02.08-.03.16-.05.24,0,.02,0,.06-.02.08,0,0-.02,0-.03,0-.04,0-.03-.07-.03-.09,0-.02.06-.38.1-.49.03-.1.06-.17.06-.18,0-.04-.02-.29.04-.44.04-.09.11-.2.16-.28.02-.03.04-.06.05-.08h0c.03-.06.05-.12.06-.17-.04.07-.07.11-.12.17-.02.03-.05.05-.07.09h0s-.25.19-.34.73h0s0,.21-.03.53c-.02.23,0,.46.02.59,0,.01,0,.02,0,.03,0,0,0,.02,0,.02,0,0,0,.01.01.02,0,0,.01.02,0,.03,0,.01-.01.02-.02.02h-.01s-.01,0-.01,0h-.01s0-.02,0-.02c0,0,0-.02,0-.03,0,0,0-.01,0-.02h0c-.03-.06-.06-.17-.06-.35,0-.29.02-.52.02-.52,0,0,.01-.33-.1-.55,0,.02.01.05.02.07.02.12,0,.27-.03.36v.03s-.02.04-.03.08c-.04.13-.11.36-.07.58,0,0,.09.42.22.66.02.03.03.05.04.06.04.05.04.06.03.07-.02.01-.02,0-.07-.05-.01-.02-.02-.04-.03-.06-.06-.11-.14-.29-.21-.44h0c-.02-.05-.13-.28-.23-.37-.04-.04-.13-.1-.18-.12.03.05.07.12.1.17.01.02.02.03.03.04.07.11.12.22.17.33.05.11.16.42.17.44l.07.2Z"/>
    </g>
    <g>
      <path class="cls-3" d="M60.1,21.62s.07.15.07.15c0,0,0-.08,0-.12s-.02-.18-.02-.18l-.04.03s-.08.11-.08.11c0,0,.03,0,.07.01"/>
      <path d="M60.14,21.78c0-.06-.03-.13-.05-.13-.04-.01-.06,0-.06,0h-.04s.02-.03.02-.03c0,0,.03-.08.08-.12l.08-.06v.04s.02.15.02.19c0,.04,0,.12,0,.12h-.05ZM60.06,21.58s.03,0,.04.01h0s.02,0,.02.02c0-.03,0-.06,0-.09h0s-.04.05-.05.07Z"/>
    </g>
  </g>
</svg>