<?xml version="1.0" encoding="UTF-8"?>
<svg id="Layer_2" data-name="Layer 2" xmlns="http://www.w3.org/2000/svg" viewBox="0 0 114.55 45">
  <defs>
    <style>
      .cls-1 {
        fill: #fff200;
      }

      .cls-2 {
        fill: #fff;
      }

      .cls-3 {
        fill: #231f20;
      }

      .cls-4 {
        fill: #006035;
      }

      .cls-5 {
        fill: #2e2c70;
      }

      .cls-6 {
        fill: #ed1c24;
      }
    </style>
  </defs>
  <g id="Layer_1-2" data-name="Layer 1">
    <path class="cls-6" d="M45.82,0h68.73v45H45.82V0Z"/>
    <path class="cls-4" d="M0,0h45.82v45H0V0Z"/>
    <path class="cls-1" d="M54.67,29.5c-3.42-.1-19.08-9.88-19.19-11.44l.87-1.44c1.55,2.26,17.57,11.77,19.14,11.43l-.82,1.45Z"/>
    <g>
      <path class="cls-1" d="M54.75,29.54c-.06.11-.17.11-.37.09-1.28-.14-5.16-2.03-9.74-4.77-5.34-3.2-9.75-6.11-9.27-6.87l.13-.23h.03c-.43,1.3,8.7,6.52,9.24,6.85,5.28,3.27,9.74,5.19,10.13,4.69l-.14.25ZM36.16,16.42c-.31.82,4.09,3.54,9.38,6.76,5.29,3.22,9.85,5.2,10.18,4.92.02-.04.17-.29.15-.29-.06.1-.22.13-.46.06-1.43-.41-5.15-2.12-9.77-4.92-4.61-2.8-8.63-5.38-9.25-6.47-.04-.08-.07-.21-.07-.32h-.02s-.13.23-.13.23l-.02.04Z"/>
      <path class="cls-3" d="M54.54,29.67s-.1,0-.17-.01c-1.3-.14-5.22-2.06-9.76-4.78-6.06-3.63-9.1-5.81-9.31-6.67-.02-.09-.01-.18.03-.24l.13-.23s.02-.02.04-.01h.03s.02.02.02.02c0,0,0,.02,0,.02-.14.43.82,1.85,8.87,6.59.18.11.31.18.36.21,2.45,1.52,4.9,2.85,6.9,3.76,2.14.97,3.05,1.12,3.19.94.01-.01.03-.02.04,0,.01,0,.02.03,0,.04l-.14.25c-.05.09-.13.11-.24.11ZM35.47,17.86l-.08.14c-.03.05-.04.12-.02.19.2.85,3.24,3.02,9.28,6.63,4.53,2.71,8.44,4.63,9.73,4.77.2.02.29.02.34-.07,0,0,0,0,0,0l.08-.14s-.1.02-.16.02c-1.11,0-5.15-1.82-9.9-4.76-.05-.03-.17-.1-.36-.21-5.91-3.48-8.91-5.69-8.91-6.56ZM55.62,28.15c-.84,0-5.13-1.92-10.1-4.94-5.69-3.46-9.69-5.97-9.39-6.8,0,0,0,0,0,0l.02-.04.13-.23s.02-.02.03-.02h.02s.02,0,.02.01c0,0,0,.02,0,.02,0,.1.02.23.06.3.66,1.16,5.29,4.06,9.24,6.46,4.34,2.63,8.19,4.46,9.76,4.92.21.06.36.04.42-.04,0,0,.01-.01.02-.01.01,0,.03,0,.03.01.01.02.02.02-.13.28l-.02.03s0,0,0,0c-.02.02-.07.03-.12.03ZM36.19,16.43c-.3.84,4.83,3.96,9.36,6.72,5.43,3.3,9.81,5.16,10.14,4.92l.02-.03s.05-.08.07-.13c-.09.03-.22.03-.38-.02-1.57-.45-5.43-2.29-9.78-4.92-3.96-2.4-8.6-5.31-9.26-6.48-.04-.06-.06-.16-.07-.25l-.11.19Z"/>
    </g>
    <path class="cls-1" d="M45.84,19c3.42-.03,7.64-.47,10.07-1.44l-.52-.85c-1.44.79-5.68,1.32-9.57,1.4-4.61-.04-7.86-.47-9.49-1.56l-.49.91c3,1.27,6.06,1.54,10.01,1.55"/>
    <g>
      <path class="cls-1" d="M55.59,16.72c-.26.21-1.55.67-3.82,1.03-1.52.22-3.45.41-5.91.41-2.34,0-4.25-.16-5.71-.37-2.31-.3-3.54-.85-3.98-1,.04-.08.09-.15.14-.23.34.17,1.53.66,3.87.99,1.44.2,3.35.36,5.68.35,2.45,0,4.36-.2,5.87-.42,2.29-.31,3.51-.9,3.7-1.05l.17.28ZM56.05,17.59c-.08.13-1.67.68-4,1.08-1.58.24-3.65.45-6.22.45-2.45,0-4.45-.17-5.96-.38-2.45-.38-3.71-.92-4.18-1.11.04-.09.07-.15.12-.23,1.35.54,2.62.86,4.1,1.09,1.5.2,3.48.38,5.91.38,2.56,0,4.6-.22,6.18-.46,2.39-.39,3.7-.88,3.88-1.11l.17.29Z"/>
      <path class="cls-3" d="M45.78,19.15c-2.08,0-4.07-.13-5.91-.38-2.37-.37-3.65-.89-4.14-1.09l-.05-.02s-.02-.01-.02-.02c0,0,0-.02,0-.03.02-.04.03-.07.05-.1.02-.04.04-.09.07-.14,0-.01.03-.02.04-.02,1.29.51,2.55.85,4.1,1.09,1.86.25,3.85.38,5.91.38,2.1,0,4.11-.15,6.17-.46,2.36-.38,3.68-.87,3.86-1.1,0,0,.02-.01.03-.01.01,0,.02,0,.03.02l.17.29s0,.02,0,.03c-.1.16-1.74.7-4.02,1.1-1.95.3-4.04.45-6.23.45-.02,0-.03,0-.05,0ZM35.73,17.62h.02c.48.2,1.76.72,4.12,1.09,1.84.25,3.83.38,5.9.38.02,0,.03,0,.05,0,2.18,0,4.27-.15,6.22-.45,2.31-.4,3.8-.92,3.97-1.06l-.14-.23c-.26.23-1.48.71-3.87,1.09-2.06.31-4.08.46-6.18.46-.02,0-.03,0-.05,0-2.04,0-4.02-.13-5.87-.38-1.54-.24-2.8-.57-4.08-1.08-.02.04-.04.07-.05.11-.01.02-.02.04-.03.07ZM45.8,18.2c-2.05,0-4.01-.13-5.66-.37-2.04-.27-3.23-.72-3.8-.94-.07-.03-.14-.05-.19-.07,0,0-.02-.01-.02-.02,0,0,0-.02,0-.03.04-.08.09-.15.14-.23,0-.01.03-.02.04-.01.2.1,1.33.63,3.86.98,1.14.16,3.04.35,5.63.35.02,0,.03,0,.05,0,2.67,0,4.62-.24,5.86-.42,2.19-.3,3.47-.87,3.69-1.04,0,0,.02,0,.03,0,0,0,.02,0,.02.02l.17.28s0,.03,0,.04c-.25.2-1.52.67-3.84,1.04-1.93.28-3.87.41-5.92.41-.02,0-.03,0-.05,0ZM36.21,16.78s.09.04.15.06c.57.22,1.75.67,3.78.93,1.66.24,3.64.37,5.71.37,2.04,0,3.98-.14,5.91-.41,2.24-.36,3.49-.8,3.79-1.01l-.13-.22c-.29.2-1.57.74-3.69,1.03-1.24.18-3.2.41-5.87.42-2.62,0-4.54-.19-5.69-.35-2.44-.35-3.59-.85-3.85-.98-.03.06-.07.11-.1.17Z"/>
    </g>
    <path class="cls-1" d="M34.61,23.12c2.1,1.13,6.77,1.7,11.2,1.74,4.03,0,9.27-.62,11.23-1.66l-.05-1.13c-.61.96-6.23,1.88-11.22,1.84s-9.62-.81-11.16-1.8v1.02Z"/>
    <g>
      <path class="cls-1" d="M57.14,22v.27c-.29.35-2.14.88-4.46,1.26-1.76.27-4.06.47-6.93.47s-4.89-.19-6.58-.45c-2.66-.39-4.36-1.07-4.7-1.27v-.31c1.03.68,3.81,1.18,4.74,1.33,1.67.26,3.83.45,6.54.45,2.85,0,5.14-.2,6.89-.47,1.66-.24,4.03-.86,4.5-1.28M57.14,22.96v.27c-.29.35-2.14.88-4.46,1.26-1.76.27-4.06.47-6.93.47s-4.89-.19-6.58-.45c-2.66-.39-4.36-1.07-4.7-1.27v-.31c1.03.68,3.81,1.18,4.74,1.33,1.67.26,3.83.45,6.54.45,2.85,0,5.14-.2,6.89-.47,1.66-.24,4.03-.86,4.5-1.28"/>
      <path class="cls-3" d="M45.75,24.99c-2.41,0-4.62-.15-6.58-.45-2.55-.37-4.31-1.03-4.72-1.27,0,0-.02-.02-.02-.03v-.31s0-.02.02-.03c.01,0,.02,0,.03,0,1.03.68,3.88,1.19,4.73,1.33,1.94.3,4.14.45,6.53.45,2.53,0,4.85-.16,6.89-.47,1.65-.24,4.02-.86,4.48-1.27,0,0,.02-.01.03,0,.01,0,.02.02.02.03v.27s0,.01,0,.02c-.31.37-2.19.9-4.48,1.27-2.06.31-4.39.47-6.93.47ZM34.51,23.22c.3.17,1.94.86,4.68,1.26,1.95.3,4.16.45,6.57.45,2.54,0,4.87-.16,6.92-.47,2.22-.36,4.12-.89,4.43-1.24v-.19c-.58.42-2.86,1.01-4.46,1.25-2.04.31-4.36.47-6.9.47-2.4,0-4.6-.15-6.54-.45-.84-.14-3.62-.63-4.7-1.31v.24ZM45.75,24.03c-2.41,0-4.62-.15-6.58-.45-2.55-.37-4.31-1.03-4.72-1.27,0,0-.02-.02-.02-.03v-.31s0-.02.02-.03c.01,0,.02,0,.03,0,1.03.68,3.88,1.19,4.73,1.33,1.94.3,4.14.45,6.53.45,2.53,0,4.85-.16,6.89-.47,1.65-.24,4.01-.86,4.48-1.27,0,0,.01,0,.02,0h0s.02,0,.02.01c0,0,0,.01,0,.02v.27s0,.01,0,.02c-.31.37-2.19.9-4.48,1.27-2.05.32-4.39.47-6.93.47ZM34.51,22.26c.3.17,1.94.86,4.68,1.26,1.95.3,4.16.45,6.57.45,2.54,0,4.87-.16,6.92-.47,2.22-.36,4.12-.89,4.43-1.24v-.19c-.58.42-2.86,1.01-4.46,1.25-2.04.31-4.36.47-6.9.47-2.4,0-4.6-.15-6.54-.45-.84-.14-3.62-.63-4.7-1.31v.24Z"/>
    </g>
    <path class="cls-1" d="M45.79,29.3c-4.84-.03-8.98-1.32-9.86-1.53l.64,1c1.55.65,5.59,1.62,9.27,1.51s6.89-.39,9.15-1.49l.65-1.04c-1.54.73-6.79,1.54-9.85,1.55"/>
    <g>
      <path class="cls-1" d="M55.81,27.62s0,0,0,0c-.07.12-.15.24-.22.37-.57.2-2.12.66-4.37.97-1.49.2-2.41.4-5.37.46-5.54-.14-9.13-1.22-9.98-1.49l-.13-.24c3.21.84,6.49,1.42,10.11,1.48,2.71-.06,3.86-.26,5.33-.46,2.63-.41,3.96-.84,4.36-.97,0,0-.01-.01-.02-.02l.29-.11ZM55.24,28.56c-.1.15-.19.29-.29.43-1.07.38-2.75.77-3.46.89-1.45.3-3.69.52-5.69.52-4.29-.06-7.79-.9-9.44-1.62l-.13-.23.02-.03.23.09c2.93,1.05,6.23,1.47,9.35,1.54,1.98,0,3.97-.23,5.57-.51,2.46-.49,3.46-.87,3.76-1.03l.08-.04Z"/>
      <path class="cls-3" d="M45.8,30.43c-4.37-.06-7.82-.91-9.46-1.62,0,0-.01,0-.02-.01l-.13-.23s0-.02,0-.03l.02-.03s.02-.02.04-.01l.23.09c2.62.94,5.76,1.46,9.34,1.54,2.18,0,4.23-.28,5.57-.51,2.75-.55,3.57-.93,3.75-1.03l.08-.04s.03,0,.04,0c.01.01.01.03,0,.04-.1.15-.2.3-.29.43,0,0,0,0-.02.01-1.06.37-2.73.77-3.47.89-1.51.31-3.79.52-5.69.52ZM36.38,28.75c1.76.76,5.35,1.55,9.42,1.61,1.89,0,4.17-.21,5.68-.52.73-.12,2.39-.51,3.45-.88.07-.1.14-.2.21-.31-.25.13-1.13.5-3.74,1.02-1.32.24-3.34.52-5.49.52-.03,0-.06,0-.09,0-3.59-.09-6.74-.61-9.36-1.55l-.19-.08.11.2ZM45.85,29.46c-4.95-.13-8.39-.99-10-1.49,0,0-.02,0-.02-.02l-.13-.24s0-.03,0-.04c0-.01.02-.01.03-.01,3.67.96,6.88,1.43,10.1,1.48,2.41-.05,3.6-.22,4.86-.39.15-.02.31-.04.47-.06,2.54-.39,3.87-.81,4.31-.95h0s0,0,0-.01c0-.01.01-.02.02-.02l.29-.11s.03,0,.04,0c0,0,0,0,0,.01,0,.01,0,.02,0,.04-.07.12-.15.25-.22.37,0,0,0,.01-.02.01-.76.27-2.37.69-4.38.97-.22.03-.43.06-.63.09-1.19.17-2.22.32-4.74.37ZM35.89,27.91c1.61.5,5.03,1.36,9.96,1.49,2.52-.05,3.55-.2,4.73-.37.2-.03.41-.06.63-.09,1.99-.28,3.59-.69,4.35-.97.06-.1.12-.2.18-.29l-.18.07s0,.01,0,.02c0,0-.01.02-.02.02h-.04c-.44.15-1.77.57-4.32.97-.16.02-.31.04-.47.06-1.26.18-2.45.34-4.87.39-3.21-.05-6.4-.52-10.05-1.47l.09.17Z"/>
    </g>
    <path class="cls-1" d="M45.8,12.42c-5.55,0-10.05,4.5-10.05,10.06s4.5,10.06,10.05,10.06,10.04-4.49,10.04-10.04-4.48-10.07-10.04-10.07M45.8,11.43c6.09,0,11.05,4.96,11.05,11.05s-4.96,11.05-11.05,11.05-11.05-4.96-11.05-11.05,4.96-11.05,11.05-11.05"/>
    <g>
      <path class="cls-1" d="M34.86,22.49c0,6.02,4.95,10.95,10.95,10.95s10.95-4.93,10.95-10.95-4.95-10.95-10.95-10.95-10.95,4.93-10.95,10.95M45.81,11.29c6.17,0,11.2,5.03,11.2,11.2s-5.03,11.2-11.2,11.2-11.2-5.03-11.2-11.2,5.03-11.2,11.2-11.2"/>
      <path class="cls-3" d="M45.81,33.72c-6.19,0-11.23-5.04-11.23-11.23s5.04-11.23,11.23-11.23,11.23,5.04,11.23,11.23-5.04,11.23-11.23,11.23ZM45.81,11.33c-6.16,0-11.16,5.01-11.16,11.17s5.01,11.17,11.16,11.17,11.16-5.01,11.16-11.17-5.01-11.17-11.16-11.17ZM45.81,33.48c-2.91,0-5.67-1.15-7.75-3.23-2.08-2.08-3.23-4.84-3.23-7.76s1.15-5.67,3.23-7.76c2.08-2.08,4.84-3.23,7.75-3.23s5.67,1.15,7.75,3.23c2.08,2.08,3.23,4.84,3.23,7.76s-1.15,5.67-3.23,7.76c-2.08,2.08-4.84,3.23-7.75,3.23ZM45.81,11.57c-6.02,0-10.92,4.9-10.92,10.92s4.9,10.92,10.92,10.92,10.92-4.9,10.92-10.92-4.9-10.92-10.92-10.92Z"/>
    </g>
    <g>
      <path class="cls-1" d="M35.81,22.48c0,5.51,4.52,10.01,10.01,10.01s10.01-4.51,10.01-10.01-4.52-10.01-10.01-10.01-10.01,4.51-10.01,10.01M45.82,12.22c5.62,0,10.26,4.62,10.26,10.26s-4.63,10.26-10.26,10.26-10.26-4.62-10.26-10.26,4.63-10.26,10.26-10.26"/>
      <path class="cls-3" d="M45.82,32.77c-2.73,0-5.31-1.07-7.26-3.02-1.95-1.95-3.03-4.53-3.03-7.27s1.08-5.32,3.03-7.27c1.95-1.95,4.53-3.02,7.26-3.02s5.31,1.07,7.26,3.02c1.95,1.95,3.03,4.53,3.03,7.27s-1.08,5.32-3.03,7.27c-1.95,1.95-4.53,3.02-7.26,3.02ZM45.82,12.26c-5.64,0-10.22,4.59-10.22,10.23s4.59,10.22,10.22,10.22,10.22-4.59,10.22-10.22-4.59-10.23-10.22-10.23ZM45.82,32.53c-2.67,0-5.18-1.05-7.09-2.95-1.91-1.9-2.96-4.42-2.96-7.09s1.05-5.19,2.96-7.09c1.9-1.9,4.42-2.95,7.09-2.95s5.18,1.05,7.09,2.95c1.91,1.9,2.96,4.42,2.96,7.09s-1.05,5.19-2.96,7.09c-1.9,1.9-4.42,2.95-7.09,2.95ZM45.82,12.5c-5.5,0-9.98,4.48-9.98,9.98s4.48,9.98,9.98,9.98,9.98-4.48,9.98-9.98-4.48-9.98-9.98-9.98Z"/>
    </g>
    <path class="cls-1" d="M45.35,11.24h.97v22.53h-.97V11.24Z"/>
    <path class="cls-3" d="M46.17,33.78h-.68s-.03-.01-.03-.03.01-.03.03-.03h.68s.03.01.03.03-.01.03-.03.03ZM46.16,11.28h-.68s-.03-.01-.03-.03.01-.03.03-.03h.68s.03.01.03.03-.01.03-.03.03Z"/>
    <g>
      <path class="cls-1" d="M45.22,11.12h.25v22.76s-.25,0-.25,0V11.12ZM46.17,11.12h.24v22.76s-.24,0-.24,0V11.12Z"/>
      <path class="cls-3" d="M46.42,33.91h-.24s-.03-.01-.03-.03V11.12s0-.02,0-.02.01,0,.02,0h.24s.03.01.03.03v22.76s0,.02,0,.02c0,0-.01,0-.02,0ZM46.21,33.85h.18V11.15h-.18v22.69ZM45.47,33.91h-.25s-.03-.01-.03-.03V11.12s.01-.03.03-.03h.25s.03.01.03.03v22.76s0,.02,0,.02c0,0-.01,0-.02,0ZM45.25,33.85h.18V11.15h-.18v22.69Z"/>
    </g>
    <path class="cls-1" d="M34.57,22.01c1.4-1.29,6.59-2.13,11.18-2.11,4.6.02,10.04.97,11.22,2.08v.96c-.98-.93-5.21-2.05-11.22-2.06s-10.37,1.13-11.19,2.08v-.96Z"/>
    <path class="cls-3" d="M57.01,22.96s-.03-.01-.03-.03v-.83s.01-.03.03-.03.03.01.03.03v.83s-.01.03-.03.03ZM34.57,22.92s-.03-.01-.03-.03v-.83s.01-.03.03-.03.03.01.03.03v.83s-.01.03-.03.03Z"/>
    <g>
      <path class="cls-1" d="M45.81,19.8c2.64,0,5.21.25,7.25.65,2.1.42,3.58.95,4.08,1.53v.29c-.61-.73-2.6-1.27-4.13-1.58-2.02-.39-4.57-.65-7.2-.64-2.78,0-5.35.27-7.34.66-1.54.29-3.76.95-4,1.57v-.3c.15-.43,1.76-1.09,3.96-1.52,2-.39,4.59-.65,7.39-.65M45.81,20.76c2.64,0,5.21.25,7.25.65,2.1.42,3.58.95,4.08,1.53v.29c-.61-.73-2.6-1.27-4.13-1.58-2.02-.39-4.57-.65-7.2-.64-2.78,0-5.36.27-7.35.66-1.6.32-3.73.95-3.99,1.57v-.3c.15-.43,1.73-1.07,3.96-1.52,2.01-.39,4.59-.65,7.39-.65"/>
      <path class="cls-3" d="M34.47,23.27s0,0,0,0c-.02,0-.03-.02-.03-.03v-.3s0,0,0-.01c.16-.46,1.83-1.11,3.98-1.54,2.14-.42,4.77-.65,7.39-.66v.03s0-.03,0-.03c2.51,0,5.08.23,7.25.65,2.19.44,3.61.97,4.1,1.55,0,0,0,.01,0,.02v.29s0,.03-.02.03c-.01,0-.03,0-.04,0-.64-.78-2.85-1.32-4.11-1.57-2.13-.41-4.65-.64-7.12-.64-.03,0-.05,0-.08,0-2.59,0-5.2.24-7.34.66-1.74.35-3.72.98-3.97,1.55,0,.01-.02.02-.03.02ZM45.89,20.98c2.47,0,5,.23,7.13.64,1.23.25,3.37.77,4.09,1.53v-.2c-.49-.56-1.89-1.08-4.06-1.52-2.16-.42-4.74-.65-7.24-.65h0c-2.62,0-5.24.24-7.38.65-2.38.48-3.79,1.12-3.93,1.49v.18c.47-.64,2.67-1.23,3.95-1.48,2.15-.42,4.76-.65,7.36-.66.03,0,.05,0,.08,0ZM34.47,22.31s0,0,0,0c-.02,0-.03-.02-.03-.03v-.3s0,0,0-.01c.16-.47,1.87-1.13,3.98-1.54,2.14-.42,4.77-.65,7.39-.65v.03s0-.03,0-.03c2.51,0,5.08.23,7.25.65,2.19.44,3.61.97,4.1,1.55,0,0,0,.01,0,.02v.29s0,.03-.02.03c-.01,0-.03,0-.04,0-.64-.78-2.85-1.32-4.11-1.57-2.15-.42-4.7-.64-7.19-.64-2.58,0-5.19.24-7.33.66-1.76.33-3.76.99-3.98,1.55,0,.01-.02.02-.03.02ZM45.89,20.02c2.47,0,5,.23,7.13.64,1.23.25,3.37.77,4.09,1.53v-.2c-.49-.56-1.89-1.08-4.06-1.52-2.16-.42-4.74-.65-7.24-.65-2.62,0-5.24.24-7.38.65-2.28.44-3.79,1.11-3.93,1.49v.18c.45-.62,2.57-1.21,3.97-1.48,2.15-.42,4.75-.65,7.34-.66.02,0,.05,0,.07,0Z"/>
    </g>
    <path class="cls-1" d="M45.76,14.9c4.17-.02,7.8.58,9.47,1.43l.61,1.05c-1.45-.78-5.37-1.59-10.07-1.47-3.83.02-7.92.42-9.97,1.52l.72-1.21c1.68-.87,5.66-1.32,9.24-1.32"/>
    <path class="cls-3" d="M55.74,17.2s-.02,0-.03-.02l-.41-.66s0-.04.01-.04c.02,0,.04,0,.04.01l.41.66s0,.04-.01.04c0,0-.01,0-.02,0Z"/>
    <g>
      <path class="cls-1" d="M45.81,14.81c2.27,0,4.52.12,6.27.44,1.38.27,2.75.69,3.25,1.06l.26.42c-.45-.5-2.13-.97-3.62-1.23-1.74-.3-3.89-.42-6.16-.44-2.39,0-4.59.15-6.31.46-1.63.31-2.69.68-3.13.97l.23-.35c.62-.32,1.61-.62,2.86-.86,1.72-.31,3.94-.46,6.35-.46M45.81,15.77c2.38,0,4.67.13,6.5.46,1.7.32,3.32.79,3.56,1.05l.18.32c-.56-.37-1.97-.78-3.77-1.12-1.81-.34-4.11-.45-6.47-.45-2.68,0-4.77.13-6.56.44-1.89.35-3.2.86-3.53,1.1l.18-.34c.63-.32,1.63-.71,3.3-1.01,1.85-.34,3.96-.44,6.61-.45"/>
      <path class="cls-3" d="M56.05,17.62s-.01,0-.02,0c-.55-.36-1.92-.77-3.76-1.12-1.61-.3-3.79-.45-6.46-.45-2.68,0-4.76.13-6.55.44-1.88.35-3.19.85-3.51,1.09-.01,0-.03,0-.04,0-.01,0-.01-.03,0-.04l.18-.34s0-.01.01-.01c.85-.43,1.93-.76,3.31-1.01,1.68-.31,3.59-.44,6.61-.45h0c2.56,0,4.81.15,6.51.46,1.73.32,3.34.8,3.57,1.06l.18.32s0,.03,0,.04c0,0-.01,0-.02,0ZM45.99,15.99c2.6,0,4.71.15,6.29.45,1.74.33,3.06.71,3.68,1.06l-.12-.21c-.22-.24-1.84-.72-3.53-1.03-1.69-.31-3.94-.46-6.49-.46h0c-3.02.02-4.93.15-6.6.45-1.37.25-2.45.57-3.29,1l-.11.22c.45-.26,1.7-.71,3.44-1.04,1.79-.31,3.88-.45,6.56-.44.06,0,.12,0,.18,0ZM55.59,16.75s-.02,0-.02-.01c-.46-.51-2.23-.98-3.6-1.22-1.58-.27-3.59-.42-6.16-.44-2.49,0-4.67.17-6.3.46-1.45.28-2.61.63-3.12.96-.01,0-.03,0-.04,0-.01-.01-.01-.03,0-.04l.23-.35s0,0,.01-.01c.61-.32,1.6-.62,2.87-.87,1.63-.3,3.82-.46,6.35-.46,2.48,0,4.65.14,6.28.44,1.48.29,2.79.72,3.26,1.07,0,0,0,0,0,0l.26.42s0,.03,0,.04c0,0-.01,0-.02,0ZM45.81,15.02c2.57.02,4.59.16,6.17.44,1.25.22,2.83.63,3.47,1.09l-.14-.23c-.47-.34-1.76-.77-3.23-1.05-1.62-.29-3.79-.44-6.26-.43h0c-2.52,0-4.72.17-6.34.46-1.26.24-2.24.54-2.84.86l-.15.22c.56-.31,1.67-.64,3.02-.9,1.63-.3,3.82-.46,6.31-.47Z"/>
    </g>
    <path class="cls-1" d="M51.38,27.15c-2.06-.38-4.12-.44-5.57-.42-6.94.08-9.19,1.43-9.46,1.83l-.52-.85c1.77-1.28,5.55-2,10.02-1.93,2.32.04,4.32.19,6.01.52l-.48.85Z"/>
    <path class="cls-3" d="M36.29,28.45s-.02,0-.03-.02l-.34-.59s0-.04.01-.04c.02,0,.04,0,.04.01l.34.59s0,.04-.01.04c0,0-.01,0-.02,0Z"/>
    <g>
      <path class="cls-1" d="M45.86,25.63c2,.04,4.07.13,6.08.53l-.14.24c-1.81-.36-3.55-.48-5.93-.52-2.57,0-5.3.19-7.78.91-.8.23-2.18.74-2.23,1.14l-.13-.23c.03-.36,1.23-.84,2.3-1.15,2.5-.73,5.23-.91,7.82-.92M45.77,26.6c1.93.03,3.83.11,5.66.45l-.13.23c-1.7-.31-3.51-.43-5.52-.42-2.56-.02-5.16.22-7.41.87-.71.2-1.89.66-2.01,1.03l-.13-.22c.04-.22.75-.69,2.08-1.06,2.58-.74,5-.87,7.47-.88"/>
      <path class="cls-3" d="M36.35,28.8s-.02,0-.03-.02l-.13-.22s0-.01,0-.02c.04-.25.8-.72,2.11-1.09,2.47-.71,4.77-.86,7.47-.88,0,0,0,0,0,0,1.83.03,3.79.1,5.66.45.01,0,.02,0,.02.02s0,.02,0,.03l-.13.23s-.02.02-.03.02c-1.6-.3-3.4-.43-5.51-.42-2.83-.02-5.32.27-7.4.87-.76.21-1.88.66-1.99,1.01,0,.01-.01.02-.03.02,0,0,0,0,0,0ZM36.26,28.54l.09.15c.22-.38,1.32-.81,2.01-1,2.08-.6,4.58-.89,7.42-.87,2.11-.01,3.91.13,5.5.42l.1-.17c-1.86-.34-3.79-.41-5.61-.44-2.69.02-4.99.18-7.46.88-1.32.37-2,.83-2.06,1.02ZM35.86,27.96s-.02,0-.03-.02l-.13-.23s0-.01,0-.02c.04-.48,1.79-1.02,2.33-1.18,2.14-.62,4.63-.91,7.83-.92,0,0,0,0,0,0,1.96.04,4.05.13,6.08.53.01,0,.02,0,.02.02,0,0,0,.02,0,.03l-.14.24s-.02.02-.03.02c-1.93-.38-3.76-.48-5.92-.52-3.19,0-5.66.29-7.77.91-1.04.3-2.17.78-2.21,1.11,0,.01-.01.03-.03.03,0,0,0,0,0,0ZM35.77,27.69l.09.16c.23-.49,2.02-1.02,2.23-1.09,2.12-.62,4.59-.9,7.79-.91,2.16.03,3.99.13,5.91.51l.1-.18c-2.01-.39-4.09-.48-6.03-.52-3.2,0-5.68.3-7.82.92-1.35.39-2.24.83-2.28,1.11Z"/>
    </g>
    <path class="cls-1" d="M36.42,16.21c3.44-.04,19.33,9.71,19.38,11.5l-.98,1.51c-.44-2.08-16.57-11.58-19.23-11.4l.83-1.62Z"/>
    <path class="cls-3" d="M54.89,29.17s-.01,0-.02,0c-.01,0-.02-.03,0-.04l.83-1.29s.03-.02.04,0c.01,0,.02.03,0,.04l-.83,1.29s-.02.01-.03.01ZM35.62,17.76s-.01,0-.02,0c-.02,0-.02-.03-.01-.04l.78-1.44s.03-.02.04-.01c.02,0,.02.03.01.04l-.78,1.44s-.02.02-.03.02Z"/>
    <g>
      <path class="cls-1" d="M55.89,27.82c.4-.8-3.95-4.08-9.35-7.27-5.52-3.13-9.5-4.97-10.23-4.42l-.16.29s0-.02.04-.05c.13-.12.35-.11.45-.11,1.25.02,4.83,1.66,9.84,4.54,2.2,1.28,9.28,5.82,9.25,7.1,0,.11,0,.13-.03.19l.18-.27ZM35.49,17.76c.64-.43,5.33,1.66,10.24,4.62,4.9,2.97,9.58,6.32,9.15,6.95l-.14.22-.06.05s.08-.1,0-.33c-.21-.69-3.53-3.34-9.04-6.66-5.37-3.2-9.84-5.13-10.29-4.58l.14-.27Z"/>
      <path class="cls-3" d="M54.68,29.64s-.02,0-.03-.01c-.01-.01,0-.03,0-.04h0s.07-.08-.02-.29c-.22-.71-3.72-3.45-9.02-6.64-5.63-3.36-9.85-5.08-10.25-4.59-.01.01-.03.02-.04,0-.01,0-.02-.03-.01-.04l.14-.27s0,0,.01-.01c.67-.45,5.37,1.66,10.28,4.62,4.41,2.67,8.98,5.87,9.19,6.82.02.07,0,.13-.02.18l-.14.22s0,0,0,0l-.06.05h0s0,0,0,0c0,0-.01,0-.02,0ZM35.65,17.91c1.23,0,5.39,1.92,10,4.67,5.38,3.25,8.83,5.95,9.05,6.68.04.09.05.16.05.22l.1-.16s.03-.08.02-.13c-.2-.92-4.87-4.18-9.16-6.78-4.78-2.88-9.54-5.04-10.2-4.62l-.08.16c.06-.02.13-.03.22-.03ZM55.71,28.13s-.01,0-.02,0c-.01-.01-.02-.03,0-.04l.02-.03s.01-.04,0-.1v-.04c.03-1.27-7.19-5.88-9.24-7.07-4.99-2.86-8.57-4.51-9.82-4.53h-.03c-.1,0-.29,0-.4.1-.02.01-.03.03-.03.04,0,.01-.03.02-.04.02-.01,0-.02-.02-.02-.04,0,0,0,0,0-.01l.16-.29s0,0,0-.01c.87-.66,6.06,2.04,10.26,4.42,4.87,2.88,9.81,6.42,9.36,7.31,0,0,0,0,0,0l-.16.24s-.01.02-.02.03c0,0-.02.01-.03.01ZM36.65,16.24c1.26.02,4.85,1.67,9.86,4.54,1.45.84,9.3,5.74,9.27,7.13v.03s.09-.13.09-.13c.37-.74-3.73-3.91-9.33-7.22-5.9-3.34-9.51-4.91-10.18-4.43l-.08.14c.12-.06.27-.06.36-.06h.03ZM55.89,27.82h0,0Z"/>
    </g>
    <g>
      <path class="cls-2" d="M39.1,23.73c0,1.84.75,3.5,1.97,4.72,1.22,1.22,2.89,1.99,4.73,1.99s3.53-.75,4.75-1.97c1.22-1.21,1.97-2.89,1.97-4.74h0v-8.96l-13.43-.02v8.97Z"/>
      <path class="cls-3" d="M45.8,30.47c-1.77,0-3.46-.71-4.75-2-1.28-1.28-1.99-2.96-1.99-4.75v-9s.04,0,.04,0l13.47.02v8.99c0,1.8-.7,3.49-1.98,4.76-1.28,1.28-2.98,1.98-4.78,1.98ZM39.14,14.8v8.93c0,1.77.7,3.43,1.96,4.69,1.28,1.27,2.95,1.98,4.7,1.98s3.46-.69,4.73-1.96c1.26-1.25,1.95-2.92,1.96-4.68v-.03s0-8.92,0-8.92l-13.35-.02Z"/>
    </g>
    <g>
      <path class="cls-6" d="M49.65,17.66v5.53s0,.58,0,.58h0c0,.15,0,.33-.03.48-.1.87-.51,1.64-1.1,2.23-.7.69-1.66,1.12-2.72,1.12s-1.99-.45-2.69-1.14c-.72-.71-1.13-1.69-1.13-2.71v-6.11s7.68.01,7.68.01ZM39.35,23.74h0s0,0,0,0c0,1.76.73,3.36,1.9,4.52,1.17,1.17,2.78,1.89,4.55,1.89s3.38-.72,4.55-1.88c1.17-1.16,1.89-2.76,1.89-4.53h0v-8.69h-12.87s0,8.68,0,8.68Z"/>
      <path class="cls-3" d="M45.8,30.19c-1.72,0-3.34-.67-4.57-1.9-1.23-1.22-1.91-2.84-1.91-4.54h0s0-8.71,0-8.71h.03s12.9,0,12.9,0v8.72c0,1.72-.67,3.33-1.9,4.55-1.22,1.22-2.85,1.89-4.57,1.89ZM39.38,23.74h0c0,1.7.67,3.3,1.89,4.51,1.22,1.21,2.83,1.88,4.53,1.88s3.32-.66,4.53-1.87c1.21-1.2,1.87-2.79,1.88-4.49v-.02s0-8.66,0-8.66h-12.82s0,8.65,0,8.65ZM45.79,27.63c-1.01,0-1.97-.41-2.72-1.15-.73-.72-1.14-1.72-1.14-2.73v-6.14s.03,0,.03,0h7.71s0,5.57,0,5.57v.58c0,.16-.01.34-.03.48-.1.85-.49,1.62-1.11,2.25-.73.73-1.71,1.13-2.74,1.13ZM41.99,17.67v6.08c0,1,.41,1.98,1.13,2.69.73.73,1.68,1.13,2.67,1.13s1.98-.4,2.7-1.12c.62-.61.99-1.38,1.09-2.21.02-.14.03-.32.03-.48v-.58s0-5.5,0-5.5h-7.63Z"/>
    </g>
    <g id="quina">
      <path class="cls-5" d="M44.99,22.75h0c0,.25.1.48.25.64.15.17.37.27.6.27s.45-.1.6-.27.25-.39.25-.64v-1.22h-1.7s0,1.22,0,1.22Z"/>
    </g>
    <g id="castle">
      <path class="cls-1" d="M40.19,17.33c.02-.62.46-.77.46-.77,0,0,.48.16.48.78h-.94Z"/>
      <g>
        <path class="cls-1" d="M39.8,16.56l-.08.72h.47c0-.59.45-.69.46-.69.01,0,.45.13.46.69h.47s-.08-.72-.08-.72h-1.7Z"/>
        <path class="cls-3" d="M41.62,17.31h-.53s0-.03,0-.03c-.01-.54-.43-.66-.44-.66,0,0-.42.08-.43.66v.03s-.53,0-.53,0l.08-.77h1.75s.09.77.09.77ZM41.14,17.25h.41s-.08-.67-.08-.67h-.75s.11.06.18.12c.1.09.23.26.24.55ZM39.76,17.25h.41c0-.31.14-.48.25-.57.05-.04.1-.07.15-.09h-.74s-.07.66-.07.66Z"/>
      </g>
      <g>
        <path class="cls-1" d="M39.69,17.29h1.92s.07.04.07.09-.03.09-.07.09h-1.92s-.07-.04-.07-.09.03-.09.07-.09Z"/>
        <path class="cls-3" d="M41.61,17.49h-1.92c-.06,0-.1-.05-.1-.12s.05-.12.1-.12h1.92c.06,0,.1.05.1.12s-.05.12-.1.12ZM39.69,17.31s-.05.03-.05.06.02.06.05.06h1.92s.05-.03.05-.06-.02-.06-.05-.06h-1.92Z"/>
      </g>
      <path class="cls-3" d="M40.94,17.31h-.58s0-.03,0-.03c0-.24.1-.38.19-.45,0,0,.08-.06.1-.06h0s.29.13.29.51v.03ZM40.42,17.25h.47c-.01-.29-.19-.4-.24-.42-.04.02-.22.13-.23.42Z"/>
      <g>
        <path class="cls-1" d="M39.73,16.27h1.84s.07.04.07.08-.03.08-.07.08h-1.84s-.07-.04-.07-.08.03-.08.07-.08Z"/>
        <path class="cls-3" d="M41.57,16.45h-1.84c-.05,0-.1-.05-.1-.11s.04-.11.1-.11h1.84c.05,0,.1.05.1.11s-.04.11-.1.11ZM39.73,16.3s-.04.02-.04.05.02.05.04.05h1.84s.04-.02.04-.05-.02-.05-.04-.05h-1.84Z"/>
      </g>
      <g>
        <path class="cls-1" d="M39.77,16.43h1.76s.07.04.07.08-.03.08-.07.08h-1.76s-.07-.04-.07-.08.03-.08.07-.08Z"/>
        <path class="cls-3" d="M41.53,16.61h-1.76c-.05,0-.1-.05-.1-.11s.04-.11.1-.11h1.76c.05,0,.1.05.1.11s-.04.11-.1.11ZM39.77,16.45s-.04.02-.04.05.02.05.04.05h1.76s.04-.02.04-.05-.02-.05-.04-.05h-1.76Z"/>
      </g>
      <g>
        <path class="cls-1" d="M40.34,15.23h.14v.1h.1v-.1h.14v.1h.1v-.1s.14,0,.14,0v.23s-.03.06-.06.06h-.5s-.06-.03-.06-.06v-.22Z"/>
        <path class="cls-3" d="M40.91,15.54h-.5c-.05,0-.09-.04-.09-.09v-.25s.19,0,.19,0v.1h.04v-.1h.2v.1h.05v-.1s.2,0,.2,0v.26s-.04.09-.09.09ZM40.37,15.26v.2s.02.03.04.03h.5s.03,0,.03-.03v-.2s-.09,0-.09,0v.1s-.16,0-.16,0v-.1h-.09s0,.1,0,.1h-.16v-.1h-.08Z"/>
      </g>
      <g>
        <path class="cls-1" d="M40.86,15.53l.03.73h-.49s.03-.73.03-.73h.42Z"/>
        <path class="cls-3" d="M40.92,16.29h-.55s.03-.79.03-.79h.48s.03.79.03.79ZM40.44,16.23h.43s-.03-.67-.03-.67h-.37s-.03.67-.03.67Z"/>
      </g>
      <g>
        <path class="cls-1" d="M40.95,15.59h.14v.1h.1v-.1h.14v.1h.1v-.1s.14,0,.14,0v.23s-.03.06-.06.06h-.49s-.06-.03-.06-.06v-.22Z"/>
        <path class="cls-3" d="M41.01,15.9s-.09-.04-.09-.09v-.25s.19,0,.19,0v.1h.04v-.1h.2v.1h.04v-.1s.2,0,.2,0v.26s-.04.09-.09.09h-.49ZM40.97,15.61v.2s.02.03.04.03h.49s.03,0,.03-.03v-.2s-.08,0-.08,0v.1s-.16,0-.16,0v-.1h-.08s0,.1,0,.1h-.16v-.1h-.08Z"/>
      </g>
      <g>
        <path class="cls-1" d="M41.47,15.87v.39s-.45,0-.45,0v-.39s.45,0,.45,0Z"/>
        <path class="cls-3" d="M40.99,16.29l.02-.45h.49l.02.45h-.53ZM41.06,15.9v.34s.4,0,.4,0v-.34h-.4Z"/>
      </g>
      <g>
        <path class="cls-1" d="M39.75,15.59h.14v.1h.1v-.1h.14v.1h.1v-.1s.14,0,.14,0v.23s-.03.06-.06.06h-.49s-.06-.03-.06-.06v-.22Z"/>
        <path class="cls-3" d="M40.3,15.9h-.49s-.09-.04-.09-.09v-.25s.19,0,.19,0v.1h.04v-.1h.2v.1h.04v-.1s.2,0,.2,0v.26s-.04.09-.09.09ZM39.77,15.62v.2s.02.03.04.03h.49s.03,0,.03-.03v-.2s-.08,0-.08,0v.1s-.16,0-.16,0v-.1h-.08s0,.1,0,.1h-.16v-.1h-.08Z"/>
      </g>
      <g>
        <path class="cls-1" d="M40.27,15.87v.39s-.45,0-.45,0v-.39s.45,0,.45,0Z"/>
        <path class="cls-3" d="M39.79,16.29l.02-.45h.49s.02.45.02.45h-.53ZM39.86,15.9v.34s.4,0,.4,0v-.34s-.4,0-.4,0Z"/>
      </g>
      <path class="cls-3" d="M40.6,15.76c0-.07.1-.07.1,0v.17h-.1v-.17Z"/>
      <path class="cls-3" d="M41.2,16.02c0-.07.09-.07.09,0v.13h-.09v-.13Z"/>
      <path class="cls-3" d="M40,16.02c0-.07.09-.07.09,0v.13h-.09v-.13Z"/>
    </g>
    <g id="castle-2" data-name="castle">
      <path class="cls-1" d="M45.35,17.33c.02-.62.46-.77.46-.77,0,0,.48.16.48.78h-.94Z"/>
      <g>
        <path class="cls-1" d="M44.97,16.56l-.08.72h.47c0-.59.45-.69.46-.69.01,0,.45.13.46.69h.47s-.08-.72-.08-.72h-1.7Z"/>
        <path class="cls-3" d="M46.78,17.31h-.53s0-.03,0-.03c-.01-.54-.43-.66-.44-.66,0,0-.42.08-.43.66v.03s-.53,0-.53,0l.08-.77h1.75s.09.77.09.77ZM46.31,17.25h.41s-.08-.67-.08-.67h-.75s.11.06.18.12c.1.09.23.26.24.55ZM44.92,17.25h.41c0-.31.14-.48.25-.57.05-.04.1-.07.15-.09h-.74s-.07.66-.07.66Z"/>
      </g>
      <g>
        <path class="cls-1" d="M44.86,17.29h1.92s.07.04.07.09-.03.09-.07.09h-1.92s-.07-.04-.07-.09.03-.09.07-.09Z"/>
        <path class="cls-3" d="M46.78,17.49h-1.92c-.06,0-.1-.05-.1-.12s.05-.12.1-.12h1.92c.06,0,.1.05.1.12s-.05.12-.1.12ZM44.86,17.31s-.05.03-.05.06.02.06.05.06h1.92s.05-.03.05-.06-.02-.06-.05-.06h-1.92Z"/>
      </g>
      <path class="cls-3" d="M46.11,17.31h-.58s0-.03,0-.03c0-.24.1-.38.19-.45,0,0,.08-.06.1-.06h0s.29.13.29.51v.03ZM45.59,17.25h.47c-.01-.29-.19-.4-.24-.42-.04.02-.22.13-.23.42Z"/>
      <g>
        <path class="cls-1" d="M44.9,16.27h1.84s.07.04.07.08-.03.08-.07.08h-1.84s-.07-.04-.07-.08.03-.08.07-.08Z"/>
        <path class="cls-3" d="M46.74,16.45h-1.84c-.05,0-.1-.05-.1-.11s.04-.11.1-.11h1.84c.05,0,.1.05.1.11s-.04.11-.1.11ZM44.9,16.3s-.04.02-.04.05.02.05.04.05h1.84s.04-.02.04-.05-.02-.05-.04-.05h-1.84Z"/>
      </g>
      <g>
        <path class="cls-1" d="M44.94,16.43h1.76s.07.04.07.08-.03.08-.07.08h-1.76s-.07-.04-.07-.08.03-.08.07-.08Z"/>
        <path class="cls-3" d="M46.7,16.61h-1.76c-.05,0-.1-.05-.1-.11s.04-.11.1-.11h1.76c.05,0,.1.05.1.11s-.04.11-.1.11ZM44.94,16.45s-.04.02-.04.05.02.05.04.05h1.76s.04-.02.04-.05-.02-.05-.04-.05h-1.76Z"/>
      </g>
      <g>
        <path class="cls-1" d="M45.51,15.23h.14v.1h.1v-.1h.14v.1h.1v-.1s.14,0,.14,0v.23s-.03.06-.06.06h-.5s-.06-.03-.06-.06v-.22Z"/>
        <path class="cls-3" d="M46.07,15.54h-.5c-.05,0-.09-.04-.09-.09v-.25s.19,0,.19,0v.1h.04v-.1h.2v.1h.05v-.1s.2,0,.2,0v.26s-.04.09-.09.09ZM45.54,15.26v.2s.02.03.04.03h.5s.03,0,.03-.03v-.2s-.09,0-.09,0v.1s-.16,0-.16,0v-.1h-.09s0,.1,0,.1h-.16v-.1h-.08Z"/>
      </g>
      <g>
        <path class="cls-1" d="M46.03,15.53l.03.73h-.49s.03-.73.03-.73h.42Z"/>
        <path class="cls-3" d="M46.09,16.29h-.55s.03-.79.03-.79h.48s.03.79.03.79ZM45.6,16.23h.43s-.03-.67-.03-.67h-.37s-.03.67-.03.67Z"/>
      </g>
      <g>
        <path class="cls-1" d="M46.11,15.59h.14v.1h.1v-.1h.14v.1h.1v-.1s.14,0,.14,0v.23s-.03.06-.06.06h-.49s-.06-.03-.06-.06v-.22Z"/>
        <path class="cls-3" d="M46.17,15.9s-.09-.04-.09-.09v-.25s.19,0,.19,0v.1h.04v-.1h.2v.1h.04v-.1s.2,0,.2,0v.26s-.04.09-.09.09h-.49ZM46.14,15.61v.2s.02.03.04.03h.49s.03,0,.03-.03v-.2s-.08,0-.08,0v.1s-.16,0-.16,0v-.1h-.08s0,.1,0,.1h-.16v-.1h-.08Z"/>
      </g>
      <g>
        <path class="cls-1" d="M46.64,15.87v.39s-.45,0-.45,0v-.39s.45,0,.45,0Z"/>
        <path class="cls-3" d="M46.15,16.29l.02-.45h.49l.02.45h-.53ZM46.22,15.9v.34s.4,0,.4,0v-.34h-.4Z"/>
      </g>
      <g>
        <path class="cls-1" d="M44.91,15.59h.14v.1h.1v-.1h.14v.1h.1v-.1s.14,0,.14,0v.23s-.03.06-.06.06h-.49s-.06-.03-.06-.06v-.22Z"/>
        <path class="cls-3" d="M45.46,15.9h-.49s-.09-.04-.09-.09v-.25s.19,0,.19,0v.1h.04v-.1h.2v.1h.04v-.1s.2,0,.2,0v.26s-.04.09-.09.09ZM44.94,15.62v.2s.02.03.04.03h.49s.03,0,.03-.03v-.2s-.08,0-.08,0v.1s-.16,0-.16,0v-.1h-.08s0,.1,0,.1h-.16v-.1h-.08Z"/>
      </g>
      <g>
        <path class="cls-1" d="M45.44,15.87v.39s-.45,0-.45,0v-.39s.45,0,.45,0Z"/>
        <path class="cls-3" d="M44.95,16.29l.02-.45h.49s.02.45.02.45h-.53ZM45.02,15.9v.34s.4,0,.4,0v-.34s-.4,0-.4,0Z"/>
      </g>
      <path class="cls-3" d="M45.77,15.76c0-.07.1-.07.1,0v.17h-.1v-.17Z"/>
      <path class="cls-3" d="M46.37,16.02c0-.07.09-.07.09,0v.13h-.09v-.13Z"/>
      <path class="cls-3" d="M45.17,16.02c0-.07.09-.07.09,0v.13h-.09v-.13Z"/>
    </g>
    <g id="castle-3" data-name="castle">
      <path class="cls-1" d="M50.52,17.33c.02-.62.46-.77.46-.77,0,0,.48.16.48.78h-.94Z"/>
      <g>
        <path class="cls-1" d="M50.13,16.56l-.08.72h.47c0-.59.45-.69.46-.69.01,0,.45.13.46.69h.47s-.08-.72-.08-.72h-1.7Z"/>
        <path class="cls-3" d="M51.95,17.31h-.53s0-.03,0-.03c-.01-.54-.43-.66-.44-.66,0,0-.42.08-.43.66v.03s-.53,0-.53,0l.08-.77h1.75s.09.77.09.77ZM51.48,17.25h.41s-.08-.67-.08-.67h-.75s.11.06.18.12c.1.09.23.26.24.55ZM50.09,17.25h.41c0-.31.14-.48.25-.57.05-.04.1-.07.15-.09h-.74s-.07.66-.07.66Z"/>
      </g>
      <g>
        <path class="cls-1" d="M50.03,17.29h1.92s.07.04.07.09-.03.09-.07.09h-1.92s-.07-.04-.07-.09.03-.09.07-.09Z"/>
        <path class="cls-3" d="M51.94,17.49h-1.92c-.06,0-.1-.05-.1-.12s.05-.12.1-.12h1.92c.06,0,.1.05.1.12s-.05.12-.1.12ZM50.03,17.31s-.05.03-.05.06.02.06.05.06h1.92s.05-.03.05-.06-.02-.06-.05-.06h-1.92Z"/>
      </g>
      <path class="cls-3" d="M51.28,17.31h-.58s0-.03,0-.03c0-.24.1-.38.19-.45,0,0,.08-.06.1-.06h0s.29.13.29.51v.03ZM50.75,17.25h.47c-.01-.29-.19-.4-.24-.42-.04.02-.22.13-.23.42Z"/>
      <g>
        <path class="cls-1" d="M50.07,16.27h1.84s.07.04.07.08-.03.08-.07.08h-1.84s-.07-.04-.07-.08.03-.08.07-.08Z"/>
        <path class="cls-3" d="M51.9,16.45h-1.84c-.05,0-.1-.05-.1-.11s.04-.11.1-.11h1.84c.05,0,.1.05.1.11s-.04.11-.1.11ZM50.07,16.3s-.04.02-.04.05.02.05.04.05h1.84s.04-.02.04-.05-.02-.05-.04-.05h-1.84Z"/>
      </g>
      <g>
        <path class="cls-1" d="M50.1,16.43h1.76s.07.04.07.08-.03.08-.07.08h-1.76s-.07-.04-.07-.08.03-.08.07-.08Z"/>
        <path class="cls-3" d="M51.86,16.61h-1.76c-.05,0-.1-.05-.1-.11s.04-.11.1-.11h1.76c.05,0,.1.05.1.11s-.04.11-.1.11ZM50.1,16.45s-.04.02-.04.05.02.05.04.05h1.76s.04-.02.04-.05-.02-.05-.04-.05h-1.76Z"/>
      </g>
      <g>
        <path class="cls-1" d="M50.67,15.23h.14v.1h.1v-.1h.14v.1h.1v-.1s.14,0,.14,0v.23s-.03.06-.06.06h-.5s-.06-.03-.06-.06v-.22Z"/>
        <path class="cls-3" d="M51.24,15.54h-.5c-.05,0-.09-.04-.09-.09v-.25s.19,0,.19,0v.1h.04v-.1h.2v.1h.05v-.1s.2,0,.2,0v.26s-.04.09-.09.09ZM50.7,15.26v.2s.02.03.04.03h.5s.03,0,.03-.03v-.2s-.09,0-.09,0v.1s-.16,0-.16,0v-.1h-.09s0,.1,0,.1h-.16v-.1h-.08Z"/>
      </g>
      <g>
        <path class="cls-1" d="M51.2,15.53l.03.73h-.49s.03-.73.03-.73h.42Z"/>
        <path class="cls-3" d="M51.26,16.29h-.55s.03-.79.03-.79h.48s.03.79.03.79ZM50.77,16.23h.43s-.03-.67-.03-.67h-.37s-.03.67-.03.67Z"/>
      </g>
      <g>
        <path class="cls-1" d="M51.28,15.59h.14v.1h.1v-.1h.14v.1h.1v-.1s.14,0,.14,0v.23s-.03.06-.06.06h-.49s-.06-.03-.06-.06v-.22Z"/>
        <path class="cls-3" d="M51.34,15.9s-.09-.04-.09-.09v-.25s.19,0,.19,0v.1h.04v-.1h.2v.1h.04v-.1s.2,0,.2,0v.26s-.04.09-.09.09h-.49ZM51.3,15.61v.2s.02.03.04.03h.49s.03,0,.03-.03v-.2s-.08,0-.08,0v.1s-.16,0-.16,0v-.1h-.08s0,.1,0,.1h-.16v-.1h-.08Z"/>
      </g>
      <g>
        <path class="cls-1" d="M51.8,15.87v.39s-.45,0-.45,0v-.39s.45,0,.45,0Z"/>
        <path class="cls-3" d="M51.32,16.29l.02-.45h.49l.02.45h-.53ZM51.39,15.9v.34s.4,0,.4,0v-.34h-.4Z"/>
      </g>
      <g>
        <path class="cls-1" d="M50.08,15.59h.14v.1h.1v-.1h.14v.1h.1v-.1s.14,0,.14,0v.23s-.03.06-.06.06h-.49s-.06-.03-.06-.06v-.22Z"/>
        <path class="cls-3" d="M50.63,15.9h-.49s-.09-.04-.09-.09v-.25s.19,0,.19,0v.1h.04v-.1h.2v.1h.04v-.1s.2,0,.2,0v.26s-.04.09-.09.09ZM50.1,15.62v.2s.02.03.04.03h.49s.03,0,.03-.03v-.2s-.08,0-.08,0v.1s-.16,0-.16,0v-.1h-.08s0,.1,0,.1h-.16v-.1h-.08Z"/>
      </g>
      <g>
        <path class="cls-1" d="M50.6,15.87v.39s-.45,0-.45,0v-.39s.45,0,.45,0Z"/>
        <path class="cls-3" d="M50.12,16.29l.02-.45h.49s.02.45.02.45h-.53ZM50.19,15.9v.34s.4,0,.4,0v-.34s-.4,0-.4,0Z"/>
      </g>
      <path class="cls-3" d="M50.94,15.76c0-.07.1-.07.1,0v.17h-.1v-.17Z"/>
      <path class="cls-3" d="M51.54,16.02c0-.07.09-.07.09,0v.13h-.09v-.13Z"/>
      <path class="cls-3" d="M50.33,16.02c0-.07.09-.07.09,0v.13h-.09v-.13Z"/>
    </g>
    <g id="castle-4" data-name="castle">
      <path class="cls-1" d="M40.19,22.55c.02-.62.46-.77.46-.77,0,0,.48.16.48.78h-.94Z"/>
      <g>
        <path class="cls-1" d="M39.8,21.79l-.08.72h.47c0-.59.45-.69.46-.69.01,0,.45.13.46.69h.47s-.08-.72-.08-.72h-1.7Z"/>
        <path class="cls-3" d="M41.62,22.53h-.53s0-.03,0-.03c-.01-.54-.43-.66-.44-.66,0,0-.42.08-.43.66v.03s-.53,0-.53,0l.08-.77h1.75s.09.77.09.77ZM41.14,22.48h.41s-.08-.67-.08-.67h-.75s.11.06.18.12c.1.09.23.26.24.55ZM39.76,22.48h.41c0-.31.14-.48.25-.57.05-.04.1-.07.15-.09h-.74s-.07.66-.07.66Z"/>
      </g>
      <g>
        <path class="cls-1" d="M39.69,22.51h1.92s.07.04.07.09-.03.09-.07.09h-1.92s-.07-.04-.07-.09.03-.09.07-.09Z"/>
        <path class="cls-3" d="M41.61,22.71h-1.92c-.06,0-.1-.05-.1-.12s.05-.12.1-.12h1.92c.06,0,.1.05.1.12s-.05.12-.1.12ZM39.69,22.54s-.05.03-.05.06.02.06.05.06h1.92s.05-.03.05-.06-.02-.06-.05-.06h-1.92Z"/>
      </g>
      <path class="cls-3" d="M40.94,22.53h-.58s0-.03,0-.03c0-.24.1-.38.19-.45,0,0,.08-.06.1-.06h0s.29.13.29.51v.03ZM40.42,22.48h.47c-.01-.29-.19-.4-.24-.42-.04.02-.22.13-.23.42Z"/>
      <g>
        <path class="cls-1" d="M39.73,21.49h1.84s.07.04.07.08-.03.08-.07.08h-1.84s-.07-.04-.07-.08.03-.08.07-.08Z"/>
        <path class="cls-3" d="M41.57,21.68h-1.84c-.05,0-.1-.05-.1-.11s.04-.11.1-.11h1.84c.05,0,.1.05.1.11s-.04.11-.1.11ZM39.73,21.52s-.04.02-.04.05.02.05.04.05h1.84s.04-.02.04-.05-.02-.05-.04-.05h-1.84Z"/>
      </g>
      <g>
        <path class="cls-1" d="M39.77,21.65h1.76s.07.04.07.08-.03.08-.07.08h-1.76s-.07-.04-.07-.08.03-.08.07-.08Z"/>
        <path class="cls-3" d="M41.53,21.84h-1.76c-.05,0-.1-.05-.1-.11s.04-.11.1-.11h1.76c.05,0,.1.05.1.11s-.04.11-.1.11ZM39.77,21.68s-.04.02-.04.05.02.05.04.05h1.76s.04-.02.04-.05-.02-.05-.04-.05h-1.76Z"/>
      </g>
      <g>
        <path class="cls-1" d="M40.34,20.45h.14v.1h.1v-.1h.14v.1h.1v-.1s.14,0,.14,0v.23s-.03.06-.06.06h-.5s-.06-.03-.06-.06v-.22Z"/>
        <path class="cls-3" d="M40.91,20.76h-.5c-.05,0-.09-.04-.09-.09v-.25s.19,0,.19,0v.1h.04v-.1h.2v.1h.05v-.1s.2,0,.2,0v.26s-.04.09-.09.09ZM40.37,20.48v.2s.02.03.04.03h.5s.03,0,.03-.03v-.2s-.09,0-.09,0v.1s-.16,0-.16,0v-.1h-.09s0,.1,0,.1h-.16v-.1h-.08Z"/>
      </g>
      <g>
        <path class="cls-1" d="M40.86,20.76l.03.73h-.49s.03-.73.03-.73h.42Z"/>
        <path class="cls-3" d="M40.92,21.51h-.55s.03-.79.03-.79h.48s.03.79.03.79ZM40.44,21.46h.43s-.03-.67-.03-.67h-.37s-.03.67-.03.67Z"/>
      </g>
      <g>
        <path class="cls-1" d="M40.95,20.81h.14v.1h.1v-.1h.14v.1h.1v-.1s.14,0,.14,0v.23s-.03.06-.06.06h-.49s-.06-.03-.06-.06v-.22Z"/>
        <path class="cls-3" d="M41.01,21.12s-.09-.04-.09-.09v-.25s.19,0,.19,0v.1h.04v-.1h.2v.1h.04v-.1s.2,0,.2,0v.26s-.04.09-.09.09h-.49ZM40.97,20.84v.2s.02.03.04.03h.49s.03,0,.03-.03v-.2s-.08,0-.08,0v.1s-.16,0-.16,0v-.1h-.08s0,.1,0,.1h-.16v-.1h-.08Z"/>
      </g>
      <g>
        <path class="cls-1" d="M41.47,21.09v.39s-.45,0-.45,0v-.39s.45,0,.45,0Z"/>
        <path class="cls-3" d="M40.99,21.51l.02-.45h.49l.02.45h-.53ZM41.06,21.12v.34s.4,0,.4,0v-.34h-.4Z"/>
      </g>
      <g>
        <path class="cls-1" d="M39.75,20.81h.14v.1h.1v-.1h.14v.1h.1v-.1s.14,0,.14,0v.23s-.03.06-.06.06h-.49s-.06-.03-.06-.06v-.22Z"/>
        <path class="cls-3" d="M40.3,21.12h-.49s-.09-.04-.09-.09v-.25s.19,0,.19,0v.1h.04v-.1h.2v.1h.04v-.1s.2,0,.2,0v.26s-.04.09-.09.09ZM39.77,20.84v.2s.02.03.04.03h.49s.03,0,.03-.03v-.2s-.08,0-.08,0v.1s-.16,0-.16,0v-.1h-.08s0,.1,0,.1h-.16v-.1h-.08Z"/>
      </g>
      <g>
        <path class="cls-1" d="M40.27,21.09v.39s-.45,0-.45,0v-.39s.45,0,.45,0Z"/>
        <path class="cls-3" d="M39.79,21.51l.02-.45h.49s.02.45.02.45h-.53ZM39.86,21.12v.34s.4,0,.4,0v-.34s-.4,0-.4,0Z"/>
      </g>
      <path class="cls-3" d="M40.6,20.99c0-.07.1-.07.1,0v.17h-.1v-.17Z"/>
      <path class="cls-3" d="M41.2,21.24c0-.07.09-.07.09,0v.13h-.09v-.13Z"/>
      <path class="cls-3" d="M40,21.24c0-.07.09-.07.09,0v.13h-.09v-.13Z"/>
    </g>
    <g id="castle-5" data-name="castle">
      <path class="cls-1" d="M50.52,22.55c.02-.62.46-.77.46-.77,0,0,.48.16.48.78h-.94Z"/>
      <g>
        <path class="cls-1" d="M50.13,21.79l-.08.72h.47c0-.59.45-.69.46-.69.01,0,.45.13.46.69h.47s-.08-.72-.08-.72h-1.7Z"/>
        <path class="cls-3" d="M51.95,22.53h-.53s0-.03,0-.03c-.01-.54-.43-.66-.44-.66,0,0-.42.08-.43.66v.03s-.53,0-.53,0l.08-.77h1.75s.09.77.09.77ZM51.48,22.48h.41s-.08-.67-.08-.67h-.75s.11.06.18.12c.1.09.23.26.24.55ZM50.09,22.48h.41c0-.31.14-.48.25-.57.05-.04.1-.07.15-.09h-.74s-.07.66-.07.66Z"/>
      </g>
      <g>
        <path class="cls-1" d="M50.03,22.51h1.92s.07.04.07.09-.03.09-.07.09h-1.92s-.07-.04-.07-.09.03-.09.07-.09Z"/>
        <path class="cls-3" d="M51.94,22.71h-1.92c-.06,0-.1-.05-.1-.12s.05-.12.1-.12h1.92c.06,0,.1.05.1.12s-.05.12-.1.12ZM50.03,22.54s-.05.03-.05.06.02.06.05.06h1.92s.05-.03.05-.06-.02-.06-.05-.06h-1.92Z"/>
      </g>
      <path class="cls-3" d="M51.28,22.53h-.58s0-.03,0-.03c0-.24.1-.38.19-.45,0,0,.08-.06.1-.06h0s.29.13.29.51v.03ZM50.75,22.48h.47c-.01-.29-.19-.4-.24-.42-.04.02-.22.13-.23.42Z"/>
      <g>
        <path class="cls-1" d="M50.07,21.49h1.84s.07.04.07.08-.03.08-.07.08h-1.84s-.07-.04-.07-.08.03-.08.07-.08Z"/>
        <path class="cls-3" d="M51.9,21.68h-1.84c-.05,0-.1-.05-.1-.11s.04-.11.1-.11h1.84c.05,0,.1.05.1.11s-.04.11-.1.11ZM50.07,21.52s-.04.02-.04.05.02.05.04.05h1.84s.04-.02.04-.05-.02-.05-.04-.05h-1.84Z"/>
      </g>
      <g>
        <path class="cls-1" d="M50.1,21.65h1.76s.07.04.07.08-.03.08-.07.08h-1.76s-.07-.04-.07-.08.03-.08.07-.08Z"/>
        <path class="cls-3" d="M51.86,21.84h-1.76c-.05,0-.1-.05-.1-.11s.04-.11.1-.11h1.76c.05,0,.1.05.1.11s-.04.11-.1.11ZM50.1,21.68s-.04.02-.04.05.02.05.04.05h1.76s.04-.02.04-.05-.02-.05-.04-.05h-1.76Z"/>
      </g>
      <g>
        <path class="cls-1" d="M50.67,20.45h.14v.1h.1v-.1h.14v.1h.1v-.1s.14,0,.14,0v.23s-.03.06-.06.06h-.5s-.06-.03-.06-.06v-.22Z"/>
        <path class="cls-3" d="M51.24,20.76h-.5c-.05,0-.09-.04-.09-.09v-.25s.19,0,.19,0v.1h.04v-.1h.2v.1h.05v-.1s.2,0,.2,0v.26s-.04.09-.09.09ZM50.7,20.48v.2s.02.03.04.03h.5s.03,0,.03-.03v-.2s-.09,0-.09,0v.1s-.16,0-.16,0v-.1h-.09s0,.1,0,.1h-.16v-.1h-.08Z"/>
      </g>
      <g>
        <path class="cls-1" d="M51.2,20.76l.03.73h-.49s.03-.73.03-.73h.42Z"/>
        <path class="cls-3" d="M51.26,21.51h-.55s.03-.79.03-.79h.48s.03.79.03.79ZM50.77,21.46h.43s-.03-.67-.03-.67h-.37s-.03.67-.03.67Z"/>
      </g>
      <g>
        <path class="cls-1" d="M51.28,20.81h.14v.1h.1v-.1h.14v.1h.1v-.1s.14,0,.14,0v.23s-.03.06-.06.06h-.49s-.06-.03-.06-.06v-.22Z"/>
        <path class="cls-3" d="M51.34,21.12s-.09-.04-.09-.09v-.25s.19,0,.19,0v.1h.04v-.1h.2v.1h.04v-.1s.2,0,.2,0v.26s-.04.09-.09.09h-.49ZM51.3,20.84v.2s.02.03.04.03h.49s.03,0,.03-.03v-.2s-.08,0-.08,0v.1s-.16,0-.16,0v-.1h-.08s0,.1,0,.1h-.16v-.1h-.08Z"/>
      </g>
      <g>
        <path class="cls-1" d="M51.8,21.09v.39s-.45,0-.45,0v-.39s.45,0,.45,0Z"/>
        <path class="cls-3" d="M51.32,21.51l.02-.45h.49l.02.45h-.53ZM51.39,21.12v.34s.4,0,.4,0v-.34h-.4Z"/>
      </g>
      <g>
        <path class="cls-1" d="M50.08,20.81h.14v.1h.1v-.1h.14v.1h.1v-.1s.14,0,.14,0v.23s-.03.06-.06.06h-.49s-.06-.03-.06-.06v-.22Z"/>
        <path class="cls-3" d="M50.63,21.12h-.49s-.09-.04-.09-.09v-.25s.19,0,.19,0v.1h.04v-.1h.2v.1h.04v-.1s.2,0,.2,0v.26s-.04.09-.09.09ZM50.1,20.84v.2s.02.03.04.03h.49s.03,0,.03-.03v-.2s-.08,0-.08,0v.1s-.16,0-.16,0v-.1h-.08s0,.1,0,.1h-.16v-.1h-.08Z"/>
      </g>
      <g>
        <path class="cls-1" d="M50.6,21.09v.39s-.45,0-.45,0v-.39s.45,0,.45,0Z"/>
        <path class="cls-3" d="M50.12,21.51l.02-.45h.49s.02.45.02.45h-.53ZM50.19,21.12v.34s.4,0,.4,0v-.34s-.4,0-.4,0Z"/>
      </g>
      <path class="cls-3" d="M50.94,20.99c0-.07.1-.07.1,0v.17h-.1v-.17Z"/>
      <path class="cls-3" d="M51.54,21.24c0-.07.09-.07.09,0v.13h-.09v-.13Z"/>
      <path class="cls-3" d="M50.33,21.24c0-.07.09-.07.09,0v.13h-.09v-.13Z"/>
    </g>
    <g id="castle-6" data-name="castle">
      <path class="cls-1" d="M48.52,27.6c.45-.43.87-.22.87-.22,0,0,.23.45-.21.89l-.66-.67Z"/>
      <g>
        <path class="cls-1" d="M48.79,26.79l-.56.45.33.33c.42-.42.81-.17.81-.16,0,0,.23.41-.16.82l.33.33.45-.57-1.2-1.2Z"/>
        <path class="cls-3" d="M49.55,28.6l-.37-.37.02-.02c.38-.39.16-.78.16-.78,0,0-.36-.24-.77.17l-.02.02-.37-.37.61-.49,1.24,1.23-.49.62ZM49.25,28.23l.29.29.42-.53-.53-.53c.02.05.04.12.04.21,0,.14-.03.35-.22.56ZM48.27,27.25l.29.29c.23-.21.44-.24.59-.23.06,0,.12.02.17.04l-.52-.52-.52.42Z"/>
      </g>
      <g>
        <path class="cls-1" d="M48.2,27.22l1.36,1.36s.02.08-.01.11-.09.04-.11.01l-1.36-1.36s-.02-.08.01-.11.09-.04.11-.01Z"/>
        <path class="cls-3" d="M49.41,28.73l-1.36-1.36s-.03-.11.01-.15.11-.05.15-.01l1.36,1.36s.03.11-.01.15-.11.05-.15.01ZM48.18,27.24s-.05-.01-.07.01-.03.06-.01.07l1.36,1.36s.05.01.07-.01.03-.06.01-.07l-1.36-1.36Z"/>
      </g>
      <path class="cls-3" d="M49.07,28.13l-.41-.41.02-.02c.17-.17.34-.2.45-.19,0,0,.1,0,.11.03h0s.11.3-.15.56l-.02.02ZM48.74,27.72l.33.33c.19-.21.15-.42.13-.47-.05-.01-.25-.06-.46.14Z"/>
      <g>
        <path class="cls-1" d="M48.95,26.53l1.3,1.3s.02.08,0,.11-.08.03-.11,0l-1.3-1.3s-.02-.08,0-.11.08-.03.11,0Z"/>
        <path class="cls-3" d="M50.12,27.97l-1.3-1.3s-.04-.1,0-.15.11-.05.15,0l1.3,1.3s.04.1,0,.15-.11.04-.15,0ZM48.93,26.55s-.05-.01-.07,0-.02.05,0,.07l1.3,1.3s.05.01.07,0,.02-.05,0-.07l-1.3-1.3Z"/>
      </g>
      <g>
        <path class="cls-1" d="M48.87,26.67l1.24,1.24s.02.07,0,.1-.08.03-.1,0l-1.24-1.24s-.02-.07,0-.1.08-.03.1,0Z"/>
        <path class="cls-3" d="M49.98,28.05l-1.24-1.24s-.03-.1,0-.14.11-.05.14,0l1.24,1.24s.03.1,0,.14-.11.05-.14,0ZM48.85,26.69s-.04-.01-.06,0-.02.05,0,.06l1.24,1.24s.04.01.06,0,.02-.05,0-.06l-1.24-1.24Z"/>
      </g>
      <g>
        <path class="cls-1" d="M50.12,26.23l.1.1-.07.07.07.07.07-.07.1.1-.07.07.07.07.07-.07.1.1-.16.16s-.06.02-.09,0l-.35-.35s-.03-.06,0-.09l.16-.16Z"/>
        <path class="cls-3" d="M50.29,26.85l-.35-.35s-.04-.09,0-.13l.18-.18.14.14-.07.07.03.03.07-.07.14.14-.07.07.03.03.07-.07.14.14-.18.18s-.09.03-.13,0ZM50.12,26.27l-.14.14s0,.03,0,.05l.35.35s.03.02.05,0l.14-.14-.06-.06-.07.07-.11-.11.07-.07-.06-.06-.07.07-.11-.11.07-.07-.06-.06Z"/>
      </g>
      <g>
        <path class="cls-1" d="M50.27,26.81l-.49.54-.34-.35.54-.49.3.3Z"/>
        <path class="cls-3" d="M49.78,27.39l-.38-.39.58-.53.34.34-.53.58ZM49.47,27.01l.3.3.46-.5-.26-.26-.5.45Z"/>
      </g>
      <g>
        <path class="cls-1" d="M50.29,26.91l.1.1-.07.07.07.07.07-.07.1.1-.07.07.07.07.07-.07.1.1-.16.16s-.06.02-.08,0l-.35-.35s-.03-.06,0-.09l.16-.16Z"/>
        <path class="cls-3" d="M50.11,27.17s-.04-.09,0-.13l.18-.18.14.14-.07.07.03.03.07-.07.14.14-.07.07.03.03.07-.07.14.14-.18.18s-.09.03-.12,0l-.35-.35ZM50.29,26.95l-.14.14s-.01.03,0,.05l.35.35s.03.02.04,0l.14-.14-.06-.06-.07.07-.11-.11.07-.07-.06-.06-.07.07-.11-.11.07-.07-.06-.06Z"/>
      </g>
      <g>
        <path class="cls-1" d="M50.46,27.48l-.27.29-.33-.33.29-.27.31.31Z"/>
        <path class="cls-3" d="M49.82,27.44l.33-.31.35.35-.31.33-.37-.37ZM50.15,27.21l-.25.23.29.29.23-.25-.27-.27Z"/>
      </g>
      <g>
        <path class="cls-1" d="M49.44,26.06l.1.1-.07.07.07.07.07-.07.1.1-.07.07.07.07.07-.07.1.1-.16.16s-.06.02-.08,0l-.35-.35s-.03-.06,0-.09l.16-.16Z"/>
        <path class="cls-3" d="M49.61,26.67l-.35-.35s-.04-.09,0-.13l.18-.18.14.14-.07.07.03.03.07-.07.14.14-.07.07.03.03.07-.07.14.14-.18.18s-.09.03-.12,0ZM49.44,26.1l-.14.14s-.01.03,0,.05l.35.35s.03.02.04,0l.14-.14-.06-.06-.07.07-.11-.11.07-.07-.06-.06-.07.07-.11-.11.07-.07-.06-.06Z"/>
      </g>
      <g>
        <path class="cls-1" d="M49.61,26.63l-.27.29-.33-.33.29-.27.31.31Z"/>
        <path class="cls-3" d="M48.97,26.59l.33-.31.35.35-.31.33-.37-.37ZM49.3,26.36l-.25.23.29.29.23-.25-.27-.27Z"/>
      </g>
      <path class="cls-3" d="M49.92,26.79c.05-.05.12.02.07.07l-.12.12-.07-.07.12-.12Z"/>
      <path class="cls-3" d="M50.17,27.4s.12.02.07.07l-.09.09-.07-.07.09-.09Z"/>
      <path class="cls-3" d="M49.32,26.55s.12.02.07.07l-.09.09-.07-.07.09-.09Z"/>
    </g>
    <g id="castle-7" data-name="castle">
      <path class="cls-1" d="M42.53,28.26c-.43-.45-.22-.87-.22-.87,0,0,.45-.23.89.21l-.67.66Z"/>
      <g>
        <path class="cls-1" d="M41.72,27.99l.45.56.33-.33c-.42-.42-.17-.81-.16-.81,0,0,.41-.23.82.16l.33-.33-.57-.45-1.2,1.2Z"/>
        <path class="cls-3" d="M43.53,27.24l-.37.37-.02-.02c-.39-.38-.78-.16-.78-.16,0,0-.24.36.17.77l.02.02-.37.37-.49-.61,1.23-1.24.62.49ZM43.15,27.53l.29-.29-.53-.42-.53.53c.05-.02.12-.04.21-.04.14,0,.35.03.56.22ZM42.17,28.51l.29-.29c-.21-.23-.24-.44-.23-.59,0-.06.02-.12.04-.17l-.52.52.42.52Z"/>
      </g>
      <g>
        <path class="cls-1" d="M42.15,28.58l1.36-1.36s.08-.02.11.01.04.09.01.11l-1.36,1.36s-.08.02-.11-.01-.04-.09-.01-.11Z"/>
        <path class="cls-3" d="M43.65,27.37l-1.36,1.36s-.11.03-.15-.01-.05-.11-.01-.15l1.36-1.36s.11-.03.15.01.05.11.01.15ZM42.17,28.6s-.01.05.01.07.06.03.07.01l1.36-1.36s.01-.05-.01-.07-.06-.03-.07-.01l-1.36,1.36Z"/>
      </g>
      <path class="cls-3" d="M43.05,27.71l-.41.41-.02-.02c-.17-.17-.2-.34-.19-.45,0,0,0-.1.03-.11h0s.3-.11.56.15l.02.02ZM42.64,28.04l.33-.33c-.21-.19-.42-.15-.47-.13-.01.05-.06.25.14.46Z"/>
      <g>
        <path class="cls-1" d="M41.46,27.83l1.3-1.3s.08-.02.11,0,.03.08,0,.11l-1.3,1.3s-.08.02-.11,0-.03-.08,0-.11Z"/>
        <path class="cls-3" d="M42.89,26.66l-1.3,1.3s-.1.04-.15,0-.05-.11,0-.15l1.3-1.3s.1-.04.15,0,.04.11,0,.15ZM41.48,27.85s-.01.05,0,.07.05.02.07,0l1.3-1.3s.01-.05,0-.07-.05-.02-.07,0l-1.3,1.3Z"/>
      </g>
      <g>
        <path class="cls-1" d="M41.6,27.92l1.24-1.24s.07-.02.1,0,.03.08,0,.1l-1.24,1.24s-.07.02-.1,0-.03-.08,0-.1Z"/>
        <path class="cls-3" d="M42.97,26.81l-1.24,1.24s-.1.03-.14,0-.05-.11,0-.14l1.24-1.24s.1-.03.14,0,.05.11,0,.14ZM41.62,27.94s-.01.04,0,.06.05.02.06,0l1.24-1.24s.01-.04,0-.06-.05-.02-.06,0l-1.24,1.24Z"/>
      </g>
      <g>
        <path class="cls-1" d="M41.15,26.67l.1-.1.07.07.07-.07-.07-.07.1-.1.07.07.07-.07-.07-.07.1-.1.16.16s.02.06,0,.09l-.35.35s-.06.03-.09,0l-.16-.16Z"/>
        <path class="cls-3" d="M41.77,26.49l-.35.35s-.09.04-.13,0l-.18-.18.14-.14.07.07.03-.03-.07-.07.14-.14.07.07.03-.03-.07-.07.14-.14.18.18s.03.09,0,.13ZM41.19,26.67l.14.14s.03,0,.05,0l.35-.35s.02-.03,0-.05l-.14-.14-.06.06.07.07-.11.11-.07-.07-.06.06.07.07-.11.11-.07-.07-.06.06Z"/>
      </g>
      <g>
        <path class="cls-1" d="M41.74,26.51l.54.49-.35.34-.49-.54.3-.3Z"/>
        <path class="cls-3" d="M42.32,27.01l-.39.38-.53-.58.34-.34.58.53ZM41.93,27.31l.3-.3-.5-.46-.26.26.45.5Z"/>
      </g>
      <g>
        <path class="cls-1" d="M41.83,26.49l.1-.1.07.07.07-.07-.07-.07.1-.1.07.07.07-.07-.07-.07.1-.1.16.16s.02.06,0,.08l-.35.35s-.06.03-.09,0l-.16-.16Z"/>
        <path class="cls-3" d="M42.1,26.67s-.09.04-.13,0l-.18-.18.14-.14.07.07.03-.03-.07-.07.14-.14.07.07.03-.03-.07-.07.14-.14.18.18s.03.09,0,.12l-.35.35ZM41.87,26.49l.14.14s.03.01.05,0l.35-.35s.02-.03,0-.04l-.14-.14-.06.06.07.07-.11.11-.07-.07-.06.06.07.07-.11.11-.07-.07-.06.06Z"/>
      </g>
      <g>
        <path class="cls-1" d="M42.4,26.32l.29.27-.33.33-.27-.29.31-.31Z"/>
        <path class="cls-3" d="M42.36,26.96l-.31-.33.35-.35.33.31-.37.37ZM42.13,26.64l.23.25.29-.29-.25-.23-.27.27Z"/>
      </g>
      <g>
        <path class="cls-1" d="M40.98,27.34l.1-.1.07.07.07-.07-.07-.07.1-.1.07.07.07-.07-.07-.07.1-.1.16.16s.02.06,0,.08l-.35.35s-.06.03-.09,0l-.16-.16Z"/>
        <path class="cls-3" d="M41.6,27.17l-.35.35s-.09.04-.13,0l-.18-.18.14-.14.07.07.03-.03-.07-.07.14-.14.07.07.03-.03-.07-.07.14-.14.18.18s.03.09,0,.12ZM41.02,27.34l.14.14s.03.01.05,0l.35-.35s.02-.03,0-.04l-.14-.14-.06.06.07.07-.11.11-.07-.07-.06.06.07.07-.11.11-.07-.07-.06.06Z"/>
      </g>
      <g>
        <path class="cls-1" d="M41.56,27.17l.29.27-.33.33-.27-.29.31-.31Z"/>
        <path class="cls-3" d="M41.51,27.81l-.31-.33.35-.35.33.31-.37.37ZM41.29,27.48l.23.25.29-.29-.25-.23-.27.27Z"/>
      </g>
      <path class="cls-3" d="M41.72,26.86c-.05-.05.02-.12.07-.07l.12.12-.07.07-.12-.12Z"/>
      <path class="cls-3" d="M42.32,26.61s.02-.12.07-.07l.09.09-.07.07-.09-.09Z"/>
      <path class="cls-3" d="M41.47,27.47s.02-.12.07-.07l.09.09-.07.07-.09-.09Z"/>
    </g>
    <circle class="cls-2" cx="45.37" cy="22" r=".17"/>
    <circle class="cls-2" cx="45.84" cy="22.46" r=".17"/>
    <circle class="cls-2" cx="46.29" cy="22" r=".17"/>
    <circle class="cls-2" cx="45.37" cy="22.92" r=".17"/>
    <circle class="cls-2" cx="46.29" cy="22.92" r=".17"/>
    <g id="quina-2" data-name="quina">
      <path class="cls-5" d="M44.99,19.71h0c0,.25.1.48.25.64.15.17.37.27.6.27s.45-.1.6-.27.25-.39.25-.64v-1.22h-1.7s0,1.22,0,1.22Z"/>
    </g>
    <circle class="cls-2" cx="45.37" cy="18.96" r=".17"/>
    <circle class="cls-2" cx="45.84" cy="19.42" r=".17"/>
    <circle class="cls-2" cx="46.29" cy="18.96" r=".17"/>
    <circle class="cls-2" cx="45.37" cy="19.88" r=".17"/>
    <circle class="cls-2" cx="46.29" cy="19.88" r=".17"/>
    <g id="quina-3" data-name="quina">
      <path class="cls-5" d="M44.99,25.75h0c0,.25.1.48.25.64.15.17.37.27.6.27s.45-.1.6-.27.25-.39.25-.64v-1.22h-1.7s0,1.22,0,1.22Z"/>
    </g>
    <circle class="cls-2" cx="45.37" cy="25" r=".17"/>
    <circle class="cls-2" cx="45.84" cy="25.46" r=".17"/>
    <circle class="cls-2" cx="46.29" cy="25" r=".17"/>
    <circle class="cls-2" cx="45.37" cy="25.92" r=".17"/>
    <circle class="cls-2" cx="46.29" cy="25.92" r=".17"/>
    <g id="quina-4" data-name="quina">
      <path class="cls-5" d="M47.42,22.75h0c0,.25.1.48.25.64.15.17.37.27.6.27s.45-.1.6-.27.25-.39.25-.64v-1.22h-1.7s0,1.22,0,1.22Z"/>
    </g>
    <circle class="cls-2" cx="47.81" cy="22" r=".17"/>
    <circle class="cls-2" cx="48.27" cy="22.46" r=".17"/>
    <circle class="cls-2" cx="48.73" cy="22" r=".17"/>
    <circle class="cls-2" cx="47.81" cy="22.92" r=".17"/>
    <circle class="cls-2" cx="48.73" cy="22.92" r=".17"/>
    <g id="quina-5" data-name="quina">
      <path class="cls-5" d="M42.54,22.75h0c0,.25.1.48.25.64.15.17.37.27.6.27s.45-.1.6-.27.25-.39.25-.64v-1.22h-1.7s0,1.22,0,1.22Z"/>
    </g>
    <circle class="cls-2" cx="42.93" cy="22" r=".17"/>
    <circle class="cls-2" cx="43.39" cy="22.46" r=".17"/>
    <circle class="cls-2" cx="43.85" cy="22" r=".17"/>
    <circle class="cls-2" cx="42.93" cy="22.92" r=".17"/>
    <circle class="cls-2" cx="43.85" cy="22.92" r=".17"/>
  </g>
</svg>