<?xml version="1.0" encoding="UTF-8"?>
<svg id="Layer_2" data-name="Layer 2" xmlns="http://www.w3.org/2000/svg" viewBox="0 0 114.55 45">
  <defs>
    <style>
      .cls-1 {
        fill: #fff;
      }

      .cls-2 {
        fill: none;
      }

      .cls-3 {
        fill: #ffb81c;
      }

      .cls-4 {
        fill: #e03c31;
      }

      .cls-5 {
        fill: #001489;
      }

      .cls-6 {
        fill: #007749;
      }
    </style>
  </defs>
  <g id="Layer_1-2" data-name="Layer 1">
    <path class="cls-4" d="M23.52,0h91.02v22.5h-57.27L23.52,0Z"/>
    <path class="cls-5" d="M23.52,45h91.02v-22.5h-57.27l-33.75,22.5Z"/>
    <rect class="cls-2" x="23.52" y="0" width="91.02" height="45"/>
    <path class="cls-1" d="M37.04,45h-5.41V0h5.41s22.5,15,22.5,15h55v15h-55l-22.5,15ZM31.02,14.01v16.97l12.73-8.49-12.73-8.49Z"/>
    <polygon class="cls-2" points="23.52 0 57.27 22.5 23.52 45 23.52 0"/>
    <g>
      <path d="M0,0h10s33.75,22.5,33.75,22.5L10,45H0"/>
      <polygon class="cls-3" points="15.41 45 10 45 43.75 22.5 10 0 15.41 0 49.16 22.5 15.41 45"/>
    </g>
    <polygon class="cls-6" points="31.64 45 15.41 45 49.16 22.5 15.41 0 31.64 0 58.64 18 114.55 18 114.55 27 58.64 27 31.64 45"/>
  </g>
</svg>