<?xml version="1.0" encoding="UTF-8"?>
<svg id="Layer_2" data-name="Layer 2" xmlns="http://www.w3.org/2000/svg" viewBox="0 0 114.55 45">
  <defs>
    <style>
      .cls-1 {
        fill: #fff;
      }

      .cls-2 {
        fill: #e30a17;
      }
    </style>
  </defs>
  <g id="Layer_1-2" data-name="Layer 1">
    <path class="cls-2" d="M0,0h114.55v45H0V0Z"/>
    <path class="cls-1" d="M54.84,22.5l10.18-3.31-6.29,8.66v-10.7l6.29,8.66-10.18-3.31ZM55.53,28.52c-3.32,5.25-10.27,6.81-15.52,3.49-5.25-3.32-6.81-10.27-3.49-15.52,3.32-5.25,10.27-6.81,15.52-3.49,1.41.89,2.6,2.08,3.49,3.49-3.32-3.7-9.01-4-12.71-.68-3.7,3.32-4,9.01-.68,12.71,3.32,3.7,9.01,4,12.71.68.24-.21.46-.44.68-.68Z"/>
  </g>
</svg>