<?xml version="1.0" encoding="UTF-8"?>
<svg id="Layer_2" data-name="Layer 2" xmlns="http://www.w3.org/2000/svg" viewBox="0 0 114.55 45">
  <defs>
    <style>
      .cls-1 {
        fill: #0038a8;
      }

      .cls-2 {
        fill: #fff;
      }

      .cls-3 {
        fill: #7b3f00;
      }

      .cls-4 {
        fill: #fcd116;
      }
    </style>
  </defs>
  <g id="Layer_1-2" data-name="Layer 1">
    <path class="cls-2" d="M0,0h114.55v45H0V0Z"/>
    <rect class="cls-1" x="48.52" y="5" width="66.02" height="5"/>
    <rect class="cls-1" x="48.52" y="15" width="66.02" height="5"/>
    <rect class="cls-1" y="25" width="114.55" height="5"/>
    <rect class="cls-1" y="35" width="114.55" height="5"/>
    <g>
      <g>
        <g>
          <g>
            <path class="cls-4" d="M35.46,14.94l.83,1.24c-3.4,2.46-1.33,3.92-3.73,4.7,1.5-1.46-.2-1.69,1.06-4.74"/>
            <path class="cls-3" d="M32.24,21.07l.25-.25c.72-.71.68-1.09.6-1.71-.08-.62-.19-1.46.45-3l.03-.08.15.06-.03.08c-.62,1.5-.51,2.32-.44,2.91.07.56.12.98-.4,1.59.8-.35.92-.81,1.08-1.42.2-.77.48-1.81,2.24-3.11l-.83-1.24.14-.09.92,1.37-.06.05c-1.77,1.28-2.03,2.27-2.24,3.06-.19.71-.34,1.27-1.51,1.65l-.34.11Z"/>
          </g>
          <g>
            <g>
              <g>
                <path class="cls-4" d="M33.89,13.83l-.29,1.46c-4.14-.66-3.71,1.83-5.97.69,2.09.03,1.1-1.35,4.15-2.61"/>
                <path class="cls-3" d="M28.69,16.36c-.3,0-.65-.09-1.09-.31l-.32-.16h.35c1.02.02,1.27-.31,1.66-.8.39-.49.92-1.17,2.46-1.8l.08-.03.06.15-.08.03c-1.49.62-1.99,1.25-2.39,1.75-.36.45-.63.79-1.43.86.81.32,1.22.08,1.77-.24.68-.4,1.62-.94,3.78-.61l.29-1.46.16.03-.32,1.62h-.08c-2.16-.36-3.04.15-3.75.57-.38.22-.71.41-1.15.41Z"/>
              </g>
              <g>
                <path id="A" class="cls-3" d="M33.89,13.83l-.65-.12v.03c-1.74.43-2.68,1.15-3.42,1.7-.37.28-.69.51-1.04.64-.23.09-.48.12-.72.09,1.8.64,1.68-1.49,5.54-.87l.29-1.46Z"/>
                <path class="cls-3" d="M28.69,16.32c-.19,0-.4-.04-.64-.12l-.31-.11.33.04c.24.03.48,0,.7-.08.35-.13.68-.37,1.03-.63l.06-.04c.74-.55,1.67-1.23,3.35-1.65v-.05s.73.13.73.13l-.3,1.53h-.04c-2.17-.35-3.06.16-3.78.58-.38.22-.7.41-1.13.41ZM28.35,16.2c.6.13.98-.09,1.44-.36.72-.42,1.62-.94,3.79-.6l.27-1.39-.56-.1h0s-.03.02-.03.02c-1.69.41-2.62,1.1-3.36,1.65l-.06.04c-.35.26-.68.51-1.05.64-.14.05-.3.09-.45.1Z"/>
              </g>
            </g>
            <path class="cls-3" d="M28.24,16.17c-.19,0-.4-.04-.63-.12l.06-.16c.85.3,1.35-.07,2.1-.63.72-.53,1.7-1.26,3.44-1.69l.04.16c-1.7.42-2.63,1.11-3.38,1.66-.58.43-1.04.77-1.63.77Z"/>
          </g>
          <g>
            <path class="cls-4" d="M36.02,12.5l-1.17-1.17-5.25,7.58,7.58-5.25-1.17-1.17-6.42,6.42"/>
            <path class="cls-3" d="M29.28,19.24l5.56-8.04,2.47,2.47-8.04,5.56ZM36.02,12.62l-5.71,5.71,6.75-4.67-1.04-1.04ZM34.87,11.46l-4.67,6.75,5.71-5.71-1.04-1.04Z"/>
          </g>
          <g>
            <g>
              <g>
                <g>
                  <path class="cls-4" d="M33.58,11.93l-1.24.83c-2.46-3.4-3.92-1.32-4.7-3.73,1.46,1.5,1.7-.2,4.75,1.07"/>
                  <path class="cls-3" d="M32.32,12.87l-.05-.06c-1.28-1.77-2.27-2.03-3.06-2.24-.71-.19-1.27-.34-1.66-1.52l-.11-.34.25.25c.71.72,1.09.68,1.72.6.62-.08,1.47-.18,3,.45l.08.03-.06.15-.08-.03c-1.5-.62-2.28-.52-2.92-.44-.56.07-.98.12-1.6-.4.35.8.81.92,1.42,1.08.77.2,1.81.48,3.1,2.24l1.24-.83.09.14-1.37.92Z"/>
                </g>
                <g>
                  <path id="A-2" data-name="A" class="cls-3" d="M33.58,11.93l-.38-.54-.02.02c-1.53-.93-2.71-1.09-3.62-1.22-.46-.07-.85-.13-1.18-.28-.22-.1-.42-.26-.57-.45.82,1.72,2.24.13,4.54,3.31l1.24-.83Z"/>
                  <path class="cls-3" d="M32.33,12.81l-.02-.03c-1.29-1.78-2.29-2.05-3.09-2.26-.61-.16-1.09-.29-1.45-1.05l-.14-.3.2.26c.15.19.34.34.56.44.34.16.74.22,1.17.28h.07c.91.15,2.05.32,3.54,1.21l.03-.04.43.62-1.3.87ZM27.98,9.69c.33.52.75.63,1.27.76.81.21,1.81.48,3.11,2.26l1.17-.79-.33-.47h0s-.03-.01-.03-.01c-1.49-.9-2.63-1.07-3.54-1.21h-.07c-.43-.07-.84-.13-1.19-.3-.14-.06-.27-.15-.38-.25Z"/>
                </g>
              </g>
              <path class="cls-3" d="M33.19,11.41c-1.5-.91-2.64-1.08-3.56-1.21-.95-.14-1.63-.24-2.06-1.14l.15-.07c.39.81,1,.91,1.93,1.04.89.13,2.1.31,3.62,1.24l-.09.14Z"/>
            </g>
            <g>
              <g>
                <path id="C" class="cls-4" d="M36.02,12.5v-1.65l-9.07,1.65,9.07,1.65v-1.65h-9.07"/>
                <path class="cls-3" d="M36.11,14.25l-9.62-1.75,9.62-1.75v3.5ZM27.86,12.58l8.08,1.47v-1.47h-8.08ZM27.86,12.42h8.08v-1.47l-8.08,1.47Z"/>
              </g>
              <path id="D" class="cls-3" d="M36.02,12.5v1.65-1.65h-9.07l9.07,1.65"/>
            </g>
          </g>
          <g>
            <g>
              <g>
                <g>
                  <path class="cls-4" d="M34.69,10.37l-1.46-.29c.66-4.14-1.83-3.71-.69-5.97-.03,2.09,1.42,1.27,2.69,4.32"/>
                  <path class="cls-3" d="M34.76,10.47l-1.62-.32v-.08c.36-2.16-.15-3.04-.57-3.75-.37-.63-.66-1.13-.1-2.24l.16-.32v.35c-.02,1.02.33,1.32.85,1.76.5.43,1.2,1.01,1.82,2.53l.03.08-.15.06-.03-.08c-.61-1.48-1.26-2.03-1.78-2.46-.48-.4-.83-.7-.9-1.53-.32.81-.08,1.22.24,1.77.4.68.94,1.62.61,3.78l1.46.29-.03.16Z"/>
                </g>
                <g>
                  <path id="A-3" data-name="A" class="cls-3" d="M34.69,10.37l.12-.65h-.03c-.43-1.74-1.15-2.68-1.7-3.42-.28-.37-.51-.69-.64-1.04-.09-.23-.12-.48-.09-.72-.64,1.8,1.49,1.68.87,5.54l1.46.29Z"/>
                  <path class="cls-3" d="M34.72,10.41l-1.53-.3v-.04c.35-2.17-.16-3.06-.58-3.78-.32-.54-.57-.98-.28-1.77l.11-.31-.04.33c-.03.24,0,.48.08.7.13.35.37.68.63,1.03l.04.06c.55.74,1.23,1.67,1.65,3.35h.05s-.13.73-.13.73ZM33.28,10.05l1.39.27.1-.56h0s0-.03,0-.03c-.41-1.69-1.1-2.62-1.65-3.36l-.04-.06c-.26-.35-.51-.68-.64-1.05-.05-.14-.09-.3-.1-.45-.13.6.09.98.36,1.44.42.72.94,1.62.6,3.79Z"/>
                </g>
              </g>
              <path class="cls-3" d="M34.78,9.72c-.42-1.7-1.11-2.63-1.66-3.38-.57-.77-.98-1.33-.65-2.26l.16.06c-.3.85.07,1.35.63,2.11.53.72,1.26,1.7,1.69,3.44l-.16.04Z"/>
            </g>
            <g>
              <g>
                <path id="C-2" data-name="C" class="cls-4" d="M36.02,12.5l1.17-1.17-7.58-5.25,5.25,7.58,1.17-1.17-6.42-6.42"/>
                <path class="cls-3" d="M34.84,13.79l-5.56-8.04,8.04,5.56-2.47,2.47ZM30.19,6.79l4.67,6.75,1.04-1.04-5.71-5.71ZM30.31,6.67l5.71,5.71,1.04-1.04-6.75-4.67Z"/>
              </g>
              <path id="D-2" data-name="D" class="cls-3" d="M36.02,12.5l-1.17,1.17,1.17-1.17-6.42-6.42,5.25,7.58"/>
            </g>
          </g>
          <g>
            <g>
              <g>
                <g>
                  <path class="cls-4" d="M36.59,10.06l-.83-1.24c3.4-2.46,1.32-3.92,3.73-4.7-1.5,1.46.19,1.7-1.07,4.75"/>
                  <path class="cls-3" d="M36.57,10.17l-.92-1.37.06-.05c1.77-1.28,2.03-2.27,2.24-3.06.19-.71.34-1.27,1.52-1.66l.34-.11-.25.25c-.72.71-.68,1.09-.6,1.72.08.62.18,1.47-.45,3l-.03.08-.15-.06.03-.08c.62-1.5.52-2.28.44-2.92-.07-.56-.12-.99.4-1.6-.8.35-.92.81-1.08,1.42-.2.77-.48,1.81-2.24,3.1l.83,1.24-.14.09Z"/>
                </g>
                <g>
                  <path id="A-4" data-name="A" class="cls-3" d="M36.59,10.06l.54-.38-.02-.02c.93-1.53,1.09-2.71,1.22-3.62.07-.46.13-.85.28-1.18.1-.22.26-.42.45-.57-1.72.82-.13,2.24-3.3,4.54l.83,1.24Z"/>
                  <path class="cls-3" d="M36.58,10.11l-.87-1.3.03-.02c1.78-1.29,2.05-2.29,2.26-3.09.16-.61.29-1.09,1.05-1.45l.3-.14-.26.2c-.19.15-.34.34-.44.56-.16.34-.22.74-.28,1.17v.07c-.15.91-.32,2.05-1.21,3.54l.04.03-.62.43ZM35.81,8.83l.79,1.17.47-.33h0s.02-.04.02-.04c.9-1.49,1.07-2.63,1.21-3.54v-.07c.07-.43.13-.84.3-1.19.06-.14.15-.27.25-.38-.52.33-.63.75-.76,1.27-.21.81-.48,1.81-2.26,3.11Z"/>
                </g>
              </g>
              <path class="cls-3" d="M37.25,9.75l-.14-.09c.91-1.5,1.08-2.64,1.21-3.56.14-.95.24-1.63,1.14-2.06l.07.15c-.81.39-.91,1-1.04,1.93-.13.89-.31,2.1-1.24,3.62Z"/>
            </g>
            <g>
              <g>
                <path id="C-3" data-name="C" class="cls-4" d="M36.02,12.5h1.65l-1.65-9.07-1.65,9.07h1.65V3.43"/>
                <path class="cls-3" d="M37.77,12.58h-3.5l1.75-9.62,1.75,9.62ZM36.11,12.42h1.47l-1.47-8.08v8.08ZM34.47,12.42h1.47V4.34l-1.47,8.08Z"/>
              </g>
              <path id="D-3" data-name="D" class="cls-3" d="M36.02,12.5h-1.65,1.65V3.43l-1.65,9.07"/>
            </g>
            <g>
              <g>
                <g>
                  <g>
                    <path class="cls-4" d="M38.15,11.17l.29-1.46c4.14.66,3.71-1.83,5.97-.69-2.09-.03-1.16,1.36-4.21,2.62"/>
                    <path class="cls-3" d="M40.15,11.76l-.06-.15.08-.03c1.49-.62,2-1.25,2.42-1.75.37-.46.65-.8,1.47-.86-.81-.32-1.22-.08-1.77.24-.68.4-1.62.94-3.78.61l-.29,1.46-.16-.03.32-1.62h.08c2.16.36,3.04-.15,3.75-.57.63-.37,1.13-.66,2.24-.1l.32.16h-.35c-1.02-.01-1.29.31-1.7.81-.4.49-.95,1.17-2.48,1.8l-.08.03Z"/>
                  </g>
                  <g>
                    <path id="A-5" data-name="A" class="cls-3" d="M38.15,11.17l.65.12v-.03c1.74-.43,2.68-1.15,3.42-1.7.37-.28.69-.51,1.04-.64.23-.09.48-.12.72-.09-1.8-.64-1.68,1.49-5.54.87l-.29,1.46Z"/>
                    <path class="cls-3" d="M38.85,11.33l-.74-.13.3-1.53h.04c2.17.35,3.06-.16,3.78-.58.54-.32.98-.57,1.77-.28l.31.11-.33-.04c-.24-.03-.48,0-.7.08-.35.13-.68.37-1.03.63l-.06.04c-.74.55-1.67,1.23-3.35,1.65v.05ZM38.2,11.14l.56.1h0s.03-.02.03-.02c1.69-.41,2.62-1.1,3.36-1.65l.06-.04c.35-.26.68-.51,1.05-.64.14-.05.3-.09.45-.1-.6-.13-.98.09-1.44.36-.72.42-1.62.94-3.79.6l-.27,1.39Z"/>
                  </g>
                </g>
                <path class="cls-3" d="M38.84,11.42l-.04-.16c1.7-.42,2.63-1.11,3.38-1.66.77-.57,1.33-.98,2.26-.65l-.06.16c-.85-.3-1.35.07-2.1.63-.72.53-1.7,1.26-3.44,1.69Z"/>
              </g>
              <g>
                <g>
                  <path id="C-4" data-name="C" class="cls-4" d="M36.02,12.5l1.17,1.17,5.25-7.58-7.58,5.25,1.17,1.17,6.42-6.42"/>
                  <path class="cls-3" d="M37.2,13.79l-2.47-2.47,8.04-5.56-5.56,8.04ZM36.14,12.5l1.04,1.04,4.67-6.75-5.71,5.71ZM34.98,11.34l1.04,1.04,5.71-5.71-6.75,4.67Z"/>
                </g>
                <path id="D-4" data-name="D" class="cls-3" d="M36.02,12.5l-1.17-1.17,1.17,1.17,6.42-6.42-7.58,5.25"/>
              </g>
            </g>
          </g>
          <g>
            <g>
              <g>
                <g>
                  <path class="cls-4" d="M38.47,13.07l1.24-.83c2.46,3.4,3.92,1.32,4.7,3.73-1.46-1.5-1.74.18-4.79-1.08"/>
                  <path class="cls-3" d="M44.6,16.28l-.25-.25c-.71-.73-1.12-.68-1.74-.6-.63.07-1.48.17-3.02-.46l-.08-.03.06-.15.08.03c1.49.62,2.29.52,2.93.45.57-.07,1-.12,1.62.41-.35-.8-.81-.92-1.42-1.08-.77-.2-1.81-.48-3.1-2.24l-1.24.83-.09-.14,1.37-.92.05.06c1.28,1.77,2.27,2.03,3.06,2.24.71.19,1.27.34,1.66,1.52l.11.34Z"/>
                </g>
                <g>
                  <path id="A-6" data-name="A" class="cls-3" d="M38.47,13.07l.38.54.02-.02c1.53.93,2.71,1.09,3.62,1.22.46.07.85.13,1.18.28.22.1.42.26.57.45-.82-1.72-2.24-.13-4.54-3.3l-1.24.83Z"/>
                  <path class="cls-3" d="M44.41,15.82l-.2-.26c-.15-.19-.34-.34-.56-.44-.34-.16-.74-.22-1.17-.28h-.07c-.91-.15-2.05-.32-3.54-1.21l-.03.04-.43-.62,1.3-.87.02.03c1.29,1.78,2.29,2.05,3.09,2.26.61.16,1.09.29,1.45,1.05l.14.3ZM38.85,13.54l.03.02c1.49.9,2.63,1.07,3.54,1.21h.07c.43.07.84.13,1.19.3.14.06.27.15.38.25-.33-.52-.75-.63-1.27-.76-.81-.21-1.81-.48-3.11-2.26l-1.17.79.33.47h0Z"/>
                </g>
              </g>
              <path class="cls-3" d="M44.33,16.01c-.39-.81-1-.91-1.93-1.04-.89-.13-2.1-.31-3.62-1.24l.09-.14c1.5.91,2.64,1.08,3.56,1.21.95.14,1.63.24,2.06,1.14l-.15.07Z"/>
            </g>
            <g>
              <g>
                <path id="C-5" data-name="C" class="cls-4" d="M36.02,12.5v1.65l9.08-1.65-9.08-1.65v1.65h9.08"/>
                <path class="cls-3" d="M35.94,14.25v-3.5l9.62,1.75-9.62,1.75ZM36.11,12.58v1.47l8.08-1.47h-8.08ZM36.11,12.42h8.08l-8.08-1.47v1.47Z"/>
              </g>
              <path id="D-5" data-name="D" class="cls-3" d="M36.02,12.5v-1.65,1.65h9.08l-9.08-1.65"/>
            </g>
          </g>
          <g>
            <g>
              <g>
                <g>
                  <path class="cls-4" d="M37.35,14.63l1.46.29c-.66,4.14,1.83,3.71.69,5.97.03-2.09-1.35-1.12-2.62-4.17"/>
                  <path class="cls-3" d="M39.41,21.24v-.35c.02-1.02-.31-1.28-.8-1.67-.49-.4-1.17-.94-1.8-2.47l-.03-.08.15-.06.03.08c.62,1.49,1.25,1.99,1.75,2.4.45.36.79.64.86,1.45.32-.81.08-1.22-.24-1.77-.4-.68-.94-1.62-.61-3.78l-1.46-.29.03-.16,1.62.32v.08c-.36,2.16.15,3.04.57,3.75.37.63.66,1.13.1,2.24l-.16.32Z"/>
                </g>
                <g>
                  <path id="A-7" data-name="A" class="cls-3" d="M37.35,14.63l-.12.65h.03c.43,1.74,1.15,2.68,1.7,3.42.28.37.51.69.64,1.04.09.23.12.48.09.72.64-1.8-1.49-1.68-.87-5.54l-1.46-.29Z"/>
                  <path class="cls-3" d="M39.61,20.78l.04-.33c.03-.24,0-.48-.08-.7-.13-.35-.37-.68-.63-1.03l-.04-.06c-.55-.74-1.23-1.67-1.65-3.35h-.05s.13-.73.13-.73l1.53.3v.04c-.35,2.17.16,3.06.58,3.78.32.54.57.98.28,1.77l-.11.31ZM37.29,15.23v.03c.42,1.69,1.11,2.62,1.66,3.36l.04.06c.26.35.51.68.64,1.05.05.14.09.3.1.45.13-.6-.09-.98-.36-1.44-.42-.72-.94-1.62-.6-3.79l-1.39-.27-.1.56h0Z"/>
                </g>
              </g>
              <path class="cls-3" d="M39.57,20.91l-.16-.06c.3-.85-.07-1.35-.63-2.11-.53-.72-1.26-1.7-1.69-3.44l.16-.04c.42,1.7,1.11,2.63,1.66,3.38.57.77.98,1.33.65,2.26Z"/>
            </g>
            <g>
              <g>
                <path id="C-6" data-name="C" class="cls-4" d="M36.02,12.5l-1.17,1.17,7.58,5.25-5.25-7.58-1.17,1.17,6.42,6.42"/>
                <path class="cls-3" d="M42.77,19.24l-8.04-5.56,2.47-2.47,5.56,8.04ZM34.98,13.65l6.75,4.67-5.71-5.71-1.04,1.04ZM36.14,12.5l5.71,5.71-4.67-6.75-1.04,1.04Z"/>
              </g>
              <path id="D-6" data-name="D" class="cls-3" d="M36.02,12.5l1.17-1.17-1.17,1.17,6.42,6.42-5.25-7.58"/>
            </g>
          </g>
        </g>
        <g>
          <path class="cls-3" d="M35.46,14.94l-.55.38h.02c-.93,1.55-1.09,2.73-1.22,3.64-.07.46-.13.85-.29,1.18-.1.22-.26.42-.45.57,1.72-.82.13-2.24,3.3-4.54l-.83-1.23Z"/>
          <path class="cls-3" d="M32.69,20.89l.26-.21c.19-.15.34-.34.44-.56.15-.32.21-.69.28-1.17v-.06c.14-.92.31-2.06,1.21-3.55l-.04-.02.63-.43.87,1.3-.03.02c-1.78,1.29-2.05,2.29-2.26,3.09-.16.61-.29,1.09-1.05,1.45l-.3.14ZM34.98,15.32h0s-.02.04-.02.04c-.91,1.5-1.07,2.64-1.21,3.55v.06c-.08.49-.14.87-.3,1.19-.06.14-.15.27-.25.38.51-.33.62-.73.76-1.27.21-.81.48-1.81,2.26-3.11l-.78-1.17-.46.32Z"/>
        </g>
        <g>
          <path class="cls-3" d="M32.58,20.96l-.07-.15c.82-.39.91-1,1.04-1.93.13-.89.31-2.1,1.24-3.62l.14.09c-.91,1.5-1.08,2.64-1.21,3.56-.14.95-.24,1.63-1.14,2.06Z"/>
          <g>
            <path class="cls-4" d="M36.02,12.5h-1.65l1.65,9.08,1.65-9.08h-1.65v9.08"/>
            <path class="cls-3" d="M36.02,22.04l-1.75-9.62h3.5l-1.75,9.62ZM36.1,12.58v8.08l1.47-8.08h-1.47ZM34.47,12.58l1.47,8.08v-8.08h-1.47Z"/>
          </g>
        </g>
      </g>
      <g>
        <path class="cls-3" d="M36.02,12.5h1.65-1.65v9.08l1.65-9.08"/>
        <path class="cls-3" d="M36.02,12.5l1.17,1.17-1.17-1.17-6.42,6.42,7.58-5.25"/>
      </g>
      <g>
        <circle class="cls-4" cx="36.02" cy="12.5" r="3.03"/>
        <path class="cls-3" d="M36.02,15.61c-1.71,0-3.11-1.39-3.11-3.11s1.39-3.11,3.11-3.11,3.11,1.39,3.11,3.11-1.39,3.11-3.11,3.11ZM36.02,9.55c-1.62,0-2.94,1.32-2.94,2.94s1.32,2.94,2.94,2.94,2.94-1.32,2.94-2.94-1.32-2.94-2.94-2.94Z"/>
      </g>
      <g>
        <path class="cls-3" d="M38.25,11.29c-.19.22-.3-.16-.99-.16s-.8.41-.91.33c-.11-.08.58-.58.8-.6.4.03.79.18,1.1.44M37.45,11.54c.12.14.1.34-.04.46-.04.03-.08.05-.13.07-.19,0-.55-.33-.39-.55"/>
        <path class="cls-3" d="M36.55,11.78c.03-.33.3-.39.74-.39s.63.33.8.41c-.19,0-.36-.28-.8-.28s-.44,0-.74.28M36.63,11.86c.11-.16.25.16.55.16.24,0,.47-.07.66-.22.19-.14-.28.33-.58.33s-.72-.16-.63-.28M34.48,11.51c-.14.05-.36.33,0,.52-.28-.19-.05-.47,0-.52Z"/>
        <path class="cls-3" d="M37.56,11.51c.05.05.28.33,0,.52.36-.19.14-.47,0-.52ZM35.59,12.69c-.25.05-.16.41-.39.44s-.33.28-.3.25c.14-.11.44-.19.66-.19s.28.14.47.14.25-.14.47-.14.52.08.66.19c.03.03-.08-.22-.3-.25s-.14-.39-.39-.44c0,.11.08.08.11.25,0,.14-.25.14-.3,0,.05.22-.11.22-.25.22s-.3,0-.25-.22c-.05.14-.3.14-.3,0,.03-.16.11-.14.11-.25h0ZM34.73,13.63c-.22.16-.28.25-.3.44.04-.08.09-.16.15-.23l-.04-.02h.05s.15-.19.15-.19Z"/>
        <path class="cls-3" d="M34.58,13.83h0s.07.02.11.02l-.11-.02ZM34.69,13.84c.15.03.29.06.43.11.15-.01.37-.05.9-.05s.75.04.9.05c.14-.05.28-.08.43-.11-.3,0-.71-.22-.89-.22-.22,0-.28.05-.44.05s-.22-.05-.44-.05c-.19,0-.59.22-.89.22h0ZM37.36,13.84s.08,0,.11-.01h0s-.11.01-.11.01Z"/>
        <path class="cls-3" d="M37.46,13.83h.05s-.04.01-.04.01c.05.07.1.15.15.23-.03-.19-.08-.28-.3-.44l.15.2Z"/>
        <path class="cls-3" d="M37.47,13.84c-.29.11-.39.13-.54.12-.26.08-.48.17-.9.17s-.64-.09-.9-.17c-.15.01-.25,0-.54-.12.86.37.77.51,1.44.51s.58-.13,1.45-.5ZM34.58,13.83s-.03-.01-.04-.01h.04ZM37.47,13.83h.04s-.03,0-.04,0h0Z"/>
        <g>
          <path class="cls-3" d="M33.79,11.29c.19.22.3-.17.99-.17s.8.41.91.33-.58-.58-.8-.61-.85.19-1.1.44M34.59,11.54c-.19.17-.03.52.17.52s.55-.33.39-.55"/>
          <path class="cls-3" d="M35.5,11.78c-.03-.33-.3-.39-.74-.39s-.63.33-.8.41c.19,0,.36-.28.8-.28s.44,0,.74.28M35.42,11.87c-.11-.17-.25.17-.55.17s-.47-.08-.66-.22.28.33.58.33.72-.17.63-.28"/>
        </g>
        <path class="cls-3" d="M36.02,14.59c-.14,0-.49.08,0,.08s.14-.08,0-.08"/>
      </g>
    </g>
  </g>
</svg>