<?xml version="1.0" encoding="UTF-8"?>
<svg id="Layer_2" data-name="Layer 2" xmlns="http://www.w3.org/2000/svg" viewBox="0 0 114.55 45">
  <defs>
    <style>
      .cls-1 {
        fill: #b31942;
      }

      .cls-2 {
        fill: #fff;
      }

      .cls-3 {
        fill: #0a3161;
      }
    </style>
  </defs>
  <g id="Layer_1-2" data-name="Layer 1">
    <path class="cls-1" d="M0,0h114.55v45H0"/>
    <g>
      <path d="M0,5.19h114.55M114.55,12.12H0M0,19.04h114.55M114.55,25.96H0M0,32.88h114.55M114.55,39.81H0"/>
      <path class="cls-2" d="M114.55,41.54H0v-3.46h114.55v3.46ZM114.55,34.62H0v-3.46h114.55v3.46ZM114.55,27.69H0v-3.46h114.55v3.46ZM114.55,20.77H0v-3.46h114.55v3.46ZM114.55,13.85H0v-3.46h114.55v3.46ZM114.55,6.92H0v-3.46h114.55v3.46Z"/>
    </g>
    <path class="cls-3" d="M0,0h48.72v24.23H0"/>
    <g>
      <g id="s18">
        <g id="s9">
          <g id="s5">
            <g id="s4">
              <path id="s" class="cls-2" d="M17.37,1.04l.81,2.5-2.13-1.55h2.63l-2.13,1.55.81-2.5Z"/>
              <path id="s-2" data-name="s" class="cls-2" d="M17.37,5.88l.81,2.5-2.13-1.55h2.63l-2.13,1.55.81-2.5Z"/>
              <path id="s-3" data-name="s" class="cls-2" d="M17.37,10.73l.81,2.5-2.13-1.55h2.63l-2.13,1.55.81-2.5Z"/>
              <path id="s-4" data-name="s" class="cls-2" d="M17.37,15.58l.81,2.5-2.13-1.55h2.63l-2.13,1.55.81-2.5Z"/>
            </g>
            <path id="s-5" data-name="s" class="cls-2" d="M17.37,20.42l.81,2.5-2.13-1.55h2.63l-2.13,1.55.81-2.5Z"/>
          </g>
          <g id="s4-2" data-name="s4">
            <path id="s-6" data-name="s" class="cls-2" d="M20.22,3.46l.81,2.5-2.13-1.55h2.63l-2.13,1.55.81-2.5Z"/>
            <path id="s-7" data-name="s" class="cls-2" d="M20.22,8.31l.81,2.5-2.13-1.55h2.63l-2.13,1.55.81-2.5Z"/>
            <path id="s-8" data-name="s" class="cls-2" d="M20.22,13.15l.81,2.5-2.13-1.55h2.63l-2.13,1.55.81-2.5Z"/>
            <path id="s-9" data-name="s" class="cls-2" d="M20.22,18l.81,2.5-2.13-1.55h2.63l-2.13,1.55.81-2.5Z"/>
          </g>
        </g>
        <g id="s9-2" data-name="s9">
          <g id="s5-2" data-name="s5">
            <g id="s4-3" data-name="s4">
              <path id="s-10" data-name="s" class="cls-2" d="M23.07,1.04l.81,2.5-2.13-1.55h2.63l-2.13,1.55.81-2.5Z"/>
              <path id="s-11" data-name="s" class="cls-2" d="M23.07,5.88l.81,2.5-2.13-1.55h2.63l-2.13,1.55.81-2.5Z"/>
              <path id="s-12" data-name="s" class="cls-2" d="M23.07,10.73l.81,2.5-2.13-1.55h2.63l-2.13,1.55.81-2.5Z"/>
              <path id="s-13" data-name="s" class="cls-2" d="M23.07,15.58l.81,2.5-2.13-1.55h2.63l-2.13,1.55.81-2.5Z"/>
            </g>
            <path id="s-14" data-name="s" class="cls-2" d="M23.07,20.42l.81,2.5-2.13-1.55h2.63l-2.13,1.55.81-2.5Z"/>
          </g>
          <g id="s4-4" data-name="s4">
            <path id="s-15" data-name="s" class="cls-2" d="M25.92,3.46l.81,2.5-2.13-1.55h2.63l-2.13,1.55.81-2.5Z"/>
            <path id="s-16" data-name="s" class="cls-2" d="M25.92,8.31l.81,2.5-2.13-1.55h2.63l-2.13,1.55.81-2.5Z"/>
            <path id="s-17" data-name="s" class="cls-2" d="M25.92,13.15l.81,2.5-2.13-1.55h2.63l-2.13,1.55.81-2.5Z"/>
            <path id="s-18" data-name="s" class="cls-2" d="M25.92,18l.81,2.5-2.13-1.55h2.63l-2.13,1.55.81-2.5Z"/>
          </g>
        </g>
      </g>
      <g id="s18-2" data-name="s18">
        <g id="s9-3" data-name="s9">
          <g id="s5-3" data-name="s5">
            <g id="s4-5" data-name="s4">
              <path id="s-19" data-name="s" class="cls-2" d="M28.77,1.04l.81,2.5-2.13-1.55h2.63l-2.13,1.55.81-2.5Z"/>
              <path id="s-20" data-name="s" class="cls-2" d="M28.77,5.88l.81,2.5-2.13-1.55h2.63l-2.13,1.55.81-2.5Z"/>
              <path id="s-21" data-name="s" class="cls-2" d="M28.77,10.73l.81,2.5-2.13-1.55h2.63l-2.13,1.55.81-2.5Z"/>
              <path id="s-22" data-name="s" class="cls-2" d="M28.77,15.58l.81,2.5-2.13-1.55h2.63l-2.13,1.55.81-2.5Z"/>
            </g>
            <path id="s-23" data-name="s" class="cls-2" d="M28.77,20.42l.81,2.5-2.13-1.55h2.63l-2.13,1.55.81-2.5Z"/>
          </g>
          <g id="s4-6" data-name="s4">
            <path id="s-24" data-name="s" class="cls-2" d="M31.62,3.46l.81,2.5-2.13-1.55h2.63l-2.13,1.55.81-2.5Z"/>
            <path id="s-25" data-name="s" class="cls-2" d="M31.62,8.31l.81,2.5-2.13-1.55h2.63l-2.13,1.55.81-2.5Z"/>
            <path id="s-26" data-name="s" class="cls-2" d="M31.62,13.15l.81,2.5-2.13-1.55h2.63l-2.13,1.55.81-2.5Z"/>
            <path id="s-27" data-name="s" class="cls-2" d="M31.62,18l.81,2.5-2.13-1.55h2.63l-2.13,1.55.81-2.5Z"/>
          </g>
        </g>
        <g id="s9-4" data-name="s9">
          <g id="s5-4" data-name="s5">
            <g id="s4-7" data-name="s4">
              <path id="s-28" data-name="s" class="cls-2" d="M34.47,1.04l.81,2.5-2.13-1.55h2.63l-2.13,1.55.81-2.5Z"/>
              <path id="s-29" data-name="s" class="cls-2" d="M34.47,5.88l.81,2.5-2.13-1.55h2.63l-2.13,1.55.81-2.5Z"/>
              <path id="s-30" data-name="s" class="cls-2" d="M34.47,10.73l.81,2.5-2.13-1.55h2.63l-2.13,1.55.81-2.5Z"/>
              <path id="s-31" data-name="s" class="cls-2" d="M34.47,15.58l.81,2.5-2.13-1.55h2.63l-2.13,1.55.81-2.5Z"/>
            </g>
            <path id="s-32" data-name="s" class="cls-2" d="M34.47,20.42l.81,2.5-2.13-1.55h2.63l-2.13,1.55.81-2.5Z"/>
          </g>
          <g id="s4-8" data-name="s4">
            <path id="s-33" data-name="s" class="cls-2" d="M37.32,3.46l.81,2.5-2.13-1.55h2.63l-2.13,1.55.81-2.5Z"/>
            <path id="s-34" data-name="s" class="cls-2" d="M37.32,8.31l.81,2.5-2.13-1.55h2.63l-2.13,1.55.81-2.5Z"/>
            <path id="s-35" data-name="s" class="cls-2" d="M37.32,13.15l.81,2.5-2.13-1.55h2.63l-2.13,1.55.81-2.5Z"/>
            <path id="s-36" data-name="s" class="cls-2" d="M37.32,18l.81,2.5-2.13-1.55h2.63l-2.13,1.55.81-2.5Z"/>
          </g>
        </g>
      </g>
      <g id="s9-5" data-name="s9">
        <g id="s5-5" data-name="s5">
          <g id="s4-9" data-name="s4">
            <path id="s-37" data-name="s" class="cls-2" d="M40.17,1.04l.81,2.5-2.13-1.55h2.63l-2.13,1.55.81-2.5Z"/>
            <path id="s-38" data-name="s" class="cls-2" d="M40.17,5.88l.81,2.5-2.13-1.55h2.63l-2.13,1.55.81-2.5Z"/>
            <path id="s-39" data-name="s" class="cls-2" d="M40.17,10.73l.81,2.5-2.13-1.55h2.63l-2.13,1.55.81-2.5Z"/>
            <path id="s-40" data-name="s" class="cls-2" d="M40.17,15.58l.81,2.5-2.13-1.55h2.63l-2.13,1.55.81-2.5Z"/>
          </g>
          <path id="s-41" data-name="s" class="cls-2" d="M40.17,20.42l.81,2.5-2.13-1.55h2.63l-2.13,1.55.81-2.5Z"/>
        </g>
        <g id="s4-10" data-name="s4">
          <path id="s-42" data-name="s" class="cls-2" d="M43.02,3.46l.81,2.5-2.13-1.55h2.63l-2.13,1.55.81-2.5Z"/>
          <path id="s-43" data-name="s" class="cls-2" d="M43.02,8.31l.81,2.5-2.13-1.55h2.63l-2.13,1.55.81-2.5Z"/>
          <path id="s-44" data-name="s" class="cls-2" d="M43.02,13.15l.81,2.5-2.13-1.55h2.63l-2.13,1.55.81-2.5Z"/>
          <path id="s-45" data-name="s" class="cls-2" d="M43.02,18l.81,2.5-2.13-1.55h2.63l-2.13,1.55.81-2.5Z"/>
        </g>
      </g>
      <g id="s5-6" data-name="s5">
        <g id="s4-11" data-name="s4">
          <path id="s-46" data-name="s" class="cls-2" d="M45.87,1.04l.81,2.5-2.13-1.55h2.63l-2.13,1.55.81-2.5Z"/>
          <path id="s-47" data-name="s" class="cls-2" d="M45.87,5.88l.81,2.5-2.13-1.55h2.63l-2.13,1.55.81-2.5Z"/>
          <path id="s-48" data-name="s" class="cls-2" d="M45.87,10.73l.81,2.5-2.13-1.55h2.63l-2.13,1.55.81-2.5Z"/>
          <path id="s-49" data-name="s" class="cls-2" d="M45.87,15.58l.81,2.5-2.13-1.55h2.63l-2.13,1.55.81-2.5Z"/>
        </g>
        <path id="s-50" data-name="s" class="cls-2" d="M45.87,20.42l.81,2.5-2.13-1.55h2.63l-2.13,1.55.81-2.5Z"/>
      </g>
    </g>
  </g>
</svg>